<?xml version="1.0" encoding="us-ascii" standalone="no"?><svg xmlns="http://www.w3.org/2000/svg" xmlns:xlink="http://www.w3.org/1999/xlink" contentStyleType="text/css" height="1293px" preserveAspectRatio="none" style="width:719px;height:1293px;background:#1B1B1B;" version="1.1" viewBox="0 0 719 1293" width="719px" zoomAndPan="magnify"><defs/><g><rect fill="#1B1B1B" height="1293" style="stroke:none;stroke-width:1.0;" width="719" x="0" y="0"/><text fill="#FFFFFF" font-family="sans-serif" font-size="14" font-weight="bold" lengthAdjust="spacing" textLength="245" x="238.25" y="27.9951">&#1059;&#1087;&#1088;&#1072;&#1074;&#1083;&#1077;&#1085;&#1080;&#1077; &#1091;&#1095;&#1077;&#1090;&#1085;&#1086;&#1081; &#1079;&#1072;&#1087;&#1080;&#1089;&#1100;&#1102;</text><rect fill="none" height="61.0703" style="stroke:#FFFFFF;stroke-width:1.5;" width="441.5" x="10" y="397.7891"/><rect fill="none" height="337.5938" style="stroke:#FFFFFF;stroke-width:1.5;" width="702.5" x="10" y="472.8594"/><rect fill="none" height="121.3359" style="stroke:#FFFFFF;stroke-width:1.5;" width="308" x="404.5" y="853.5859"/><rect fill="none" height="148.4688" style="stroke:#FFFFFF;stroke-width:1.5;" width="702.5" x="10" y="1047.1875"/><line style="stroke:#E7E7E7;stroke-width:0.5;stroke-dasharray:5.0,5.0;" x1="39" x2="39" y1="118.5938" y2="1212.6563"/><line style="stroke:#E7E7E7;stroke-width:0.5;stroke-dasharray:5.0,5.0;" x1="427.5" x2="427.5" y1="118.5938" y2="1212.6563"/><line style="stroke:#E7E7E7;stroke-width:0.5;stroke-dasharray:5.0,5.0;" x1="682.5" x2="682.5" y1="118.5938" y2="1212.6563"/><text fill="#FFFFFF" font-family="sans-serif" font-size="14" lengthAdjust="spacing" textLength="32" x="20" y="115.292">User</text><ellipse cx="39" cy="50.7969" fill="#222222" rx="8" ry="8" style="stroke:#E7E7E7;stroke-width:0.5;"/><path d="M39,58.7969 L39,85.7969 M26,66.7969 L52,66.7969 M39,85.7969 L26,100.7969 M39,85.7969 L52,100.7969 " fill="none" style="stroke:#E7E7E7;stroke-width:0.5;"/><text fill="#FFFFFF" font-family="sans-serif" font-size="14" lengthAdjust="spacing" textLength="32" x="20" y="1224.6514">User</text><ellipse cx="39" cy="1236.4531" fill="#222222" rx="8" ry="8" style="stroke:#E7E7E7;stroke-width:0.5;"/><path d="M39,1244.4531 L39,1271.4531 M26,1252.4531 L52,1252.4531 M39,1271.4531 L26,1286.4531 M39,1271.4531 L52,1286.4531 " fill="none" style="stroke:#E7E7E7;stroke-width:0.5;"/><rect fill="#222222" height="30.2969" rx="2.5" ry="2.5" style="stroke:#E7E7E7;stroke-width:0.5;" width="27" x="414.5" y="87.2969"/><text fill="#FFFFFF" font-family="sans-serif" font-size="14" lengthAdjust="spacing" textLength="13" x="421.5" y="107.292">UI</text><rect fill="#222222" height="30.2969" rx="2.5" ry="2.5" style="stroke:#E7E7E7;stroke-width:0.5;" width="27" x="414.5" y="1211.6563"/><text fill="#FFFFFF" font-family="sans-serif" font-size="14" lengthAdjust="spacing" textLength="13" x="421.5" y="1231.6514">UI</text><text fill="#FFFFFF" font-family="sans-serif" font-size="14" lengthAdjust="spacing" textLength="33" x="663.5" y="115.292">back</text><path d="M665,66.2969 C665,56.2969 683,56.2969 683,56.2969 C683,56.2969 701,56.2969 701,66.2969 L701,92.2969 C701,102.2969 683,102.2969 683,102.2969 C683,102.2969 665,102.2969 665,92.2969 L665,66.2969 " fill="#222222" style="stroke:#E7E7E7;stroke-width:1.5;"/><path d="M665,66.2969 C665,76.2969 683,76.2969 683,76.2969 C683,76.2969 701,76.2969 701,66.2969 " fill="none" style="stroke:#E7E7E7;stroke-width:1.5;"/><text fill="#FFFFFF" font-family="sans-serif" font-size="14" lengthAdjust="spacing" textLength="33" x="663.5" y="1224.6514">back</text><path d="M665,1237.9531 C665,1227.9531 683,1227.9531 683,1227.9531 C683,1227.9531 701,1227.9531 701,1237.9531 L701,1263.9531 C701,1273.9531 683,1273.9531 683,1273.9531 C683,1273.9531 665,1273.9531 665,1263.9531 L665,1237.9531 " fill="#222222" style="stroke:#E7E7E7;stroke-width:1.5;"/><path d="M665,1237.9531 C665,1247.9531 683,1247.9531 683,1247.9531 C683,1247.9531 701,1247.9531 701,1237.9531 " fill="none" style="stroke:#E7E7E7;stroke-width:1.5;"/><polygon fill="#E7E7E7" points="416,145.7266,426,149.7266,416,153.7266,420,149.7266" style="stroke:#E7E7E7;stroke-width:1.0;"/><line style="stroke:#E7E7E7;stroke-width:1.0;" x1="39" x2="422" y1="149.7266" y2="149.7266"/><text fill="#FFFFFF" font-family="sans-serif" font-size="13" font-weight="bold" lengthAdjust="spacing" textLength="37" x="46" y="144.6606">1.1.1</text><text fill="#FFFFFF" font-family="sans-serif" font-size="13" lengthAdjust="spacing" textLength="144" x="87" y="144.6606">&#1047;&#1072;&#1088;&#1077;&#1075;&#1080;&#1089;&#1090;&#1088;&#1080;&#1088;&#1086;&#1074;&#1072;&#1090;&#1100;&#1089;&#1103;</text><polygon fill="#E7E7E7" points="50,174.8594,40,178.8594,50,182.8594,46,178.8594" style="stroke:#E7E7E7;stroke-width:1.0;"/><line style="stroke:#E7E7E7;stroke-width:1.0;stroke-dasharray:2.0,2.0;" x1="44" x2="427" y1="178.8594" y2="178.8594"/><text fill="#FFFFFF" font-family="sans-serif" font-size="13" font-weight="bold" lengthAdjust="spacing" textLength="37" x="56" y="173.7935">1.1.2</text><text fill="#FFFFFF" font-family="sans-serif" font-size="13" lengthAdjust="spacing" textLength="246" x="97" y="173.7935">&#1054;&#1090;&#1086;&#1073;&#1088;&#1072;&#1078;&#1077;&#1085;&#1080;&#1077; &#1087;&#1086;&#1083;&#1077;&#1081; email, password</text><polygon fill="#E7E7E7" points="416,203.9922,426,207.9922,416,211.9922,420,207.9922" style="stroke:#E7E7E7;stroke-width:1.0;"/><line style="stroke:#E7E7E7;stroke-width:1.0;" x1="39" x2="422" y1="207.9922" y2="207.9922"/><text fill="#FFFFFF" font-family="sans-serif" font-size="13" font-weight="bold" lengthAdjust="spacing" textLength="37" x="46" y="202.9263">1.1.3</text><text fill="#FFFFFF" font-family="sans-serif" font-size="13" lengthAdjust="spacing" textLength="324" x="87" y="202.9263">&#1042;&#1074;&#1077;&#1089;&#1090;&#1080; &#1076;&#1072;&#1085;&#1085;&#1099;&#1077;, &#1085;&#1072;&#1078;&#1072;&#1090;&#1100; "&#1047;&#1072;&#1088;&#1077;&#1075;&#1080;&#1089;&#1090;&#1088;&#1080;&#1088;&#1086;&#1074;&#1072;&#1090;&#1100;&#1089;&#1103;"</text><polygon fill="#E7E7E7" points="671,233.125,681,237.125,671,241.125,675,237.125" style="stroke:#E7E7E7;stroke-width:1.0;"/><line style="stroke:#E7E7E7;stroke-width:1.0;" x1="428" x2="677" y1="237.125" y2="237.125"/><text fill="#FFFFFF" font-family="sans-serif" font-size="13" font-weight="bold" lengthAdjust="spacing" textLength="37" x="435" y="232.0591">1.1.4</text><text fill="#FFFFFF" font-family="sans-serif" font-size="13" lengthAdjust="spacing" textLength="91" x="476" y="232.0591">POST /register</text><polygon fill="#E7E7E7" points="439,262.2578,429,266.2578,439,270.2578,435,266.2578" style="stroke:#E7E7E7;stroke-width:1.0;"/><line style="stroke:#E7E7E7;stroke-width:1.0;stroke-dasharray:2.0,2.0;" x1="433" x2="682" y1="266.2578" y2="266.2578"/><text fill="#FFFFFF" font-family="sans-serif" font-size="13" font-weight="bold" lengthAdjust="spacing" textLength="37" x="445" y="261.1919">1.1.5</text><text fill="#FFFFFF" font-family="sans-serif" font-size="13" lengthAdjust="spacing" textLength="79" x="486" y="261.1919">201 Created</text><polygon fill="#E7E7E7" points="50,291.3906,40,295.3906,50,299.3906,46,295.3906" style="stroke:#E7E7E7;stroke-width:1.0;"/><line style="stroke:#E7E7E7;stroke-width:1.0;stroke-dasharray:2.0,2.0;" x1="44" x2="427" y1="295.3906" y2="295.3906"/><text fill="#FFFFFF" font-family="sans-serif" font-size="13" font-weight="bold" lengthAdjust="spacing" textLength="37" x="56" y="290.3247">1.1.6</text><text fill="#FFFFFF" font-family="sans-serif" font-size="13" lengthAdjust="spacing" textLength="171" x="97" y="290.3247">&#1054;&#1090;&#1086;&#1073;&#1088;&#1072;&#1079;&#1080;&#1090;&#1100; &#1101;&#1082;&#1088;&#1072;&#1085; &#1074;&#1093;&#1086;&#1076;&#1072;</text><polygon fill="#E7E7E7" points="416,320.5234,426,324.5234,416,328.5234,420,324.5234" style="stroke:#E7E7E7;stroke-width:1.0;"/><line style="stroke:#E7E7E7;stroke-width:1.0;" x1="39" x2="422" y1="324.5234" y2="324.5234"/><text fill="#FFFFFF" font-family="sans-serif" font-size="13" font-weight="bold" lengthAdjust="spacing" textLength="37" x="46" y="319.4575">1.2.1</text><text fill="#FFFFFF" font-family="sans-serif" font-size="13" lengthAdjust="spacing" textLength="230" x="87" y="319.4575">&#1042;&#1077;&#1077;&#1089;&#1090;&#1080; &#1076;&#1072;&#1085;&#1085;&#1099;&#1077; &#1080; &#1085;&#1072;&#1078;&#1072;&#1090;&#1100; "&#1042;&#1086;&#1081;&#1090;&#1080;"</text><polygon fill="#E7E7E7" points="671,349.6563,681,353.6563,671,357.6563,675,353.6563" style="stroke:#E7E7E7;stroke-width:1.0;"/><line style="stroke:#E7E7E7;stroke-width:1.0;" x1="428" x2="677" y1="353.6563" y2="353.6563"/><text fill="#FFFFFF" font-family="sans-serif" font-size="13" font-weight="bold" lengthAdjust="spacing" textLength="37" x="435" y="348.5903">1.2.2</text><text fill="#FFFFFF" font-family="sans-serif" font-size="13" lengthAdjust="spacing" textLength="78" x="476" y="348.5903">POST /token</text><polygon fill="#E7E7E7" points="439,378.7891,429,382.7891,439,386.7891,435,382.7891" style="stroke:#E7E7E7;stroke-width:1.0;"/><line style="stroke:#E7E7E7;stroke-width:1.0;stroke-dasharray:2.0,2.0;" x1="433" x2="682" y1="382.7891" y2="382.7891"/><text fill="#FFFFFF" font-family="sans-serif" font-size="13" font-weight="bold" lengthAdjust="spacing" textLength="37" x="445" y="377.7231">1.2.3</text><text fill="#FFFFFF" font-family="sans-serif" font-size="13" lengthAdjust="spacing" textLength="46" x="486" y="377.7231">200 OK</text><path d="M10,397.7891 L74,397.7891 L74,404.9219 L64,414.9219 L10,414.9219 L10,397.7891 " fill="#555555" style="stroke:#FFFFFF;stroke-width:1.5;"/><rect fill="none" height="61.0703" style="stroke:#FFFFFF;stroke-width:1.5;" width="441.5" x="10" y="397.7891"/><text fill="#FFFFFF" font-family="sans-serif" font-size="13" font-weight="bold" lengthAdjust="spacing" textLength="19" x="25" y="410.856">alt</text><text fill="#FFFFFF" font-family="sans-serif" font-size="11" font-weight="bold" lengthAdjust="spacing" textLength="76" x="89" y="409.9995">[case 2.1.1]</text><line style="stroke:#FFFFFF;stroke-width:1.0;stroke-dasharray:2.0,2.0;" x1="10" x2="451.5" y1="415.9219" y2="415.9219"/><text fill="#FFFFFF" font-family="sans-serif" font-size="11" font-weight="bold" lengthAdjust="spacing" textLength="92" x="15" y="426.1323">[&#1072;&#1074;&#1090;&#1086;&#1088;&#1080;&#1079;&#1072;&#1094;&#1080;&#1103;]</text><polygon fill="#E7E7E7" points="50,446.8594,40,450.8594,50,454.8594,46,450.8594" style="stroke:#E7E7E7;stroke-width:1.0;"/><line style="stroke:#E7E7E7;stroke-width:1.0;stroke-dasharray:2.0,2.0;" x1="44" x2="427" y1="450.8594" y2="450.8594"/><text fill="#FFFFFF" font-family="sans-serif" font-size="13" font-weight="bold" lengthAdjust="spacing" textLength="37" x="56" y="445.7935">1.2.4</text><text fill="#FFFFFF" font-family="sans-serif" font-size="13" lengthAdjust="spacing" textLength="225" x="97" y="445.7935">&#1054;&#1090;&#1086;&#1073;&#1088;&#1072;&#1078;&#1077;&#1085;&#1080;&#1077; &#1075;&#1083;&#1072;&#1074;&#1085;&#1086;&#1081; &#1089;&#1090;&#1088;&#1072;&#1085;&#1080;&#1094;&#1099;</text><path d="M10,472.8594 L80,472.8594 L80,479.9922 L70,489.9922 L10,489.9922 L10,472.8594 " fill="#555555" style="stroke:#FFFFFF;stroke-width:1.5;"/><rect fill="none" height="337.5938" style="stroke:#FFFFFF;stroke-width:1.5;" width="702.5" x="10" y="472.8594"/><text fill="#FFFFFF" font-family="sans-serif" font-size="13" font-weight="bold" lengthAdjust="spacing" textLength="25" x="25" y="485.9263">opt</text><polygon fill="#E7E7E7" points="416,507.125,426,511.125,416,515.125,420,511.125" style="stroke:#E7E7E7;stroke-width:1.0;"/><line style="stroke:#E7E7E7;stroke-width:1.0;" x1="39" x2="422" y1="511.125" y2="511.125"/><text fill="#FFFFFF" font-family="sans-serif" font-size="13" font-weight="bold" lengthAdjust="spacing" textLength="37" x="46" y="506.0591">1.3.1</text><text fill="#FFFFFF" font-family="sans-serif" font-size="13" lengthAdjust="spacing" textLength="187" x="87" y="506.0591">&#1053;&#1072;&#1078;&#1072;&#1090;&#1100; "&#1053;&#1077; &#1087;&#1086;&#1084;&#1085;&#1102; &#1087;&#1072;&#1088;&#1086;&#1083;&#1100;"</text><polygon fill="#E7E7E7" points="50,536.2578,40,540.2578,50,544.2578,46,540.2578" style="stroke:#E7E7E7;stroke-width:1.0;"/><line style="stroke:#E7E7E7;stroke-width:1.0;stroke-dasharray:2.0,2.0;" x1="44" x2="427" y1="540.2578" y2="540.2578"/><text fill="#FFFFFF" font-family="sans-serif" font-size="13" font-weight="bold" lengthAdjust="spacing" textLength="37" x="56" y="535.1919">1.3.2</text><text fill="#FFFFFF" font-family="sans-serif" font-size="13" lengthAdjust="spacing" textLength="170" x="97" y="535.1919">&#1054;&#1090;&#1086;&#1073;&#1088;&#1072;&#1078;&#1077;&#1085;&#1080;&#1077; &#1087;&#1086;&#1083;&#1103; email</text><polygon fill="#E7E7E7" points="416,565.3906,426,569.3906,416,573.3906,420,569.3906" style="stroke:#E7E7E7;stroke-width:1.0;"/><line style="stroke:#E7E7E7;stroke-width:1.0;" x1="39" x2="422" y1="569.3906" y2="569.3906"/><text fill="#FFFFFF" font-family="sans-serif" font-size="13" font-weight="bold" lengthAdjust="spacing" textLength="37" x="46" y="564.3247">1.3.3</text><text fill="#FFFFFF" font-family="sans-serif" font-size="13" lengthAdjust="spacing" textLength="273" x="87" y="564.3247">&#1042;&#1074;&#1077;&#1089;&#1090;&#1080;, &#1085;&#1072;&#1078;&#1072;&#1090;&#1100; "&#1042;&#1086;&#1089;&#1089;&#1090;&#1072;&#1085;&#1086;&#1074;&#1080;&#1090;&#1100; &#1087;&#1072;&#1088;&#1086;&#1083;&#1100;"</text><polygon fill="#E7E7E7" points="671,594.5234,681,598.5234,671,602.5234,675,598.5234" style="stroke:#E7E7E7;stroke-width:1.0;"/><line style="stroke:#E7E7E7;stroke-width:1.0;" x1="428" x2="677" y1="598.5234" y2="598.5234"/><text fill="#FFFFFF" font-family="sans-serif" font-size="13" font-weight="bold" lengthAdjust="spacing" textLength="37" x="435" y="593.4575">1.3.4</text><text fill="#FFFFFF" font-family="sans-serif" font-size="13" lengthAdjust="spacing" textLength="142" x="476" y="593.4575">POST /password_reset</text><polygon fill="#E7E7E7" points="439,623.6563,429,627.6563,439,631.6563,435,627.6563" style="stroke:#E7E7E7;stroke-width:1.0;"/><line style="stroke:#E7E7E7;stroke-width:1.0;stroke-dasharray:2.0,2.0;" x1="433" x2="682" y1="627.6563" y2="627.6563"/><text fill="#FFFFFF" font-family="sans-serif" font-size="13" font-weight="bold" lengthAdjust="spacing" textLength="37" x="445" y="622.5903">1.3.5</text><text fill="#FFFFFF" font-family="sans-serif" font-size="13" lengthAdjust="spacing" textLength="46" x="486" y="622.5903">200 OK</text><polygon fill="#E7E7E7" points="50,652.7891,40,656.7891,50,660.7891,46,656.7891" style="stroke:#E7E7E7;stroke-width:1.0;"/><line style="stroke:#E7E7E7;stroke-width:1.0;stroke-dasharray:2.0,2.0;" x1="44" x2="427" y1="656.7891" y2="656.7891"/><text fill="#FFFFFF" font-family="sans-serif" font-size="13" font-weight="bold" lengthAdjust="spacing" textLength="37" x="56" y="651.7231">1.3.6</text><text fill="#FFFFFF" font-family="sans-serif" font-size="13" lengthAdjust="spacing" textLength="177" x="97" y="651.7231">&#1060;&#1086;&#1088;&#1084;&#1072; &#1076;&#1083;&#1103; &#1085;&#1086;&#1074;&#1086;&#1075;&#1086; &#1087;&#1072;&#1088;&#1086;&#1083;&#1103;</text><polygon fill="#E7E7E7" points="416,681.9219,426,685.9219,416,689.9219,420,685.9219" style="stroke:#E7E7E7;stroke-width:1.0;"/><line style="stroke:#E7E7E7;stroke-width:1.0;" x1="39" x2="422" y1="685.9219" y2="685.9219"/><text fill="#FFFFFF" font-family="sans-serif" font-size="13" font-weight="bold" lengthAdjust="spacing" textLength="37" x="46" y="680.856">1.3.7</text><text fill="#FFFFFF" font-family="sans-serif" font-size="13" lengthAdjust="spacing" textLength="147" x="87" y="680.856">&#1042;&#1074;&#1077;&#1089;&#1090;&#1080; &#1085;&#1086;&#1074;&#1099;&#1081; &#1087;&#1072;&#1088;&#1086;&#1083;&#1100;</text><polygon fill="#E7E7E7" points="416,711.0547,426,715.0547,416,719.0547,420,715.0547" style="stroke:#E7E7E7;stroke-width:1.0;"/><line style="stroke:#E7E7E7;stroke-width:1.0;" x1="39" x2="422" y1="715.0547" y2="715.0547"/><text fill="#FFFFFF" font-family="sans-serif" font-size="13" font-weight="bold" lengthAdjust="spacing" textLength="37" x="46" y="709.9888">1.3.8</text><text fill="#FFFFFF" font-family="sans-serif" font-size="13" lengthAdjust="spacing" textLength="247" x="87" y="709.9888">&#1053;&#1072;&#1078;&#1072;&#1090;&#1100; "&#1059;&#1089;&#1090;&#1072;&#1085;&#1086;&#1074;&#1080;&#1090;&#1100; &#1085;&#1086;&#1074;&#1099;&#1081; &#1087;&#1072;&#1088;&#1086;&#1083;&#1100;"</text><polygon fill="#E7E7E7" points="671,740.1875,681,744.1875,671,748.1875,675,744.1875" style="stroke:#E7E7E7;stroke-width:1.0;"/><line style="stroke:#E7E7E7;stroke-width:1.0;" x1="428" x2="677" y1="744.1875" y2="744.1875"/><text fill="#FFFFFF" font-family="sans-serif" font-size="13" font-weight="bold" lengthAdjust="spacing" textLength="37" x="435" y="739.1216">1.3.9</text><text fill="#FFFFFF" font-family="sans-serif" font-size="13" lengthAdjust="spacing" textLength="190" x="476" y="739.1216">POST /password_resetconfirm</text><polygon fill="#E7E7E7" points="439,769.3203,429,773.3203,439,777.3203,435,773.3203" style="stroke:#E7E7E7;stroke-width:1.0;"/><line style="stroke:#E7E7E7;stroke-width:1.0;stroke-dasharray:2.0,2.0;" x1="433" x2="682" y1="773.3203" y2="773.3203"/><text fill="#FFFFFF" font-family="sans-serif" font-size="13" font-weight="bold" lengthAdjust="spacing" textLength="46" x="445" y="768.2544">1.3.10</text><text fill="#FFFFFF" font-family="sans-serif" font-size="13" lengthAdjust="spacing" textLength="46" x="495" y="768.2544">200 OK</text><polygon fill="#E7E7E7" points="50,798.4531,40,802.4531,50,806.4531,46,802.4531" style="stroke:#E7E7E7;stroke-width:1.0;"/><line style="stroke:#E7E7E7;stroke-width:1.0;stroke-dasharray:2.0,2.0;" x1="44" x2="427" y1="802.4531" y2="802.4531"/><text fill="#FFFFFF" font-family="sans-serif" font-size="13" font-weight="bold" lengthAdjust="spacing" textLength="46" x="56" y="797.3872">1.3.11</text><text fill="#FFFFFF" font-family="sans-serif" font-size="13" lengthAdjust="spacing" textLength="171" x="106" y="797.3872">&#1054;&#1090;&#1086;&#1073;&#1088;&#1072;&#1079;&#1080;&#1090;&#1100; &#1101;&#1082;&#1088;&#1072;&#1085; &#1074;&#1093;&#1086;&#1076;&#1072;</text><polygon fill="#E7E7E7" points="671,834.5859,681,838.5859,671,842.5859,675,838.5859" style="stroke:#E7E7E7;stroke-width:1.0;"/><line style="stroke:#E7E7E7;stroke-width:1.0;" x1="428" x2="677" y1="838.5859" y2="838.5859"/><text fill="#FFFFFF" font-family="sans-serif" font-size="13" font-weight="bold" lengthAdjust="spacing" textLength="37" x="435" y="833.52">1.3.1</text><text fill="#FFFFFF" font-family="sans-serif" font-size="13" lengthAdjust="spacing" textLength="127" x="476" y="833.52">POST /token/refresh</text><path d="M404.5,853.5859 L468.5,853.5859 L468.5,860.7188 L458.5,870.7188 L404.5,870.7188 L404.5,853.5859 " fill="#555555" style="stroke:#FFFFFF;stroke-width:1.5;"/><rect fill="none" height="121.3359" style="stroke:#FFFFFF;stroke-width:1.5;" width="308" x="404.5" y="853.5859"/><text fill="#FFFFFF" font-family="sans-serif" font-size="13" font-weight="bold" lengthAdjust="spacing" textLength="19" x="419.5" y="866.6528">alt</text><text fill="#FFFFFF" font-family="sans-serif" font-size="11" font-weight="bold" lengthAdjust="spacing" textLength="120" x="483.5" y="865.7964">[succesful update]</text><polygon fill="#E7E7E7" points="439,887.8516,429,891.8516,439,895.8516,435,891.8516" style="stroke:#E7E7E7;stroke-width:1.0;"/><line style="stroke:#E7E7E7;stroke-width:1.0;stroke-dasharray:2.0,2.0;" x1="433" x2="682" y1="891.8516" y2="891.8516"/><text fill="#FFFFFF" font-family="sans-serif" font-size="13" font-weight="bold" lengthAdjust="spacing" textLength="37" x="445" y="886.7856">1.3.2</text><text fill="#FFFFFF" font-family="sans-serif" font-size="13" lengthAdjust="spacing" textLength="46" x="486" y="886.7856">200 OK</text><line style="stroke:#FFFFFF;stroke-width:1.0;stroke-dasharray:2.0,2.0;" x1="404.5" x2="712.5" y1="900.8516" y2="900.8516"/><text fill="#FFFFFF" font-family="sans-serif" font-size="11" font-weight="bold" lengthAdjust="spacing" textLength="41" x="409.5" y="911.062">[error]</text><polygon fill="#E7E7E7" points="439,931.7891,429,935.7891,439,939.7891,435,935.7891" style="stroke:#E7E7E7;stroke-width:1.0;"/><line style="stroke:#E7E7E7;stroke-width:1.0;stroke-dasharray:2.0,2.0;" x1="433" x2="682" y1="935.7891" y2="935.7891"/><text fill="#FFFFFF" font-family="sans-serif" font-size="13" font-weight="bold" lengthAdjust="spacing" textLength="37" x="445" y="930.7231">1.3.3</text><text fill="#FFFFFF" font-family="sans-serif" font-size="13" lengthAdjust="spacing" textLength="106" x="486" y="930.7231">400 Bad request</text><line style="stroke:#FFFFFF;stroke-width:1.0;stroke-dasharray:2.0,2.0;" x1="404.5" x2="712.5" y1="944.7891" y2="944.7891"/><polygon fill="#E7E7E7" points="439,962.9219,429,966.9219,439,970.9219,435,966.9219" style="stroke:#E7E7E7;stroke-width:1.0;"/><line style="stroke:#E7E7E7;stroke-width:1.0;stroke-dasharray:2.0,2.0;" x1="433" x2="682" y1="966.9219" y2="966.9219"/><text fill="#FFFFFF" font-family="sans-serif" font-size="13" font-weight="bold" lengthAdjust="spacing" textLength="37" x="445" y="961.856">1.3.4</text><text fill="#FFFFFF" font-family="sans-serif" font-size="13" lengthAdjust="spacing" textLength="106" x="486" y="961.856">401 Unathorized</text><polygon fill="#E7E7E7" points="416,999.0547,426,1003.0547,416,1007.0547,420,1003.0547" style="stroke:#E7E7E7;stroke-width:1.0;"/><line style="stroke:#E7E7E7;stroke-width:1.0;" x1="39" x2="422" y1="1003.0547" y2="1003.0547"/><text fill="#FFFFFF" font-family="sans-serif" font-size="13" font-weight="bold" lengthAdjust="spacing" textLength="37" x="46" y="997.9888">1.3.1</text><text fill="#FFFFFF" font-family="sans-serif" font-size="13" lengthAdjust="spacing" textLength="44" x="87" y="997.9888">&#1042;&#1099;&#1081;&#1090;&#1080;</text><polygon fill="#E7E7E7" points="50,1028.1875,40,1032.1875,50,1036.1875,46,1032.1875" style="stroke:#E7E7E7;stroke-width:1.0;"/><line style="stroke:#E7E7E7;stroke-width:1.0;stroke-dasharray:2.0,2.0;" x1="44" x2="427" y1="1032.1875" y2="1032.1875"/><text fill="#FFFFFF" font-family="sans-serif" font-size="13" font-weight="bold" lengthAdjust="spacing" textLength="37" x="56" y="1027.1216">1.3.2</text><text fill="#FFFFFF" font-family="sans-serif" font-size="13" lengthAdjust="spacing" textLength="184" x="97" y="1027.1216">&#1055;&#1086;&#1076;&#1090;&#1074;&#1077;&#1088;&#1078;&#1076;&#1077;&#1085;&#1080;&#1077; &#1076;&#1077;&#1081;&#1089;&#1090;&#1074;&#1080;&#1103;</text><path d="M10,1047.1875 L74,1047.1875 L74,1054.3203 L64,1064.3203 L10,1064.3203 L10,1047.1875 " fill="#555555" style="stroke:#FFFFFF;stroke-width:1.5;"/><rect fill="none" height="148.4688" style="stroke:#FFFFFF;stroke-width:1.5;" width="702.5" x="10" y="1047.1875"/><text fill="#FFFFFF" font-family="sans-serif" font-size="13" font-weight="bold" lengthAdjust="spacing" textLength="19" x="25" y="1060.2544">alt</text><text fill="#FFFFFF" font-family="sans-serif" font-size="11" font-weight="bold" lengthAdjust="spacing" textLength="116" x="89" y="1059.3979">[&#1087;&#1086;&#1076;&#1090;&#1074;&#1077;&#1088;&#1078;&#1076;&#1077;&#1085;&#1080;&#1077;]</text><polygon fill="#E7E7E7" points="416,1081.4531,426,1085.4531,416,1089.4531,420,1085.4531" style="stroke:#E7E7E7;stroke-width:1.0;"/><line style="stroke:#E7E7E7;stroke-width:1.0;" x1="39" x2="422" y1="1085.4531" y2="1085.4531"/><text fill="#FFFFFF" font-family="sans-serif" font-size="13" font-weight="bold" lengthAdjust="spacing" textLength="37" x="46" y="1080.3872">1.3.3</text><text fill="#FFFFFF" font-family="sans-serif" font-size="13" lengthAdjust="spacing" textLength="113" x="87" y="1080.3872">&#1053;&#1072;&#1078;&#1072;&#1090;&#1100; "&#1042;&#1099;&#1081;&#1090;&#1080;"</text><polygon fill="#E7E7E7" points="671,1110.5859,681,1114.5859,671,1118.5859,675,1114.5859" style="stroke:#E7E7E7;stroke-width:1.0;"/><line style="stroke:#E7E7E7;stroke-width:1.0;" x1="428" x2="677" y1="1114.5859" y2="1114.5859"/><text fill="#FFFFFF" font-family="sans-serif" font-size="13" font-weight="bold" lengthAdjust="spacing" textLength="37" x="435" y="1109.52">1.3.4</text><text fill="#FFFFFF" font-family="sans-serif" font-size="13" lengthAdjust="spacing" textLength="89" x="476" y="1109.52">POST /signout</text><polygon fill="#E7E7E7" points="439,1139.7188,429,1143.7188,439,1147.7188,435,1143.7188" style="stroke:#E7E7E7;stroke-width:1.0;"/><line style="stroke:#E7E7E7;stroke-width:1.0;stroke-dasharray:2.0,2.0;" x1="433" x2="682" y1="1143.7188" y2="1143.7188"/><text fill="#FFFFFF" font-family="sans-serif" font-size="13" font-weight="bold" lengthAdjust="spacing" textLength="37" x="445" y="1138.6528">1.3.5</text><text fill="#FFFFFF" font-family="sans-serif" font-size="13" lengthAdjust="spacing" textLength="46" x="486" y="1138.6528">200 OK</text><line style="stroke:#FFFFFF;stroke-width:1.0;stroke-dasharray:2.0,2.0;" x1="10" x2="712.5" y1="1152.7188" y2="1152.7188"/><text fill="#FFFFFF" font-family="sans-serif" font-size="11" font-weight="bold" lengthAdjust="spacing" textLength="57" x="15" y="1162.9292">[&#1086;&#1090;&#1084;&#1077;&#1085;&#1072;]</text><polygon fill="#E7E7E7" points="416,1183.6563,426,1187.6563,416,1191.6563,420,1187.6563" style="stroke:#E7E7E7;stroke-width:1.0;"/><line style="stroke:#E7E7E7;stroke-width:1.0;" x1="39" x2="422" y1="1187.6563" y2="1187.6563"/><text fill="#FFFFFF" font-family="sans-serif" font-size="13" font-weight="bold" lengthAdjust="spacing" textLength="37" x="46" y="1182.5903">1.3.6</text><text fill="#FFFFFF" font-family="sans-serif" font-size="13" lengthAdjust="spacing" textLength="135" x="87" y="1182.5903">&#1053;&#1072;&#1078;&#1072;&#1090;&#1100; "&#1054;&#1089;&#1090;&#1072;&#1090;&#1100;&#1089;&#1103;"</text><!--SRC=[bLHFRzCm5B_dKpprtC5QEEsm0vmc3aE2df6RkbkqDYcE8oHEeuXnM5cbNZXj7CO72Dt2MhPcN-7v6_6UssqakAMegkJOptw_VxOET4S2dkEjESGKntYD6SvmWXcOZ-OpPgPFdpbE0Qze_HOdveCPc1FF4xwE53HYgRoUK3hmWvu8DJHsl9RGeYbY2KtX7r1XegCmwJQbWjeZ-dcy1pQsgNGBy2kcr3d32tjodyOJ-kU49AMl0SqDlSOER70zxQCTPmGfnnyMxyzxj0Gjj-2d8BiYw5IX9-BuNQHQnNuZEZdZJZW1lAGZPZWpnvXLWKPye6qBbNM0LIooRSjp2rxkldeDZvNS2s9Del3a73QrhM_MuBcIGilM2ZPNr8ARco_uoqxC0CVc4wqJq9AGzRAG8yBg8WRyNQGsOaEvq4L0HmSoBAFVXDqNdkXeyDdNkhLHTcZ8cM46B0ydn1mHXpKTko2_E7BpV2r4PjmJSsIEFHcsF2_gwIBl9sNUfmLgftTHk27s9pnChMlNPb3vZnoPuJn5IxDJTMXAAxoMMaBZXPT510wzxsBwHibOQgVmHTpVhTetcBBDZ7JHBoT1yp_x3LSatswXU4mB05SfU-uYvpwcya-QVXIs0zLTW-twzyFcvU-ik0DEzxHDIFPjgEF4zsNSJZgGzEZnaavODkvIgQXqjP_IyZFH0YNV9ZBMjgvSKOD6AFH-f8Btz00i0LhmYZLbfqfgV6EkDCzE7f8vbm-vvU7KUZIsLv29sJ0xwrSvVT_SvMCSx8LHefTBHEdiKpgvJxggozayJmzlASdo6m00]--></g></svg>