<?xml version="1.0" encoding="us-ascii" standalone="no"?><svg xmlns="http://www.w3.org/2000/svg" xmlns:xlink="http://www.w3.org/1999/xlink" contentStyleType="text/css" height="1384px" preserveAspectRatio="none" style="width:668px;height:1384px;background:#1B1B1B;" version="1.1" viewBox="0 0 668 1384" width="668px" zoomAndPan="magnify"><defs/><g><rect fill="#1B1B1B" height="1384" style="stroke:none;stroke-width:1.0;" width="668" x="0" y="0"/><text fill="#FFFFFF" font-family="sans-serif" font-size="14" font-weight="bold" lengthAdjust="spacing" textLength="98" x="286" y="27.9951">&#1044;&#1086;&#1089;&#1082;&#1072; &#1053;&#1072;&#1081;&#1084;</text><rect fill="none" height="181.6016" style="stroke:#FFFFFF;stroke-width:1.5;" width="651" x="10" y="281.2578"/><rect fill="none" height="46.2656" style="stroke:#FFFFFF;stroke-width:1.5;" width="396" x="20" y="334.5234"/><rect fill="none" height="181.6016" style="stroke:#FFFFFF;stroke-width:1.5;" width="651" x="10" y="855.5859"/><rect fill="none" height="46.2656" style="stroke:#FFFFFF;stroke-width:1.5;" width="396" x="20" y="908.8516"/><rect fill="none" height="119.3359" style="stroke:#FFFFFF;stroke-width:1.5;" width="641" x="20" y="1167.7188"/><line style="stroke:#E7E7E7;stroke-width:0.5;stroke-dasharray:5.0,5.0;" x1="48" x2="48" y1="118.5938" y2="1304.0547"/><line style="stroke:#E7E7E7;stroke-width:0.5;stroke-dasharray:5.0,5.0;" x1="392" x2="392" y1="118.5938" y2="1304.0547"/><line style="stroke:#E7E7E7;stroke-width:0.5;stroke-dasharray:5.0,5.0;" x1="630" x2="630" y1="118.5938" y2="1304.0547"/><text fill="#FFFFFF" font-family="sans-serif" font-size="14" lengthAdjust="spacing" textLength="31" x="30" y="115.292">User</text><ellipse cx="48.5" cy="50.7969" fill="#222222" rx="8" ry="8" style="stroke:#E7E7E7;stroke-width:0.5;"/><path d="M48.5,58.7969 L48.5,85.7969 M35.5,66.7969 L61.5,66.7969 M48.5,85.7969 L35.5,100.7969 M48.5,85.7969 L61.5,100.7969 " fill="none" style="stroke:#E7E7E7;stroke-width:0.5;"/><text fill="#FFFFFF" font-family="sans-serif" font-size="14" lengthAdjust="spacing" textLength="31" x="30" y="1316.0498">User</text><ellipse cx="48.5" cy="1327.8516" fill="#222222" rx="8" ry="8" style="stroke:#E7E7E7;stroke-width:0.5;"/><path d="M48.5,1335.8516 L48.5,1362.8516 M35.5,1343.8516 L61.5,1343.8516 M48.5,1362.8516 L35.5,1377.8516 M48.5,1362.8516 L61.5,1377.8516 " fill="none" style="stroke:#E7E7E7;stroke-width:0.5;"/><rect fill="#222222" height="30.2969" rx="2.5" ry="2.5" style="stroke:#E7E7E7;stroke-width:0.5;" width="27" x="379" y="87.2969"/><text fill="#FFFFFF" font-family="sans-serif" font-size="14" lengthAdjust="spacing" textLength="13" x="386" y="107.292">UI</text><rect fill="#222222" height="30.2969" rx="2.5" ry="2.5" style="stroke:#E7E7E7;stroke-width:0.5;" width="27" x="379" y="1303.0547"/><text fill="#FFFFFF" font-family="sans-serif" font-size="14" lengthAdjust="spacing" textLength="13" x="386" y="1323.0498">UI</text><text fill="#FFFFFF" font-family="sans-serif" font-size="14" lengthAdjust="spacing" textLength="35" x="610" y="115.292">back</text><path d="M612.5,66.2969 C612.5,56.2969 630.5,56.2969 630.5,56.2969 C630.5,56.2969 648.5,56.2969 648.5,66.2969 L648.5,92.2969 C648.5,102.2969 630.5,102.2969 630.5,102.2969 C630.5,102.2969 612.5,102.2969 612.5,92.2969 L612.5,66.2969 " fill="#222222" style="stroke:#E7E7E7;stroke-width:1.5;"/><path d="M612.5,66.2969 C612.5,76.2969 630.5,76.2969 630.5,76.2969 C630.5,76.2969 648.5,76.2969 648.5,66.2969 " fill="none" style="stroke:#E7E7E7;stroke-width:1.5;"/><text fill="#FFFFFF" font-family="sans-serif" font-size="14" lengthAdjust="spacing" textLength="35" x="610" y="1316.0498">back</text><path d="M612.5,1329.3516 C612.5,1319.3516 630.5,1319.3516 630.5,1319.3516 C630.5,1319.3516 648.5,1319.3516 648.5,1329.3516 L648.5,1355.3516 C648.5,1365.3516 630.5,1365.3516 630.5,1365.3516 C630.5,1365.3516 612.5,1365.3516 612.5,1355.3516 L612.5,1329.3516 " fill="#222222" style="stroke:#E7E7E7;stroke-width:1.5;"/><path d="M612.5,1329.3516 C612.5,1339.3516 630.5,1339.3516 630.5,1339.3516 C630.5,1339.3516 648.5,1339.3516 648.5,1329.3516 " fill="none" style="stroke:#E7E7E7;stroke-width:1.5;"/><polygon fill="#E7E7E7" points="380.5,145.7266,390.5,149.7266,380.5,153.7266,384.5,149.7266" style="stroke:#E7E7E7;stroke-width:1.0;"/><line style="stroke:#E7E7E7;stroke-width:1.0;" x1="48.5" x2="386.5" y1="149.7266" y2="149.7266"/><text fill="#FFFFFF" font-family="sans-serif" font-size="13" font-weight="bold" lengthAdjust="spacing" textLength="37" x="119.5" y="144.6606">1.9.1</text><text fill="#FFFFFF" font-family="sans-serif" font-size="13" lengthAdjust="spacing" textLength="161" x="160.5" y="144.6606">&#1044;&#1086;&#1073;&#1072;&#1074;&#1080;&#1090;&#1100; &#1085;&#1086;&#1074;&#1099;&#1081; &#1086;&#1090;&#1082;&#1083;&#1080;&#1082;</text><polygon fill="#E7E7E7" points="59.5,174.8594,49.5,178.8594,59.5,182.8594,55.5,178.8594" style="stroke:#E7E7E7;stroke-width:1.0;"/><line style="stroke:#E7E7E7;stroke-width:1.0;stroke-dasharray:2.0,2.0;" x1="53.5" x2="391.5" y1="178.8594" y2="178.8594"/><text fill="#FFFFFF" font-family="sans-serif" font-size="13" font-weight="bold" lengthAdjust="spacing" textLength="37" x="130" y="173.7935">1.9.2</text><text fill="#FFFFFF" font-family="sans-serif" font-size="13" lengthAdjust="spacing" textLength="140" x="171" y="173.7935">&#1060;&#1086;&#1088;&#1084;&#1072; &#1076;&#1083;&#1103; &#1086;&#1090;&#1087;&#1088;&#1072;&#1074;&#1082;&#1080;</text><polygon fill="#E7E7E7" points="380.5,203.9922,390.5,207.9922,380.5,211.9922,384.5,207.9922" style="stroke:#E7E7E7;stroke-width:1.0;"/><line style="stroke:#E7E7E7;stroke-width:1.0;" x1="48.5" x2="386.5" y1="207.9922" y2="207.9922"/><text fill="#FFFFFF" font-family="sans-serif" font-size="13" font-weight="bold" lengthAdjust="spacing" textLength="36" x="137" y="202.9263">1.9.3</text><text fill="#FFFFFF" font-family="sans-serif" font-size="13" lengthAdjust="spacing" textLength="127" x="177" y="202.9263">&#1047;&#1072;&#1087;&#1086;&#1083;&#1085;&#1103;&#1077;&#1090; &#1076;&#1072;&#1085;&#1085;&#1099;&#1077;</text><polygon fill="#E7E7E7" points="380.5,233.125,390.5,237.125,380.5,241.125,384.5,237.125" style="stroke:#E7E7E7;stroke-width:1.0;"/><line style="stroke:#E7E7E7;stroke-width:1.0;" x1="48.5" x2="386.5" y1="237.125" y2="237.125"/><text fill="#FFFFFF" font-family="sans-serif" font-size="13" font-weight="bold" lengthAdjust="spacing" textLength="37" x="124" y="232.0591">1.9.4</text><text fill="#FFFFFF" font-family="sans-serif" font-size="13" lengthAdjust="spacing" textLength="152" x="165" y="232.0591">&#1053;&#1072;&#1078;&#1080;&#1084;&#1072;&#1077;&#1090; "&#1054;&#1090;&#1087;&#1088;&#1072;&#1074;&#1080;&#1090;&#1100;"</text><polygon fill="#E7E7E7" points="618.5,262.2578,628.5,266.2578,618.5,270.2578,622.5,266.2578" style="stroke:#E7E7E7;stroke-width:1.0;"/><line style="stroke:#E7E7E7;stroke-width:1.0;" x1="392.5" x2="624.5" y1="266.2578" y2="266.2578"/><text fill="#FFFFFF" font-family="sans-serif" font-size="13" font-weight="bold" lengthAdjust="spacing" textLength="37" x="438" y="261.1919">1.9.5</text><text fill="#FFFFFF" font-family="sans-serif" font-size="13" lengthAdjust="spacing" textLength="106" x="479" y="261.1919">POST /vacancies</text><path d="M10,281.2578 L76,281.2578 L76,288.3906 L66,298.3906 L10,298.3906 L10,281.2578 " fill="#555555" style="stroke:#FFFFFF;stroke-width:1.5;"/><rect fill="none" height="181.6016" style="stroke:#FFFFFF;stroke-width:1.5;" width="651" x="10" y="281.2578"/><text fill="#FFFFFF" font-family="sans-serif" font-size="13" font-weight="bold" lengthAdjust="spacing" textLength="21" x="25" y="294.3247">alt</text><text fill="#FFFFFF" font-family="sans-serif" font-size="11" font-weight="bold" lengthAdjust="spacing" textLength="114" x="91" y="293.4683">[successful case]</text><polygon fill="#E7E7E7" points="403.5,315.5234,393.5,319.5234,403.5,323.5234,399.5,319.5234" style="stroke:#E7E7E7;stroke-width:1.0;"/><line style="stroke:#E7E7E7;stroke-width:1.0;stroke-dasharray:2.0,2.0;" x1="397.5" x2="629.5" y1="319.5234" y2="319.5234"/><text fill="#FFFFFF" font-family="sans-serif" font-size="13" font-weight="bold" lengthAdjust="spacing" textLength="37" x="451.5" y="314.4575">1.9.6</text><text fill="#FFFFFF" font-family="sans-serif" font-size="13" lengthAdjust="spacing" textLength="79" x="492.5" y="314.4575">201 Created</text><path d="M20,334.5234 L92,334.5234 L92,341.6563 L82,351.6563 L20,351.6563 L20,334.5234 " fill="#555555" style="stroke:#FFFFFF;stroke-width:1.5;"/><rect fill="none" height="46.2656" style="stroke:#FFFFFF;stroke-width:1.5;" width="396" x="20" y="334.5234"/><text fill="#FFFFFF" font-family="sans-serif" font-size="13" font-weight="bold" lengthAdjust="spacing" textLength="27" x="35" y="347.5903">opt</text><polygon fill="#E7E7E7" points="59.5,368.7891,49.5,372.7891,59.5,376.7891,55.5,372.7891" style="stroke:#E7E7E7;stroke-width:1.0;"/><line style="stroke:#E7E7E7;stroke-width:1.0;stroke-dasharray:2.0,2.0;" x1="53.5" x2="391.5" y1="372.7891" y2="372.7891"/><text fill="#FFFFFF" font-family="sans-serif" font-size="13" font-weight="bold" lengthAdjust="spacing" textLength="37" x="65" y="367.7231">1.9.7</text><text fill="#FFFFFF" font-family="sans-serif" font-size="13" lengthAdjust="spacing" textLength="270" x="106" y="367.7231">push-&#1091;&#1074;&#1077;&#1076;&#1086;&#1084;&#1083;&#1077;&#1085;&#1080;&#1077; &#1086; &#1085;&#1086;&#1074;&#1086;&#1084; &#1076;&#1086;&#1089;&#1090;&#1080;&#1078;&#1077;&#1085;&#1080;&#1080;</text><line style="stroke:#FFFFFF;stroke-width:1.0;stroke-dasharray:2.0,2.0;" x1="10" x2="661" y1="388.7891" y2="388.7891"/><text fill="#FFFFFF" font-family="sans-serif" font-size="11" font-weight="bold" lengthAdjust="spacing" textLength="64" x="15" y="398.9995">[&#1086;&#1096;&#1080;&#1073;&#1082;&#1072;]</text><polygon fill="#E7E7E7" points="403.5,419.7266,393.5,423.7266,403.5,427.7266,399.5,423.7266" style="stroke:#E7E7E7;stroke-width:1.0;"/><line style="stroke:#E7E7E7;stroke-width:1.0;stroke-dasharray:2.0,2.0;" x1="397.5" x2="629.5" y1="423.7266" y2="423.7266"/><text fill="#FFFFFF" font-family="sans-serif" font-size="13" font-weight="bold" lengthAdjust="spacing" textLength="37" x="438.5" y="418.6606">1.9.8</text><text fill="#FFFFFF" font-family="sans-serif" font-size="13" lengthAdjust="spacing" textLength="105" x="479.5" y="418.6606">400 Bad request</text><line style="stroke:#FFFFFF;stroke-width:1.0;stroke-dasharray:2.0,2.0;" x1="10" x2="661" y1="432.7266" y2="432.7266"/><polygon fill="#E7E7E7" points="403.5,450.8594,393.5,454.8594,403.5,458.8594,399.5,454.8594" style="stroke:#E7E7E7;stroke-width:1.0;"/><line style="stroke:#E7E7E7;stroke-width:1.0;stroke-dasharray:2.0,2.0;" x1="397.5" x2="629.5" y1="454.8594" y2="454.8594"/><text fill="#FFFFFF" font-family="sans-serif" font-size="13" font-weight="bold" lengthAdjust="spacing" textLength="37" x="434.5" y="449.7935">1.9.9</text><text fill="#FFFFFF" font-family="sans-serif" font-size="13" lengthAdjust="spacing" textLength="113" x="475.5" y="449.7935">401 Unauthorized</text><polygon fill="#E7E7E7" points="380.5,486.9922,390.5,490.9922,380.5,494.9922,384.5,490.9922" style="stroke:#E7E7E7;stroke-width:1.0;"/><line style="stroke:#E7E7E7;stroke-width:1.0;" x1="48.5" x2="386.5" y1="490.9922" y2="490.9922"/><text fill="#FFFFFF" font-family="sans-serif" font-size="13" font-weight="bold" lengthAdjust="spacing" textLength="47" x="125" y="485.9263">1.10.1</text><text fill="#FFFFFF" font-family="sans-serif" font-size="13" lengthAdjust="spacing" textLength="140" x="176" y="485.9263">&#1054;&#1090;&#1082;&#1088;&#1099;&#1090;&#1100; &#1076;&#1086;&#1089;&#1082;&#1091; &#1053;&#1072;&#1081;&#1084;</text><polygon fill="#E7E7E7" points="618.5,516.125,628.5,520.125,618.5,524.125,622.5,520.125" style="stroke:#E7E7E7;stroke-width:1.0;"/><line style="stroke:#E7E7E7;stroke-width:1.0;" x1="392.5" x2="624.5" y1="520.125" y2="520.125"/><text fill="#FFFFFF" font-family="sans-serif" font-size="13" font-weight="bold" lengthAdjust="spacing" textLength="47" x="404.5" y="515.0591">1.10.2</text><text fill="#FFFFFF" font-family="sans-serif" font-size="13" lengthAdjust="spacing" textLength="163" x="455.5" y="515.0591">GET /vacancies/get-cards</text><polygon fill="#E7E7E7" points="403.5,545.2578,393.5,549.2578,403.5,553.2578,399.5,549.2578" style="stroke:#E7E7E7;stroke-width:1.0;"/><line style="stroke:#E7E7E7;stroke-width:1.0;stroke-dasharray:2.0,2.0;" x1="397.5" x2="629.5" y1="549.2578" y2="549.2578"/><text fill="#FFFFFF" font-family="sans-serif" font-size="13" font-weight="bold" lengthAdjust="spacing" textLength="46" x="463.5" y="544.1919">1.10.3</text><text fill="#FFFFFF" font-family="sans-serif" font-size="13" lengthAdjust="spacing" textLength="46" x="513.5" y="544.1919">200 OK</text><polygon fill="#E7E7E7" points="59.5,574.3906,49.5,578.3906,59.5,582.3906,55.5,578.3906" style="stroke:#E7E7E7;stroke-width:1.0;"/><line style="stroke:#E7E7E7;stroke-width:1.0;stroke-dasharray:2.0,2.0;" x1="53.5" x2="391.5" y1="578.3906" y2="578.3906"/><text fill="#FFFFFF" font-family="sans-serif" font-size="13" font-weight="bold" lengthAdjust="spacing" textLength="47" x="124" y="573.3247">1.10.4</text><text fill="#FFFFFF" font-family="sans-serif" font-size="13" lengthAdjust="spacing" textLength="142" x="175" y="573.3247">&#1044;&#1086;&#1089;&#1082;&#1072; &#1087;&#1088;&#1077;&#1076;&#1089;&#1090;&#1072;&#1074;&#1083;&#1077;&#1085;&#1072;</text><polygon fill="#E7E7E7" points="380.5,603.5234,390.5,607.5234,380.5,611.5234,384.5,607.5234" style="stroke:#E7E7E7;stroke-width:1.0;"/><line style="stroke:#E7E7E7;stroke-width:1.0;" x1="48.5" x2="386.5" y1="607.5234" y2="607.5234"/><text fill="#FFFFFF" font-family="sans-serif" font-size="13" font-weight="bold" lengthAdjust="spacing" textLength="46" x="109" y="602.4575">1.11.1</text><text fill="#FFFFFF" font-family="sans-serif" font-size="13" lengthAdjust="spacing" textLength="173" x="159" y="602.4575">&#1054;&#1090;&#1082;&#1088;&#1099;&#1090;&#1100; &#1082;&#1072;&#1088;&#1090;&#1086;&#1095;&#1082;&#1091; &#1079;&#1072;&#1082;&#1072;&#1079;&#1072;</text><polygon fill="#E7E7E7" points="618.5,632.6563,628.5,636.6563,618.5,640.6563,622.5,636.6563" style="stroke:#E7E7E7;stroke-width:1.0;"/><line style="stroke:#E7E7E7;stroke-width:1.0;" x1="392.5" x2="624.5" y1="636.6563" y2="636.6563"/><text fill="#FFFFFF" font-family="sans-serif" font-size="13" font-weight="bold" lengthAdjust="spacing" textLength="46" x="421" y="631.5903">1.11.2</text><text fill="#FFFFFF" font-family="sans-serif" font-size="13" lengthAdjust="spacing" textLength="131" x="471" y="631.5903">GET /vacancies/{id}</text><polygon fill="#E7E7E7" points="403.5,661.7891,393.5,665.7891,403.5,669.7891,399.5,665.7891" style="stroke:#E7E7E7;stroke-width:1.0;"/><line style="stroke:#E7E7E7;stroke-width:1.0;stroke-dasharray:2.0,2.0;" x1="397.5" x2="629.5" y1="665.7891" y2="665.7891"/><text fill="#FFFFFF" font-family="sans-serif" font-size="13" font-weight="bold" lengthAdjust="spacing" textLength="45" x="464" y="660.7231">1.11.3</text><text fill="#FFFFFF" font-family="sans-serif" font-size="13" lengthAdjust="spacing" textLength="46" x="513" y="660.7231">200 OK</text><polygon fill="#E7E7E7" points="59.5,690.9219,49.5,694.9219,59.5,698.9219,55.5,694.9219" style="stroke:#E7E7E7;stroke-width:1.0;"/><line style="stroke:#E7E7E7;stroke-width:1.0;stroke-dasharray:2.0,2.0;" x1="53.5" x2="391.5" y1="694.9219" y2="694.9219"/><text fill="#FFFFFF" font-family="sans-serif" font-size="13" font-weight="bold" lengthAdjust="spacing" textLength="46" x="114" y="689.856">1.11.4</text><text fill="#FFFFFF" font-family="sans-serif" font-size="13" lengthAdjust="spacing" textLength="163" x="164" y="689.856">&#1050;&#1072;&#1088;&#1090;&#1086;&#1095;&#1082;&#1072; &#1087;&#1088;&#1077;&#1076;&#1089;&#1090;&#1072;&#1074;&#1083;&#1077;&#1085;&#1072;</text><polygon fill="#E7E7E7" points="380.5,720.0547,390.5,724.0547,380.5,728.0547,384.5,724.0547" style="stroke:#E7E7E7;stroke-width:1.0;"/><line style="stroke:#E7E7E7;stroke-width:1.0;" x1="48.5" x2="386.5" y1="724.0547" y2="724.0547"/><text fill="#FFFFFF" font-family="sans-serif" font-size="13" font-weight="bold" lengthAdjust="spacing" textLength="46" x="86.5" y="718.9888">1.12.1</text><text fill="#FFFFFF" font-family="sans-serif" font-size="13" lengthAdjust="spacing" textLength="218" x="136.5" y="718.9888">&#1056;&#1077;&#1076;&#1072;&#1082;&#1090;&#1080;&#1088;&#1086;&#1074;&#1072;&#1090;&#1100; &#1076;&#1072;&#1085;&#1085;&#1099;&#1077; &#1086;&#1090;&#1082;&#1083;&#1080;&#1082;&#1072;</text><polygon fill="#E7E7E7" points="59.5,749.1875,49.5,753.1875,59.5,757.1875,55.5,753.1875" style="stroke:#E7E7E7;stroke-width:1.0;"/><line style="stroke:#E7E7E7;stroke-width:1.0;stroke-dasharray:2.0,2.0;" x1="53.5" x2="391.5" y1="753.1875" y2="753.1875"/><text fill="#FFFFFF" font-family="sans-serif" font-size="13" font-weight="bold" lengthAdjust="spacing" textLength="46" x="135.5" y="748.1216">1.12.2</text><text fill="#FFFFFF" font-family="sans-serif" font-size="13" lengthAdjust="spacing" textLength="120" x="185.5" y="748.1216">&#1060;&#1086;&#1088;&#1084;&#1072; &#1089; &#1076;&#1072;&#1085;&#1085;&#1099;&#1084;&#1080;</text><polygon fill="#E7E7E7" points="380.5,778.3203,390.5,782.3203,380.5,786.3203,384.5,782.3203" style="stroke:#E7E7E7;stroke-width:1.0;"/><line style="stroke:#E7E7E7;stroke-width:1.0;" x1="48.5" x2="386.5" y1="782.3203" y2="782.3203"/><text fill="#FFFFFF" font-family="sans-serif" font-size="13" font-weight="bold" lengthAdjust="spacing" textLength="45" x="132" y="777.2544">1.12.3</text><text fill="#FFFFFF" font-family="sans-serif" font-size="13" lengthAdjust="spacing" textLength="128" x="181" y="777.2544">&#1054;&#1073;&#1085;&#1086;&#1074;&#1083;&#1103;&#1077;&#1090; &#1076;&#1072;&#1085;&#1085;&#1099;&#1077;</text><polygon fill="#E7E7E7" points="380.5,807.4531,390.5,811.4531,380.5,815.4531,384.5,811.4531" style="stroke:#E7E7E7;stroke-width:1.0;"/><line style="stroke:#E7E7E7;stroke-width:1.0;" x1="48.5" x2="386.5" y1="811.4531" y2="811.4531"/><text fill="#FFFFFF" font-family="sans-serif" font-size="13" font-weight="bold" lengthAdjust="spacing" textLength="46" x="119" y="806.3872">1.12.4</text><text fill="#FFFFFF" font-family="sans-serif" font-size="13" lengthAdjust="spacing" textLength="153" x="169" y="806.3872">&#1053;&#1072;&#1078;&#1080;&#1084;&#1072;&#1077;&#1090; "&#1057;&#1086;&#1093;&#1088;&#1072;&#1085;&#1080;&#1090;&#1100;"</text><polygon fill="#E7E7E7" points="618.5,836.5859,628.5,840.5859,618.5,844.5859,622.5,840.5859" style="stroke:#E7E7E7;stroke-width:1.0;"/><line style="stroke:#E7E7E7;stroke-width:1.0;" x1="392.5" x2="624.5" y1="840.5859" y2="840.5859"/><text fill="#FFFFFF" font-family="sans-serif" font-size="13" font-weight="bold" lengthAdjust="spacing" textLength="46" x="412.5" y="835.52">1.12.5</text><text fill="#FFFFFF" font-family="sans-serif" font-size="13" lengthAdjust="spacing" textLength="148" x="462.5" y="835.52">PATCH /vacancies/{id}</text><path d="M10,855.5859 L76,855.5859 L76,862.7188 L66,872.7188 L10,872.7188 L10,855.5859 " fill="#555555" style="stroke:#FFFFFF;stroke-width:1.5;"/><rect fill="none" height="181.6016" style="stroke:#FFFFFF;stroke-width:1.5;" width="651" x="10" y="855.5859"/><text fill="#FFFFFF" font-family="sans-serif" font-size="13" font-weight="bold" lengthAdjust="spacing" textLength="21" x="25" y="868.6528">alt</text><text fill="#FFFFFF" font-family="sans-serif" font-size="11" font-weight="bold" lengthAdjust="spacing" textLength="114" x="91" y="867.7964">[successful case]</text><polygon fill="#E7E7E7" points="403.5,889.8516,393.5,893.8516,403.5,897.8516,399.5,893.8516" style="stroke:#E7E7E7;stroke-width:1.0;"/><line style="stroke:#E7E7E7;stroke-width:1.0;stroke-dasharray:2.0,2.0;" x1="397.5" x2="629.5" y1="893.8516" y2="893.8516"/><text fill="#FFFFFF" font-family="sans-serif" font-size="13" font-weight="bold" lengthAdjust="spacing" textLength="46" x="463.5" y="888.7856">1.12.6</text><text fill="#FFFFFF" font-family="sans-serif" font-size="13" lengthAdjust="spacing" textLength="46" x="513.5" y="888.7856">200 OK</text><path d="M20,908.8516 L92,908.8516 L92,915.9844 L82,925.9844 L20,925.9844 L20,908.8516 " fill="#555555" style="stroke:#FFFFFF;stroke-width:1.5;"/><rect fill="none" height="46.2656" style="stroke:#FFFFFF;stroke-width:1.5;" width="396" x="20" y="908.8516"/><text fill="#FFFFFF" font-family="sans-serif" font-size="13" font-weight="bold" lengthAdjust="spacing" textLength="27" x="35" y="921.9185">opt</text><polygon fill="#E7E7E7" points="59.5,943.1172,49.5,947.1172,59.5,951.1172,55.5,947.1172" style="stroke:#E7E7E7;stroke-width:1.0;"/><line style="stroke:#E7E7E7;stroke-width:1.0;stroke-dasharray:2.0,2.0;" x1="53.5" x2="391.5" y1="947.1172" y2="947.1172"/><text fill="#FFFFFF" font-family="sans-serif" font-size="13" font-weight="bold" lengthAdjust="spacing" textLength="46" x="60.5" y="942.0513">1.12.7</text><text fill="#FFFFFF" font-family="sans-serif" font-size="13" lengthAdjust="spacing" textLength="270" x="110.5" y="942.0513">push-&#1091;&#1074;&#1077;&#1076;&#1086;&#1084;&#1083;&#1077;&#1085;&#1080;&#1077; &#1086; &#1085;&#1086;&#1074;&#1086;&#1084; &#1076;&#1086;&#1089;&#1090;&#1080;&#1078;&#1077;&#1085;&#1080;&#1080;</text><line style="stroke:#FFFFFF;stroke-width:1.0;stroke-dasharray:2.0,2.0;" x1="10" x2="661" y1="963.1172" y2="963.1172"/><text fill="#FFFFFF" font-family="sans-serif" font-size="11" font-weight="bold" lengthAdjust="spacing" textLength="64" x="15" y="973.3276">[&#1086;&#1096;&#1080;&#1073;&#1082;&#1072;]</text><polygon fill="#E7E7E7" points="403.5,994.0547,393.5,998.0547,403.5,1002.0547,399.5,998.0547" style="stroke:#E7E7E7;stroke-width:1.0;"/><line style="stroke:#E7E7E7;stroke-width:1.0;stroke-dasharray:2.0,2.0;" x1="397.5" x2="629.5" y1="998.0547" y2="998.0547"/><text fill="#FFFFFF" font-family="sans-serif" font-size="13" font-weight="bold" lengthAdjust="spacing" textLength="46" x="434" y="992.9888">1.12.8</text><text fill="#FFFFFF" font-family="sans-serif" font-size="13" lengthAdjust="spacing" textLength="105" x="484" y="992.9888">400 Bad request</text><line style="stroke:#FFFFFF;stroke-width:1.0;stroke-dasharray:2.0,2.0;" x1="10" x2="661" y1="1007.0547" y2="1007.0547"/><polygon fill="#E7E7E7" points="403.5,1025.1875,393.5,1029.1875,403.5,1033.1875,399.5,1029.1875" style="stroke:#E7E7E7;stroke-width:1.0;"/><line style="stroke:#E7E7E7;stroke-width:1.0;stroke-dasharray:2.0,2.0;" x1="397.5" x2="629.5" y1="1029.1875" y2="1029.1875"/><text fill="#FFFFFF" font-family="sans-serif" font-size="13" font-weight="bold" lengthAdjust="spacing" textLength="46" x="430" y="1024.1216">1.12.9</text><text fill="#FFFFFF" font-family="sans-serif" font-size="13" lengthAdjust="spacing" textLength="113" x="480" y="1024.1216">401 Unauthorized</text><polygon fill="#E7E7E7" points="380.5,1061.3203,390.5,1065.3203,380.5,1069.3203,384.5,1065.3203" style="stroke:#E7E7E7;stroke-width:1.0;"/><line style="stroke:#E7E7E7;stroke-width:1.0;" x1="48.5" x2="386.5" y1="1065.3203" y2="1065.3203"/><text fill="#FFFFFF" font-family="sans-serif" font-size="13" font-weight="bold" lengthAdjust="spacing" textLength="45" x="146.5" y="1060.2544">1.13.1</text><text fill="#FFFFFF" font-family="sans-serif" font-size="13" lengthAdjust="spacing" textLength="99" x="195.5" y="1060.2544">&#1059;&#1076;&#1072;&#1083;&#1080;&#1090;&#1100; &#1079;&#1072;&#1082;&#1072;&#1079;</text><polygon fill="#E7E7E7" points="59.5,1090.4531,49.5,1094.4531,59.5,1098.4531,55.5,1094.4531" style="stroke:#E7E7E7;stroke-width:1.0;"/><line style="stroke:#E7E7E7;stroke-width:1.0;stroke-dasharray:2.0,2.0;" x1="53.5" x2="391.5" y1="1094.4531" y2="1094.4531"/><text fill="#FFFFFF" font-family="sans-serif" font-size="13" font-weight="bold" lengthAdjust="spacing" textLength="45" x="136" y="1089.3872">1.13.2</text><text fill="#FFFFFF" font-family="sans-serif" font-size="13" lengthAdjust="spacing" textLength="120" x="185" y="1089.3872">&#1060;&#1086;&#1088;&#1084;&#1072; &#1089; &#1076;&#1072;&#1085;&#1085;&#1099;&#1084;&#1080;</text><polygon fill="#E7E7E7" points="380.5,1119.5859,390.5,1123.5859,380.5,1127.5859,384.5,1123.5859" style="stroke:#E7E7E7;stroke-width:1.0;"/><line style="stroke:#E7E7E7;stroke-width:1.0;" x1="48.5" x2="386.5" y1="1123.5859" y2="1123.5859"/><text fill="#FFFFFF" font-family="sans-serif" font-size="13" font-weight="bold" lengthAdjust="spacing" textLength="44" x="101" y="1118.52">1.13.3</text><text fill="#FFFFFF" font-family="sans-serif" font-size="13" lengthAdjust="spacing" textLength="191" x="149" y="1118.52">&#1053;&#1072;&#1078;&#1080;&#1084;&#1072;&#1077;&#1090; "&#1059;&#1076;&#1072;&#1083;&#1080;&#1090;&#1100; &#1086;&#1090;&#1082;&#1083;&#1080;&#1082;"</text><polygon fill="#E7E7E7" points="618.5,1148.7188,628.5,1152.7188,618.5,1156.7188,622.5,1152.7188" style="stroke:#E7E7E7;stroke-width:1.0;"/><line style="stroke:#E7E7E7;stroke-width:1.0;" x1="392.5" x2="624.5" y1="1152.7188" y2="1152.7188"/><text fill="#FFFFFF" font-family="sans-serif" font-size="13" font-weight="bold" lengthAdjust="spacing" textLength="45" x="410" y="1147.6528">1.13.4</text><text fill="#FFFFFF" font-family="sans-serif" font-size="13" lengthAdjust="spacing" textLength="154" x="459" y="1147.6528">DELETE /vacancies/{id}</text><path d="M20,1167.7188 L86,1167.7188 L86,1174.8516 L76,1184.8516 L20,1184.8516 L20,1167.7188 " fill="#555555" style="stroke:#FFFFFF;stroke-width:1.5;"/><rect fill="none" height="119.3359" style="stroke:#FFFFFF;stroke-width:1.5;" width="641" x="20" y="1167.7188"/><text fill="#FFFFFF" font-family="sans-serif" font-size="13" font-weight="bold" lengthAdjust="spacing" textLength="21" x="35" y="1180.7856">alt</text><text fill="#FFFFFF" font-family="sans-serif" font-size="11" font-weight="bold" lengthAdjust="spacing" textLength="114" x="101" y="1179.9292">[successful case]</text><polygon fill="#E7E7E7" points="403.5,1201.9844,393.5,1205.9844,403.5,1209.9844,399.5,1205.9844" style="stroke:#E7E7E7;stroke-width:1.0;"/><line style="stroke:#E7E7E7;stroke-width:1.0;stroke-dasharray:2.0,2.0;" x1="397.5" x2="629.5" y1="1205.9844" y2="1205.9844"/><text fill="#FFFFFF" font-family="sans-serif" font-size="13" font-weight="bold" lengthAdjust="spacing" textLength="45" x="438" y="1200.9185">1.13.5</text><text fill="#FFFFFF" font-family="sans-serif" font-size="13" lengthAdjust="spacing" textLength="98" x="487" y="1200.9185">204 No content</text><polygon fill="#E7E7E7" points="59.5,1231.1172,49.5,1235.1172,59.5,1239.1172,55.5,1235.1172" style="stroke:#E7E7E7;stroke-width:1.0;"/><line style="stroke:#E7E7E7;stroke-width:1.0;stroke-dasharray:2.0,2.0;" x1="53.5" x2="391.5" y1="1235.1172" y2="1235.1172"/><text fill="#FFFFFF" font-family="sans-serif" font-size="13" font-weight="bold" lengthAdjust="spacing" textLength="45" x="143.5" y="1230.0513">1.13.6</text><text fill="#FFFFFF" font-family="sans-serif" font-size="13" lengthAdjust="spacing" textLength="105" x="192.5" y="1230.0513">&#1054;&#1090;&#1082;&#1083;&#1080;&#1082; &#1091;&#1076;&#1072;&#1083;&#1077;&#1085;</text><line style="stroke:#FFFFFF;stroke-width:1.0;stroke-dasharray:2.0,2.0;" x1="20" x2="661" y1="1244.1172" y2="1244.1172"/><text fill="#FFFFFF" font-family="sans-serif" font-size="11" font-weight="bold" lengthAdjust="spacing" textLength="64" x="25" y="1254.3276">[&#1086;&#1096;&#1080;&#1073;&#1082;&#1072;]</text><polygon fill="#E7E7E7" points="403.5,1275.0547,393.5,1279.0547,403.5,1283.0547,399.5,1279.0547" style="stroke:#E7E7E7;stroke-width:1.0;"/><line style="stroke:#E7E7E7;stroke-width:1.0;stroke-dasharray:2.0,2.0;" x1="397.5" x2="629.5" y1="1279.0547" y2="1279.0547"/><text fill="#FFFFFF" font-family="sans-serif" font-size="13" font-weight="bold" lengthAdjust="spacing" textLength="45" x="409" y="1273.9888">1.13.7</text><text fill="#FFFFFF" font-family="sans-serif" font-size="13" lengthAdjust="spacing" textLength="156" x="458" y="1273.9888">500 Internal server error</text><!--SRC=[rLNBRjD05DtFLuowTnkNiW0Xf58Yg7WKYUG39kCXjUhQOJpk0eJKfa8W5QaR92GaAX1yG5eraCP9-mipVyGPEosE3RHanohEzNsSEUTSZ_9L8AX-hq_DZXxg7jMVT4-Vw14XyOOVTfXacpGMpnCHSl58n35hY-N0RuUKYr09IGZZAfAq6UCPsShdVeU5YZPNYSSKQx5Oq1RZ6qXCL1GccoqXgJj_OzubjeOwjv5ARsOGz25c7-c1wPftL8yHE39x-eG2N1VWKZtGmxpgbkDCohxXvROUMUJ7EZNxUV8POhRLK0zAOpuWVeREgHwRVTqtNLlNmx0nHlLBoPQBxvYAzbdgd3ueDCzmpX6aei2U4ILFrfuswC8MuopaleW92nID4yx1tBCae1nqs0ABVrAnM7FfYXHC2Oz47LKwNoU9rnspYsbzu3m5aXHFOs3guwGJacpS7WCQ0ju0aFEK0H6XHuW8e05UlaNeq8fSGh1Kgz4xpAFIoXohBB-Iuj9c20NN8-c_0DAiyPIYRgqYgILhQBRDNYxeSMuoi_lBP5FStQiNgLje2-Lm9hsuGbYDhZqe-w3WOAiFsCh8i3hbZFNAUDtByA8P_dJH-4sE-WVQ8MX__uhyfU-zkXBeZyK9_m1ziGBzS-OFmBC6G1FhYjuvxHVsdjeaUuW_xPBPATQDAbjq02FbrajdsQ8l6FGwswBnxxTekR5olyBeLNOfO_c_NgDh5Ms_Pjocvz_52nVEBbzLaTACWarAqjojFwmtwZDfiqGVHvH7k3R2iZxvwkK3ANJAmO3-Irc_3jPNxKqKiW0NbTn2Mo5b92stFm40]--></g></svg>