<?xml version="1.0" encoding="us-ascii" standalone="no"?><svg xmlns="http://www.w3.org/2000/svg" xmlns:xlink="http://www.w3.org/1999/xlink" contentStyleType="text/css" height="912px" preserveAspectRatio="none" style="width:691px;height:912px;background:#1B1B1B;" version="1.1" viewBox="0 0 691 912" width="691px" zoomAndPan="magnify"><defs/><g><rect fill="#1B1B1B" height="912" style="stroke:none;stroke-width:1.0;" width="691" x="0" y="0"/><text fill="#FFFFFF" font-family="sans-serif" font-size="14" font-weight="bold" lengthAdjust="spacing" textLength="167" x="263.25" y="27.9951">&#1044;&#1086;&#1089;&#1082;&#1072; &#1087;&#1086;&#1083;&#1100;&#1079;&#1086;&#1074;&#1072;&#1090;&#1077;&#1083;&#1103;</text><rect fill="none" height="371.2031" style="stroke:#FFFFFF;stroke-width:1.5;" width="674.5" x="10" y="222.9922"/><rect fill="none" height="179.6016" style="stroke:#FFFFFF;stroke-width:1.5;" width="654.5" x="20" y="363.6563"/><rect fill="none" height="148.4688" style="stroke:#FFFFFF;stroke-width:1.5;" width="654.5" x="20" y="666.4609"/><line style="stroke:#E7E7E7;stroke-width:0.5;stroke-dasharray:5.0,5.0;" x1="49" x2="49" y1="118.5938" y2="831.9297"/><line style="stroke:#E7E7E7;stroke-width:0.5;stroke-dasharray:5.0,5.0;" x1="340.5" x2="340.5" y1="118.5938" y2="831.9297"/><line style="stroke:#E7E7E7;stroke-width:0.5;stroke-dasharray:5.0,5.0;" x1="644.5" x2="644.5" y1="118.5938" y2="831.9297"/><text fill="#FFFFFF" font-family="sans-serif" font-size="14" lengthAdjust="spacing" textLength="32" x="30" y="115.292">User</text><ellipse cx="49" cy="50.7969" fill="#222222" rx="8" ry="8" style="stroke:#E7E7E7;stroke-width:0.5;"/><path d="M49,58.7969 L49,85.7969 M36,66.7969 L62,66.7969 M49,85.7969 L36,100.7969 M49,85.7969 L62,100.7969 " fill="none" style="stroke:#E7E7E7;stroke-width:0.5;"/><text fill="#FFFFFF" font-family="sans-serif" font-size="14" lengthAdjust="spacing" textLength="32" x="30" y="843.9248">User</text><ellipse cx="49" cy="855.7266" fill="#222222" rx="8" ry="8" style="stroke:#E7E7E7;stroke-width:0.5;"/><path d="M49,863.7266 L49,890.7266 M36,871.7266 L62,871.7266 M49,890.7266 L36,905.7266 M49,890.7266 L62,905.7266 " fill="none" style="stroke:#E7E7E7;stroke-width:0.5;"/><rect fill="#222222" height="30.2969" rx="2.5" ry="2.5" style="stroke:#E7E7E7;stroke-width:0.5;" width="27" x="327.5" y="87.2969"/><text fill="#FFFFFF" font-family="sans-serif" font-size="14" lengthAdjust="spacing" textLength="13" x="334.5" y="107.292">UI</text><rect fill="#222222" height="30.2969" rx="2.5" ry="2.5" style="stroke:#E7E7E7;stroke-width:0.5;" width="27" x="327.5" y="830.9297"/><text fill="#FFFFFF" font-family="sans-serif" font-size="14" lengthAdjust="spacing" textLength="13" x="334.5" y="850.9248">UI</text><text fill="#FFFFFF" font-family="sans-serif" font-size="14" lengthAdjust="spacing" textLength="33" x="625.5" y="115.292">back</text><path d="M627,66.2969 C627,56.2969 645,56.2969 645,56.2969 C645,56.2969 663,56.2969 663,66.2969 L663,92.2969 C663,102.2969 645,102.2969 645,102.2969 C645,102.2969 627,102.2969 627,92.2969 L627,66.2969 " fill="#222222" style="stroke:#E7E7E7;stroke-width:1.5;"/><path d="M627,66.2969 C627,76.2969 645,76.2969 645,76.2969 C645,76.2969 663,76.2969 663,66.2969 " fill="none" style="stroke:#E7E7E7;stroke-width:1.5;"/><text fill="#FFFFFF" font-family="sans-serif" font-size="14" lengthAdjust="spacing" textLength="33" x="625.5" y="843.9248">back</text><path d="M627,857.2266 C627,847.2266 645,847.2266 645,847.2266 C645,847.2266 663,847.2266 663,857.2266 L663,883.2266 C663,893.2266 645,893.2266 645,893.2266 C645,893.2266 627,893.2266 627,883.2266 L627,857.2266 " fill="#222222" style="stroke:#E7E7E7;stroke-width:1.5;"/><path d="M627,857.2266 C627,867.2266 645,867.2266 645,867.2266 C645,867.2266 663,867.2266 663,857.2266 " fill="none" style="stroke:#E7E7E7;stroke-width:1.5;"/><polygon fill="#E7E7E7" points="329,145.7266,339,149.7266,329,153.7266,333,149.7266" style="stroke:#E7E7E7;stroke-width:1.0;"/><line style="stroke:#E7E7E7;stroke-width:1.0;" x1="49" x2="335" y1="149.7266" y2="149.7266"/><text fill="#FFFFFF" font-family="sans-serif" font-size="13" font-weight="bold" lengthAdjust="spacing" textLength="37" x="95.5" y="144.6606">3.1.1</text><text fill="#FFFFFF" font-family="sans-serif" font-size="13" lengthAdjust="spacing" textLength="158" x="136.5" y="144.6606">&#1044;&#1086;&#1073;&#1072;&#1074;&#1080;&#1090;&#1100; &#1085;&#1086;&#1074;&#1091;&#1102; &#1076;&#1086;&#1089;&#1082;&#1091;</text><polygon fill="#E7E7E7" points="633,174.8594,643,178.8594,633,182.8594,637,178.8594" style="stroke:#E7E7E7;stroke-width:1.0;"/><line style="stroke:#E7E7E7;stroke-width:1.0;" x1="341" x2="639" y1="178.8594" y2="178.8594"/><text fill="#FFFFFF" font-family="sans-serif" font-size="13" font-weight="bold" lengthAdjust="spacing" textLength="37" x="353" y="173.7935">3.1.2</text><text fill="#FFFFFF" font-family="sans-serif" font-size="13" lengthAdjust="spacing" textLength="239" x="394" y="173.7935">GET /custom-boards/available-boards</text><polygon fill="#E7E7E7" points="352,203.9922,342,207.9922,352,211.9922,348,207.9922" style="stroke:#E7E7E7;stroke-width:1.0;"/><line style="stroke:#E7E7E7;stroke-width:1.0;stroke-dasharray:2.0,2.0;" x1="346" x2="644" y1="207.9922" y2="207.9922"/><text fill="#FFFFFF" font-family="sans-serif" font-size="13" font-weight="bold" lengthAdjust="spacing" textLength="37" x="449.5" y="202.9263">3.1.3</text><text fill="#FFFFFF" font-family="sans-serif" font-size="13" lengthAdjust="spacing" textLength="46" x="490.5" y="202.9263">200 OK</text><path d="M10,222.9922 L74,222.9922 L74,230.125 L64,240.125 L10,240.125 L10,222.9922 " fill="#555555" style="stroke:#FFFFFF;stroke-width:1.5;"/><rect fill="none" height="371.2031" style="stroke:#FFFFFF;stroke-width:1.5;" width="674.5" x="10" y="222.9922"/><text fill="#FFFFFF" font-family="sans-serif" font-size="13" font-weight="bold" lengthAdjust="spacing" textLength="19" x="25" y="236.0591">alt</text><text fill="#FFFFFF" font-family="sans-serif" font-size="11" font-weight="bold" lengthAdjust="spacing" textLength="227" x="89" y="235.2026">[&#1076;&#1086;&#1089;&#1090;&#1091;&#1087;&#1085;&#1099; &#1076;&#1086;&#1089;&#1082;&#1080; &#1076;&#1083;&#1103; &#1076;&#1086;&#1073;&#1072;&#1074;&#1083;&#1077;&#1085;&#1080;&#1103;]</text><polygon fill="#E7E7E7" points="60,257.2578,50,261.2578,60,265.2578,56,261.2578" style="stroke:#E7E7E7;stroke-width:1.0;"/><line style="stroke:#E7E7E7;stroke-width:1.0;stroke-dasharray:2.0,2.0;" x1="54" x2="340" y1="261.2578" y2="261.2578"/><text fill="#FFFFFF" font-family="sans-serif" font-size="13" font-weight="bold" lengthAdjust="spacing" textLength="37" x="103" y="256.1919">3.1.4</text><text fill="#FFFFFF" font-family="sans-serif" font-size="13" lengthAdjust="spacing" textLength="143" x="144" y="256.1919">&#1060;&#1086;&#1088;&#1084;&#1072; &#1074;&#1099;&#1073;&#1086;&#1088;&#1072; &#1076;&#1086;&#1089;&#1082;&#1080;</text><polygon fill="#E7E7E7" points="329,286.3906,339,290.3906,329,294.3906,333,290.3906" style="stroke:#E7E7E7;stroke-width:1.0;"/><line style="stroke:#E7E7E7;stroke-width:1.0;" x1="49" x2="335" y1="290.3906" y2="290.3906"/><text fill="#FFFFFF" font-family="sans-serif" font-size="13" font-weight="bold" lengthAdjust="spacing" textLength="37" x="126" y="285.3247">3.1.5</text><text fill="#FFFFFF" font-family="sans-serif" font-size="13" lengthAdjust="spacing" textLength="97" x="167" y="285.3247">&#1076;&#1077;&#1083;&#1072;&#1077;&#1090; &#1074;&#1099;&#1073;&#1086;&#1088;</text><polygon fill="#E7E7E7" points="329,315.5234,339,319.5234,329,323.5234,333,319.5234" style="stroke:#E7E7E7;stroke-width:1.0;"/><line style="stroke:#E7E7E7;stroke-width:1.0;" x1="49" x2="335" y1="319.5234" y2="319.5234"/><text fill="#FFFFFF" font-family="sans-serif" font-size="13" font-weight="bold" lengthAdjust="spacing" textLength="37" x="109" y="314.4575">3.1.6</text><text fill="#FFFFFF" font-family="sans-serif" font-size="13" lengthAdjust="spacing" textLength="131" x="150" y="314.4575">&#1085;&#1072;&#1078;&#1080;&#1084;&#1072;&#1077;&#1090; &#1089;&#1086;&#1079;&#1076;&#1072;&#1090;&#1100;</text><polygon fill="#E7E7E7" points="633,344.6563,643,348.6563,633,352.6563,637,348.6563" style="stroke:#E7E7E7;stroke-width:1.0;"/><line style="stroke:#E7E7E7;stroke-width:1.0;" x1="341" x2="639" y1="348.6563" y2="348.6563"/><text fill="#FFFFFF" font-family="sans-serif" font-size="13" font-weight="bold" lengthAdjust="spacing" textLength="37" x="379" y="343.5903">3.1.7</text><text fill="#FFFFFF" font-family="sans-serif" font-size="13" lengthAdjust="spacing" textLength="187" x="420" y="343.5903">POST /custom-boards/boards</text><path d="M20,363.6563 L84,363.6563 L84,370.7891 L74,380.7891 L20,380.7891 L20,363.6563 " fill="#555555" style="stroke:#FFFFFF;stroke-width:1.5;"/><rect fill="none" height="179.6016" style="stroke:#FFFFFF;stroke-width:1.5;" width="654.5" x="20" y="363.6563"/><text fill="#FFFFFF" font-family="sans-serif" font-size="13" font-weight="bold" lengthAdjust="spacing" textLength="19" x="35" y="376.7231">alt</text><text fill="#FFFFFF" font-family="sans-serif" font-size="11" font-weight="bold" lengthAdjust="spacing" textLength="112" x="99" y="375.8667">[successful case]</text><polygon fill="#E7E7E7" points="352,397.9219,342,401.9219,352,405.9219,348,401.9219" style="stroke:#E7E7E7;stroke-width:1.0;"/><line style="stroke:#E7E7E7;stroke-width:1.0;stroke-dasharray:2.0,2.0;" x1="346" x2="644" y1="401.9219" y2="401.9219"/><text fill="#FFFFFF" font-family="sans-serif" font-size="13" font-weight="bold" lengthAdjust="spacing" textLength="37" x="433" y="396.856">3.1.8</text><text fill="#FFFFFF" font-family="sans-serif" font-size="13" lengthAdjust="spacing" textLength="79" x="474" y="396.856">201 Created</text><polygon fill="#E7E7E7" points="60,427.0547,50,431.0547,60,435.0547,56,431.0547" style="stroke:#E7E7E7;stroke-width:1.0;"/><line style="stroke:#E7E7E7;stroke-width:1.0;stroke-dasharray:2.0,2.0;" x1="54" x2="340" y1="431.0547" y2="431.0547"/><text fill="#FFFFFF" font-family="sans-serif" font-size="13" font-weight="bold" lengthAdjust="spacing" textLength="37" x="79" y="425.9888">3.1.9</text><text fill="#FFFFFF" font-family="sans-serif" font-size="13" lengthAdjust="spacing" textLength="191" x="120" y="425.9888">&#1054;&#1090;&#1086;&#1073;&#1088;&#1072;&#1078;&#1077;&#1085;&#1080;&#1077; &#1087;&#1091;&#1089;&#1090;&#1086;&#1081; &#1076;&#1086;&#1089;&#1082;&#1080;</text><line style="stroke:#FFFFFF;stroke-width:1.0;stroke-dasharray:2.0,2.0;" x1="20" x2="674.5" y1="440.0547" y2="440.0547"/><text fill="#FFFFFF" font-family="sans-serif" font-size="11" font-weight="bold" lengthAdjust="spacing" textLength="61" x="25" y="450.2651">[&#1086;&#1096;&#1080;&#1073;&#1082;&#1072;]</text><polygon fill="#E7E7E7" points="352,470.9922,342,474.9922,352,478.9922,348,474.9922" style="stroke:#E7E7E7;stroke-width:1.0;"/><line style="stroke:#E7E7E7;stroke-width:1.0;stroke-dasharray:2.0,2.0;" x1="346" x2="644" y1="474.9922" y2="474.9922"/><text fill="#FFFFFF" font-family="sans-serif" font-size="13" font-weight="bold" lengthAdjust="spacing" textLength="46" x="415" y="469.9263">3.1.10</text><text fill="#FFFFFF" font-family="sans-serif" font-size="13" lengthAdjust="spacing" textLength="106" x="465" y="469.9263">400 Bad request</text><polygon fill="#E7E7E7" points="60,500.125,50,504.125,60,508.125,56,504.125" style="stroke:#E7E7E7;stroke-width:1.0;"/><line style="stroke:#E7E7E7;stroke-width:1.0;stroke-dasharray:2.0,2.0;" x1="54" x2="340" y1="504.125" y2="504.125"/><text fill="#FFFFFF" font-family="sans-serif" font-size="13" font-weight="bold" lengthAdjust="spacing" textLength="46" x="61" y="499.0591">3.1.11</text><text fill="#FFFFFF" font-family="sans-serif" font-size="13" lengthAdjust="spacing" textLength="218" x="111" y="499.0591">&#1044;&#1086;&#1089;&#1082;&#1072; &#1091;&#1078;&#1077; &#1089;&#1086;&#1079;&#1076;&#1072;&#1085;&#1072;/&#1085;&#1077;&#1076;&#1086;&#1089;&#1090;&#1091;&#1087;&#1085;&#1072;</text><line style="stroke:#FFFFFF;stroke-width:1.0;stroke-dasharray:2.0,2.0;" x1="20" x2="674.5" y1="513.125" y2="513.125"/><polygon fill="#E7E7E7" points="352,531.2578,342,535.2578,352,539.2578,348,535.2578" style="stroke:#E7E7E7;stroke-width:1.0;"/><line style="stroke:#E7E7E7;stroke-width:1.0;stroke-dasharray:2.0,2.0;" x1="346" x2="644" y1="535.2578" y2="535.2578"/><text fill="#FFFFFF" font-family="sans-serif" font-size="13" font-weight="bold" lengthAdjust="spacing" textLength="46" x="411" y="530.1919">3.1.12</text><text fill="#FFFFFF" font-family="sans-serif" font-size="13" lengthAdjust="spacing" textLength="114" x="461" y="530.1919">401 Unauthorized</text><line style="stroke:#FFFFFF;stroke-width:1.0;stroke-dasharray:2.0,2.0;" x1="10" x2="684.5" y1="551.2578" y2="551.2578"/><text fill="#FFFFFF" font-family="sans-serif" font-size="11" font-weight="bold" lengthAdjust="spacing" textLength="149" x="15" y="561.4683">[&#1085;&#1077;&#1090; &#1076;&#1086;&#1089;&#1090;&#1091;&#1087;&#1085;&#1099;&#1093; &#1076;&#1086;&#1089;&#1086;&#1082;]</text><polygon fill="#E7E7E7" points="60,582.1953,50,586.1953,60,590.1953,56,586.1953" style="stroke:#E7E7E7;stroke-width:1.0;"/><line style="stroke:#E7E7E7;stroke-width:1.0;stroke-dasharray:2.0,2.0;" x1="54" x2="340" y1="586.1953" y2="586.1953"/><text fill="#FFFFFF" font-family="sans-serif" font-size="13" font-weight="bold" lengthAdjust="spacing" textLength="46" x="106.5" y="581.1294">3.1.13</text><text fill="#FFFFFF" font-family="sans-serif" font-size="13" lengthAdjust="spacing" textLength="127" x="156.5" y="581.1294">&#1044;&#1086;&#1089;&#1082;&#1072; &#1085;&#1077;&#1076;&#1086;&#1089;&#1090;&#1091;&#1087;&#1085;&#1072;</text><polygon fill="#E7E7E7" points="329,618.3281,339,622.3281,329,626.3281,333,622.3281" style="stroke:#E7E7E7;stroke-width:1.0;"/><line style="stroke:#E7E7E7;stroke-width:1.0;" x1="49" x2="335" y1="622.3281" y2="622.3281"/><text fill="#FFFFFF" font-family="sans-serif" font-size="13" font-weight="bold" lengthAdjust="spacing" textLength="37" x="122.5" y="617.2622">3.2.1</text><text fill="#FFFFFF" font-family="sans-serif" font-size="13" lengthAdjust="spacing" textLength="104" x="163.5" y="617.2622">&#1086;&#1090;&#1082;&#1088;&#1099;&#1090;&#1100; &#1076;&#1086;&#1089;&#1082;&#1091;</text><polygon fill="#E7E7E7" points="633,647.4609,643,651.4609,633,655.4609,637,651.4609" style="stroke:#E7E7E7;stroke-width:1.0;"/><line style="stroke:#E7E7E7;stroke-width:1.0;" x1="341" x2="639" y1="651.4609" y2="651.4609"/><text fill="#FFFFFF" font-family="sans-serif" font-size="13" font-weight="bold" lengthAdjust="spacing" textLength="37" x="383.5" y="646.395">3.2.2</text><text fill="#FFFFFF" font-family="sans-serif" font-size="13" lengthAdjust="spacing" textLength="178" x="424.5" y="646.395">GET /custom-boards/boards</text><path d="M20,666.4609 L84,666.4609 L84,673.5938 L74,683.5938 L20,683.5938 L20,666.4609 " fill="#555555" style="stroke:#FFFFFF;stroke-width:1.5;"/><rect fill="none" height="148.4688" style="stroke:#FFFFFF;stroke-width:1.5;" width="654.5" x="20" y="666.4609"/><text fill="#FFFFFF" font-family="sans-serif" font-size="13" font-weight="bold" lengthAdjust="spacing" textLength="19" x="35" y="679.5278">alt</text><text fill="#FFFFFF" font-family="sans-serif" font-size="11" font-weight="bold" lengthAdjust="spacing" textLength="112" x="99" y="678.6714">[successful case]</text><polygon fill="#E7E7E7" points="352,700.7266,342,704.7266,352,708.7266,348,704.7266" style="stroke:#E7E7E7;stroke-width:1.0;"/><line style="stroke:#E7E7E7;stroke-width:1.0;stroke-dasharray:2.0,2.0;" x1="346" x2="644" y1="704.7266" y2="704.7266"/><text fill="#FFFFFF" font-family="sans-serif" font-size="13" font-weight="bold" lengthAdjust="spacing" textLength="37" x="449.5" y="699.6606">3.2.3</text><text fill="#FFFFFF" font-family="sans-serif" font-size="13" lengthAdjust="spacing" textLength="46" x="490.5" y="699.6606">200 OK</text><polygon fill="#E7E7E7" points="60,729.8594,50,733.8594,60,737.8594,56,733.8594" style="stroke:#E7E7E7;stroke-width:1.0;"/><line style="stroke:#E7E7E7;stroke-width:1.0;stroke-dasharray:2.0,2.0;" x1="54" x2="340" y1="733.8594" y2="733.8594"/><text fill="#FFFFFF" font-family="sans-serif" font-size="13" font-weight="bold" lengthAdjust="spacing" textLength="37" x="104.5" y="728.7935">3.2.4</text><text fill="#FFFFFF" font-family="sans-serif" font-size="13" lengthAdjust="spacing" textLength="140" x="145.5" y="728.7935">&#1054;&#1090;&#1086;&#1073;&#1088;&#1072;&#1078;&#1077;&#1085;&#1080;&#1077; &#1076;&#1086;&#1089;&#1082;&#1080;</text><line style="stroke:#FFFFFF;stroke-width:1.0;stroke-dasharray:2.0,2.0;" x1="20" x2="674.5" y1="742.8594" y2="742.8594"/><text fill="#FFFFFF" font-family="sans-serif" font-size="11" font-weight="bold" lengthAdjust="spacing" textLength="61" x="25" y="753.0698">[&#1086;&#1096;&#1080;&#1073;&#1082;&#1072;]</text><polygon fill="#E7E7E7" points="352,773.7969,342,777.7969,352,781.7969,348,777.7969" style="stroke:#E7E7E7;stroke-width:1.0;"/><line style="stroke:#E7E7E7;stroke-width:1.0;stroke-dasharray:2.0,2.0;" x1="346" x2="644" y1="777.7969" y2="777.7969"/><text fill="#FFFFFF" font-family="sans-serif" font-size="13" font-weight="bold" lengthAdjust="spacing" textLength="37" x="419.5" y="772.731">3.2.5</text><text fill="#FFFFFF" font-family="sans-serif" font-size="13" lengthAdjust="spacing" textLength="106" x="460.5" y="772.731">400 Bad request</text><polygon fill="#E7E7E7" points="352,802.9297,342,806.9297,352,810.9297,348,806.9297" style="stroke:#E7E7E7;stroke-width:1.0;"/><line style="stroke:#E7E7E7;stroke-width:1.0;stroke-dasharray:2.0,2.0;" x1="346" x2="644" y1="806.9297" y2="806.9297"/><text fill="#FFFFFF" font-family="sans-serif" font-size="13" font-weight="bold" lengthAdjust="spacing" textLength="37" x="415.5" y="801.8638">3.2.6</text><text fill="#FFFFFF" font-family="sans-serif" font-size="13" lengthAdjust="spacing" textLength="114" x="456.5" y="801.8638">401 Unauthorized</text><!--SRC=[fL9DRjD05DxFATu5qZI5LOMG05KLGgYL80SOZwV5gcCNpxYBhjf4I4YDw8OrAmwGLWcaQUrUuSsD-etZGkA0YCJ6zepVp_Td8njhugzSkdEUyOZudak-TKF-YVSrZroV9pXV2c6EekHOPh97Hd_CTQBqMssCFDGlukWm8QKJgpCXfB9fHbs3RrJRI4N7Ch7KVIr2QMKWZQP0gYCKvZPDybwWCtgoqTde2Dz3hUSefUqA4b_n21Ychk-6n8K7v0Rk2_5u3jSD16hHuGUYPtVdFRLLRcpQQmMfp4BJbYSoYcKGw_h2DpnhjHuxjZOtQU-DaB6jXsBL018KxkBN5fxwJqXGtTIORg5A0MINSzH-v1psTpITyPrNyjfTeDeVHml36ZJ7NbwCdBZ-GaUZg4313vxwiLKX9fKmQEpjSSDb4VRttgseK7ElU9fSAVXsaCUaOCQA81rwbMbfTTXazWrH07rF1s0g-Zn1Nc39UVNhPf6bZc4qJfzHTUMJrLZq5Cg_b25bFal6DfVz3YJymBO5obwDDXwJPSUmmUzSMTEXReAeVKYpw1IaT1AA6bmn5xtXk_lqIAFasTzX_Hc07xwKwwsLN9VGQkREiAXAzVfHharSnyCgrElPzn-E_LFe1m00]--></g></svg>