<?xml version="1.0" encoding="us-ascii" standalone="no"?><svg xmlns="http://www.w3.org/2000/svg" xmlns:xlink="http://www.w3.org/1999/xlink" contentStyleType="text/css" height="912px" preserveAspectRatio="none" style="width:693px;height:912px;background:#1B1B1B;" version="1.1" viewBox="0 0 693 912" width="693px" zoomAndPan="magnify"><defs/><g><rect fill="#1B1B1B" height="912" style="stroke:none;stroke-width:1.0;" width="693" x="0" y="0"/><text fill="#FFFFFF" font-family="sans-serif" font-size="14" font-weight="bold" lengthAdjust="spacing" textLength="171" x="262" y="27.9951">&#1044;&#1086;&#1089;&#1082;&#1072; &#1087;&#1086;&#1083;&#1100;&#1079;&#1086;&#1074;&#1072;&#1090;&#1077;&#1083;&#1103;</text><rect fill="none" height="371.2031" style="stroke:#FFFFFF;stroke-width:1.5;" width="676" x="10" y="222.9922"/><rect fill="none" height="179.6016" style="stroke:#FFFFFF;stroke-width:1.5;" width="656" x="20" y="363.6563"/><rect fill="none" height="148.4688" style="stroke:#FFFFFF;stroke-width:1.5;" width="656" x="20" y="666.4609"/><line style="stroke:#E7E7E7;stroke-width:0.5;stroke-dasharray:5.0,5.0;" x1="48" x2="48" y1="118.5938" y2="831.9297"/><line style="stroke:#E7E7E7;stroke-width:0.5;stroke-dasharray:5.0,5.0;" x1="339" x2="339" y1="118.5938" y2="831.9297"/><line style="stroke:#E7E7E7;stroke-width:0.5;stroke-dasharray:5.0,5.0;" x1="645" x2="645" y1="118.5938" y2="831.9297"/><text fill="#FFFFFF" font-family="sans-serif" font-size="14" lengthAdjust="spacing" textLength="31" x="30" y="115.292">User</text><ellipse cx="48.5" cy="50.7969" fill="#222222" rx="8" ry="8" style="stroke:#E7E7E7;stroke-width:0.5;"/><path d="M48.5,58.7969 L48.5,85.7969 M35.5,66.7969 L61.5,66.7969 M48.5,85.7969 L35.5,100.7969 M48.5,85.7969 L61.5,100.7969 " fill="none" style="stroke:#E7E7E7;stroke-width:0.5;"/><text fill="#FFFFFF" font-family="sans-serif" font-size="14" lengthAdjust="spacing" textLength="31" x="30" y="843.9248">User</text><ellipse cx="48.5" cy="855.7266" fill="#222222" rx="8" ry="8" style="stroke:#E7E7E7;stroke-width:0.5;"/><path d="M48.5,863.7266 L48.5,890.7266 M35.5,871.7266 L61.5,871.7266 M48.5,890.7266 L35.5,905.7266 M48.5,890.7266 L61.5,905.7266 " fill="none" style="stroke:#E7E7E7;stroke-width:0.5;"/><rect fill="#222222" height="30.2969" rx="2.5" ry="2.5" style="stroke:#E7E7E7;stroke-width:0.5;" width="27" x="326" y="87.2969"/><text fill="#FFFFFF" font-family="sans-serif" font-size="14" lengthAdjust="spacing" textLength="13" x="333" y="107.292">UI</text><rect fill="#222222" height="30.2969" rx="2.5" ry="2.5" style="stroke:#E7E7E7;stroke-width:0.5;" width="27" x="326" y="830.9297"/><text fill="#FFFFFF" font-family="sans-serif" font-size="14" lengthAdjust="spacing" textLength="13" x="333" y="850.9248">UI</text><text fill="#FFFFFF" font-family="sans-serif" font-size="14" lengthAdjust="spacing" textLength="35" x="625" y="115.292">back</text><path d="M627.5,66.2969 C627.5,56.2969 645.5,56.2969 645.5,56.2969 C645.5,56.2969 663.5,56.2969 663.5,66.2969 L663.5,92.2969 C663.5,102.2969 645.5,102.2969 645.5,102.2969 C645.5,102.2969 627.5,102.2969 627.5,92.2969 L627.5,66.2969 " fill="#222222" style="stroke:#E7E7E7;stroke-width:1.5;"/><path d="M627.5,66.2969 C627.5,76.2969 645.5,76.2969 645.5,76.2969 C645.5,76.2969 663.5,76.2969 663.5,66.2969 " fill="none" style="stroke:#E7E7E7;stroke-width:1.5;"/><text fill="#FFFFFF" font-family="sans-serif" font-size="14" lengthAdjust="spacing" textLength="35" x="625" y="843.9248">back</text><path d="M627.5,857.2266 C627.5,847.2266 645.5,847.2266 645.5,847.2266 C645.5,847.2266 663.5,847.2266 663.5,857.2266 L663.5,883.2266 C663.5,893.2266 645.5,893.2266 645.5,893.2266 C645.5,893.2266 627.5,893.2266 627.5,883.2266 L627.5,857.2266 " fill="#222222" style="stroke:#E7E7E7;stroke-width:1.5;"/><path d="M627.5,857.2266 C627.5,867.2266 645.5,867.2266 645.5,867.2266 C645.5,867.2266 663.5,867.2266 663.5,857.2266 " fill="none" style="stroke:#E7E7E7;stroke-width:1.5;"/><polygon fill="#E7E7E7" points="327.5,145.7266,337.5,149.7266,327.5,153.7266,331.5,149.7266" style="stroke:#E7E7E7;stroke-width:1.0;"/><line style="stroke:#E7E7E7;stroke-width:1.0;" x1="48.5" x2="333.5" y1="149.7266" y2="149.7266"/><text fill="#FFFFFF" font-family="sans-serif" font-size="13" font-weight="bold" lengthAdjust="spacing" textLength="37" x="96" y="144.6606">1.1.1</text><text fill="#FFFFFF" font-family="sans-serif" font-size="13" lengthAdjust="spacing" textLength="155" x="137" y="144.6606">&#1044;&#1086;&#1073;&#1072;&#1074;&#1080;&#1090;&#1100; &#1085;&#1086;&#1074;&#1091;&#1102; &#1076;&#1086;&#1089;&#1082;&#1091;</text><polygon fill="#E7E7E7" points="633.5,174.8594,643.5,178.8594,633.5,182.8594,637.5,178.8594" style="stroke:#E7E7E7;stroke-width:1.0;"/><line style="stroke:#E7E7E7;stroke-width:1.0;" x1="339.5" x2="639.5" y1="178.8594" y2="178.8594"/><text fill="#FFFFFF" font-family="sans-serif" font-size="13" font-weight="bold" lengthAdjust="spacing" textLength="37" x="351.5" y="173.7935">1.1.2</text><text fill="#FFFFFF" font-family="sans-serif" font-size="13" lengthAdjust="spacing" textLength="241" x="392.5" y="173.7935">GET /custom-boards/available-boards</text><polygon fill="#E7E7E7" points="350.5,203.9922,340.5,207.9922,350.5,211.9922,346.5,207.9922" style="stroke:#E7E7E7;stroke-width:1.0;"/><line style="stroke:#E7E7E7;stroke-width:1.0;stroke-dasharray:2.0,2.0;" x1="344.5" x2="644.5" y1="207.9922" y2="207.9922"/><text fill="#FFFFFF" font-family="sans-serif" font-size="13" font-weight="bold" lengthAdjust="spacing" textLength="36" x="449.5" y="202.9263">1.1.3</text><text fill="#FFFFFF" font-family="sans-serif" font-size="13" lengthAdjust="spacing" textLength="46" x="489.5" y="202.9263">200 OK</text><path d="M10,222.9922 L76,222.9922 L76,230.125 L66,240.125 L10,240.125 L10,222.9922 " fill="#555555" style="stroke:#FFFFFF;stroke-width:1.5;"/><rect fill="none" height="371.2031" style="stroke:#FFFFFF;stroke-width:1.5;" width="676" x="10" y="222.9922"/><text fill="#FFFFFF" font-family="sans-serif" font-size="13" font-weight="bold" lengthAdjust="spacing" textLength="21" x="25" y="236.0591">alt</text><text fill="#FFFFFF" font-family="sans-serif" font-size="11" font-weight="bold" lengthAdjust="spacing" textLength="234" x="91" y="235.2026">[&#1076;&#1086;&#1089;&#1090;&#1091;&#1087;&#1085;&#1099; &#1076;&#1086;&#1089;&#1082;&#1080; &#1076;&#1083;&#1103; &#1076;&#1086;&#1073;&#1072;&#1074;&#1083;&#1077;&#1085;&#1080;&#1103;]</text><polygon fill="#E7E7E7" points="59.5,257.2578,49.5,261.2578,59.5,265.2578,55.5,261.2578" style="stroke:#E7E7E7;stroke-width:1.0;"/><line style="stroke:#E7E7E7;stroke-width:1.0;stroke-dasharray:2.0,2.0;" x1="53.5" x2="338.5" y1="261.2578" y2="261.2578"/><text fill="#FFFFFF" font-family="sans-serif" font-size="13" font-weight="bold" lengthAdjust="spacing" textLength="37" x="102.5" y="256.1919">1.1.4</text><text fill="#FFFFFF" font-family="sans-serif" font-size="13" lengthAdjust="spacing" textLength="142" x="143.5" y="256.1919">&#1060;&#1086;&#1088;&#1084;&#1072; &#1074;&#1099;&#1073;&#1086;&#1088;&#1072; &#1076;&#1086;&#1089;&#1082;&#1080;</text><polygon fill="#E7E7E7" points="327.5,286.3906,337.5,290.3906,327.5,294.3906,331.5,290.3906" style="stroke:#E7E7E7;stroke-width:1.0;"/><line style="stroke:#E7E7E7;stroke-width:1.0;" x1="48.5" x2="333.5" y1="290.3906" y2="290.3906"/><text fill="#FFFFFF" font-family="sans-serif" font-size="13" font-weight="bold" lengthAdjust="spacing" textLength="37" x="126" y="285.3247">1.1.5</text><text fill="#FFFFFF" font-family="sans-serif" font-size="13" lengthAdjust="spacing" textLength="95" x="167" y="285.3247">&#1076;&#1077;&#1083;&#1072;&#1077;&#1090; &#1074;&#1099;&#1073;&#1086;&#1088;</text><polygon fill="#E7E7E7" points="327.5,315.5234,337.5,319.5234,327.5,323.5234,331.5,319.5234" style="stroke:#E7E7E7;stroke-width:1.0;"/><line style="stroke:#E7E7E7;stroke-width:1.0;" x1="48.5" x2="333.5" y1="319.5234" y2="319.5234"/><text fill="#FFFFFF" font-family="sans-serif" font-size="13" font-weight="bold" lengthAdjust="spacing" textLength="37" x="111" y="314.4575">1.1.6</text><text fill="#FFFFFF" font-family="sans-serif" font-size="13" lengthAdjust="spacing" textLength="125" x="152" y="314.4575">&#1085;&#1072;&#1078;&#1080;&#1084;&#1072;&#1077;&#1090; &#1089;&#1086;&#1079;&#1076;&#1072;&#1090;&#1100;</text><polygon fill="#E7E7E7" points="633.5,344.6563,643.5,348.6563,633.5,352.6563,637.5,348.6563" style="stroke:#E7E7E7;stroke-width:1.0;"/><line style="stroke:#E7E7E7;stroke-width:1.0;" x1="339.5" x2="639.5" y1="348.6563" y2="348.6563"/><text fill="#FFFFFF" font-family="sans-serif" font-size="13" font-weight="bold" lengthAdjust="spacing" textLength="37" x="378.5" y="343.5903">1.1.7</text><text fill="#FFFFFF" font-family="sans-serif" font-size="13" lengthAdjust="spacing" textLength="187" x="419.5" y="343.5903">POST /custom-boards/boards</text><path d="M20,363.6563 L86,363.6563 L86,370.7891 L76,380.7891 L20,380.7891 L20,363.6563 " fill="#555555" style="stroke:#FFFFFF;stroke-width:1.5;"/><rect fill="none" height="179.6016" style="stroke:#FFFFFF;stroke-width:1.5;" width="656" x="20" y="363.6563"/><text fill="#FFFFFF" font-family="sans-serif" font-size="13" font-weight="bold" lengthAdjust="spacing" textLength="21" x="35" y="376.7231">alt</text><text fill="#FFFFFF" font-family="sans-serif" font-size="11" font-weight="bold" lengthAdjust="spacing" textLength="114" x="101" y="375.8667">[successful case]</text><polygon fill="#E7E7E7" points="350.5,397.9219,340.5,401.9219,350.5,405.9219,346.5,401.9219" style="stroke:#E7E7E7;stroke-width:1.0;"/><line style="stroke:#E7E7E7;stroke-width:1.0;stroke-dasharray:2.0,2.0;" x1="344.5" x2="644.5" y1="401.9219" y2="401.9219"/><text fill="#FFFFFF" font-family="sans-serif" font-size="13" font-weight="bold" lengthAdjust="spacing" textLength="37" x="432.5" y="396.856">1.1.8</text><text fill="#FFFFFF" font-family="sans-serif" font-size="13" lengthAdjust="spacing" textLength="79" x="473.5" y="396.856">201 Created</text><polygon fill="#E7E7E7" points="59.5,427.0547,49.5,431.0547,59.5,435.0547,55.5,431.0547" style="stroke:#E7E7E7;stroke-width:1.0;"/><line style="stroke:#E7E7E7;stroke-width:1.0;stroke-dasharray:2.0,2.0;" x1="53.5" x2="338.5" y1="431.0547" y2="431.0547"/><text fill="#FFFFFF" font-family="sans-serif" font-size="13" font-weight="bold" lengthAdjust="spacing" textLength="37" x="80" y="425.9888">1.1.9</text><text fill="#FFFFFF" font-family="sans-serif" font-size="13" lengthAdjust="spacing" textLength="187" x="121" y="425.9888">&#1054;&#1090;&#1086;&#1073;&#1088;&#1072;&#1078;&#1077;&#1085;&#1080;&#1077; &#1087;&#1091;&#1089;&#1090;&#1086;&#1081; &#1076;&#1086;&#1089;&#1082;&#1080;</text><line style="stroke:#FFFFFF;stroke-width:1.0;stroke-dasharray:2.0,2.0;" x1="20" x2="676" y1="440.0547" y2="440.0547"/><text fill="#FFFFFF" font-family="sans-serif" font-size="11" font-weight="bold" lengthAdjust="spacing" textLength="64" x="25" y="450.2651">[&#1086;&#1096;&#1080;&#1073;&#1082;&#1072;]</text><polygon fill="#E7E7E7" points="350.5,470.9922,340.5,474.9922,350.5,478.9922,346.5,474.9922" style="stroke:#E7E7E7;stroke-width:1.0;"/><line style="stroke:#E7E7E7;stroke-width:1.0;stroke-dasharray:2.0,2.0;" x1="344.5" x2="644.5" y1="474.9922" y2="474.9922"/><text fill="#FFFFFF" font-family="sans-serif" font-size="13" font-weight="bold" lengthAdjust="spacing" textLength="47" x="414.5" y="469.9263">1.1.10</text><text fill="#FFFFFF" font-family="sans-serif" font-size="13" lengthAdjust="spacing" textLength="105" x="465.5" y="469.9263">400 Bad request</text><polygon fill="#E7E7E7" points="59.5,500.125,49.5,504.125,59.5,508.125,55.5,504.125" style="stroke:#E7E7E7;stroke-width:1.0;"/><line style="stroke:#E7E7E7;stroke-width:1.0;stroke-dasharray:2.0,2.0;" x1="53.5" x2="338.5" y1="504.125" y2="504.125"/><text fill="#FFFFFF" font-family="sans-serif" font-size="13" font-weight="bold" lengthAdjust="spacing" textLength="46" x="60.5" y="499.0591">1.1.11</text><text fill="#FFFFFF" font-family="sans-serif" font-size="13" lengthAdjust="spacing" textLength="217" x="110.5" y="499.0591">&#1044;&#1086;&#1089;&#1082;&#1072; &#1091;&#1078;&#1077; &#1089;&#1086;&#1079;&#1076;&#1072;&#1085;&#1072;/&#1085;&#1077;&#1076;&#1086;&#1089;&#1090;&#1091;&#1087;&#1085;&#1072;</text><line style="stroke:#FFFFFF;stroke-width:1.0;stroke-dasharray:2.0,2.0;" x1="20" x2="676" y1="513.125" y2="513.125"/><polygon fill="#E7E7E7" points="350.5,531.2578,340.5,535.2578,350.5,539.2578,346.5,535.2578" style="stroke:#E7E7E7;stroke-width:1.0;"/><line style="stroke:#E7E7E7;stroke-width:1.0;stroke-dasharray:2.0,2.0;" x1="344.5" x2="644.5" y1="535.2578" y2="535.2578"/><text fill="#FFFFFF" font-family="sans-serif" font-size="13" font-weight="bold" lengthAdjust="spacing" textLength="46" x="411" y="530.1919">1.1.12</text><text fill="#FFFFFF" font-family="sans-serif" font-size="13" lengthAdjust="spacing" textLength="113" x="461" y="530.1919">401 Unauthorized</text><line style="stroke:#FFFFFF;stroke-width:1.0;stroke-dasharray:2.0,2.0;" x1="10" x2="686" y1="551.2578" y2="551.2578"/><text fill="#FFFFFF" font-family="sans-serif" font-size="11" font-weight="bold" lengthAdjust="spacing" textLength="157" x="15" y="561.4683">[&#1085;&#1077;&#1090; &#1076;&#1086;&#1089;&#1090;&#1091;&#1087;&#1085;&#1099;&#1093; &#1076;&#1086;&#1089;&#1086;&#1082;]</text><polygon fill="#E7E7E7" points="59.5,582.1953,49.5,586.1953,59.5,590.1953,55.5,586.1953" style="stroke:#E7E7E7;stroke-width:1.0;"/><line style="stroke:#E7E7E7;stroke-width:1.0;stroke-dasharray:2.0,2.0;" x1="53.5" x2="338.5" y1="586.1953" y2="586.1953"/><text fill="#FFFFFF" font-family="sans-serif" font-size="13" font-weight="bold" lengthAdjust="spacing" textLength="45" x="106.5" y="581.1294">1.1.13</text><text fill="#FFFFFF" font-family="sans-serif" font-size="13" lengthAdjust="spacing" textLength="126" x="155.5" y="581.1294">&#1044;&#1086;&#1089;&#1082;&#1072; &#1085;&#1077;&#1076;&#1086;&#1089;&#1090;&#1091;&#1087;&#1085;&#1072;</text><polygon fill="#E7E7E7" points="327.5,618.3281,337.5,622.3281,327.5,626.3281,331.5,622.3281" style="stroke:#E7E7E7;stroke-width:1.0;"/><line style="stroke:#E7E7E7;stroke-width:1.0;" x1="48.5" x2="333.5" y1="622.3281" y2="622.3281"/><text fill="#FFFFFF" font-family="sans-serif" font-size="13" font-weight="bold" lengthAdjust="spacing" textLength="37" x="123.5" y="617.2622">1.1.1</text><text fill="#FFFFFF" font-family="sans-serif" font-size="13" lengthAdjust="spacing" textLength="100" x="164.5" y="617.2622">&#1086;&#1090;&#1082;&#1088;&#1099;&#1090;&#1100; &#1076;&#1086;&#1089;&#1082;&#1091;</text><polygon fill="#E7E7E7" points="633.5,647.4609,643.5,651.4609,633.5,655.4609,637.5,651.4609" style="stroke:#E7E7E7;stroke-width:1.0;"/><line style="stroke:#E7E7E7;stroke-width:1.0;" x1="339.5" x2="639.5" y1="651.4609" y2="651.4609"/><text fill="#FFFFFF" font-family="sans-serif" font-size="13" font-weight="bold" lengthAdjust="spacing" textLength="37" x="382.5" y="646.395">1.1.2</text><text fill="#FFFFFF" font-family="sans-serif" font-size="13" lengthAdjust="spacing" textLength="179" x="423.5" y="646.395">GET /custom-boards/boards</text><path d="M20,666.4609 L86,666.4609 L86,673.5938 L76,683.5938 L20,683.5938 L20,666.4609 " fill="#555555" style="stroke:#FFFFFF;stroke-width:1.5;"/><rect fill="none" height="148.4688" style="stroke:#FFFFFF;stroke-width:1.5;" width="656" x="20" y="666.4609"/><text fill="#FFFFFF" font-family="sans-serif" font-size="13" font-weight="bold" lengthAdjust="spacing" textLength="21" x="35" y="679.5278">alt</text><text fill="#FFFFFF" font-family="sans-serif" font-size="11" font-weight="bold" lengthAdjust="spacing" textLength="114" x="101" y="678.6714">[successful case]</text><polygon fill="#E7E7E7" points="350.5,700.7266,340.5,704.7266,350.5,708.7266,346.5,704.7266" style="stroke:#E7E7E7;stroke-width:1.0;"/><line style="stroke:#E7E7E7;stroke-width:1.0;stroke-dasharray:2.0,2.0;" x1="344.5" x2="644.5" y1="704.7266" y2="704.7266"/><text fill="#FFFFFF" font-family="sans-serif" font-size="13" font-weight="bold" lengthAdjust="spacing" textLength="36" x="449.5" y="699.6606">1.1.3</text><text fill="#FFFFFF" font-family="sans-serif" font-size="13" lengthAdjust="spacing" textLength="46" x="489.5" y="699.6606">200 OK</text><polygon fill="#E7E7E7" points="59.5,729.8594,49.5,733.8594,59.5,737.8594,55.5,733.8594" style="stroke:#E7E7E7;stroke-width:1.0;"/><line style="stroke:#E7E7E7;stroke-width:1.0;stroke-dasharray:2.0,2.0;" x1="53.5" x2="338.5" y1="733.8594" y2="733.8594"/><text fill="#FFFFFF" font-family="sans-serif" font-size="13" font-weight="bold" lengthAdjust="spacing" textLength="37" x="105" y="728.7935">1.1.4</text><text fill="#FFFFFF" font-family="sans-serif" font-size="13" lengthAdjust="spacing" textLength="137" x="146" y="728.7935">&#1054;&#1090;&#1086;&#1073;&#1088;&#1072;&#1078;&#1077;&#1085;&#1080;&#1077; &#1076;&#1086;&#1089;&#1082;&#1080;</text><line style="stroke:#FFFFFF;stroke-width:1.0;stroke-dasharray:2.0,2.0;" x1="20" x2="676" y1="742.8594" y2="742.8594"/><text fill="#FFFFFF" font-family="sans-serif" font-size="11" font-weight="bold" lengthAdjust="spacing" textLength="64" x="25" y="753.0698">[&#1086;&#1096;&#1080;&#1073;&#1082;&#1072;]</text><polygon fill="#E7E7E7" points="350.5,773.7969,340.5,777.7969,350.5,781.7969,346.5,777.7969" style="stroke:#E7E7E7;stroke-width:1.0;"/><line style="stroke:#E7E7E7;stroke-width:1.0;stroke-dasharray:2.0,2.0;" x1="344.5" x2="644.5" y1="777.7969" y2="777.7969"/><text fill="#FFFFFF" font-family="sans-serif" font-size="13" font-weight="bold" lengthAdjust="spacing" textLength="37" x="419.5" y="772.731">1.1.5</text><text fill="#FFFFFF" font-family="sans-serif" font-size="13" lengthAdjust="spacing" textLength="105" x="460.5" y="772.731">400 Bad request</text><polygon fill="#E7E7E7" points="350.5,802.9297,340.5,806.9297,350.5,810.9297,346.5,806.9297" style="stroke:#E7E7E7;stroke-width:1.0;"/><line style="stroke:#E7E7E7;stroke-width:1.0;stroke-dasharray:2.0,2.0;" x1="344.5" x2="644.5" y1="806.9297" y2="806.9297"/><text fill="#FFFFFF" font-family="sans-serif" font-size="13" font-weight="bold" lengthAdjust="spacing" textLength="37" x="415.5" y="801.8638">1.1.6</text><text fill="#FFFFFF" font-family="sans-serif" font-size="13" lengthAdjust="spacing" textLength="113" x="456.5" y="801.8638">401 Unauthorized</text><!--SRC=[fL9DJjj05DxFATu5qf2ALOKgjLLLLGXH2NA0yNWA5evDFMCMh21HfKf4PTDrLpr0G0ca0PihlBbHlt4C3Kuh8Y5BjiT-Fz-VZMoiYNzmwKvvnYFYEoxvnWtv6izB7ha-Jt0-5y8SHCcXp6IFZFwIwqJfBMsCtDDlucWl8QKJgpCXfB9fHbs3TrJRI4M7Ch7K_IX2QMKWZQP0gWCKvZPDybwWC-gym2Ly3xLUevHULP3uWaV0C7LzDoGkF20tSD-9ntEuRY1GYmu_43qVtkzIM-N6fhrMaCeiD6rv9ADO1h6kF_Y6ZLRhlkFbsXfjRmePsteeLWqWGU7E7hRmrBz2WkfBZUa6gXH0TZv7xKVEOVz2qmdVUYKltHcg_N6qCAn1S-pbnSY9wozqD8eA55pnr8-j2Z6fX45ZRuyRFXRXq_REaWerzugdoPM2Rv_pc1JCM1AaG-yoBQqEcyn-8WgWx-a0J4MV9yWBB3cjVlrUPAbZ68tJDrHT-6Gr5gr3-RSofCndoTZcih-1X1_Oja3Pgz76RVBOCMpmEvVMTAYR86hxQHOTWvHEGb63A-QYDtntN-zfb3pxFwn_0_33dyXr2QrcxWIBgbIl7kNQn5Kyh4AzcdtFSEn9eVy0]--></g></svg>