<?xml version="1.0" encoding="us-ascii" standalone="no"?><svg xmlns="http://www.w3.org/2000/svg" xmlns:xlink="http://www.w3.org/1999/xlink" contentStyleType="text/css" height="1384px" preserveAspectRatio="none" style="width:806px;height:1384px;background:#1B1B1B;" version="1.1" viewBox="0 0 806 1384" width="806px" zoomAndPan="magnify"><defs/><g><rect fill="#1B1B1B" height="1384" style="stroke:none;stroke-width:1.0;" width="806" x="0" y="0"/><text fill="#FFFFFF" font-family="sans-serif" font-size="14" font-weight="bold" lengthAdjust="spacing" textLength="127" x="340.75" y="27.9951">&#1044;&#1086;&#1089;&#1082;&#1072; &#1060;&#1088;&#1080;&#1083;&#1072;&#1085;&#1089;</text><rect fill="none" height="181.6016" style="stroke:#FFFFFF;stroke-width:1.5;" width="789.5" x="10" y="281.2578"/><rect fill="none" height="46.2656" style="stroke:#FFFFFF;stroke-width:1.5;" width="390.5" x="20" y="334.5234"/><rect fill="none" height="181.6016" style="stroke:#FFFFFF;stroke-width:1.5;" width="789.5" x="10" y="855.5859"/><rect fill="none" height="46.2656" style="stroke:#FFFFFF;stroke-width:1.5;" width="390.5" x="20" y="908.8516"/><rect fill="none" height="119.3359" style="stroke:#FFFFFF;stroke-width:1.5;" width="779.5" x="20" y="1167.7188"/><line style="stroke:#E7E7E7;stroke-width:0.5;stroke-dasharray:5.0,5.0;" x1="49" x2="49" y1="118.5938" y2="1304.0547"/><line style="stroke:#E7E7E7;stroke-width:0.5;stroke-dasharray:5.0,5.0;" x1="386.5" x2="386.5" y1="118.5938" y2="1304.0547"/><line style="stroke:#E7E7E7;stroke-width:0.5;stroke-dasharray:5.0,5.0;" x1="769.5" x2="769.5" y1="118.5938" y2="1304.0547"/><text fill="#FFFFFF" font-family="sans-serif" font-size="14" lengthAdjust="spacing" textLength="32" x="30" y="115.292">User</text><ellipse cx="49" cy="50.7969" fill="#222222" rx="8" ry="8" style="stroke:#E7E7E7;stroke-width:0.5;"/><path d="M49,58.7969 L49,85.7969 M36,66.7969 L62,66.7969 M49,85.7969 L36,100.7969 M49,85.7969 L62,100.7969 " fill="none" style="stroke:#E7E7E7;stroke-width:0.5;"/><text fill="#FFFFFF" font-family="sans-serif" font-size="14" lengthAdjust="spacing" textLength="32" x="30" y="1316.0498">User</text><ellipse cx="49" cy="1327.8516" fill="#222222" rx="8" ry="8" style="stroke:#E7E7E7;stroke-width:0.5;"/><path d="M49,1335.8516 L49,1362.8516 M36,1343.8516 L62,1343.8516 M49,1362.8516 L36,1377.8516 M49,1362.8516 L62,1377.8516 " fill="none" style="stroke:#E7E7E7;stroke-width:0.5;"/><rect fill="#222222" height="30.2969" rx="2.5" ry="2.5" style="stroke:#E7E7E7;stroke-width:0.5;" width="27" x="373.5" y="87.2969"/><text fill="#FFFFFF" font-family="sans-serif" font-size="14" lengthAdjust="spacing" textLength="13" x="380.5" y="107.292">UI</text><rect fill="#222222" height="30.2969" rx="2.5" ry="2.5" style="stroke:#E7E7E7;stroke-width:0.5;" width="27" x="373.5" y="1303.0547"/><text fill="#FFFFFF" font-family="sans-serif" font-size="14" lengthAdjust="spacing" textLength="13" x="380.5" y="1323.0498">UI</text><text fill="#FFFFFF" font-family="sans-serif" font-size="14" lengthAdjust="spacing" textLength="33" x="750.5" y="115.292">back</text><path d="M752,66.2969 C752,56.2969 770,56.2969 770,56.2969 C770,56.2969 788,56.2969 788,66.2969 L788,92.2969 C788,102.2969 770,102.2969 770,102.2969 C770,102.2969 752,102.2969 752,92.2969 L752,66.2969 " fill="#222222" style="stroke:#E7E7E7;stroke-width:1.5;"/><path d="M752,66.2969 C752,76.2969 770,76.2969 770,76.2969 C770,76.2969 788,76.2969 788,66.2969 " fill="none" style="stroke:#E7E7E7;stroke-width:1.5;"/><text fill="#FFFFFF" font-family="sans-serif" font-size="14" lengthAdjust="spacing" textLength="33" x="750.5" y="1316.0498">back</text><path d="M752,1329.3516 C752,1319.3516 770,1319.3516 770,1319.3516 C770,1319.3516 788,1319.3516 788,1329.3516 L788,1355.3516 C788,1365.3516 770,1365.3516 770,1365.3516 C770,1365.3516 752,1365.3516 752,1355.3516 L752,1329.3516 " fill="#222222" style="stroke:#E7E7E7;stroke-width:1.5;"/><path d="M752,1329.3516 C752,1339.3516 770,1339.3516 770,1339.3516 C770,1339.3516 788,1339.3516 788,1329.3516 " fill="none" style="stroke:#E7E7E7;stroke-width:1.5;"/><polygon fill="#E7E7E7" points="375,145.7266,385,149.7266,375,153.7266,379,149.7266" style="stroke:#E7E7E7;stroke-width:1.0;"/><line style="stroke:#E7E7E7;stroke-width:1.0;" x1="49" x2="381" y1="149.7266" y2="149.7266"/><text fill="#FFFFFF" font-family="sans-serif" font-size="13" font-weight="bold" lengthAdjust="spacing" textLength="37" x="114" y="144.6606">1.3.1</text><text fill="#FFFFFF" font-family="sans-serif" font-size="13" lengthAdjust="spacing" textLength="167" x="155" y="144.6606">&#1044;&#1086;&#1073;&#1072;&#1074;&#1080;&#1090;&#1100; &#1085;&#1086;&#1074;&#1099;&#1081; &#1086;&#1090;&#1082;&#1083;&#1080;&#1082;</text><polygon fill="#E7E7E7" points="60,174.8594,50,178.8594,60,182.8594,56,178.8594" style="stroke:#E7E7E7;stroke-width:1.0;"/><line style="stroke:#E7E7E7;stroke-width:1.0;stroke-dasharray:2.0,2.0;" x1="54" x2="386" y1="178.8594" y2="178.8594"/><text fill="#FFFFFF" font-family="sans-serif" font-size="13" font-weight="bold" lengthAdjust="spacing" textLength="37" x="126" y="173.7935">1.3.2</text><text fill="#FFFFFF" font-family="sans-serif" font-size="13" lengthAdjust="spacing" textLength="143" x="167" y="173.7935">&#1060;&#1086;&#1088;&#1084;&#1072; &#1076;&#1083;&#1103; &#1086;&#1090;&#1087;&#1088;&#1072;&#1074;&#1082;&#1080;</text><polygon fill="#E7E7E7" points="375,203.9922,385,207.9922,375,211.9922,379,207.9922" style="stroke:#E7E7E7;stroke-width:1.0;"/><line style="stroke:#E7E7E7;stroke-width:1.0;" x1="49" x2="381" y1="207.9922" y2="207.9922"/><text fill="#FFFFFF" font-family="sans-serif" font-size="13" font-weight="bold" lengthAdjust="spacing" textLength="37" x="132.5" y="202.9263">1.3.3</text><text fill="#FFFFFF" font-family="sans-serif" font-size="13" lengthAdjust="spacing" textLength="130" x="173.5" y="202.9263">&#1047;&#1072;&#1087;&#1086;&#1083;&#1085;&#1103;&#1077;&#1090; &#1076;&#1072;&#1085;&#1085;&#1099;&#1077;</text><polygon fill="#E7E7E7" points="375,233.125,385,237.125,375,241.125,379,237.125" style="stroke:#E7E7E7;stroke-width:1.0;"/><line style="stroke:#E7E7E7;stroke-width:1.0;" x1="49" x2="381" y1="237.125" y2="237.125"/><text fill="#FFFFFF" font-family="sans-serif" font-size="13" font-weight="bold" lengthAdjust="spacing" textLength="37" x="116.5" y="232.0591">1.3.4</text><text fill="#FFFFFF" font-family="sans-serif" font-size="13" lengthAdjust="spacing" textLength="162" x="157.5" y="232.0591">&#1053;&#1072;&#1078;&#1080;&#1084;&#1072;&#1077;&#1090; "&#1054;&#1090;&#1087;&#1088;&#1072;&#1074;&#1080;&#1090;&#1100;"</text><polygon fill="#E7E7E7" points="758,262.2578,768,266.2578,758,270.2578,762,266.2578" style="stroke:#E7E7E7;stroke-width:1.0;"/><line style="stroke:#E7E7E7;stroke-width:1.0;" x1="387" x2="764" y1="266.2578" y2="266.2578"/><text fill="#FFFFFF" font-family="sans-serif" font-size="13" font-weight="bold" lengthAdjust="spacing" textLength="37" x="421.5" y="261.1919">1.3.5</text><text fill="#FFFFFF" font-family="sans-serif" font-size="13" lengthAdjust="spacing" textLength="273" x="462.5" y="261.1919">POST /custom-boards/freelance-responses</text><path d="M10,281.2578 L74,281.2578 L74,288.3906 L64,298.3906 L10,298.3906 L10,281.2578 " fill="#555555" style="stroke:#FFFFFF;stroke-width:1.5;"/><rect fill="none" height="181.6016" style="stroke:#FFFFFF;stroke-width:1.5;" width="789.5" x="10" y="281.2578"/><text fill="#FFFFFF" font-family="sans-serif" font-size="13" font-weight="bold" lengthAdjust="spacing" textLength="19" x="25" y="294.3247">alt</text><text fill="#FFFFFF" font-family="sans-serif" font-size="11" font-weight="bold" lengthAdjust="spacing" textLength="112" x="89" y="293.4683">[successful case]</text><polygon fill="#E7E7E7" points="398,315.5234,388,319.5234,398,323.5234,394,319.5234" style="stroke:#E7E7E7;stroke-width:1.0;"/><line style="stroke:#E7E7E7;stroke-width:1.0;stroke-dasharray:2.0,2.0;" x1="392" x2="769" y1="319.5234" y2="319.5234"/><text fill="#FFFFFF" font-family="sans-serif" font-size="13" font-weight="bold" lengthAdjust="spacing" textLength="37" x="518.5" y="314.4575">1.3.6</text><text fill="#FFFFFF" font-family="sans-serif" font-size="13" lengthAdjust="spacing" textLength="79" x="559.5" y="314.4575">201 Created</text><path d="M20,334.5234 L90,334.5234 L90,341.6563 L80,351.6563 L20,351.6563 L20,334.5234 " fill="#555555" style="stroke:#FFFFFF;stroke-width:1.5;"/><rect fill="none" height="46.2656" style="stroke:#FFFFFF;stroke-width:1.5;" width="390.5" x="20" y="334.5234"/><text fill="#FFFFFF" font-family="sans-serif" font-size="13" font-weight="bold" lengthAdjust="spacing" textLength="25" x="35" y="347.5903">opt</text><polygon fill="#E7E7E7" points="60,368.7891,50,372.7891,60,376.7891,56,372.7891" style="stroke:#E7E7E7;stroke-width:1.0;"/><line style="stroke:#E7E7E7;stroke-width:1.0;stroke-dasharray:2.0,2.0;" x1="54" x2="386" y1="372.7891" y2="372.7891"/><text fill="#FFFFFF" font-family="sans-serif" font-size="13" font-weight="bold" lengthAdjust="spacing" textLength="37" x="61" y="367.7231">1.3.7</text><text fill="#FFFFFF" font-family="sans-serif" font-size="13" lengthAdjust="spacing" textLength="273" x="102" y="367.7231">push-&#1091;&#1074;&#1077;&#1076;&#1086;&#1084;&#1083;&#1077;&#1085;&#1080;&#1077; &#1086; &#1085;&#1086;&#1074;&#1086;&#1084; &#1076;&#1086;&#1089;&#1090;&#1080;&#1078;&#1077;&#1085;&#1080;&#1080;</text><line style="stroke:#FFFFFF;stroke-width:1.0;stroke-dasharray:2.0,2.0;" x1="10" x2="799.5" y1="388.7891" y2="388.7891"/><text fill="#FFFFFF" font-family="sans-serif" font-size="11" font-weight="bold" lengthAdjust="spacing" textLength="61" x="15" y="398.9995">[&#1086;&#1096;&#1080;&#1073;&#1082;&#1072;]</text><polygon fill="#E7E7E7" points="398,419.7266,388,423.7266,398,427.7266,394,423.7266" style="stroke:#E7E7E7;stroke-width:1.0;"/><line style="stroke:#E7E7E7;stroke-width:1.0;stroke-dasharray:2.0,2.0;" x1="392" x2="769" y1="423.7266" y2="423.7266"/><text fill="#FFFFFF" font-family="sans-serif" font-size="13" font-weight="bold" lengthAdjust="spacing" textLength="37" x="505" y="418.6606">1.3.8</text><text fill="#FFFFFF" font-family="sans-serif" font-size="13" lengthAdjust="spacing" textLength="106" x="546" y="418.6606">400 Bad request</text><line style="stroke:#FFFFFF;stroke-width:1.0;stroke-dasharray:2.0,2.0;" x1="10" x2="799.5" y1="432.7266" y2="432.7266"/><polygon fill="#E7E7E7" points="398,450.8594,388,454.8594,398,458.8594,394,454.8594" style="stroke:#E7E7E7;stroke-width:1.0;"/><line style="stroke:#E7E7E7;stroke-width:1.0;stroke-dasharray:2.0,2.0;" x1="392" x2="769" y1="454.8594" y2="454.8594"/><text fill="#FFFFFF" font-family="sans-serif" font-size="13" font-weight="bold" lengthAdjust="spacing" textLength="37" x="501" y="449.7935">1.3.9</text><text fill="#FFFFFF" font-family="sans-serif" font-size="13" lengthAdjust="spacing" textLength="114" x="542" y="449.7935">401 Unauthorized</text><polygon fill="#E7E7E7" points="375,486.9922,385,490.9922,375,494.9922,379,490.9922" style="stroke:#E7E7E7;stroke-width:1.0;"/><line style="stroke:#E7E7E7;stroke-width:1.0;" x1="49" x2="381" y1="490.9922" y2="490.9922"/><text fill="#FFFFFF" font-family="sans-serif" font-size="13" font-weight="bold" lengthAdjust="spacing" textLength="37" x="113.5" y="485.9263">1.4.1</text><text fill="#FFFFFF" font-family="sans-serif" font-size="13" lengthAdjust="spacing" textLength="168" x="154.5" y="485.9263">&#1054;&#1090;&#1082;&#1088;&#1099;&#1090;&#1100; &#1076;&#1086;&#1089;&#1082;&#1091; &#1060;&#1088;&#1080;&#1083;&#1072;&#1085;&#1089;</text><polygon fill="#E7E7E7" points="758,516.125,768,520.125,758,524.125,762,520.125" style="stroke:#E7E7E7;stroke-width:1.0;"/><line style="stroke:#E7E7E7;stroke-width:1.0;" x1="387" x2="764" y1="520.125" y2="520.125"/><text fill="#FFFFFF" font-family="sans-serif" font-size="13" font-weight="bold" lengthAdjust="spacing" textLength="37" x="426" y="515.0591">1.4.2</text><text fill="#FFFFFF" font-family="sans-serif" font-size="13" lengthAdjust="spacing" textLength="264" x="467" y="515.0591">GET /custom-boards/freelance-responses</text><polygon fill="#E7E7E7" points="398,545.2578,388,549.2578,398,553.2578,394,549.2578" style="stroke:#E7E7E7;stroke-width:1.0;"/><line style="stroke:#E7E7E7;stroke-width:1.0;stroke-dasharray:2.0,2.0;" x1="392" x2="769" y1="549.2578" y2="549.2578"/><text fill="#FFFFFF" font-family="sans-serif" font-size="13" font-weight="bold" lengthAdjust="spacing" textLength="37" x="535" y="544.1919">1.4.3</text><text fill="#FFFFFF" font-family="sans-serif" font-size="13" lengthAdjust="spacing" textLength="46" x="576" y="544.1919">200 OK</text><polygon fill="#E7E7E7" points="60,574.3906,50,578.3906,60,582.3906,56,578.3906" style="stroke:#E7E7E7;stroke-width:1.0;"/><line style="stroke:#E7E7E7;stroke-width:1.0;stroke-dasharray:2.0,2.0;" x1="54" x2="386" y1="578.3906" y2="578.3906"/><text fill="#FFFFFF" font-family="sans-serif" font-size="13" font-weight="bold" lengthAdjust="spacing" textLength="37" x="125.5" y="573.3247">1.4.4</text><text fill="#FFFFFF" font-family="sans-serif" font-size="13" lengthAdjust="spacing" textLength="144" x="166.5" y="573.3247">&#1044;&#1086;&#1089;&#1082;&#1072; &#1087;&#1088;&#1077;&#1076;&#1089;&#1090;&#1072;&#1074;&#1083;&#1077;&#1085;&#1072;</text><polygon fill="#E7E7E7" points="375,603.5234,385,607.5234,375,611.5234,379,607.5234" style="stroke:#E7E7E7;stroke-width:1.0;"/><line style="stroke:#E7E7E7;stroke-width:1.0;" x1="49" x2="381" y1="607.5234" y2="607.5234"/><text fill="#FFFFFF" font-family="sans-serif" font-size="13" font-weight="bold" lengthAdjust="spacing" textLength="37" x="107.5" y="602.4575">1.5.1</text><text fill="#FFFFFF" font-family="sans-serif" font-size="13" lengthAdjust="spacing" textLength="180" x="148.5" y="602.4575">&#1054;&#1090;&#1082;&#1088;&#1099;&#1090;&#1100; &#1082;&#1072;&#1088;&#1090;&#1086;&#1095;&#1082;&#1091; &#1079;&#1072;&#1082;&#1072;&#1079;&#1072;</text><polygon fill="#E7E7E7" points="758,632.6563,768,636.6563,758,640.6563,762,636.6563" style="stroke:#E7E7E7;stroke-width:1.0;"/><line style="stroke:#E7E7E7;stroke-width:1.0;" x1="387" x2="764" y1="636.6563" y2="636.6563"/><text fill="#FFFFFF" font-family="sans-serif" font-size="13" font-weight="bold" lengthAdjust="spacing" textLength="37" x="418.5" y="631.5903">1.5.2</text><text fill="#FFFFFF" font-family="sans-serif" font-size="13" lengthAdjust="spacing" textLength="279" x="459.5" y="631.5903">GET /custom-boards/freelance-responses/id</text><polygon fill="#E7E7E7" points="398,661.7891,388,665.7891,398,669.7891,394,665.7891" style="stroke:#E7E7E7;stroke-width:1.0;"/><line style="stroke:#E7E7E7;stroke-width:1.0;stroke-dasharray:2.0,2.0;" x1="392" x2="769" y1="665.7891" y2="665.7891"/><text fill="#FFFFFF" font-family="sans-serif" font-size="13" font-weight="bold" lengthAdjust="spacing" textLength="37" x="535" y="660.7231">1.5.3</text><text fill="#FFFFFF" font-family="sans-serif" font-size="13" lengthAdjust="spacing" textLength="46" x="576" y="660.7231">200 OK</text><polygon fill="#E7E7E7" points="60,690.9219,50,694.9219,60,698.9219,56,694.9219" style="stroke:#E7E7E7;stroke-width:1.0;"/><line style="stroke:#E7E7E7;stroke-width:1.0;stroke-dasharray:2.0,2.0;" x1="54" x2="386" y1="694.9219" y2="694.9219"/><text fill="#FFFFFF" font-family="sans-serif" font-size="13" font-weight="bold" lengthAdjust="spacing" textLength="37" x="113.5" y="689.856">1.5.4</text><text fill="#FFFFFF" font-family="sans-serif" font-size="13" lengthAdjust="spacing" textLength="168" x="154.5" y="689.856">&#1050;&#1072;&#1088;&#1090;&#1086;&#1095;&#1082;&#1072; &#1087;&#1088;&#1077;&#1076;&#1089;&#1090;&#1072;&#1074;&#1083;&#1077;&#1085;&#1072;</text><polygon fill="#E7E7E7" points="375,720.0547,385,724.0547,375,728.0547,379,724.0547" style="stroke:#E7E7E7;stroke-width:1.0;"/><line style="stroke:#E7E7E7;stroke-width:1.0;" x1="49" x2="381" y1="724.0547" y2="724.0547"/><text fill="#FFFFFF" font-family="sans-serif" font-size="13" font-weight="bold" lengthAdjust="spacing" textLength="37" x="90.5" y="718.9888">1.6.1</text><text fill="#FFFFFF" font-family="sans-serif" font-size="13" lengthAdjust="spacing" textLength="214" x="131.5" y="718.9888">&#1056;&#1077;&#1076;&#1072;&#1082;&#1090;&#1080;&#1088;&#1086;&#1074;&#1072;&#1090;&#1100; &#1076;&#1072;&#1085;&#1085;&#1099;&#1077; &#1079;&#1072;&#1082;&#1072;&#1079;&#1072;</text><polygon fill="#E7E7E7" points="60,749.1875,50,753.1875,60,757.1875,56,753.1875" style="stroke:#E7E7E7;stroke-width:1.0;"/><line style="stroke:#E7E7E7;stroke-width:1.0;stroke-dasharray:2.0,2.0;" x1="54" x2="386" y1="753.1875" y2="753.1875"/><text fill="#FFFFFF" font-family="sans-serif" font-size="13" font-weight="bold" lengthAdjust="spacing" textLength="37" x="137.5" y="748.1216">1.6.2</text><text fill="#FFFFFF" font-family="sans-serif" font-size="13" lengthAdjust="spacing" textLength="120" x="178.5" y="748.1216">&#1060;&#1086;&#1088;&#1084;&#1072; &#1089; &#1076;&#1072;&#1085;&#1085;&#1099;&#1084;&#1080;</text><polygon fill="#E7E7E7" points="375,778.3203,385,782.3203,375,786.3203,379,782.3203" style="stroke:#E7E7E7;stroke-width:1.0;"/><line style="stroke:#E7E7E7;stroke-width:1.0;" x1="49" x2="381" y1="782.3203" y2="782.3203"/><text fill="#FFFFFF" font-family="sans-serif" font-size="13" font-weight="bold" lengthAdjust="spacing" textLength="37" x="132" y="777.2544">1.7.1</text><text fill="#FFFFFF" font-family="sans-serif" font-size="13" lengthAdjust="spacing" textLength="131" x="173" y="777.2544">&#1054;&#1073;&#1085;&#1086;&#1074;&#1083;&#1103;&#1077;&#1090; &#1076;&#1072;&#1085;&#1085;&#1099;&#1077;</text><polygon fill="#E7E7E7" points="375,807.4531,385,811.4531,375,815.4531,379,811.4531" style="stroke:#E7E7E7;stroke-width:1.0;"/><line style="stroke:#E7E7E7;stroke-width:1.0;" x1="49" x2="381" y1="811.4531" y2="811.4531"/><text fill="#FFFFFF" font-family="sans-serif" font-size="13" font-weight="bold" lengthAdjust="spacing" textLength="37" x="118" y="806.3872">1.7.2</text><text fill="#FFFFFF" font-family="sans-serif" font-size="13" lengthAdjust="spacing" textLength="159" x="159" y="806.3872">&#1053;&#1072;&#1078;&#1080;&#1084;&#1072;&#1077;&#1090; "&#1057;&#1086;&#1093;&#1088;&#1072;&#1085;&#1080;&#1090;&#1100;"</text><polygon fill="#E7E7E7" points="758,836.5859,768,840.5859,758,844.5859,762,840.5859" style="stroke:#E7E7E7;stroke-width:1.0;"/><line style="stroke:#E7E7E7;stroke-width:1.0;" x1="387" x2="764" y1="840.5859" y2="840.5859"/><text fill="#FFFFFF" font-family="sans-serif" font-size="13" font-weight="bold" lengthAdjust="spacing" textLength="37" x="401.5" y="835.52">1.7.3</text><text fill="#FFFFFF" font-family="sans-serif" font-size="13" lengthAdjust="spacing" textLength="313" x="442.5" y="835.52">PATCH /custom-boards/freelance-responses/{id}</text><path d="M10,855.5859 L74,855.5859 L74,862.7188 L64,872.7188 L10,872.7188 L10,855.5859 " fill="#555555" style="stroke:#FFFFFF;stroke-width:1.5;"/><rect fill="none" height="181.6016" style="stroke:#FFFFFF;stroke-width:1.5;" width="789.5" x="10" y="855.5859"/><text fill="#FFFFFF" font-family="sans-serif" font-size="13" font-weight="bold" lengthAdjust="spacing" textLength="19" x="25" y="868.6528">alt</text><text fill="#FFFFFF" font-family="sans-serif" font-size="11" font-weight="bold" lengthAdjust="spacing" textLength="112" x="89" y="867.7964">[successful case]</text><polygon fill="#E7E7E7" points="398,889.8516,388,893.8516,398,897.8516,394,893.8516" style="stroke:#E7E7E7;stroke-width:1.0;"/><line style="stroke:#E7E7E7;stroke-width:1.0;stroke-dasharray:2.0,2.0;" x1="392" x2="769" y1="893.8516" y2="893.8516"/><text fill="#FFFFFF" font-family="sans-serif" font-size="13" font-weight="bold" lengthAdjust="spacing" textLength="37" x="535" y="888.7856">1.7.4</text><text fill="#FFFFFF" font-family="sans-serif" font-size="13" lengthAdjust="spacing" textLength="46" x="576" y="888.7856">200 OK</text><path d="M20,908.8516 L90,908.8516 L90,915.9844 L80,925.9844 L20,925.9844 L20,908.8516 " fill="#555555" style="stroke:#FFFFFF;stroke-width:1.5;"/><rect fill="none" height="46.2656" style="stroke:#FFFFFF;stroke-width:1.5;" width="390.5" x="20" y="908.8516"/><text fill="#FFFFFF" font-family="sans-serif" font-size="13" font-weight="bold" lengthAdjust="spacing" textLength="25" x="35" y="921.9185">opt</text><polygon fill="#E7E7E7" points="60,943.1172,50,947.1172,60,951.1172,56,947.1172" style="stroke:#E7E7E7;stroke-width:1.0;"/><line style="stroke:#E7E7E7;stroke-width:1.0;stroke-dasharray:2.0,2.0;" x1="54" x2="386" y1="947.1172" y2="947.1172"/><text fill="#FFFFFF" font-family="sans-serif" font-size="13" font-weight="bold" lengthAdjust="spacing" textLength="37" x="61" y="942.0513">1.7.5</text><text fill="#FFFFFF" font-family="sans-serif" font-size="13" lengthAdjust="spacing" textLength="273" x="102" y="942.0513">push-&#1091;&#1074;&#1077;&#1076;&#1086;&#1084;&#1083;&#1077;&#1085;&#1080;&#1077; &#1086; &#1085;&#1086;&#1074;&#1086;&#1084; &#1076;&#1086;&#1089;&#1090;&#1080;&#1078;&#1077;&#1085;&#1080;&#1080;</text><line style="stroke:#FFFFFF;stroke-width:1.0;stroke-dasharray:2.0,2.0;" x1="10" x2="799.5" y1="963.1172" y2="963.1172"/><text fill="#FFFFFF" font-family="sans-serif" font-size="11" font-weight="bold" lengthAdjust="spacing" textLength="61" x="15" y="973.3276">[&#1086;&#1096;&#1080;&#1073;&#1082;&#1072;]</text><polygon fill="#E7E7E7" points="398,994.0547,388,998.0547,398,1002.0547,394,998.0547" style="stroke:#E7E7E7;stroke-width:1.0;"/><line style="stroke:#E7E7E7;stroke-width:1.0;stroke-dasharray:2.0,2.0;" x1="392" x2="769" y1="998.0547" y2="998.0547"/><text fill="#FFFFFF" font-family="sans-serif" font-size="13" font-weight="bold" lengthAdjust="spacing" textLength="37" x="505" y="992.9888">1.7.6</text><text fill="#FFFFFF" font-family="sans-serif" font-size="13" lengthAdjust="spacing" textLength="106" x="546" y="992.9888">400 Bad request</text><line style="stroke:#FFFFFF;stroke-width:1.0;stroke-dasharray:2.0,2.0;" x1="10" x2="799.5" y1="1007.0547" y2="1007.0547"/><polygon fill="#E7E7E7" points="398,1025.1875,388,1029.1875,398,1033.1875,394,1029.1875" style="stroke:#E7E7E7;stroke-width:1.0;"/><line style="stroke:#E7E7E7;stroke-width:1.0;stroke-dasharray:2.0,2.0;" x1="392" x2="769" y1="1029.1875" y2="1029.1875"/><text fill="#FFFFFF" font-family="sans-serif" font-size="13" font-weight="bold" lengthAdjust="spacing" textLength="37" x="501" y="1024.1216">1.7.7</text><text fill="#FFFFFF" font-family="sans-serif" font-size="13" lengthAdjust="spacing" textLength="114" x="542" y="1024.1216">401 Unauthorized</text><polygon fill="#E7E7E7" points="375,1061.3203,385,1065.3203,375,1069.3203,379,1065.3203" style="stroke:#E7E7E7;stroke-width:1.0;"/><line style="stroke:#E7E7E7;stroke-width:1.0;" x1="49" x2="381" y1="1065.3203" y2="1065.3203"/><text fill="#FFFFFF" font-family="sans-serif" font-size="13" font-weight="bold" lengthAdjust="spacing" textLength="37" x="147.5" y="1060.2544">1.8.1</text><text fill="#FFFFFF" font-family="sans-serif" font-size="13" lengthAdjust="spacing" textLength="100" x="188.5" y="1060.2544">&#1059;&#1076;&#1072;&#1083;&#1080;&#1090;&#1100; &#1079;&#1072;&#1082;&#1072;&#1079;</text><polygon fill="#E7E7E7" points="60,1090.4531,50,1094.4531,60,1098.4531,56,1094.4531" style="stroke:#E7E7E7;stroke-width:1.0;"/><line style="stroke:#E7E7E7;stroke-width:1.0;stroke-dasharray:2.0,2.0;" x1="54" x2="386" y1="1094.4531" y2="1094.4531"/><text fill="#FFFFFF" font-family="sans-serif" font-size="13" font-weight="bold" lengthAdjust="spacing" textLength="37" x="137.5" y="1089.3872">1.8.2</text><text fill="#FFFFFF" font-family="sans-serif" font-size="13" lengthAdjust="spacing" textLength="120" x="178.5" y="1089.3872">&#1060;&#1086;&#1088;&#1084;&#1072; &#1089; &#1076;&#1072;&#1085;&#1085;&#1099;&#1084;&#1080;</text><polygon fill="#E7E7E7" points="375,1119.5859,385,1123.5859,375,1127.5859,379,1123.5859" style="stroke:#E7E7E7;stroke-width:1.0;"/><line style="stroke:#E7E7E7;stroke-width:1.0;" x1="49" x2="381" y1="1123.5859" y2="1123.5859"/><text fill="#FFFFFF" font-family="sans-serif" font-size="13" font-weight="bold" lengthAdjust="spacing" textLength="37" x="99" y="1118.52">1.8.3</text><text fill="#FFFFFF" font-family="sans-serif" font-size="13" lengthAdjust="spacing" textLength="197" x="140" y="1118.52">&#1053;&#1072;&#1078;&#1080;&#1084;&#1072;&#1077;&#1090; "&#1059;&#1076;&#1072;&#1083;&#1080;&#1090;&#1100; &#1086;&#1090;&#1082;&#1083;&#1080;&#1082;"</text><polygon fill="#E7E7E7" points="758,1148.7188,768,1152.7188,758,1156.7188,762,1152.7188" style="stroke:#E7E7E7;stroke-width:1.0;"/><line style="stroke:#E7E7E7;stroke-width:1.0;" x1="387" x2="764" y1="1152.7188" y2="1152.7188"/><text fill="#FFFFFF" font-family="sans-serif" font-size="13" font-weight="bold" lengthAdjust="spacing" textLength="37" x="399" y="1147.6528">1.8.4</text><text fill="#FFFFFF" font-family="sans-serif" font-size="13" lengthAdjust="spacing" textLength="318" x="440" y="1147.6528">DELETE /custom-boards/freelance-responses/{id}</text><path d="M20,1167.7188 L84,1167.7188 L84,1174.8516 L74,1184.8516 L20,1184.8516 L20,1167.7188 " fill="#555555" style="stroke:#FFFFFF;stroke-width:1.5;"/><rect fill="none" height="119.3359" style="stroke:#FFFFFF;stroke-width:1.5;" width="779.5" x="20" y="1167.7188"/><text fill="#FFFFFF" font-family="sans-serif" font-size="13" font-weight="bold" lengthAdjust="spacing" textLength="19" x="35" y="1180.7856">alt</text><text fill="#FFFFFF" font-family="sans-serif" font-size="11" font-weight="bold" lengthAdjust="spacing" textLength="112" x="99" y="1179.9292">[successful case]</text><polygon fill="#E7E7E7" points="398,1201.9844,388,1205.9844,398,1209.9844,394,1205.9844" style="stroke:#E7E7E7;stroke-width:1.0;"/><line style="stroke:#E7E7E7;stroke-width:1.0;stroke-dasharray:2.0,2.0;" x1="392" x2="769" y1="1205.9844" y2="1205.9844"/><text fill="#FFFFFF" font-family="sans-serif" font-size="13" font-weight="bold" lengthAdjust="spacing" textLength="37" x="508.5" y="1200.9185">1.8.5</text><text fill="#FFFFFF" font-family="sans-serif" font-size="13" lengthAdjust="spacing" textLength="99" x="549.5" y="1200.9185">204 No content</text><polygon fill="#E7E7E7" points="60,1231.1172,50,1235.1172,60,1239.1172,56,1235.1172" style="stroke:#E7E7E7;stroke-width:1.0;"/><line style="stroke:#E7E7E7;stroke-width:1.0;stroke-dasharray:2.0,2.0;" x1="54" x2="386" y1="1235.1172" y2="1235.1172"/><text fill="#FFFFFF" font-family="sans-serif" font-size="13" font-weight="bold" lengthAdjust="spacing" textLength="37" x="145.5" y="1230.0513">1.8.6</text><text fill="#FFFFFF" font-family="sans-serif" font-size="13" lengthAdjust="spacing" textLength="104" x="186.5" y="1230.0513">&#1054;&#1090;&#1082;&#1083;&#1080;&#1082; &#1091;&#1076;&#1072;&#1083;&#1077;&#1085;</text><line style="stroke:#FFFFFF;stroke-width:1.0;stroke-dasharray:2.0,2.0;" x1="20" x2="799.5" y1="1244.1172" y2="1244.1172"/><text fill="#FFFFFF" font-family="sans-serif" font-size="11" font-weight="bold" lengthAdjust="spacing" textLength="61" x="25" y="1254.3276">[&#1086;&#1096;&#1080;&#1073;&#1082;&#1072;]</text><polygon fill="#E7E7E7" points="398,1275.0547,388,1279.0547,398,1283.0547,394,1279.0547" style="stroke:#E7E7E7;stroke-width:1.0;"/><line style="stroke:#E7E7E7;stroke-width:1.0;stroke-dasharray:2.0,2.0;" x1="392" x2="769" y1="1279.0547" y2="1279.0547"/><text fill="#FFFFFF" font-family="sans-serif" font-size="13" font-weight="bold" lengthAdjust="spacing" textLength="37" x="480.5" y="1273.9888">1.8.7</text><text fill="#FFFFFF" font-family="sans-serif" font-size="13" lengthAdjust="spacing" textLength="155" x="521.5" y="1273.9888">500 Internal server error</text><!--SRC=[rLNRQXD16BwVfnXwdoRHLaL4g3LeyL31v04ckzDswMOtpinweGX9YYX4w8qW28fY7o0jZSPiqxx2p1lvpMvQaecIMBpnQdTd_yDt-FzT5QYGK_rUdvgs7keUrGUcfGSwrJqzCcr2v6uGDPbW3IhviuH77d_4fMJRV2qCjYFgyKXnGGZpL2neJU8UqIhmWYQB5ArjKE8pnUfCSbfdtYuY4nL7IQFE1IqlNrqk4vj42xTjxCqCYJv4yoCzC1tpZkeH3evCL_-amDW1nXJmXddMhK9Xd7Q0borzOWaSwzJivy5dEBEbXdhWjFc0ypDKJi5oN_TDn-Q1CXwxkky4VyARx-YAybdealuyKJp3kKGGYWJB4IbFDfzMQT5Bf8eRXNhCX2-BMuBpa470Wk2o6KUIIy92HMNYUP1qAmcf1vbi8SjhNEbAgKpN1MUA-oHkAeTtCv4x1RC757tWFmN257SZOEr3WR5uzjpIWyM0FG2LF6H0UEGJmaDuWvTlSNHePy11i58gqJlCfyBwBrKMFnDIfhK8pkx48dW1f5dXAQTNPfos6WvDotHpdu_p4JHxxWXE2Nklif2kheObkld07Pc9cRTMGi1C7sjfBcBFeR0wZm9guQ63kczo8ZzG3OVsUXaQnS1VYCd7oRwByxasm-TBDaR0RES4DUpmzCxjkTWEXzUV5j6q9xDEC6xJxQ_FoedvooSslSnIVaNhrzbIZdw_b6lLzVkBoFuoy5yjj9gP6V_pLjwOyU1R9dbw_lMzSFflV9vdbDDZuhFkE7Qtyh1IhVnJorReuvXwCVvQaMjRliuv40hxSf1mPQuPgp1Zm_u88nRYFocUeomN8XPMyby0]--></g></svg>