<?xml version="1.0" encoding="us-ascii" standalone="no"?><svg xmlns="http://www.w3.org/2000/svg" xmlns:xlink="http://www.w3.org/1999/xlink" contentStyleType="text/css" height="1384px" preserveAspectRatio="none" style="width:667px;height:1384px;background:#1B1B1B;" version="1.1" viewBox="0 0 667 1384" width="667px" zoomAndPan="magnify"><defs/><g><rect fill="#1B1B1B" height="1384" style="stroke:none;stroke-width:1.0;" width="667" x="0" y="0"/><text fill="#FFFFFF" font-family="sans-serif" font-size="14" font-weight="bold" lengthAdjust="spacing" textLength="96" x="286.75" y="27.9951">&#1044;&#1086;&#1089;&#1082;&#1072; &#1053;&#1072;&#1081;&#1084;</text><rect fill="none" height="181.6016" style="stroke:#FFFFFF;stroke-width:1.5;" width="650.5" x="10" y="281.2578"/><rect fill="none" height="46.2656" style="stroke:#FFFFFF;stroke-width:1.5;" width="399.5" x="20" y="334.5234"/><rect fill="none" height="181.6016" style="stroke:#FFFFFF;stroke-width:1.5;" width="650.5" x="10" y="855.5859"/><rect fill="none" height="46.2656" style="stroke:#FFFFFF;stroke-width:1.5;" width="399.5" x="20" y="908.8516"/><rect fill="none" height="119.3359" style="stroke:#FFFFFF;stroke-width:1.5;" width="640.5" x="20" y="1167.7188"/><line style="stroke:#E7E7E7;stroke-width:0.5;stroke-dasharray:5.0,5.0;" x1="49" x2="49" y1="118.5938" y2="1304.0547"/><line style="stroke:#E7E7E7;stroke-width:0.5;stroke-dasharray:5.0,5.0;" x1="395.5" x2="395.5" y1="118.5938" y2="1304.0547"/><line style="stroke:#E7E7E7;stroke-width:0.5;stroke-dasharray:5.0,5.0;" x1="630.5" x2="630.5" y1="118.5938" y2="1304.0547"/><text fill="#FFFFFF" font-family="sans-serif" font-size="14" lengthAdjust="spacing" textLength="32" x="30" y="115.292">User</text><ellipse cx="49" cy="50.7969" fill="#222222" rx="8" ry="8" style="stroke:#E7E7E7;stroke-width:0.5;"/><path d="M49,58.7969 L49,85.7969 M36,66.7969 L62,66.7969 M49,85.7969 L36,100.7969 M49,85.7969 L62,100.7969 " fill="none" style="stroke:#E7E7E7;stroke-width:0.5;"/><text fill="#FFFFFF" font-family="sans-serif" font-size="14" lengthAdjust="spacing" textLength="32" x="30" y="1316.0498">User</text><ellipse cx="49" cy="1327.8516" fill="#222222" rx="8" ry="8" style="stroke:#E7E7E7;stroke-width:0.5;"/><path d="M49,1335.8516 L49,1362.8516 M36,1343.8516 L62,1343.8516 M49,1362.8516 L36,1377.8516 M49,1362.8516 L62,1377.8516 " fill="none" style="stroke:#E7E7E7;stroke-width:0.5;"/><rect fill="#222222" height="30.2969" rx="2.5" ry="2.5" style="stroke:#E7E7E7;stroke-width:0.5;" width="27" x="382.5" y="87.2969"/><text fill="#FFFFFF" font-family="sans-serif" font-size="14" lengthAdjust="spacing" textLength="13" x="389.5" y="107.292">UI</text><rect fill="#222222" height="30.2969" rx="2.5" ry="2.5" style="stroke:#E7E7E7;stroke-width:0.5;" width="27" x="382.5" y="1303.0547"/><text fill="#FFFFFF" font-family="sans-serif" font-size="14" lengthAdjust="spacing" textLength="13" x="389.5" y="1323.0498">UI</text><text fill="#FFFFFF" font-family="sans-serif" font-size="14" lengthAdjust="spacing" textLength="33" x="611.5" y="115.292">back</text><path d="M613,66.2969 C613,56.2969 631,56.2969 631,56.2969 C631,56.2969 649,56.2969 649,66.2969 L649,92.2969 C649,102.2969 631,102.2969 631,102.2969 C631,102.2969 613,102.2969 613,92.2969 L613,66.2969 " fill="#222222" style="stroke:#E7E7E7;stroke-width:1.5;"/><path d="M613,66.2969 C613,76.2969 631,76.2969 631,76.2969 C631,76.2969 649,76.2969 649,66.2969 " fill="none" style="stroke:#E7E7E7;stroke-width:1.5;"/><text fill="#FFFFFF" font-family="sans-serif" font-size="14" lengthAdjust="spacing" textLength="33" x="611.5" y="1316.0498">back</text><path d="M613,1329.3516 C613,1319.3516 631,1319.3516 631,1319.3516 C631,1319.3516 649,1319.3516 649,1329.3516 L649,1355.3516 C649,1365.3516 631,1365.3516 631,1365.3516 C631,1365.3516 613,1365.3516 613,1355.3516 L613,1329.3516 " fill="#222222" style="stroke:#E7E7E7;stroke-width:1.5;"/><path d="M613,1329.3516 C613,1339.3516 631,1339.3516 631,1339.3516 C631,1339.3516 649,1339.3516 649,1329.3516 " fill="none" style="stroke:#E7E7E7;stroke-width:1.5;"/><polygon fill="#E7E7E7" points="384,145.7266,394,149.7266,384,153.7266,388,149.7266" style="stroke:#E7E7E7;stroke-width:1.0;"/><line style="stroke:#E7E7E7;stroke-width:1.0;" x1="49" x2="390" y1="149.7266" y2="149.7266"/><text fill="#FFFFFF" font-family="sans-serif" font-size="13" font-weight="bold" lengthAdjust="spacing" textLength="37" x="118.5" y="144.6606">3.9.1</text><text fill="#FFFFFF" font-family="sans-serif" font-size="13" lengthAdjust="spacing" textLength="167" x="159.5" y="144.6606">&#1044;&#1086;&#1073;&#1072;&#1074;&#1080;&#1090;&#1100; &#1085;&#1086;&#1074;&#1099;&#1081; &#1086;&#1090;&#1082;&#1083;&#1080;&#1082;</text><polygon fill="#E7E7E7" points="60,174.8594,50,178.8594,60,182.8594,56,178.8594" style="stroke:#E7E7E7;stroke-width:1.0;"/><line style="stroke:#E7E7E7;stroke-width:1.0;stroke-dasharray:2.0,2.0;" x1="54" x2="395" y1="178.8594" y2="178.8594"/><text fill="#FFFFFF" font-family="sans-serif" font-size="13" font-weight="bold" lengthAdjust="spacing" textLength="37" x="130.5" y="173.7935">3.9.2</text><text fill="#FFFFFF" font-family="sans-serif" font-size="13" lengthAdjust="spacing" textLength="143" x="171.5" y="173.7935">&#1060;&#1086;&#1088;&#1084;&#1072; &#1076;&#1083;&#1103; &#1086;&#1090;&#1087;&#1088;&#1072;&#1074;&#1082;&#1080;</text><polygon fill="#E7E7E7" points="384,203.9922,394,207.9922,384,211.9922,388,207.9922" style="stroke:#E7E7E7;stroke-width:1.0;"/><line style="stroke:#E7E7E7;stroke-width:1.0;" x1="49" x2="390" y1="207.9922" y2="207.9922"/><text fill="#FFFFFF" font-family="sans-serif" font-size="13" font-weight="bold" lengthAdjust="spacing" textLength="37" x="137" y="202.9263">3.9.3</text><text fill="#FFFFFF" font-family="sans-serif" font-size="13" lengthAdjust="spacing" textLength="130" x="178" y="202.9263">&#1047;&#1072;&#1087;&#1086;&#1083;&#1085;&#1103;&#1077;&#1090; &#1076;&#1072;&#1085;&#1085;&#1099;&#1077;</text><polygon fill="#E7E7E7" points="384,233.125,394,237.125,384,241.125,388,237.125" style="stroke:#E7E7E7;stroke-width:1.0;"/><line style="stroke:#E7E7E7;stroke-width:1.0;" x1="49" x2="390" y1="237.125" y2="237.125"/><text fill="#FFFFFF" font-family="sans-serif" font-size="13" font-weight="bold" lengthAdjust="spacing" textLength="37" x="121" y="232.0591">3.9.4</text><text fill="#FFFFFF" font-family="sans-serif" font-size="13" lengthAdjust="spacing" textLength="162" x="162" y="232.0591">&#1053;&#1072;&#1078;&#1080;&#1084;&#1072;&#1077;&#1090; "&#1054;&#1090;&#1087;&#1088;&#1072;&#1074;&#1080;&#1090;&#1100;"</text><polygon fill="#E7E7E7" points="619,262.2578,629,266.2578,619,270.2578,623,266.2578" style="stroke:#E7E7E7;stroke-width:1.0;"/><line style="stroke:#E7E7E7;stroke-width:1.0;" x1="396" x2="625" y1="266.2578" y2="266.2578"/><text fill="#FFFFFF" font-family="sans-serif" font-size="13" font-weight="bold" lengthAdjust="spacing" textLength="37" x="440.5" y="261.1919">3.9.5</text><text fill="#FFFFFF" font-family="sans-serif" font-size="13" lengthAdjust="spacing" textLength="105" x="481.5" y="261.1919">POST /vacancies</text><path d="M10,281.2578 L74,281.2578 L74,288.3906 L64,298.3906 L10,298.3906 L10,281.2578 " fill="#555555" style="stroke:#FFFFFF;stroke-width:1.5;"/><rect fill="none" height="181.6016" style="stroke:#FFFFFF;stroke-width:1.5;" width="650.5" x="10" y="281.2578"/><text fill="#FFFFFF" font-family="sans-serif" font-size="13" font-weight="bold" lengthAdjust="spacing" textLength="19" x="25" y="294.3247">alt</text><text fill="#FFFFFF" font-family="sans-serif" font-size="11" font-weight="bold" lengthAdjust="spacing" textLength="112" x="89" y="293.4683">[successful case]</text><polygon fill="#E7E7E7" points="407,315.5234,397,319.5234,407,323.5234,403,319.5234" style="stroke:#E7E7E7;stroke-width:1.0;"/><line style="stroke:#E7E7E7;stroke-width:1.0;stroke-dasharray:2.0,2.0;" x1="401" x2="630" y1="319.5234" y2="319.5234"/><text fill="#FFFFFF" font-family="sans-serif" font-size="13" font-weight="bold" lengthAdjust="spacing" textLength="37" x="453.5" y="314.4575">3.9.6</text><text fill="#FFFFFF" font-family="sans-serif" font-size="13" lengthAdjust="spacing" textLength="79" x="494.5" y="314.4575">201 Created</text><path d="M20,334.5234 L90,334.5234 L90,341.6563 L80,351.6563 L20,351.6563 L20,334.5234 " fill="#555555" style="stroke:#FFFFFF;stroke-width:1.5;"/><rect fill="none" height="46.2656" style="stroke:#FFFFFF;stroke-width:1.5;" width="399.5" x="20" y="334.5234"/><text fill="#FFFFFF" font-family="sans-serif" font-size="13" font-weight="bold" lengthAdjust="spacing" textLength="25" x="35" y="347.5903">opt</text><polygon fill="#E7E7E7" points="60,368.7891,50,372.7891,60,376.7891,56,372.7891" style="stroke:#E7E7E7;stroke-width:1.0;"/><line style="stroke:#E7E7E7;stroke-width:1.0;stroke-dasharray:2.0,2.0;" x1="54" x2="395" y1="372.7891" y2="372.7891"/><text fill="#FFFFFF" font-family="sans-serif" font-size="13" font-weight="bold" lengthAdjust="spacing" textLength="37" x="65.5" y="367.7231">3.9.7</text><text fill="#FFFFFF" font-family="sans-serif" font-size="13" lengthAdjust="spacing" textLength="273" x="106.5" y="367.7231">push-&#1091;&#1074;&#1077;&#1076;&#1086;&#1084;&#1083;&#1077;&#1085;&#1080;&#1077; &#1086; &#1085;&#1086;&#1074;&#1086;&#1084; &#1076;&#1086;&#1089;&#1090;&#1080;&#1078;&#1077;&#1085;&#1080;&#1080;</text><line style="stroke:#FFFFFF;stroke-width:1.0;stroke-dasharray:2.0,2.0;" x1="10" x2="660.5" y1="388.7891" y2="388.7891"/><text fill="#FFFFFF" font-family="sans-serif" font-size="11" font-weight="bold" lengthAdjust="spacing" textLength="61" x="15" y="398.9995">[&#1086;&#1096;&#1080;&#1073;&#1082;&#1072;]</text><polygon fill="#E7E7E7" points="407,419.7266,397,423.7266,407,427.7266,403,423.7266" style="stroke:#E7E7E7;stroke-width:1.0;"/><line style="stroke:#E7E7E7;stroke-width:1.0;stroke-dasharray:2.0,2.0;" x1="401" x2="630" y1="423.7266" y2="423.7266"/><text fill="#FFFFFF" font-family="sans-serif" font-size="13" font-weight="bold" lengthAdjust="spacing" textLength="37" x="440" y="418.6606">3.9.8</text><text fill="#FFFFFF" font-family="sans-serif" font-size="13" lengthAdjust="spacing" textLength="106" x="481" y="418.6606">400 Bad request</text><line style="stroke:#FFFFFF;stroke-width:1.0;stroke-dasharray:2.0,2.0;" x1="10" x2="660.5" y1="432.7266" y2="432.7266"/><polygon fill="#E7E7E7" points="407,450.8594,397,454.8594,407,458.8594,403,454.8594" style="stroke:#E7E7E7;stroke-width:1.0;"/><line style="stroke:#E7E7E7;stroke-width:1.0;stroke-dasharray:2.0,2.0;" x1="401" x2="630" y1="454.8594" y2="454.8594"/><text fill="#FFFFFF" font-family="sans-serif" font-size="13" font-weight="bold" lengthAdjust="spacing" textLength="37" x="436" y="449.7935">3.9.9</text><text fill="#FFFFFF" font-family="sans-serif" font-size="13" lengthAdjust="spacing" textLength="114" x="477" y="449.7935">401 Unauthorized</text><polygon fill="#E7E7E7" points="384,486.9922,394,490.9922,384,494.9922,388,490.9922" style="stroke:#E7E7E7;stroke-width:1.0;"/><line style="stroke:#E7E7E7;stroke-width:1.0;" x1="49" x2="390" y1="490.9922" y2="490.9922"/><text fill="#FFFFFF" font-family="sans-serif" font-size="13" font-weight="bold" lengthAdjust="spacing" textLength="46" x="125" y="485.9263">3.10.1</text><text fill="#FFFFFF" font-family="sans-serif" font-size="13" lengthAdjust="spacing" textLength="145" x="175" y="485.9263">&#1054;&#1090;&#1082;&#1088;&#1099;&#1090;&#1100; &#1076;&#1086;&#1089;&#1082;&#1091; &#1053;&#1072;&#1081;&#1084;</text><polygon fill="#E7E7E7" points="619,516.125,629,520.125,619,524.125,623,520.125" style="stroke:#E7E7E7;stroke-width:1.0;"/><line style="stroke:#E7E7E7;stroke-width:1.0;" x1="396" x2="625" y1="520.125" y2="520.125"/><text fill="#FFFFFF" font-family="sans-serif" font-size="13" font-weight="bold" lengthAdjust="spacing" textLength="46" x="408" y="515.0591">3.10.2</text><text fill="#FFFFFF" font-family="sans-serif" font-size="13" lengthAdjust="spacing" textLength="161" x="458" y="515.0591">GET /vacancies/get-cards</text><polygon fill="#E7E7E7" points="407,545.2578,397,549.2578,407,553.2578,403,549.2578" style="stroke:#E7E7E7;stroke-width:1.0;"/><line style="stroke:#E7E7E7;stroke-width:1.0;stroke-dasharray:2.0,2.0;" x1="401" x2="630" y1="549.2578" y2="549.2578"/><text fill="#FFFFFF" font-family="sans-serif" font-size="13" font-weight="bold" lengthAdjust="spacing" textLength="46" x="465.5" y="544.1919">3.10.3</text><text fill="#FFFFFF" font-family="sans-serif" font-size="13" lengthAdjust="spacing" textLength="46" x="515.5" y="544.1919">200 OK</text><polygon fill="#E7E7E7" points="60,574.3906,50,578.3906,60,582.3906,56,578.3906" style="stroke:#E7E7E7;stroke-width:1.0;"/><line style="stroke:#E7E7E7;stroke-width:1.0;stroke-dasharray:2.0,2.0;" x1="54" x2="395" y1="578.3906" y2="578.3906"/><text fill="#FFFFFF" font-family="sans-serif" font-size="13" font-weight="bold" lengthAdjust="spacing" textLength="46" x="125.5" y="573.3247">3.10.4</text><text fill="#FFFFFF" font-family="sans-serif" font-size="13" lengthAdjust="spacing" textLength="144" x="175.5" y="573.3247">&#1044;&#1086;&#1089;&#1082;&#1072; &#1087;&#1088;&#1077;&#1076;&#1089;&#1090;&#1072;&#1074;&#1083;&#1077;&#1085;&#1072;</text><polygon fill="#E7E7E7" points="384,603.5234,394,607.5234,384,611.5234,388,607.5234" style="stroke:#E7E7E7;stroke-width:1.0;"/><line style="stroke:#E7E7E7;stroke-width:1.0;" x1="49" x2="390" y1="607.5234" y2="607.5234"/><text fill="#FFFFFF" font-family="sans-serif" font-size="13" font-weight="bold" lengthAdjust="spacing" textLength="46" x="107.5" y="602.4575">3.11.1</text><text fill="#FFFFFF" font-family="sans-serif" font-size="13" lengthAdjust="spacing" textLength="180" x="157.5" y="602.4575">&#1054;&#1090;&#1082;&#1088;&#1099;&#1090;&#1100; &#1082;&#1072;&#1088;&#1090;&#1086;&#1095;&#1082;&#1091; &#1079;&#1072;&#1082;&#1072;&#1079;&#1072;</text><polygon fill="#E7E7E7" points="619,632.6563,629,636.6563,619,640.6563,623,636.6563" style="stroke:#E7E7E7;stroke-width:1.0;"/><line style="stroke:#E7E7E7;stroke-width:1.0;" x1="396" x2="625" y1="636.6563" y2="636.6563"/><text fill="#FFFFFF" font-family="sans-serif" font-size="13" font-weight="bold" lengthAdjust="spacing" textLength="46" x="425" y="631.5903">3.11.2</text><text fill="#FFFFFF" font-family="sans-serif" font-size="13" lengthAdjust="spacing" textLength="127" x="475" y="631.5903">GET /vacancies/{id}</text><polygon fill="#E7E7E7" points="407,661.7891,397,665.7891,407,669.7891,403,665.7891" style="stroke:#E7E7E7;stroke-width:1.0;"/><line style="stroke:#E7E7E7;stroke-width:1.0;stroke-dasharray:2.0,2.0;" x1="401" x2="630" y1="665.7891" y2="665.7891"/><text fill="#FFFFFF" font-family="sans-serif" font-size="13" font-weight="bold" lengthAdjust="spacing" textLength="46" x="465.5" y="660.7231">3.11.3</text><text fill="#FFFFFF" font-family="sans-serif" font-size="13" lengthAdjust="spacing" textLength="46" x="515.5" y="660.7231">200 OK</text><polygon fill="#E7E7E7" points="60,690.9219,50,694.9219,60,698.9219,56,694.9219" style="stroke:#E7E7E7;stroke-width:1.0;"/><line style="stroke:#E7E7E7;stroke-width:1.0;stroke-dasharray:2.0,2.0;" x1="54" x2="395" y1="694.9219" y2="694.9219"/><text fill="#FFFFFF" font-family="sans-serif" font-size="13" font-weight="bold" lengthAdjust="spacing" textLength="46" x="113.5" y="689.856">3.11.4</text><text fill="#FFFFFF" font-family="sans-serif" font-size="13" lengthAdjust="spacing" textLength="168" x="163.5" y="689.856">&#1050;&#1072;&#1088;&#1090;&#1086;&#1095;&#1082;&#1072; &#1087;&#1088;&#1077;&#1076;&#1089;&#1090;&#1072;&#1074;&#1083;&#1077;&#1085;&#1072;</text><polygon fill="#E7E7E7" points="384,720.0547,394,724.0547,384,728.0547,388,724.0547" style="stroke:#E7E7E7;stroke-width:1.0;"/><line style="stroke:#E7E7E7;stroke-width:1.0;" x1="49" x2="390" y1="724.0547" y2="724.0547"/><text fill="#FFFFFF" font-family="sans-serif" font-size="13" font-weight="bold" lengthAdjust="spacing" textLength="46" x="85" y="718.9888">3.12.1</text><text fill="#FFFFFF" font-family="sans-serif" font-size="13" lengthAdjust="spacing" textLength="225" x="135" y="718.9888">&#1056;&#1077;&#1076;&#1072;&#1082;&#1090;&#1080;&#1088;&#1086;&#1074;&#1072;&#1090;&#1100; &#1076;&#1072;&#1085;&#1085;&#1099;&#1077; &#1086;&#1090;&#1082;&#1083;&#1080;&#1082;&#1072;</text><polygon fill="#E7E7E7" points="60,749.1875,50,753.1875,60,757.1875,56,753.1875" style="stroke:#E7E7E7;stroke-width:1.0;"/><line style="stroke:#E7E7E7;stroke-width:1.0;stroke-dasharray:2.0,2.0;" x1="54" x2="395" y1="753.1875" y2="753.1875"/><text fill="#FFFFFF" font-family="sans-serif" font-size="13" font-weight="bold" lengthAdjust="spacing" textLength="46" x="137.5" y="748.1216">3.12.2</text><text fill="#FFFFFF" font-family="sans-serif" font-size="13" lengthAdjust="spacing" textLength="120" x="187.5" y="748.1216">&#1060;&#1086;&#1088;&#1084;&#1072; &#1089; &#1076;&#1072;&#1085;&#1085;&#1099;&#1084;&#1080;</text><polygon fill="#E7E7E7" points="384,778.3203,394,782.3203,384,786.3203,388,782.3203" style="stroke:#E7E7E7;stroke-width:1.0;"/><line style="stroke:#E7E7E7;stroke-width:1.0;" x1="49" x2="390" y1="782.3203" y2="782.3203"/><text fill="#FFFFFF" font-family="sans-serif" font-size="13" font-weight="bold" lengthAdjust="spacing" textLength="46" x="132" y="777.2544">3.12.3</text><text fill="#FFFFFF" font-family="sans-serif" font-size="13" lengthAdjust="spacing" textLength="131" x="182" y="777.2544">&#1054;&#1073;&#1085;&#1086;&#1074;&#1083;&#1103;&#1077;&#1090; &#1076;&#1072;&#1085;&#1085;&#1099;&#1077;</text><polygon fill="#E7E7E7" points="384,807.4531,394,811.4531,384,815.4531,388,811.4531" style="stroke:#E7E7E7;stroke-width:1.0;"/><line style="stroke:#E7E7E7;stroke-width:1.0;" x1="49" x2="390" y1="811.4531" y2="811.4531"/><text fill="#FFFFFF" font-family="sans-serif" font-size="13" font-weight="bold" lengthAdjust="spacing" textLength="46" x="118" y="806.3872">3.12.4</text><text fill="#FFFFFF" font-family="sans-serif" font-size="13" lengthAdjust="spacing" textLength="159" x="168" y="806.3872">&#1053;&#1072;&#1078;&#1080;&#1084;&#1072;&#1077;&#1090; "&#1057;&#1086;&#1093;&#1088;&#1072;&#1085;&#1080;&#1090;&#1100;"</text><polygon fill="#E7E7E7" points="619,836.5859,629,840.5859,619,844.5859,623,840.5859" style="stroke:#E7E7E7;stroke-width:1.0;"/><line style="stroke:#E7E7E7;stroke-width:1.0;" x1="396" x2="625" y1="840.5859" y2="840.5859"/><text fill="#FFFFFF" font-family="sans-serif" font-size="13" font-weight="bold" lengthAdjust="spacing" textLength="46" x="416" y="835.52">3.12.5</text><text fill="#FFFFFF" font-family="sans-serif" font-size="13" lengthAdjust="spacing" textLength="145" x="466" y="835.52">PATCH /vacancies/{id}</text><path d="M10,855.5859 L74,855.5859 L74,862.7188 L64,872.7188 L10,872.7188 L10,855.5859 " fill="#555555" style="stroke:#FFFFFF;stroke-width:1.5;"/><rect fill="none" height="181.6016" style="stroke:#FFFFFF;stroke-width:1.5;" width="650.5" x="10" y="855.5859"/><text fill="#FFFFFF" font-family="sans-serif" font-size="13" font-weight="bold" lengthAdjust="spacing" textLength="19" x="25" y="868.6528">alt</text><text fill="#FFFFFF" font-family="sans-serif" font-size="11" font-weight="bold" lengthAdjust="spacing" textLength="112" x="89" y="867.7964">[successful case]</text><polygon fill="#E7E7E7" points="407,889.8516,397,893.8516,407,897.8516,403,893.8516" style="stroke:#E7E7E7;stroke-width:1.0;"/><line style="stroke:#E7E7E7;stroke-width:1.0;stroke-dasharray:2.0,2.0;" x1="401" x2="630" y1="893.8516" y2="893.8516"/><text fill="#FFFFFF" font-family="sans-serif" font-size="13" font-weight="bold" lengthAdjust="spacing" textLength="46" x="465.5" y="888.7856">3.12.6</text><text fill="#FFFFFF" font-family="sans-serif" font-size="13" lengthAdjust="spacing" textLength="46" x="515.5" y="888.7856">200 OK</text><path d="M20,908.8516 L90,908.8516 L90,915.9844 L80,925.9844 L20,925.9844 L20,908.8516 " fill="#555555" style="stroke:#FFFFFF;stroke-width:1.5;"/><rect fill="none" height="46.2656" style="stroke:#FFFFFF;stroke-width:1.5;" width="399.5" x="20" y="908.8516"/><text fill="#FFFFFF" font-family="sans-serif" font-size="13" font-weight="bold" lengthAdjust="spacing" textLength="25" x="35" y="921.9185">opt</text><polygon fill="#E7E7E7" points="60,943.1172,50,947.1172,60,951.1172,56,947.1172" style="stroke:#E7E7E7;stroke-width:1.0;"/><line style="stroke:#E7E7E7;stroke-width:1.0;stroke-dasharray:2.0,2.0;" x1="54" x2="395" y1="947.1172" y2="947.1172"/><text fill="#FFFFFF" font-family="sans-serif" font-size="13" font-weight="bold" lengthAdjust="spacing" textLength="46" x="61" y="942.0513">3.12.7</text><text fill="#FFFFFF" font-family="sans-serif" font-size="13" lengthAdjust="spacing" textLength="273" x="111" y="942.0513">push-&#1091;&#1074;&#1077;&#1076;&#1086;&#1084;&#1083;&#1077;&#1085;&#1080;&#1077; &#1086; &#1085;&#1086;&#1074;&#1086;&#1084; &#1076;&#1086;&#1089;&#1090;&#1080;&#1078;&#1077;&#1085;&#1080;&#1080;</text><line style="stroke:#FFFFFF;stroke-width:1.0;stroke-dasharray:2.0,2.0;" x1="10" x2="660.5" y1="963.1172" y2="963.1172"/><text fill="#FFFFFF" font-family="sans-serif" font-size="11" font-weight="bold" lengthAdjust="spacing" textLength="61" x="15" y="973.3276">[&#1086;&#1096;&#1080;&#1073;&#1082;&#1072;]</text><polygon fill="#E7E7E7" points="407,994.0547,397,998.0547,407,1002.0547,403,998.0547" style="stroke:#E7E7E7;stroke-width:1.0;"/><line style="stroke:#E7E7E7;stroke-width:1.0;stroke-dasharray:2.0,2.0;" x1="401" x2="630" y1="998.0547" y2="998.0547"/><text fill="#FFFFFF" font-family="sans-serif" font-size="13" font-weight="bold" lengthAdjust="spacing" textLength="46" x="435.5" y="992.9888">3.12.8</text><text fill="#FFFFFF" font-family="sans-serif" font-size="13" lengthAdjust="spacing" textLength="106" x="485.5" y="992.9888">400 Bad request</text><line style="stroke:#FFFFFF;stroke-width:1.0;stroke-dasharray:2.0,2.0;" x1="10" x2="660.5" y1="1007.0547" y2="1007.0547"/><polygon fill="#E7E7E7" points="407,1025.1875,397,1029.1875,407,1033.1875,403,1029.1875" style="stroke:#E7E7E7;stroke-width:1.0;"/><line style="stroke:#E7E7E7;stroke-width:1.0;stroke-dasharray:2.0,2.0;" x1="401" x2="630" y1="1029.1875" y2="1029.1875"/><text fill="#FFFFFF" font-family="sans-serif" font-size="13" font-weight="bold" lengthAdjust="spacing" textLength="46" x="431.5" y="1024.1216">3.12.9</text><text fill="#FFFFFF" font-family="sans-serif" font-size="13" lengthAdjust="spacing" textLength="114" x="481.5" y="1024.1216">401 Unauthorized</text><polygon fill="#E7E7E7" points="384,1061.3203,394,1065.3203,384,1069.3203,388,1065.3203" style="stroke:#E7E7E7;stroke-width:1.0;"/><line style="stroke:#E7E7E7;stroke-width:1.0;" x1="49" x2="390" y1="1065.3203" y2="1065.3203"/><text fill="#FFFFFF" font-family="sans-serif" font-size="13" font-weight="bold" lengthAdjust="spacing" textLength="46" x="147.5" y="1060.2544">3.13.1</text><text fill="#FFFFFF" font-family="sans-serif" font-size="13" lengthAdjust="spacing" textLength="100" x="197.5" y="1060.2544">&#1059;&#1076;&#1072;&#1083;&#1080;&#1090;&#1100; &#1079;&#1072;&#1082;&#1072;&#1079;</text><polygon fill="#E7E7E7" points="60,1090.4531,50,1094.4531,60,1098.4531,56,1094.4531" style="stroke:#E7E7E7;stroke-width:1.0;"/><line style="stroke:#E7E7E7;stroke-width:1.0;stroke-dasharray:2.0,2.0;" x1="54" x2="395" y1="1094.4531" y2="1094.4531"/><text fill="#FFFFFF" font-family="sans-serif" font-size="13" font-weight="bold" lengthAdjust="spacing" textLength="46" x="137.5" y="1089.3872">3.13.2</text><text fill="#FFFFFF" font-family="sans-serif" font-size="13" lengthAdjust="spacing" textLength="120" x="187.5" y="1089.3872">&#1060;&#1086;&#1088;&#1084;&#1072; &#1089; &#1076;&#1072;&#1085;&#1085;&#1099;&#1084;&#1080;</text><polygon fill="#E7E7E7" points="384,1119.5859,394,1123.5859,384,1127.5859,388,1123.5859" style="stroke:#E7E7E7;stroke-width:1.0;"/><line style="stroke:#E7E7E7;stroke-width:1.0;" x1="49" x2="390" y1="1123.5859" y2="1123.5859"/><text fill="#FFFFFF" font-family="sans-serif" font-size="13" font-weight="bold" lengthAdjust="spacing" textLength="46" x="99" y="1118.52">3.13.3</text><text fill="#FFFFFF" font-family="sans-serif" font-size="13" lengthAdjust="spacing" textLength="197" x="149" y="1118.52">&#1053;&#1072;&#1078;&#1080;&#1084;&#1072;&#1077;&#1090; "&#1059;&#1076;&#1072;&#1083;&#1080;&#1090;&#1100; &#1086;&#1090;&#1082;&#1083;&#1080;&#1082;"</text><polygon fill="#E7E7E7" points="619,1148.7188,629,1152.7188,619,1156.7188,623,1152.7188" style="stroke:#E7E7E7;stroke-width:1.0;"/><line style="stroke:#E7E7E7;stroke-width:1.0;" x1="396" x2="625" y1="1152.7188" y2="1152.7188"/><text fill="#FFFFFF" font-family="sans-serif" font-size="13" font-weight="bold" lengthAdjust="spacing" textLength="46" x="413.5" y="1147.6528">3.13.4</text><text fill="#FFFFFF" font-family="sans-serif" font-size="13" lengthAdjust="spacing" textLength="150" x="463.5" y="1147.6528">DELETE /vacancies/{id}</text><path d="M20,1167.7188 L84,1167.7188 L84,1174.8516 L74,1184.8516 L20,1184.8516 L20,1167.7188 " fill="#555555" style="stroke:#FFFFFF;stroke-width:1.5;"/><rect fill="none" height="119.3359" style="stroke:#FFFFFF;stroke-width:1.5;" width="640.5" x="20" y="1167.7188"/><text fill="#FFFFFF" font-family="sans-serif" font-size="13" font-weight="bold" lengthAdjust="spacing" textLength="19" x="35" y="1180.7856">alt</text><text fill="#FFFFFF" font-family="sans-serif" font-size="11" font-weight="bold" lengthAdjust="spacing" textLength="112" x="99" y="1179.9292">[successful case]</text><polygon fill="#E7E7E7" points="407,1201.9844,397,1205.9844,407,1209.9844,403,1205.9844" style="stroke:#E7E7E7;stroke-width:1.0;"/><line style="stroke:#E7E7E7;stroke-width:1.0;stroke-dasharray:2.0,2.0;" x1="401" x2="630" y1="1205.9844" y2="1205.9844"/><text fill="#FFFFFF" font-family="sans-serif" font-size="13" font-weight="bold" lengthAdjust="spacing" textLength="46" x="439" y="1200.9185">3.13.5</text><text fill="#FFFFFF" font-family="sans-serif" font-size="13" lengthAdjust="spacing" textLength="99" x="489" y="1200.9185">204 No content</text><polygon fill="#E7E7E7" points="60,1231.1172,50,1235.1172,60,1239.1172,56,1235.1172" style="stroke:#E7E7E7;stroke-width:1.0;"/><line style="stroke:#E7E7E7;stroke-width:1.0;stroke-dasharray:2.0,2.0;" x1="54" x2="395" y1="1235.1172" y2="1235.1172"/><text fill="#FFFFFF" font-family="sans-serif" font-size="13" font-weight="bold" lengthAdjust="spacing" textLength="46" x="145.5" y="1230.0513">3.13.6</text><text fill="#FFFFFF" font-family="sans-serif" font-size="13" lengthAdjust="spacing" textLength="104" x="195.5" y="1230.0513">&#1054;&#1090;&#1082;&#1083;&#1080;&#1082; &#1091;&#1076;&#1072;&#1083;&#1077;&#1085;</text><line style="stroke:#FFFFFF;stroke-width:1.0;stroke-dasharray:2.0,2.0;" x1="20" x2="660.5" y1="1244.1172" y2="1244.1172"/><text fill="#FFFFFF" font-family="sans-serif" font-size="11" font-weight="bold" lengthAdjust="spacing" textLength="61" x="25" y="1254.3276">[&#1086;&#1096;&#1080;&#1073;&#1082;&#1072;]</text><polygon fill="#E7E7E7" points="407,1275.0547,397,1279.0547,407,1283.0547,403,1279.0547" style="stroke:#E7E7E7;stroke-width:1.0;"/><line style="stroke:#E7E7E7;stroke-width:1.0;stroke-dasharray:2.0,2.0;" x1="401" x2="630" y1="1279.0547" y2="1279.0547"/><text fill="#FFFFFF" font-family="sans-serif" font-size="13" font-weight="bold" lengthAdjust="spacing" textLength="46" x="411" y="1273.9888">3.13.7</text><text fill="#FFFFFF" font-family="sans-serif" font-size="13" lengthAdjust="spacing" textLength="155" x="461" y="1273.9888">500 Internal server error</text><!--SRC=[rLNTJXD16BsVfvXmNsW1BpJ61B5HuWycjWymdHtBXcMtpivoeJ614YC99joOc9X8DFe0XL0jtHPUOUQDFBDJSBkhWjnvrUstty-PSywtetmL2AhVwrEphOUwH_KdtTCdUaH8lEw77IRP1et5YqI4N3mMSSpQOYdmso7b8bH24iAuYYHjndX6jlAvts6XeiqLuZ75MYmMjCNuEX8J5ON9Haj8kZ1xSxP6R0sjt44glPL1q8UOVQG7fclUKJr6uCZiwHCAS5s0I_L03rtLxKfbKlODBxVqo28_rgdPTybdYDbMGpqeZFc0-1awftfizdNVT6rT3yF66DKl95iklcCgscUfC_eWrpp3EKEGYW9xHfGyNNtMe7ERZBEG-o8cB50qJZW7Sy-JW7BGOGii_ad5VBL6bwLWIdWawgZ2-Jf9l5OnEvZM1yvJ84dnD0QcFauw8Sd6xJ6W8U0D0Dcb38W8FK9400tmSXUXGojo0S5YjKhlCezAAtEiilnIIeqsGoYu5ad_9P1cZQSKhLLBabgoXcRBx3b1Zvt9pCulaqrnTx-UfswkBLI5C-d59SAgTFLXqGSv1rjzm5P6XjN9CTOhugrTXXVDyAUBncyTwXzeXw3z_IloLxxt-agWF-Od_0Fq-HBqpva_0CyQ04siAthdj5_OUsgJx27-j4jcErytActH0Opah9TUPuk-OD2RR8l6lz-YfSRoWnAZLzcbZEN_UeqMIjf-pRXDpx-B5owyldnbHGepSZOfI7El_gZUg5zBcqNw9A8ymhKH5lLng-S6KkZam83-Irc_0TPNx4qKiW0NbTn4Mo5b92stFm40]--></g></svg>