<?xml version="1.0" encoding="us-ascii" standalone="no"?><svg xmlns="http://www.w3.org/2000/svg" xmlns:xlink="http://www.w3.org/1999/xlink" contentStyleType="text/css" height="1110px" preserveAspectRatio="none" style="width:828px;height:1110px;background:#1B1B1B;" version="1.1" viewBox="0 0 828 1110" width="828px" zoomAndPan="magnify"><defs/><g><rect fill="#1B1B1B" height="1110" style="stroke:none;stroke-width:1.0;" width="828" x="0" y="0"/><text fill="#FFFFFF" font-family="sans-serif" font-size="14" font-weight="bold" lengthAdjust="spacing" textLength="79" x="375.75" y="27.9951">&#1050;&#1086;&#1085;&#1090;&#1072;&#1082;&#1090;&#1099;</text><rect fill="none" height="177.6016" style="stroke:#FFFFFF;stroke-width:1.5;" width="811.5" x="10" y="834.7813"/><line style="stroke:#E7E7E7;stroke-width:0.5;stroke-dasharray:5.0,5.0;" x1="39" x2="39" y1="118.5938" y2="1029.3828"/><line style="stroke:#E7E7E7;stroke-width:0.5;stroke-dasharray:5.0,5.0;" x1="421.5" x2="421.5" y1="118.5938" y2="1029.3828"/><line style="stroke:#E7E7E7;stroke-width:0.5;stroke-dasharray:5.0,5.0;" x1="791.5" x2="791.5" y1="118.5938" y2="1029.3828"/><text fill="#FFFFFF" font-family="sans-serif" font-size="14" lengthAdjust="spacing" textLength="32" x="20" y="115.292">User</text><ellipse cx="39" cy="50.7969" fill="#222222" rx="8" ry="8" style="stroke:#E7E7E7;stroke-width:0.5;"/><path d="M39,58.7969 L39,85.7969 M26,66.7969 L52,66.7969 M39,85.7969 L26,100.7969 M39,85.7969 L52,100.7969 " fill="none" style="stroke:#E7E7E7;stroke-width:0.5;"/><text fill="#FFFFFF" font-family="sans-serif" font-size="14" lengthAdjust="spacing" textLength="32" x="20" y="1041.3779">User</text><ellipse cx="39" cy="1053.1797" fill="#222222" rx="8" ry="8" style="stroke:#E7E7E7;stroke-width:0.5;"/><path d="M39,1061.1797 L39,1088.1797 M26,1069.1797 L52,1069.1797 M39,1088.1797 L26,1103.1797 M39,1088.1797 L52,1103.1797 " fill="none" style="stroke:#E7E7E7;stroke-width:0.5;"/><rect fill="#222222" height="30.2969" rx="2.5" ry="2.5" style="stroke:#E7E7E7;stroke-width:0.5;" width="27" x="408.5" y="87.2969"/><text fill="#FFFFFF" font-family="sans-serif" font-size="14" lengthAdjust="spacing" textLength="13" x="415.5" y="107.292">UI</text><rect fill="#222222" height="30.2969" rx="2.5" ry="2.5" style="stroke:#E7E7E7;stroke-width:0.5;" width="27" x="408.5" y="1028.3828"/><text fill="#FFFFFF" font-family="sans-serif" font-size="14" lengthAdjust="spacing" textLength="13" x="415.5" y="1048.3779">UI</text><text fill="#FFFFFF" font-family="sans-serif" font-size="14" lengthAdjust="spacing" textLength="33" x="772.5" y="115.292">back</text><path d="M774,66.2969 C774,56.2969 792,56.2969 792,56.2969 C792,56.2969 810,56.2969 810,66.2969 L810,92.2969 C810,102.2969 792,102.2969 792,102.2969 C792,102.2969 774,102.2969 774,92.2969 L774,66.2969 " fill="#222222" style="stroke:#E7E7E7;stroke-width:1.5;"/><path d="M774,66.2969 C774,76.2969 792,76.2969 792,76.2969 C792,76.2969 810,76.2969 810,66.2969 " fill="none" style="stroke:#E7E7E7;stroke-width:1.5;"/><text fill="#FFFFFF" font-family="sans-serif" font-size="14" lengthAdjust="spacing" textLength="33" x="772.5" y="1041.3779">back</text><path d="M774,1054.6797 C774,1044.6797 792,1044.6797 792,1044.6797 C792,1044.6797 810,1044.6797 810,1054.6797 L810,1080.6797 C810,1090.6797 792,1090.6797 792,1090.6797 C792,1090.6797 774,1090.6797 774,1080.6797 L774,1054.6797 " fill="#222222" style="stroke:#E7E7E7;stroke-width:1.5;"/><path d="M774,1054.6797 C774,1064.6797 792,1064.6797 792,1064.6797 C792,1064.6797 810,1064.6797 810,1054.6797 " fill="none" style="stroke:#E7E7E7;stroke-width:1.5;"/><polygon fill="#E7E7E7" points="410,145.7266,420,149.7266,410,153.7266,414,149.7266" style="stroke:#E7E7E7;stroke-width:1.0;"/><line style="stroke:#E7E7E7;stroke-width:1.0;" x1="39" x2="416" y1="149.7266" y2="149.7266"/><text fill="#FFFFFF" font-family="sans-serif" font-size="13" font-weight="bold" lengthAdjust="spacing" textLength="37" x="46" y="144.6606">5.1.1</text><text fill="#FFFFFF" font-family="sans-serif" font-size="13" lengthAdjust="spacing" textLength="130" x="87" y="144.6606">&#1044;&#1086;&#1073;&#1072;&#1074;&#1080;&#1090;&#1100; &#1082;&#1086;&#1085;&#1090;&#1072;&#1082;&#1090;</text><polygon fill="#E7E7E7" points="50,174.8594,40,178.8594,50,182.8594,46,178.8594" style="stroke:#E7E7E7;stroke-width:1.0;"/><line style="stroke:#E7E7E7;stroke-width:1.0;stroke-dasharray:2.0,2.0;" x1="44" x2="421" y1="178.8594" y2="178.8594"/><text fill="#FFFFFF" font-family="sans-serif" font-size="13" font-weight="bold" lengthAdjust="spacing" textLength="37" x="56" y="173.7935">5.1.2</text><text fill="#FFFFFF" font-family="sans-serif" font-size="13" lengthAdjust="spacing" textLength="318" x="97" y="173.7935">&#1042;&#1074;&#1077;&#1089;&#1090;&#1080; &#1076;&#1072;&#1085;&#1085;&#1099;&#1077; &#1080; &#1085;&#1072;&#1078;&#1072;&#1090;&#1100; "&#1044;&#1086;&#1073;&#1072;&#1074;&#1080;&#1090;&#1100; &#1082;&#1086;&#1085;&#1090;&#1072;&#1082;&#1090;"</text><polygon fill="#E7E7E7" points="780,203.9922,790,207.9922,780,211.9922,784,207.9922" style="stroke:#E7E7E7;stroke-width:1.0;"/><line style="stroke:#E7E7E7;stroke-width:1.0;" x1="422" x2="786" y1="207.9922" y2="207.9922"/><text fill="#FFFFFF" font-family="sans-serif" font-size="13" font-weight="bold" lengthAdjust="spacing" textLength="37" x="429" y="202.9263">5.1.3</text><text fill="#FFFFFF" font-family="sans-serif" font-size="13" lengthAdjust="spacing" textLength="164" x="470" y="202.9263">POST /vacancies/contacts</text><polygon fill="#E7E7E7" points="433,233.125,423,237.125,433,241.125,429,237.125" style="stroke:#E7E7E7;stroke-width:1.0;"/><line style="stroke:#E7E7E7;stroke-width:1.0;stroke-dasharray:2.0,2.0;" x1="427" x2="791" y1="237.125" y2="237.125"/><text fill="#FFFFFF" font-family="sans-serif" font-size="13" font-weight="bold" lengthAdjust="spacing" textLength="37" x="439" y="232.0591">5.1.4</text><text fill="#FFFFFF" font-family="sans-serif" font-size="13" lengthAdjust="spacing" textLength="79" x="480" y="232.0591">201 Created</text><polygon fill="#E7E7E7" points="50,262.2578,40,266.2578,50,270.2578,46,266.2578" style="stroke:#E7E7E7;stroke-width:1.0;"/><line style="stroke:#E7E7E7;stroke-width:1.0;stroke-dasharray:2.0,2.0;" x1="44" x2="421" y1="266.2578" y2="266.2578"/><text fill="#FFFFFF" font-family="sans-serif" font-size="13" font-weight="bold" lengthAdjust="spacing" textLength="37" x="56" y="261.1919">5.1.5</text><text fill="#FFFFFF" font-family="sans-serif" font-size="13" lengthAdjust="spacing" textLength="269" x="97" y="261.1919">push-&#1091;&#1074;&#1077;&#1076;&#1086;&#1084;&#1083;&#1077;&#1085;&#1080;&#1077; "&#1050;&#1086;&#1085;&#1090;&#1072;&#1082;&#1090; &#1076;&#1086;&#1073;&#1072;&#1074;&#1083;&#1077;&#1085;"</text><polygon fill="#E7E7E7" points="410,291.3906,420,295.3906,410,299.3906,414,295.3906" style="stroke:#E7E7E7;stroke-width:1.0;"/><line style="stroke:#E7E7E7;stroke-width:1.0;" x1="39" x2="416" y1="295.3906" y2="295.3906"/><text fill="#FFFFFF" font-family="sans-serif" font-size="13" font-weight="bold" lengthAdjust="spacing" textLength="37" x="46" y="290.3247">5.2.1</text><text fill="#FFFFFF" font-family="sans-serif" font-size="13" lengthAdjust="spacing" textLength="314" x="87" y="290.3247">&#1055;&#1086;&#1083;&#1091;&#1095;&#1080;&#1090;&#1100; &#1082;&#1086;&#1085;&#1090;&#1072;&#1082;&#1090; &#1074; &#1082;&#1072;&#1088;&#1090;&#1086;&#1095;&#1082;&#1077; &#1086;&#1090;&#1082;&#1083;&#1080;&#1082;&#1072; &#1085;&#1072;&#1081;&#1084;&#1072;</text><polygon fill="#E7E7E7" points="780,320.5234,790,324.5234,780,328.5234,784,324.5234" style="stroke:#E7E7E7;stroke-width:1.0;"/><line style="stroke:#E7E7E7;stroke-width:1.0;" x1="422" x2="786" y1="324.5234" y2="324.5234"/><text fill="#FFFFFF" font-family="sans-serif" font-size="13" font-weight="bold" lengthAdjust="spacing" textLength="37" x="429" y="319.4575">5.2.2</text><text fill="#FFFFFF" font-family="sans-serif" font-size="13" lengthAdjust="spacing" textLength="232" x="470" y="319.4575">GET /vacancies/contacts?vacancy_id</text><polygon fill="#E7E7E7" points="433,349.6563,423,353.6563,433,357.6563,429,353.6563" style="stroke:#E7E7E7;stroke-width:1.0;"/><line style="stroke:#E7E7E7;stroke-width:1.0;stroke-dasharray:2.0,2.0;" x1="427" x2="791" y1="353.6563" y2="353.6563"/><text fill="#FFFFFF" font-family="sans-serif" font-size="13" font-weight="bold" lengthAdjust="spacing" textLength="37" x="439" y="348.5903">5.2.3</text><text fill="#FFFFFF" font-family="sans-serif" font-size="13" lengthAdjust="spacing" textLength="46" x="480" y="348.5903">200 OK</text><polygon fill="#E7E7E7" points="50,378.7891,40,382.7891,50,386.7891,46,382.7891" style="stroke:#E7E7E7;stroke-width:1.0;"/><line style="stroke:#E7E7E7;stroke-width:1.0;stroke-dasharray:2.0,2.0;" x1="44" x2="421" y1="382.7891" y2="382.7891"/><text fill="#FFFFFF" font-family="sans-serif" font-size="13" font-weight="bold" lengthAdjust="spacing" textLength="37" x="56" y="377.7231">5.2.4</text><text fill="#FFFFFF" font-family="sans-serif" font-size="13" lengthAdjust="spacing" textLength="303" x="97" y="377.7231">&#1054;&#1090;&#1086;&#1073;&#1088;&#1072;&#1078;&#1077;&#1085;&#1080;&#1077; &#1082;&#1086;&#1085;&#1090;&#1072;&#1082;&#1090;&#1086;&#1074; &#1082;&#1072;&#1088;&#1090;&#1086;&#1095;&#1082;&#1080; &#1086;&#1090;&#1082;&#1083;&#1080;&#1082;&#1072;</text><polygon fill="#E7E7E7" points="410,407.9219,420,411.9219,410,415.9219,414,411.9219" style="stroke:#E7E7E7;stroke-width:1.0;"/><line style="stroke:#E7E7E7;stroke-width:1.0;" x1="39" x2="416" y1="411.9219" y2="411.9219"/><text fill="#FFFFFF" font-family="sans-serif" font-size="13" font-weight="bold" lengthAdjust="spacing" textLength="37" x="46" y="406.856">5.3.1</text><text fill="#FFFFFF" font-family="sans-serif" font-size="13" lengthAdjust="spacing" textLength="314" x="87" y="406.856">&#1055;&#1086;&#1083;&#1091;&#1095;&#1080;&#1090;&#1100; &#1082;&#1086;&#1085;&#1090;&#1072;&#1082;&#1090; &#1074; &#1082;&#1072;&#1088;&#1090;&#1086;&#1095;&#1082;&#1077; &#1086;&#1090;&#1082;&#1083;&#1080;&#1082;&#1072; &#1085;&#1072;&#1081;&#1084;&#1072;</text><polygon fill="#E7E7E7" points="780,437.0547,790,441.0547,780,445.0547,784,441.0547" style="stroke:#E7E7E7;stroke-width:1.0;"/><line style="stroke:#E7E7E7;stroke-width:1.0;" x1="422" x2="786" y1="441.0547" y2="441.0547"/><text fill="#FFFFFF" font-family="sans-serif" font-size="13" font-weight="bold" lengthAdjust="spacing" textLength="37" x="429" y="435.9888">5.3.2</text><text fill="#FFFFFF" font-family="sans-serif" font-size="13" lengthAdjust="spacing" textLength="305" x="470" y="435.9888">GET /vacancies/contacts?freelance_response_id</text><polygon fill="#E7E7E7" points="433,466.1875,423,470.1875,433,474.1875,429,470.1875" style="stroke:#E7E7E7;stroke-width:1.0;"/><line style="stroke:#E7E7E7;stroke-width:1.0;stroke-dasharray:2.0,2.0;" x1="427" x2="791" y1="470.1875" y2="470.1875"/><text fill="#FFFFFF" font-family="sans-serif" font-size="13" font-weight="bold" lengthAdjust="spacing" textLength="37" x="439" y="465.1216">5.3.3</text><text fill="#FFFFFF" font-family="sans-serif" font-size="13" lengthAdjust="spacing" textLength="46" x="480" y="465.1216">200 OK</text><polygon fill="#E7E7E7" points="50,495.3203,40,499.3203,50,503.3203,46,499.3203" style="stroke:#E7E7E7;stroke-width:1.0;"/><line style="stroke:#E7E7E7;stroke-width:1.0;stroke-dasharray:2.0,2.0;" x1="44" x2="421" y1="499.3203" y2="499.3203"/><text fill="#FFFFFF" font-family="sans-serif" font-size="13" font-weight="bold" lengthAdjust="spacing" textLength="37" x="56" y="494.2544">5.3.4</text><text fill="#FFFFFF" font-family="sans-serif" font-size="13" lengthAdjust="spacing" textLength="292" x="97" y="494.2544">&#1054;&#1090;&#1086;&#1073;&#1088;&#1072;&#1078;&#1077;&#1085;&#1080;&#1077; &#1082;&#1086;&#1085;&#1090;&#1072;&#1082;&#1090;&#1086;&#1074; &#1082;&#1072;&#1088;&#1090;&#1086;&#1095;&#1082;&#1080; &#1079;&#1072;&#1082;&#1072;&#1079;&#1072;</text><polygon fill="#E7E7E7" points="410,524.4531,420,528.4531,410,532.4531,414,528.4531" style="stroke:#E7E7E7;stroke-width:1.0;"/><line style="stroke:#E7E7E7;stroke-width:1.0;" x1="39" x2="416" y1="528.4531" y2="528.4531"/><text fill="#FFFFFF" font-family="sans-serif" font-size="13" font-weight="bold" lengthAdjust="spacing" textLength="37" x="46" y="523.3872">5.4.1</text><text fill="#FFFFFF" font-family="sans-serif" font-size="13" lengthAdjust="spacing" textLength="170" x="87" y="523.3872">&#1056;&#1077;&#1076;&#1072;&#1082;&#1090;&#1080;&#1088;&#1086;&#1074;&#1072;&#1090;&#1100; &#1082;&#1086;&#1085;&#1090;&#1072;&#1082;&#1090;</text><polygon fill="#E7E7E7" points="50,553.5859,40,557.5859,50,561.5859,46,557.5859" style="stroke:#E7E7E7;stroke-width:1.0;"/><line style="stroke:#E7E7E7;stroke-width:1.0;stroke-dasharray:2.0,2.0;" x1="44" x2="421" y1="557.5859" y2="557.5859"/><text fill="#FFFFFF" font-family="sans-serif" font-size="13" font-weight="bold" lengthAdjust="spacing" textLength="37" x="56" y="552.52">5.4.2</text><text fill="#FFFFFF" font-family="sans-serif" font-size="13" lengthAdjust="spacing" textLength="218" x="97" y="552.52">&#1054;&#1090;&#1086;&#1073;&#1088;&#1072;&#1078;&#1077;&#1085;&#1080;&#1077; &#1092;&#1086;&#1088;&#1084;&#1099; "&#1050;&#1086;&#1085;&#1090;&#1072;&#1082;&#1090;"</text><polygon fill="#E7E7E7" points="410,582.7188,420,586.7188,410,590.7188,414,586.7188" style="stroke:#E7E7E7;stroke-width:1.0;"/><line style="stroke:#E7E7E7;stroke-width:1.0;" x1="39" x2="416" y1="586.7188" y2="586.7188"/><text fill="#FFFFFF" font-family="sans-serif" font-size="13" font-weight="bold" lengthAdjust="spacing" textLength="37" x="46" y="581.6528">5.4.3</text><text fill="#FFFFFF" font-family="sans-serif" font-size="13" lengthAdjust="spacing" textLength="219" x="87" y="581.6528">&#1054;&#1073;&#1085;&#1086;&#1074;&#1080;&#1090;&#1100; &#1085;&#1077;&#1086;&#1073;&#1093;&#1086;&#1076;&#1080;&#1084;&#1099;&#1077; &#1076;&#1072;&#1085;&#1085;&#1099;&#1077;</text><polygon fill="#E7E7E7" points="410,611.8516,420,615.8516,410,619.8516,414,615.8516" style="stroke:#E7E7E7;stroke-width:1.0;"/><line style="stroke:#E7E7E7;stroke-width:1.0;" x1="39" x2="416" y1="615.8516" y2="615.8516"/><text fill="#FFFFFF" font-family="sans-serif" font-size="13" font-weight="bold" lengthAdjust="spacing" textLength="37" x="46" y="610.7856">5.4.4</text><text fill="#FFFFFF" font-family="sans-serif" font-size="13" lengthAdjust="spacing" textLength="142" x="87" y="610.7856">&#1053;&#1072;&#1078;&#1072;&#1090;&#1100; "&#1057;&#1086;&#1093;&#1088;&#1072;&#1085;&#1080;&#1090;&#1100;"</text><polygon fill="#E7E7E7" points="780,640.9844,790,644.9844,780,648.9844,784,644.9844" style="stroke:#E7E7E7;stroke-width:1.0;"/><line style="stroke:#E7E7E7;stroke-width:1.0;" x1="422" x2="786" y1="644.9844" y2="644.9844"/><text fill="#FFFFFF" font-family="sans-serif" font-size="13" font-weight="bold" lengthAdjust="spacing" textLength="37" x="429" y="639.9185">5.4.5</text><text fill="#FFFFFF" font-family="sans-serif" font-size="13" lengthAdjust="spacing" textLength="188" x="470" y="639.9185">PATCH /vacancies/contacts/id</text><polygon fill="#E7E7E7" points="433,670.1172,423,674.1172,433,678.1172,429,674.1172" style="stroke:#E7E7E7;stroke-width:1.0;"/><line style="stroke:#E7E7E7;stroke-width:1.0;stroke-dasharray:2.0,2.0;" x1="427" x2="791" y1="674.1172" y2="674.1172"/><text fill="#FFFFFF" font-family="sans-serif" font-size="13" font-weight="bold" lengthAdjust="spacing" textLength="37" x="439" y="669.0513">5.4.6</text><text fill="#FFFFFF" font-family="sans-serif" font-size="13" lengthAdjust="spacing" textLength="46" x="480" y="669.0513">200 OK</text><polygon fill="#E7E7E7" points="50,699.25,40,703.25,50,707.25,46,703.25" style="stroke:#E7E7E7;stroke-width:1.0;"/><line style="stroke:#E7E7E7;stroke-width:1.0;stroke-dasharray:2.0,2.0;" x1="44" x2="421" y1="703.25" y2="703.25"/><text fill="#FFFFFF" font-family="sans-serif" font-size="13" font-weight="bold" lengthAdjust="spacing" textLength="37" x="56" y="698.1841">5.4.7</text><text fill="#FFFFFF" font-family="sans-serif" font-size="13" lengthAdjust="spacing" textLength="269" x="97" y="698.1841">push-&#1091;&#1074;&#1077;&#1076;&#1086;&#1084;&#1083;&#1077;&#1085;&#1080;&#1077; "&#1050;&#1086;&#1085;&#1090;&#1072;&#1082;&#1090; &#1086;&#1073;&#1085;&#1086;&#1074;&#1083;&#1105;&#1085;&#8221;</text><polygon fill="#E7E7E7" points="410,728.3828,420,732.3828,410,736.3828,414,732.3828" style="stroke:#E7E7E7;stroke-width:1.0;"/><line style="stroke:#E7E7E7;stroke-width:1.0;" x1="39" x2="416" y1="732.3828" y2="732.3828"/><text fill="#FFFFFF" font-family="sans-serif" font-size="13" font-weight="bold" lengthAdjust="spacing" textLength="37" x="46" y="727.3169">5.5.1</text><text fill="#FFFFFF" font-family="sans-serif" font-size="13" lengthAdjust="spacing" textLength="120" x="87" y="727.3169">&#1059;&#1076;&#1072;&#1083;&#1080;&#1090;&#1100; &#1082;&#1086;&#1085;&#1090;&#1072;&#1082;&#1090;</text><polygon fill="#E7E7E7" points="50,757.5156,40,761.5156,50,765.5156,46,761.5156" style="stroke:#E7E7E7;stroke-width:1.0;"/><line style="stroke:#E7E7E7;stroke-width:1.0;stroke-dasharray:2.0,2.0;" x1="44" x2="421" y1="761.5156" y2="761.5156"/><text fill="#FFFFFF" font-family="sans-serif" font-size="13" font-weight="bold" lengthAdjust="spacing" textLength="37" x="56" y="756.4497">5.5.2</text><text fill="#FFFFFF" font-family="sans-serif" font-size="13" lengthAdjust="spacing" textLength="218" x="97" y="756.4497">&#1054;&#1090;&#1086;&#1073;&#1088;&#1072;&#1078;&#1077;&#1085;&#1080;&#1077; &#1092;&#1086;&#1088;&#1084;&#1099; "&#1050;&#1086;&#1085;&#1090;&#1072;&#1082;&#1090;"</text><polygon fill="#E7E7E7" points="410,786.6484,420,790.6484,410,794.6484,414,790.6484" style="stroke:#E7E7E7;stroke-width:1.0;"/><line style="stroke:#E7E7E7;stroke-width:1.0;" x1="39" x2="416" y1="790.6484" y2="790.6484"/><text fill="#FFFFFF" font-family="sans-serif" font-size="13" font-weight="bold" lengthAdjust="spacing" textLength="37" x="46" y="785.5825">5.5.3</text><text fill="#FFFFFF" font-family="sans-serif" font-size="13" lengthAdjust="spacing" textLength="189" x="87" y="785.5825">&#1053;&#1072;&#1078;&#1072;&#1090;&#1100; "&#1059;&#1076;&#1072;&#1083;&#1080;&#1090;&#1100; &#1082;&#1086;&#1085;&#1090;&#1072;&#1082;&#1090;"</text><polygon fill="#E7E7E7" points="50,815.7813,40,819.7813,50,823.7813,46,819.7813" style="stroke:#E7E7E7;stroke-width:1.0;"/><line style="stroke:#E7E7E7;stroke-width:1.0;stroke-dasharray:2.0,2.0;" x1="44" x2="421" y1="819.7813" y2="819.7813"/><text fill="#FFFFFF" font-family="sans-serif" font-size="13" font-weight="bold" lengthAdjust="spacing" textLength="37" x="56" y="814.7153">5.5.4</text><text fill="#FFFFFF" font-family="sans-serif" font-size="13" lengthAdjust="spacing" textLength="184" x="97" y="814.7153">&#1055;&#1086;&#1076;&#1090;&#1074;&#1077;&#1088;&#1078;&#1076;&#1077;&#1085;&#1080;&#1077; &#1076;&#1077;&#1081;&#1089;&#1090;&#1074;&#1080;&#1103;</text><path d="M10,834.7813 L74,834.7813 L74,841.9141 L64,851.9141 L10,851.9141 L10,834.7813 " fill="#555555" style="stroke:#FFFFFF;stroke-width:1.5;"/><rect fill="none" height="177.6016" style="stroke:#FFFFFF;stroke-width:1.5;" width="811.5" x="10" y="834.7813"/><text fill="#FFFFFF" font-family="sans-serif" font-size="13" font-weight="bold" lengthAdjust="spacing" textLength="19" x="25" y="847.8481">alt</text><text fill="#FFFFFF" font-family="sans-serif" font-size="11" font-weight="bold" lengthAdjust="spacing" textLength="116" x="89" y="846.9917">[&#1087;&#1086;&#1076;&#1090;&#1074;&#1077;&#1088;&#1078;&#1076;&#1077;&#1085;&#1080;&#1077;]</text><polygon fill="#E7E7E7" points="410,869.0469,420,873.0469,410,877.0469,414,873.0469" style="stroke:#E7E7E7;stroke-width:1.0;"/><line style="stroke:#E7E7E7;stroke-width:1.0;" x1="39" x2="416" y1="873.0469" y2="873.0469"/><text fill="#FFFFFF" font-family="sans-serif" font-size="13" font-weight="bold" lengthAdjust="spacing" textLength="37" x="46" y="867.981">5.5.5</text><text fill="#FFFFFF" font-family="sans-serif" font-size="13" lengthAdjust="spacing" textLength="127" x="87" y="867.981">&#1053;&#1072;&#1078;&#1072;&#1090;&#1100; "&#1059;&#1076;&#1072;&#1083;&#1080;&#1090;&#1100;"</text><polygon fill="#E7E7E7" points="780,898.1797,790,902.1797,780,906.1797,784,902.1797" style="stroke:#E7E7E7;stroke-width:1.0;"/><line style="stroke:#E7E7E7;stroke-width:1.0;" x1="422" x2="786" y1="902.1797" y2="902.1797"/><text fill="#FFFFFF" font-family="sans-serif" font-size="13" font-weight="bold" lengthAdjust="spacing" textLength="37" x="429" y="897.1138">5.5.6</text><text fill="#FFFFFF" font-family="sans-serif" font-size="13" lengthAdjust="spacing" textLength="193" x="470" y="897.1138">DELETE /vacancies/contacts/id</text><polygon fill="#E7E7E7" points="433,927.3125,423,931.3125,433,935.3125,429,931.3125" style="stroke:#E7E7E7;stroke-width:1.0;"/><line style="stroke:#E7E7E7;stroke-width:1.0;stroke-dasharray:2.0,2.0;" x1="427" x2="791" y1="931.3125" y2="931.3125"/><text fill="#FFFFFF" font-family="sans-serif" font-size="13" font-weight="bold" lengthAdjust="spacing" textLength="37" x="439" y="926.2466">5.5.7</text><text fill="#FFFFFF" font-family="sans-serif" font-size="13" lengthAdjust="spacing" textLength="99" x="480" y="926.2466">204 No content</text><polygon fill="#E7E7E7" points="50,956.4453,40,960.4453,50,964.4453,46,960.4453" style="stroke:#E7E7E7;stroke-width:1.0;"/><line style="stroke:#E7E7E7;stroke-width:1.0;stroke-dasharray:2.0,2.0;" x1="44" x2="421" y1="960.4453" y2="960.4453"/><text fill="#FFFFFF" font-family="sans-serif" font-size="13" font-weight="bold" lengthAdjust="spacing" textLength="37" x="56" y="955.3794">5.5.8</text><text fill="#FFFFFF" font-family="sans-serif" font-size="13" lengthAdjust="spacing" textLength="254" x="97" y="955.3794">push-&#1091;&#1074;&#1077;&#1076;&#1086;&#1084;&#1083;&#1077;&#1085;&#1080;&#1077; "&#1050;&#1086;&#1085;&#1090;&#1072;&#1082;&#1090; &#1091;&#1076;&#1072;&#1083;&#1105;&#1085;&#8221;</text><line style="stroke:#FFFFFF;stroke-width:1.0;stroke-dasharray:2.0,2.0;" x1="10" x2="821.5" y1="969.4453" y2="969.4453"/><text fill="#FFFFFF" font-family="sans-serif" font-size="11" font-weight="bold" lengthAdjust="spacing" textLength="57" x="15" y="979.6558">[&#1086;&#1090;&#1084;&#1077;&#1085;&#1072;]</text><polygon fill="#E7E7E7" points="410,1000.3828,420,1004.3828,410,1008.3828,414,1004.3828" style="stroke:#E7E7E7;stroke-width:1.0;"/><line style="stroke:#E7E7E7;stroke-width:1.0;" x1="39" x2="416" y1="1004.3828" y2="1004.3828"/><text fill="#FFFFFF" font-family="sans-serif" font-size="13" font-weight="bold" lengthAdjust="spacing" textLength="37" x="46" y="999.3169">5.5.9</text><text fill="#FFFFFF" font-family="sans-serif" font-size="13" lengthAdjust="spacing" textLength="136" x="87" y="999.3169">&#1053;&#1072;&#1078;&#1072;&#1090;&#1100; "&#1054;&#1089;&#1090;&#1072;&#1074;&#1080;&#1090;&#1100;"</text><!--SRC=[nLNBRjD05DtxAwwyJzEKTjD54IeHL22AHBAk9iuW8e8TsHCaTgQbOX4a16A5r03Y1zmgfMuIcr-O-GM-X3FZjjJJ4088iKWqZpFdddlktB7eY2ud-LxcCbExCf5ZjQi6ZiCy4OJKZ7Zez5WeEbwdntn1pIsdpGHhiOXJYtcF0UoBmEy_QV6GrfPgIpL7dw7A1g3h9D-1zn2iHp85xokIuyk1dEOMLJGKHm1-2zYnUexTbEG8a0pGWJmcFSym_o8Jm-B-WjSrn1j6uJhTttxGeEfJvZ7Vw_2ewWM-G7gHexUB-92wiboZpP0pmTjbMRr-zAYYzhGsYChbL4umocGAOMxPE3A0GfS1kPO_AxO_7u2Vg3trScOU98_qIg9YhEG0ZRKPEIPZyATwgp3c5AgIKjAtwZDplbuiFTlfjEtqbsdxZbMGeGuh3rLil3zFkgmHuoiYKqkavSAr_-x2mv3pBXRvJiYZNk17_9yRSg9tyJkvOiUgRST7SzCAiXInG7XsyUUspsnnwWKqn7Ag1lPjTSjHXxYucObrLeGC79fl7_yZS4sBNhpKc6M2WrA7VaBOVQCbAmYjfhpHsBmzgpRLHGhnMpsPNoGsKMzazYq-i0gmPXVWiqboiiYRzPUcbpsR5zUr0kkU6M5JFvanE4O_hgCUdfftLDVojSEwWkJNd-4N5bGkuCtwtNgZlc05L-bUG7gV- -BFAmcOaNDUHTx5LyWy15Dp9fcNoj0OSl75S1tkjxy3]--></g></svg>