<?xml version="1.0" encoding="us-ascii" standalone="no"?><svg xmlns="http://www.w3.org/2000/svg" xmlns:xlink="http://www.w3.org/1999/xlink" contentStyleType="text/css" height="1728px" preserveAspectRatio="none" style="width:1363px;height:1728px;background:#1B1B1B;" version="1.1" viewBox="0 0 1363 1728" width="1363px" zoomAndPan="magnify"><defs/><g><rect fill="#1B1B1B" height="1728" style="stroke:none;stroke-width:1.0;" width="1363" x="0" y="0"/><text fill="#FFFFFF" font-family="sans-serif" font-size="14" font-weight="bold" lengthAdjust="spacing" textLength="245" x="560.25" y="27.9951">&#1059;&#1087;&#1088;&#1072;&#1074;&#1083;&#1077;&#1085;&#1080;&#1077; &#1091;&#1095;&#1077;&#1090;&#1085;&#1086;&#1081; &#1079;&#1072;&#1087;&#1080;&#1089;&#1100;&#1102;</text><rect fill="none" height="46.2656" style="stroke:#FFFFFF;stroke-width:1.5;" width="441.5" x="10" y="514.3203"/><rect fill="none" height="454.125" style="stroke:#FFFFFF;stroke-width:1.5;" width="1346.5" x="10" y="574.5859"/><rect fill="none" height="221.5391" style="stroke:#FFFFFF;stroke-width:1.5;" width="952" x="404.5" y="1100.9766"/><rect fill="none" height="235.8672" style="stroke:#FFFFFF;stroke-width:1.5;" width="1346.5" x="10" y="1394.7813"/><line style="stroke:#E7E7E7;stroke-width:0.5;stroke-dasharray:5.0,5.0;" x1="39" x2="39" y1="118.5938" y2="1647.6484"/><line style="stroke:#E7E7E7;stroke-width:0.5;stroke-dasharray:5.0,5.0;" x1="427.5" x2="427.5" y1="118.5938" y2="1647.6484"/><line style="stroke:#E7E7E7;stroke-width:0.5;stroke-dasharray:5.0,5.0;" x1="866" x2="866" y1="118.5938" y2="1647.6484"/><line style="stroke:#E7E7E7;stroke-width:0.5;stroke-dasharray:5.0,5.0;" x1="1326.5" x2="1326.5" y1="118.5938" y2="1647.6484"/><text fill="#FFFFFF" font-family="sans-serif" font-size="14" lengthAdjust="spacing" textLength="32" x="20" y="115.292">User</text><ellipse cx="39" cy="50.7969" fill="#222222" rx="8" ry="8" style="stroke:#E7E7E7;stroke-width:0.5;"/><path d="M39,58.7969 L39,85.7969 M26,66.7969 L52,66.7969 M39,85.7969 L26,100.7969 M39,85.7969 L52,100.7969 " fill="none" style="stroke:#E7E7E7;stroke-width:0.5;"/><text fill="#FFFFFF" font-family="sans-serif" font-size="14" lengthAdjust="spacing" textLength="32" x="20" y="1659.6436">User</text><ellipse cx="39" cy="1671.4453" fill="#222222" rx="8" ry="8" style="stroke:#E7E7E7;stroke-width:0.5;"/><path d="M39,1679.4453 L39,1706.4453 M26,1687.4453 L52,1687.4453 M39,1706.4453 L26,1721.4453 M39,1706.4453 L52,1721.4453 " fill="none" style="stroke:#E7E7E7;stroke-width:0.5;"/><rect fill="#222222" height="30.2969" rx="2.5" ry="2.5" style="stroke:#E7E7E7;stroke-width:0.5;" width="27" x="414.5" y="87.2969"/><text fill="#FFFFFF" font-family="sans-serif" font-size="14" lengthAdjust="spacing" textLength="13" x="421.5" y="107.292">UI</text><rect fill="#222222" height="30.2969" rx="2.5" ry="2.5" style="stroke:#E7E7E7;stroke-width:0.5;" width="27" x="414.5" y="1646.6484"/><text fill="#FFFFFF" font-family="sans-serif" font-size="14" lengthAdjust="spacing" textLength="13" x="421.5" y="1666.6436">UI</text><rect fill="#222222" height="30.2969" rx="2.5" ry="2.5" style="stroke:#E7E7E7;stroke-width:0.5;" width="64" x="834" y="87.2969"/><text fill="#FFFFFF" font-family="sans-serif" font-size="14" lengthAdjust="spacing" textLength="50" x="841" y="107.292">Service</text><rect fill="#222222" height="30.2969" rx="2.5" ry="2.5" style="stroke:#E7E7E7;stroke-width:0.5;" width="64" x="834" y="1646.6484"/><text fill="#FFFFFF" font-family="sans-serif" font-size="14" lengthAdjust="spacing" textLength="50" x="841" y="1666.6436">Service</text><text fill="#FFFFFF" font-family="sans-serif" font-size="14" lengthAdjust="spacing" textLength="33" x="1307.5" y="115.292">back</text><path d="M1309,66.2969 C1309,56.2969 1327,56.2969 1327,56.2969 C1327,56.2969 1345,56.2969 1345,66.2969 L1345,92.2969 C1345,102.2969 1327,102.2969 1327,102.2969 C1327,102.2969 1309,102.2969 1309,92.2969 L1309,66.2969 " fill="#222222" style="stroke:#E7E7E7;stroke-width:1.5;"/><path d="M1309,66.2969 C1309,76.2969 1327,76.2969 1327,76.2969 C1327,76.2969 1345,76.2969 1345,66.2969 " fill="none" style="stroke:#E7E7E7;stroke-width:1.5;"/><text fill="#FFFFFF" font-family="sans-serif" font-size="14" lengthAdjust="spacing" textLength="33" x="1307.5" y="1659.6436">back</text><path d="M1309,1672.9453 C1309,1662.9453 1327,1662.9453 1327,1662.9453 C1327,1662.9453 1345,1662.9453 1345,1672.9453 L1345,1698.9453 C1345,1708.9453 1327,1708.9453 1327,1708.9453 C1327,1708.9453 1309,1708.9453 1309,1698.9453 L1309,1672.9453 " fill="#222222" style="stroke:#E7E7E7;stroke-width:1.5;"/><path d="M1309,1672.9453 C1309,1682.9453 1327,1682.9453 1327,1682.9453 C1327,1682.9453 1345,1682.9453 1345,1672.9453 " fill="none" style="stroke:#E7E7E7;stroke-width:1.5;"/><polygon fill="#E7E7E7" points="416,145.7266,426,149.7266,416,153.7266,420,149.7266" style="stroke:#E7E7E7;stroke-width:1.0;"/><line style="stroke:#E7E7E7;stroke-width:1.0;" x1="39" x2="422" y1="149.7266" y2="149.7266"/><text fill="#FFFFFF" font-family="sans-serif" font-size="13" font-weight="bold" lengthAdjust="spacing" textLength="37" x="46" y="144.6606">1.1.1</text><text fill="#FFFFFF" font-family="sans-serif" font-size="13" lengthAdjust="spacing" textLength="144" x="87" y="144.6606">&#1047;&#1072;&#1088;&#1077;&#1075;&#1080;&#1089;&#1090;&#1088;&#1080;&#1088;&#1086;&#1074;&#1072;&#1090;&#1100;&#1089;&#1103;</text><polygon fill="#E7E7E7" points="50,174.8594,40,178.8594,50,182.8594,46,178.8594" style="stroke:#E7E7E7;stroke-width:1.0;"/><line style="stroke:#E7E7E7;stroke-width:1.0;stroke-dasharray:2.0,2.0;" x1="44" x2="427" y1="178.8594" y2="178.8594"/><text fill="#FFFFFF" font-family="sans-serif" font-size="13" font-weight="bold" lengthAdjust="spacing" textLength="37" x="56" y="173.7935">1.1.2</text><text fill="#FFFFFF" font-family="sans-serif" font-size="13" lengthAdjust="spacing" textLength="246" x="97" y="173.7935">&#1054;&#1090;&#1086;&#1073;&#1088;&#1072;&#1078;&#1077;&#1085;&#1080;&#1077; &#1087;&#1086;&#1083;&#1077;&#1081; email, password</text><polygon fill="#E7E7E7" points="416,203.9922,426,207.9922,416,211.9922,420,207.9922" style="stroke:#E7E7E7;stroke-width:1.0;"/><line style="stroke:#E7E7E7;stroke-width:1.0;" x1="39" x2="422" y1="207.9922" y2="207.9922"/><text fill="#FFFFFF" font-family="sans-serif" font-size="13" font-weight="bold" lengthAdjust="spacing" textLength="37" x="46" y="202.9263">1.1.3</text><text fill="#FFFFFF" font-family="sans-serif" font-size="13" lengthAdjust="spacing" textLength="324" x="87" y="202.9263">&#1042;&#1074;&#1077;&#1089;&#1090;&#1080; &#1076;&#1072;&#1085;&#1085;&#1099;&#1077;, &#1085;&#1072;&#1078;&#1072;&#1090;&#1100; "&#1047;&#1072;&#1088;&#1077;&#1075;&#1080;&#1089;&#1090;&#1088;&#1080;&#1088;&#1086;&#1074;&#1072;&#1090;&#1100;&#1089;&#1103;"</text><polygon fill="#E7E7E7" points="854,233.125,864,237.125,854,241.125,858,237.125" style="stroke:#E7E7E7;stroke-width:1.0;"/><line style="stroke:#E7E7E7;stroke-width:1.0;" x1="428" x2="860" y1="237.125" y2="237.125"/><text fill="#FFFFFF" font-family="sans-serif" font-size="13" font-weight="bold" lengthAdjust="spacing" textLength="37" x="435" y="232.0591">1.1.4</text><text fill="#FFFFFF" font-family="sans-serif" font-size="13" lengthAdjust="spacing" textLength="159" x="476" y="232.0591">POST /register user_data</text><polygon fill="#E7E7E7" points="1315,262.2578,1325,266.2578,1315,270.2578,1319,266.2578" style="stroke:#E7E7E7;stroke-width:1.0;"/><line style="stroke:#E7E7E7;stroke-width:1.0;" x1="866" x2="1321" y1="266.2578" y2="266.2578"/><text fill="#FFFFFF" font-family="sans-serif" font-size="13" font-weight="bold" lengthAdjust="spacing" textLength="37" x="873" y="261.1919">1.1.5</text><text fill="#FFFFFF" font-family="sans-serif" font-size="13" lengthAdjust="spacing" textLength="159" x="914" y="261.1919">&#1057;&#1086;&#1079;&#1076;&#1072;&#1090;&#1100; &#1087;&#1086;&#1083;&#1100;&#1079;&#1086;&#1074;&#1072;&#1090;&#1077;&#1083;&#1103;</text><polygon fill="#E7E7E7" points="877,291.3906,867,295.3906,877,299.3906,873,295.3906" style="stroke:#E7E7E7;stroke-width:1.0;"/><line style="stroke:#E7E7E7;stroke-width:1.0;stroke-dasharray:2.0,2.0;" x1="871" x2="1326" y1="295.3906" y2="295.3906"/><text fill="#FFFFFF" font-family="sans-serif" font-size="13" font-weight="bold" lengthAdjust="spacing" textLength="37" x="883" y="290.3247">1.1.6</text><text fill="#FFFFFF" font-family="sans-serif" font-size="13" lengthAdjust="spacing" textLength="79" x="924" y="290.3247">201 Created</text><polygon fill="#E7E7E7" points="439,320.5234,429,324.5234,439,328.5234,435,324.5234" style="stroke:#E7E7E7;stroke-width:1.0;"/><line style="stroke:#E7E7E7;stroke-width:1.0;stroke-dasharray:2.0,2.0;" x1="433" x2="865" y1="324.5234" y2="324.5234"/><text fill="#FFFFFF" font-family="sans-serif" font-size="13" font-weight="bold" lengthAdjust="spacing" textLength="37" x="445" y="319.4575">1.1.7</text><text fill="#FFFFFF" font-family="sans-serif" font-size="13" lengthAdjust="spacing" textLength="79" x="486" y="319.4575">201 Created</text><polygon fill="#E7E7E7" points="50,349.6563,40,353.6563,50,357.6563,46,353.6563" style="stroke:#E7E7E7;stroke-width:1.0;"/><line style="stroke:#E7E7E7;stroke-width:1.0;stroke-dasharray:2.0,2.0;" x1="44" x2="427" y1="353.6563" y2="353.6563"/><text fill="#FFFFFF" font-family="sans-serif" font-size="13" font-weight="bold" lengthAdjust="spacing" textLength="37" x="56" y="348.5903">1.1.8</text><text fill="#FFFFFF" font-family="sans-serif" font-size="13" lengthAdjust="spacing" textLength="171" x="97" y="348.5903">&#1054;&#1090;&#1086;&#1073;&#1088;&#1072;&#1079;&#1080;&#1090;&#1100; &#1101;&#1082;&#1088;&#1072;&#1085; &#1074;&#1093;&#1086;&#1076;&#1072;</text><polygon fill="#E7E7E7" points="416,378.7891,426,382.7891,416,386.7891,420,382.7891" style="stroke:#E7E7E7;stroke-width:1.0;"/><line style="stroke:#E7E7E7;stroke-width:1.0;" x1="39" x2="422" y1="382.7891" y2="382.7891"/><text fill="#FFFFFF" font-family="sans-serif" font-size="13" font-weight="bold" lengthAdjust="spacing" textLength="37" x="46" y="377.7231">1.2.1</text><text fill="#FFFFFF" font-family="sans-serif" font-size="13" lengthAdjust="spacing" textLength="230" x="87" y="377.7231">&#1042;&#1074;&#1077;&#1089;&#1090;&#1080; &#1076;&#1072;&#1085;&#1085;&#1099;&#1077; &#1080; &#1085;&#1072;&#1078;&#1072;&#1090;&#1100; "&#1042;&#1086;&#1081;&#1090;&#1080;"</text><polygon fill="#E7E7E7" points="854,407.9219,864,411.9219,854,415.9219,858,411.9219" style="stroke:#E7E7E7;stroke-width:1.0;"/><line style="stroke:#E7E7E7;stroke-width:1.0;" x1="428" x2="860" y1="411.9219" y2="411.9219"/><text fill="#FFFFFF" font-family="sans-serif" font-size="13" font-weight="bold" lengthAdjust="spacing" textLength="37" x="435" y="406.856">1.2.2</text><text fill="#FFFFFF" font-family="sans-serif" font-size="13" lengthAdjust="spacing" textLength="146" x="476" y="406.856">POST /token user_data</text><polygon fill="#E7E7E7" points="1315,437.0547,1325,441.0547,1315,445.0547,1319,441.0547" style="stroke:#E7E7E7;stroke-width:1.0;"/><line style="stroke:#E7E7E7;stroke-width:1.0;" x1="866" x2="1321" y1="441.0547" y2="441.0547"/><text fill="#FFFFFF" font-family="sans-serif" font-size="13" font-weight="bold" lengthAdjust="spacing" textLength="37" x="873" y="435.9888">1.2.3</text><text fill="#FFFFFF" font-family="sans-serif" font-size="13" lengthAdjust="spacing" textLength="243" x="914" y="435.9888">&#1040;&#1091;&#1090;&#1077;&#1085;&#1090;&#1080;&#1092;&#1080;&#1094;&#1080;&#1088;&#1086;&#1074;&#1072;&#1090;&#1100; &#1087;&#1086;&#1083;&#1100;&#1079;&#1086;&#1074;&#1072;&#1090;&#1077;&#1083;&#1103;</text><polygon fill="#E7E7E7" points="877,466.1875,867,470.1875,877,474.1875,873,470.1875" style="stroke:#E7E7E7;stroke-width:1.0;"/><line style="stroke:#E7E7E7;stroke-width:1.0;stroke-dasharray:2.0,2.0;" x1="871" x2="1326" y1="470.1875" y2="470.1875"/><text fill="#FFFFFF" font-family="sans-serif" font-size="13" font-weight="bold" lengthAdjust="spacing" textLength="37" x="883" y="465.1216">1.2.4</text><text fill="#FFFFFF" font-family="sans-serif" font-size="13" lengthAdjust="spacing" textLength="90" x="924" y="465.1216">200 OK, token</text><polygon fill="#E7E7E7" points="439,495.3203,429,499.3203,439,503.3203,435,499.3203" style="stroke:#E7E7E7;stroke-width:1.0;"/><line style="stroke:#E7E7E7;stroke-width:1.0;stroke-dasharray:2.0,2.0;" x1="433" x2="865" y1="499.3203" y2="499.3203"/><text fill="#FFFFFF" font-family="sans-serif" font-size="13" font-weight="bold" lengthAdjust="spacing" textLength="37" x="445" y="494.2544">1.2.5</text><text fill="#FFFFFF" font-family="sans-serif" font-size="13" lengthAdjust="spacing" textLength="90" x="486" y="494.2544">200 OK, token</text><path d="M10,514.3203 L74,514.3203 L74,521.4531 L64,531.4531 L10,531.4531 L10,514.3203 " fill="#555555" style="stroke:#FFFFFF;stroke-width:1.5;"/><rect fill="none" height="46.2656" style="stroke:#FFFFFF;stroke-width:1.5;" width="441.5" x="10" y="514.3203"/><text fill="#FFFFFF" font-family="sans-serif" font-size="13" font-weight="bold" lengthAdjust="spacing" textLength="19" x="25" y="527.3872">alt</text><text fill="#FFFFFF" font-family="sans-serif" font-size="11" font-weight="bold" lengthAdjust="spacing" textLength="157" x="89" y="526.5308">[case else &#1072;&#1074;&#1090;&#1086;&#1088;&#1080;&#1079;&#1072;&#1094;&#1080;&#1103;]</text><polygon fill="#E7E7E7" points="50,548.5859,40,552.5859,50,556.5859,46,552.5859" style="stroke:#E7E7E7;stroke-width:1.0;"/><line style="stroke:#E7E7E7;stroke-width:1.0;stroke-dasharray:2.0,2.0;" x1="44" x2="427" y1="552.5859" y2="552.5859"/><text fill="#FFFFFF" font-family="sans-serif" font-size="13" font-weight="bold" lengthAdjust="spacing" textLength="37" x="56" y="547.52">1.2.6</text><text fill="#FFFFFF" font-family="sans-serif" font-size="13" lengthAdjust="spacing" textLength="225" x="97" y="547.52">&#1054;&#1090;&#1086;&#1073;&#1088;&#1072;&#1078;&#1077;&#1085;&#1080;&#1077; &#1075;&#1083;&#1072;&#1074;&#1085;&#1086;&#1081; &#1089;&#1090;&#1088;&#1072;&#1085;&#1080;&#1094;&#1099;</text><path d="M10,574.5859 L80,574.5859 L80,581.7188 L70,591.7188 L10,591.7188 L10,574.5859 " fill="#555555" style="stroke:#FFFFFF;stroke-width:1.5;"/><rect fill="none" height="454.125" style="stroke:#FFFFFF;stroke-width:1.5;" width="1346.5" x="10" y="574.5859"/><text fill="#FFFFFF" font-family="sans-serif" font-size="13" font-weight="bold" lengthAdjust="spacing" textLength="25" x="25" y="587.6528">opt</text><polygon fill="#E7E7E7" points="416,608.8516,426,612.8516,416,616.8516,420,612.8516" style="stroke:#E7E7E7;stroke-width:1.0;"/><line style="stroke:#E7E7E7;stroke-width:1.0;" x1="39" x2="422" y1="612.8516" y2="612.8516"/><text fill="#FFFFFF" font-family="sans-serif" font-size="13" font-weight="bold" lengthAdjust="spacing" textLength="37" x="46" y="607.7856">1.3.1</text><text fill="#FFFFFF" font-family="sans-serif" font-size="13" lengthAdjust="spacing" textLength="187" x="87" y="607.7856">&#1053;&#1072;&#1078;&#1072;&#1090;&#1100; "&#1053;&#1077; &#1087;&#1086;&#1084;&#1085;&#1102; &#1087;&#1072;&#1088;&#1086;&#1083;&#1100;"</text><polygon fill="#E7E7E7" points="50,637.9844,40,641.9844,50,645.9844,46,641.9844" style="stroke:#E7E7E7;stroke-width:1.0;"/><line style="stroke:#E7E7E7;stroke-width:1.0;stroke-dasharray:2.0,2.0;" x1="44" x2="427" y1="641.9844" y2="641.9844"/><text fill="#FFFFFF" font-family="sans-serif" font-size="13" font-weight="bold" lengthAdjust="spacing" textLength="37" x="56" y="636.9185">1.3.2</text><text fill="#FFFFFF" font-family="sans-serif" font-size="13" lengthAdjust="spacing" textLength="170" x="97" y="636.9185">&#1054;&#1090;&#1086;&#1073;&#1088;&#1072;&#1078;&#1077;&#1085;&#1080;&#1077; &#1087;&#1086;&#1083;&#1103; email</text><polygon fill="#E7E7E7" points="416,667.1172,426,671.1172,416,675.1172,420,671.1172" style="stroke:#E7E7E7;stroke-width:1.0;"/><line style="stroke:#E7E7E7;stroke-width:1.0;" x1="39" x2="422" y1="671.1172" y2="671.1172"/><text fill="#FFFFFF" font-family="sans-serif" font-size="13" font-weight="bold" lengthAdjust="spacing" textLength="37" x="46" y="666.0513">1.3.3</text><text fill="#FFFFFF" font-family="sans-serif" font-size="13" lengthAdjust="spacing" textLength="273" x="87" y="666.0513">&#1042;&#1074;&#1077;&#1089;&#1090;&#1080;, &#1085;&#1072;&#1078;&#1072;&#1090;&#1100; "&#1042;&#1086;&#1089;&#1089;&#1090;&#1072;&#1085;&#1086;&#1074;&#1080;&#1090;&#1100; &#1087;&#1072;&#1088;&#1086;&#1083;&#1100;"</text><polygon fill="#E7E7E7" points="854,696.25,864,700.25,854,704.25,858,700.25" style="stroke:#E7E7E7;stroke-width:1.0;"/><line style="stroke:#E7E7E7;stroke-width:1.0;" x1="428" x2="860" y1="700.25" y2="700.25"/><text fill="#FFFFFF" font-family="sans-serif" font-size="13" font-weight="bold" lengthAdjust="spacing" textLength="37" x="435" y="695.1841">1.3.4</text><text fill="#FFFFFF" font-family="sans-serif" font-size="13" lengthAdjust="spacing" textLength="216" x="476" y="695.1841">POST /password_reset user_email</text><polygon fill="#E7E7E7" points="1315,725.3828,1325,729.3828,1315,733.3828,1319,729.3828" style="stroke:#E7E7E7;stroke-width:1.0;"/><line style="stroke:#E7E7E7;stroke-width:1.0;" x1="866" x2="1321" y1="729.3828" y2="729.3828"/><text fill="#FFFFFF" font-family="sans-serif" font-size="13" font-weight="bold" lengthAdjust="spacing" textLength="37" x="873" y="724.3169">1.3.5</text><text fill="#FFFFFF" font-family="sans-serif" font-size="13" lengthAdjust="spacing" textLength="396" x="914" y="724.3169">&#1054;&#1090;&#1087;&#1088;&#1072;&#1074;&#1080;&#1090;&#1100; &#1087;&#1080;&#1089;&#1100;&#1084;&#1086; &#1089; &#1089;&#1089;&#1099;&#1083;&#1082;&#1086;&#1081; &#1076;&#1083;&#1103; &#1074;&#1086;&#1089;&#1089;&#1090;&#1072;&#1085;&#1086;&#1074;&#1083;&#1077;&#1085;&#1080;&#1103; &#1087;&#1072;&#1088;&#1086;&#1083;&#1103;</text><polygon fill="#E7E7E7" points="877,754.5156,867,758.5156,877,762.5156,873,758.5156" style="stroke:#E7E7E7;stroke-width:1.0;"/><line style="stroke:#E7E7E7;stroke-width:1.0;stroke-dasharray:2.0,2.0;" x1="871" x2="1326" y1="758.5156" y2="758.5156"/><text fill="#FFFFFF" font-family="sans-serif" font-size="13" font-weight="bold" lengthAdjust="spacing" textLength="37" x="883" y="753.4497">1.3.6</text><text fill="#FFFFFF" font-family="sans-serif" font-size="13" lengthAdjust="spacing" textLength="46" x="924" y="753.4497">200 OK</text><polygon fill="#E7E7E7" points="439,783.6484,429,787.6484,439,791.6484,435,787.6484" style="stroke:#E7E7E7;stroke-width:1.0;"/><line style="stroke:#E7E7E7;stroke-width:1.0;stroke-dasharray:2.0,2.0;" x1="433" x2="865" y1="787.6484" y2="787.6484"/><text fill="#FFFFFF" font-family="sans-serif" font-size="13" font-weight="bold" lengthAdjust="spacing" textLength="37" x="445" y="782.5825">1.3.7</text><text fill="#FFFFFF" font-family="sans-serif" font-size="13" lengthAdjust="spacing" textLength="46" x="486" y="782.5825">200 OK</text><polygon fill="#E7E7E7" points="50,812.7813,40,816.7813,50,820.7813,46,816.7813" style="stroke:#E7E7E7;stroke-width:1.0;"/><line style="stroke:#E7E7E7;stroke-width:1.0;stroke-dasharray:2.0,2.0;" x1="44" x2="427" y1="816.7813" y2="816.7813"/><text fill="#FFFFFF" font-family="sans-serif" font-size="13" font-weight="bold" lengthAdjust="spacing" textLength="37" x="56" y="811.7153">1.3.8</text><text fill="#FFFFFF" font-family="sans-serif" font-size="13" lengthAdjust="spacing" textLength="177" x="97" y="811.7153">&#1060;&#1086;&#1088;&#1084;&#1072; &#1076;&#1083;&#1103; &#1085;&#1086;&#1074;&#1086;&#1075;&#1086; &#1087;&#1072;&#1088;&#1086;&#1083;&#1103;</text><polygon fill="#E7E7E7" points="416,841.9141,426,845.9141,416,849.9141,420,845.9141" style="stroke:#E7E7E7;stroke-width:1.0;"/><line style="stroke:#E7E7E7;stroke-width:1.0;" x1="39" x2="422" y1="845.9141" y2="845.9141"/><text fill="#FFFFFF" font-family="sans-serif" font-size="13" font-weight="bold" lengthAdjust="spacing" textLength="37" x="46" y="840.8481">1.3.9</text><text fill="#FFFFFF" font-family="sans-serif" font-size="13" lengthAdjust="spacing" textLength="147" x="87" y="840.8481">&#1042;&#1074;&#1077;&#1089;&#1090;&#1080; &#1085;&#1086;&#1074;&#1099;&#1081; &#1087;&#1072;&#1088;&#1086;&#1083;&#1100;</text><polygon fill="#E7E7E7" points="416,871.0469,426,875.0469,416,879.0469,420,875.0469" style="stroke:#E7E7E7;stroke-width:1.0;"/><line style="stroke:#E7E7E7;stroke-width:1.0;" x1="39" x2="422" y1="875.0469" y2="875.0469"/><text fill="#FFFFFF" font-family="sans-serif" font-size="13" font-weight="bold" lengthAdjust="spacing" textLength="46" x="46" y="869.981">1.3.10</text><text fill="#FFFFFF" font-family="sans-serif" font-size="13" lengthAdjust="spacing" textLength="247" x="96" y="869.981">&#1053;&#1072;&#1078;&#1072;&#1090;&#1100; "&#1059;&#1089;&#1090;&#1072;&#1085;&#1086;&#1074;&#1080;&#1090;&#1100; &#1085;&#1086;&#1074;&#1099;&#1081; &#1087;&#1072;&#1088;&#1086;&#1083;&#1100;"</text><polygon fill="#E7E7E7" points="854,900.1797,864,904.1797,854,908.1797,858,904.1797" style="stroke:#E7E7E7;stroke-width:1.0;"/><line style="stroke:#E7E7E7;stroke-width:1.0;" x1="428" x2="860" y1="904.1797" y2="904.1797"/><text fill="#FFFFFF" font-family="sans-serif" font-size="13" font-weight="bold" lengthAdjust="spacing" textLength="46" x="435" y="899.1138">1.3.11</text><text fill="#FFFFFF" font-family="sans-serif" font-size="13" lengthAdjust="spacing" textLength="364" x="485" y="899.1138">POST /password_resetconfirm user_email, new_password</text><polygon fill="#E7E7E7" points="1315,929.3125,1325,933.3125,1315,937.3125,1319,933.3125" style="stroke:#E7E7E7;stroke-width:1.0;"/><line style="stroke:#E7E7E7;stroke-width:1.0;" x1="866" x2="1321" y1="933.3125" y2="933.3125"/><text fill="#FFFFFF" font-family="sans-serif" font-size="13" font-weight="bold" lengthAdjust="spacing" textLength="46" x="873" y="928.2466">1.3.12</text><text fill="#FFFFFF" font-family="sans-serif" font-size="13" lengthAdjust="spacing" textLength="219" x="923" y="928.2466">&#1054;&#1073;&#1085;&#1086;&#1074;&#1080;&#1090;&#1100; &#1087;&#1072;&#1088;&#1086;&#1083;&#1100; &#1087;&#1086;&#1083;&#1100;&#1079;&#1086;&#1074;&#1072;&#1090;&#1077;&#1083;&#1103;</text><polygon fill="#E7E7E7" points="877,958.4453,867,962.4453,877,966.4453,873,962.4453" style="stroke:#E7E7E7;stroke-width:1.0;"/><line style="stroke:#E7E7E7;stroke-width:1.0;stroke-dasharray:2.0,2.0;" x1="871" x2="1326" y1="962.4453" y2="962.4453"/><text fill="#FFFFFF" font-family="sans-serif" font-size="13" font-weight="bold" lengthAdjust="spacing" textLength="46" x="883" y="957.3794">1.3.13</text><text fill="#FFFFFF" font-family="sans-serif" font-size="13" lengthAdjust="spacing" textLength="46" x="933" y="957.3794">200 OK</text><polygon fill="#E7E7E7" points="439,987.5781,429,991.5781,439,995.5781,435,991.5781" style="stroke:#E7E7E7;stroke-width:1.0;"/><line style="stroke:#E7E7E7;stroke-width:1.0;stroke-dasharray:2.0,2.0;" x1="433" x2="865" y1="991.5781" y2="991.5781"/><text fill="#FFFFFF" font-family="sans-serif" font-size="13" font-weight="bold" lengthAdjust="spacing" textLength="46" x="445" y="986.5122">1.3.14</text><text fill="#FFFFFF" font-family="sans-serif" font-size="13" lengthAdjust="spacing" textLength="46" x="495" y="986.5122">200 OK</text><polygon fill="#E7E7E7" points="50,1016.7109,40,1020.7109,50,1024.7109,46,1020.7109" style="stroke:#E7E7E7;stroke-width:1.0;"/><line style="stroke:#E7E7E7;stroke-width:1.0;stroke-dasharray:2.0,2.0;" x1="44" x2="427" y1="1020.7109" y2="1020.7109"/><text fill="#FFFFFF" font-family="sans-serif" font-size="13" font-weight="bold" lengthAdjust="spacing" textLength="46" x="56" y="1015.645">1.3.15</text><text fill="#FFFFFF" font-family="sans-serif" font-size="13" lengthAdjust="spacing" textLength="171" x="106" y="1015.645">&#1054;&#1090;&#1086;&#1073;&#1088;&#1072;&#1079;&#1080;&#1090;&#1100; &#1101;&#1082;&#1088;&#1072;&#1085; &#1074;&#1093;&#1086;&#1076;&#1072;</text><polygon fill="#E7E7E7" points="854,1052.8438,864,1056.8438,854,1060.8438,858,1056.8438" style="stroke:#E7E7E7;stroke-width:1.0;"/><line style="stroke:#E7E7E7;stroke-width:1.0;" x1="428" x2="860" y1="1056.8438" y2="1056.8438"/><text fill="#FFFFFF" font-family="sans-serif" font-size="13" font-weight="bold" lengthAdjust="spacing" textLength="37" x="435" y="1051.7778">1.3.1</text><text fill="#FFFFFF" font-family="sans-serif" font-size="13" lengthAdjust="spacing" textLength="127" x="476" y="1051.7778">POST /token/refresh</text><polygon fill="#E7E7E7" points="1315,1081.9766,1325,1085.9766,1315,1089.9766,1319,1085.9766" style="stroke:#E7E7E7;stroke-width:1.0;"/><line style="stroke:#E7E7E7;stroke-width:1.0;" x1="866" x2="1321" y1="1085.9766" y2="1085.9766"/><text fill="#FFFFFF" font-family="sans-serif" font-size="13" font-weight="bold" lengthAdjust="spacing" textLength="37" x="873" y="1080.9106">1.3.2</text><text fill="#FFFFFF" font-family="sans-serif" font-size="13" lengthAdjust="spacing" textLength="112" x="914" y="1080.9106">&#1054;&#1073;&#1085;&#1086;&#1074;&#1080;&#1090;&#1100; &#1090;&#1086;&#1082;&#1077;&#1085;</text><path d="M404.5,1100.9766 L468.5,1100.9766 L468.5,1108.1094 L458.5,1118.1094 L404.5,1118.1094 L404.5,1100.9766 " fill="#555555" style="stroke:#FFFFFF;stroke-width:1.5;"/><rect fill="none" height="221.5391" style="stroke:#FFFFFF;stroke-width:1.5;" width="952" x="404.5" y="1100.9766"/><text fill="#FFFFFF" font-family="sans-serif" font-size="13" font-weight="bold" lengthAdjust="spacing" textLength="19" x="419.5" y="1114.0435">alt</text><text fill="#FFFFFF" font-family="sans-serif" font-size="11" font-weight="bold" lengthAdjust="spacing" textLength="120" x="483.5" y="1113.187">[succesful update]</text><polygon fill="#E7E7E7" points="877,1135.2422,867,1139.2422,877,1143.2422,873,1139.2422" style="stroke:#E7E7E7;stroke-width:1.0;"/><line style="stroke:#E7E7E7;stroke-width:1.0;stroke-dasharray:2.0,2.0;" x1="871" x2="1326" y1="1139.2422" y2="1139.2422"/><text fill="#FFFFFF" font-family="sans-serif" font-size="13" font-weight="bold" lengthAdjust="spacing" textLength="37" x="883" y="1134.1763">1.3.3</text><text fill="#FFFFFF" font-family="sans-serif" font-size="13" lengthAdjust="spacing" textLength="122" x="924" y="1134.1763">200 OK, new_token</text><polygon fill="#E7E7E7" points="439,1164.375,429,1168.375,439,1172.375,435,1168.375" style="stroke:#E7E7E7;stroke-width:1.0;"/><line style="stroke:#E7E7E7;stroke-width:1.0;stroke-dasharray:2.0,2.0;" x1="433" x2="865" y1="1168.375" y2="1168.375"/><text fill="#FFFFFF" font-family="sans-serif" font-size="13" font-weight="bold" lengthAdjust="spacing" textLength="37" x="445" y="1163.3091">1.3.4</text><text fill="#FFFFFF" font-family="sans-serif" font-size="13" lengthAdjust="spacing" textLength="122" x="486" y="1163.3091">200 OK, new_token</text><line style="stroke:#FFFFFF;stroke-width:1.0;stroke-dasharray:2.0,2.0;" x1="404.5" x2="1356.5" y1="1177.375" y2="1177.375"/><text fill="#FFFFFF" font-family="sans-serif" font-size="11" font-weight="bold" lengthAdjust="spacing" textLength="41" x="409.5" y="1187.5854">[error]</text><polygon fill="#E7E7E7" points="877,1208.3125,867,1212.3125,877,1216.3125,873,1212.3125" style="stroke:#E7E7E7;stroke-width:1.0;"/><line style="stroke:#E7E7E7;stroke-width:1.0;stroke-dasharray:2.0,2.0;" x1="871" x2="1326" y1="1212.3125" y2="1212.3125"/><text fill="#FFFFFF" font-family="sans-serif" font-size="13" font-weight="bold" lengthAdjust="spacing" textLength="37" x="883" y="1207.2466">1.3.5</text><text fill="#FFFFFF" font-family="sans-serif" font-size="13" lengthAdjust="spacing" textLength="106" x="924" y="1207.2466">400 Bad request</text><polygon fill="#E7E7E7" points="439,1237.4453,429,1241.4453,439,1245.4453,435,1241.4453" style="stroke:#E7E7E7;stroke-width:1.0;"/><line style="stroke:#E7E7E7;stroke-width:1.0;stroke-dasharray:2.0,2.0;" x1="433" x2="865" y1="1241.4453" y2="1241.4453"/><text fill="#FFFFFF" font-family="sans-serif" font-size="13" font-weight="bold" lengthAdjust="spacing" textLength="37" x="445" y="1236.3794">1.3.6</text><text fill="#FFFFFF" font-family="sans-serif" font-size="13" lengthAdjust="spacing" textLength="106" x="486" y="1236.3794">400 Bad request</text><line style="stroke:#FFFFFF;stroke-width:1.0;stroke-dasharray:2.0,2.0;" x1="404.5" x2="1356.5" y1="1250.4453" y2="1250.4453"/><text fill="#FFFFFF" font-family="sans-serif" font-size="11" font-weight="bold" lengthAdjust="spacing" textLength="41" x="409.5" y="1260.6558">[error]</text><polygon fill="#E7E7E7" points="877,1281.3828,867,1285.3828,877,1289.3828,873,1285.3828" style="stroke:#E7E7E7;stroke-width:1.0;"/><line style="stroke:#E7E7E7;stroke-width:1.0;stroke-dasharray:2.0,2.0;" x1="871" x2="1326" y1="1285.3828" y2="1285.3828"/><text fill="#FFFFFF" font-family="sans-serif" font-size="13" font-weight="bold" lengthAdjust="spacing" textLength="37" x="883" y="1280.3169">1.3.7</text><text fill="#FFFFFF" font-family="sans-serif" font-size="13" lengthAdjust="spacing" textLength="114" x="924" y="1280.3169">401 Unauthorized</text><polygon fill="#E7E7E7" points="439,1310.5156,429,1314.5156,439,1318.5156,435,1314.5156" style="stroke:#E7E7E7;stroke-width:1.0;"/><line style="stroke:#E7E7E7;stroke-width:1.0;stroke-dasharray:2.0,2.0;" x1="433" x2="865" y1="1314.5156" y2="1314.5156"/><text fill="#FFFFFF" font-family="sans-serif" font-size="13" font-weight="bold" lengthAdjust="spacing" textLength="37" x="445" y="1309.4497">1.3.8</text><text fill="#FFFFFF" font-family="sans-serif" font-size="13" lengthAdjust="spacing" textLength="114" x="486" y="1309.4497">401 Unauthorized</text><polygon fill="#E7E7E7" points="416,1346.6484,426,1350.6484,416,1354.6484,420,1350.6484" style="stroke:#E7E7E7;stroke-width:1.0;"/><line style="stroke:#E7E7E7;stroke-width:1.0;" x1="39" x2="422" y1="1350.6484" y2="1350.6484"/><text fill="#FFFFFF" font-family="sans-serif" font-size="13" font-weight="bold" lengthAdjust="spacing" textLength="37" x="46" y="1345.5825">1.4.1</text><text fill="#FFFFFF" font-family="sans-serif" font-size="13" lengthAdjust="spacing" textLength="44" x="87" y="1345.5825">&#1042;&#1099;&#1081;&#1090;&#1080;</text><polygon fill="#E7E7E7" points="50,1375.7813,40,1379.7813,50,1383.7813,46,1379.7813" style="stroke:#E7E7E7;stroke-width:1.0;"/><line style="stroke:#E7E7E7;stroke-width:1.0;stroke-dasharray:2.0,2.0;" x1="44" x2="427" y1="1379.7813" y2="1379.7813"/><text fill="#FFFFFF" font-family="sans-serif" font-size="13" font-weight="bold" lengthAdjust="spacing" textLength="37" x="56" y="1374.7153">1.4.2</text><text fill="#FFFFFF" font-family="sans-serif" font-size="13" lengthAdjust="spacing" textLength="184" x="97" y="1374.7153">&#1055;&#1086;&#1076;&#1090;&#1074;&#1077;&#1088;&#1078;&#1076;&#1077;&#1085;&#1080;&#1077; &#1076;&#1077;&#1081;&#1089;&#1090;&#1074;&#1080;&#1103;</text><path d="M10,1394.7813 L74,1394.7813 L74,1401.9141 L64,1411.9141 L10,1411.9141 L10,1394.7813 " fill="#555555" style="stroke:#FFFFFF;stroke-width:1.5;"/><rect fill="none" height="235.8672" style="stroke:#FFFFFF;stroke-width:1.5;" width="1346.5" x="10" y="1394.7813"/><text fill="#FFFFFF" font-family="sans-serif" font-size="13" font-weight="bold" lengthAdjust="spacing" textLength="19" x="25" y="1407.8481">alt</text><text fill="#FFFFFF" font-family="sans-serif" font-size="11" font-weight="bold" lengthAdjust="spacing" textLength="116" x="89" y="1406.9917">[&#1087;&#1086;&#1076;&#1090;&#1074;&#1077;&#1088;&#1078;&#1076;&#1077;&#1085;&#1080;&#1077;]</text><polygon fill="#E7E7E7" points="416,1429.0469,426,1433.0469,416,1437.0469,420,1433.0469" style="stroke:#E7E7E7;stroke-width:1.0;"/><line style="stroke:#E7E7E7;stroke-width:1.0;" x1="39" x2="422" y1="1433.0469" y2="1433.0469"/><text fill="#FFFFFF" font-family="sans-serif" font-size="13" font-weight="bold" lengthAdjust="spacing" textLength="37" x="46" y="1427.981">1.4.3</text><text fill="#FFFFFF" font-family="sans-serif" font-size="13" lengthAdjust="spacing" textLength="113" x="87" y="1427.981">&#1053;&#1072;&#1078;&#1072;&#1090;&#1100; "&#1042;&#1099;&#1081;&#1090;&#1080;"</text><polygon fill="#E7E7E7" points="854,1458.1797,864,1462.1797,854,1466.1797,858,1462.1797" style="stroke:#E7E7E7;stroke-width:1.0;"/><line style="stroke:#E7E7E7;stroke-width:1.0;" x1="428" x2="860" y1="1462.1797" y2="1462.1797"/><text fill="#FFFFFF" font-family="sans-serif" font-size="13" font-weight="bold" lengthAdjust="spacing" textLength="37" x="435" y="1457.1138">1.4.4</text><text fill="#FFFFFF" font-family="sans-serif" font-size="13" lengthAdjust="spacing" textLength="89" x="476" y="1457.1138">POST /signout</text><polygon fill="#E7E7E7" points="1315,1487.3125,1325,1491.3125,1315,1495.3125,1319,1491.3125" style="stroke:#E7E7E7;stroke-width:1.0;"/><line style="stroke:#E7E7E7;stroke-width:1.0;" x1="866" x2="1321" y1="1491.3125" y2="1491.3125"/><text fill="#FFFFFF" font-family="sans-serif" font-size="13" font-weight="bold" lengthAdjust="spacing" textLength="37" x="873" y="1486.2466">1.4.5</text><text fill="#FFFFFF" font-family="sans-serif" font-size="13" lengthAdjust="spacing" textLength="187" x="914" y="1486.2466">&#1056;&#1072;&#1079;&#1083;&#1086;&#1075;&#1080;&#1085;&#1080;&#1090;&#1100; &#1087;&#1086;&#1083;&#1100;&#1079;&#1086;&#1074;&#1072;&#1090;&#1077;&#1083;&#1103;</text><polygon fill="#E7E7E7" points="877,1516.4453,867,1520.4453,877,1524.4453,873,1520.4453" style="stroke:#E7E7E7;stroke-width:1.0;"/><line style="stroke:#E7E7E7;stroke-width:1.0;stroke-dasharray:2.0,2.0;" x1="871" x2="1326" y1="1520.4453" y2="1520.4453"/><text fill="#FFFFFF" font-family="sans-serif" font-size="13" font-weight="bold" lengthAdjust="spacing" textLength="37" x="883" y="1515.3794">1.4.6</text><text fill="#FFFFFF" font-family="sans-serif" font-size="13" lengthAdjust="spacing" textLength="46" x="924" y="1515.3794">200 OK</text><polygon fill="#E7E7E7" points="439,1545.5781,429,1549.5781,439,1553.5781,435,1549.5781" style="stroke:#E7E7E7;stroke-width:1.0;"/><line style="stroke:#E7E7E7;stroke-width:1.0;stroke-dasharray:2.0,2.0;" x1="433" x2="865" y1="1549.5781" y2="1549.5781"/><text fill="#FFFFFF" font-family="sans-serif" font-size="13" font-weight="bold" lengthAdjust="spacing" textLength="37" x="445" y="1544.5122">1.4.7</text><text fill="#FFFFFF" font-family="sans-serif" font-size="13" lengthAdjust="spacing" textLength="46" x="486" y="1544.5122">200 OK</text><polygon fill="#E7E7E7" points="50,1574.7109,40,1578.7109,50,1582.7109,46,1578.7109" style="stroke:#E7E7E7;stroke-width:1.0;"/><line style="stroke:#E7E7E7;stroke-width:1.0;stroke-dasharray:2.0,2.0;" x1="44" x2="427" y1="1578.7109" y2="1578.7109"/><text fill="#FFFFFF" font-family="sans-serif" font-size="13" font-weight="bold" lengthAdjust="spacing" textLength="37" x="56" y="1573.645">1.4.8</text><text fill="#FFFFFF" font-family="sans-serif" font-size="13" lengthAdjust="spacing" textLength="171" x="97" y="1573.645">&#1054;&#1090;&#1086;&#1073;&#1088;&#1072;&#1079;&#1080;&#1090;&#1100; &#1101;&#1082;&#1088;&#1072;&#1085; &#1074;&#1093;&#1086;&#1076;&#1072;</text><line style="stroke:#FFFFFF;stroke-width:1.0;stroke-dasharray:2.0,2.0;" x1="10" x2="1356.5" y1="1587.7109" y2="1587.7109"/><text fill="#FFFFFF" font-family="sans-serif" font-size="11" font-weight="bold" lengthAdjust="spacing" textLength="57" x="15" y="1597.9214">[&#1086;&#1090;&#1084;&#1077;&#1085;&#1072;]</text><polygon fill="#E7E7E7" points="416,1618.6484,426,1622.6484,416,1626.6484,420,1622.6484" style="stroke:#E7E7E7;stroke-width:1.0;"/><line style="stroke:#E7E7E7;stroke-width:1.0;" x1="39" x2="422" y1="1622.6484" y2="1622.6484"/><text fill="#FFFFFF" font-family="sans-serif" font-size="13" font-weight="bold" lengthAdjust="spacing" textLength="37" x="46" y="1617.5825">1.4.9</text><text fill="#FFFFFF" font-family="sans-serif" font-size="13" lengthAdjust="spacing" textLength="135" x="87" y="1617.5825">&#1053;&#1072;&#1078;&#1072;&#1090;&#1100; "&#1054;&#1089;&#1090;&#1072;&#1090;&#1100;&#1089;&#1103;"</text><!--SRC=[pLOxKzj04ExrAtQe3S64AWL5KZ4fo0nnpGZv00r6SawdC9EAa5S1WGnDAaWov0S8WuCDMFo5kt-KtPKVw1dJPJpstEdszl5ztwwiNDKIeC_rlTdJaUxeMztL0ztJNJ0Vp1VTDVkuZNKVz3MUt-kUUMyEpP5bsOxo9JG28QssBPNhk6tRKz1OJcrNXNphEi9gsifUjmC1wxQpZPT3vNlXphgGK9_3ZqL-O7O9hpy3_Lr7c4rNNtAqVLpty1jZTX7k3l7PiTLOXbcontjuumpJZFK5r_1dN06c6tD1VH0xjjkgGTiEWbrVDjFnJj1pboBf7kWhT37G0tEWkpN05Jdai30pJM8pdDdIgF1dy6fbzJKyaMBJ3HJ6337m6g5X3It8c431F7wXgsjAWCCbsPj3V3ICW95liNIovkB7CHRcw_122bk9viJjiBg7P-MWNMCb5DHyrJVyO02wOpxXEQQJuMiXorSPVa3xD88df2KoBC59-Tl2gmJf6-gIa1YG5_CHlv_JB3mEk7bOULa33bi0tSDJkwN08GcB5lvGin1-f05g3SvYIbbUeYYfrvB66Yg9KCDQp84blAPb-MsLHltfN1tIi9-ca3qT2VuEeJcYPSIe810pZ-WMSvpqYbLASQs0KpoXiuXBwWorb4yXH_Ue7zUa28HAU4_2vucdh4TJQXo0nn6M72ECm5aS8BWtoSIwudBGF9lVSCZHuIJ7SdsK22E3wcyMmvsEne6JO37o7QS3bNSFNy4Q-YdqgdW_BqA-sCrK93Y-j-7AdGTSrC0JkslZqLd0ZBue9VxntJWTsjCFBswdR2jLJ1-SrHk8nDOKXN8EDoGcdWv1w3WYs0XR4BPnUecAWKE8LW-TYGNF6o6bBmiSBgBvSxi9Khm9HQ1oxhBd_t1MXuQ7M6tvqdrNy3B96UJ1NSoz7KY7fEuCWp-87tnEwjz3GLzD9X4j-wph3azL0fTrL6XVrHtZu2NQ3znDpmzL0TS_MLYttBuzdXRx_uMQ-UKJe_qTrnzLLN-Mp8R9VnEawoy0]--></g></svg>