<?xml version="1.0" encoding="us-ascii" standalone="no"?><svg xmlns="http://www.w3.org/2000/svg" xmlns:xlink="http://www.w3.org/1999/xlink" contentStyleType="text/css" height="1157px" preserveAspectRatio="none" style="width:890px;height:1157px;background:#1B1B1B;" version="1.1" viewBox="0 0 890 1157" width="890px" zoomAndPan="magnify"><defs/><g><rect fill="#1B1B1B" height="1157" style="stroke:none;stroke-width:1.0;" width="890" x="0" y="0"/><text fill="#FFFFFF" font-family="sans-serif" font-size="14" font-weight="bold" lengthAdjust="spacing" textLength="50" x="421.5" y="27.9951">&#1051;&#1077;&#1085;&#1090;&#1072;</text><rect fill="none" height="426.9922" style="stroke:#FFFFFF;stroke-width:1.5;" width="874" x="10" y="252.125"/><rect fill="none" height="133.6641" style="stroke:#FFFFFF;stroke-width:1.5;" width="854" x="20" y="538.4531"/><rect fill="none" height="133.6641" style="stroke:#FFFFFF;stroke-width:1.5;" width="339" x="535" y="780.5156"/><line style="stroke:#E7E7E7;stroke-width:0.5;stroke-dasharray:5.0,5.0;" x1="48" x2="48" y1="118.5938" y2="1076.8438"/><line style="stroke:#E7E7E7;stroke-width:0.5;stroke-dasharray:5.0,5.0;" x1="558" x2="558" y1="118.5938" y2="1076.8438"/><line style="stroke:#E7E7E7;stroke-width:0.5;stroke-dasharray:5.0,5.0;" x1="843" x2="843" y1="118.5938" y2="1076.8438"/><text fill="#FFFFFF" font-family="sans-serif" font-size="14" lengthAdjust="spacing" textLength="31" x="30" y="115.292">User</text><ellipse cx="48.5" cy="50.7969" fill="#222222" rx="8" ry="8" style="stroke:#E7E7E7;stroke-width:0.5;"/><path d="M48.5,58.7969 L48.5,85.7969 M35.5,66.7969 L61.5,66.7969 M48.5,85.7969 L35.5,100.7969 M48.5,85.7969 L61.5,100.7969 " fill="none" style="stroke:#E7E7E7;stroke-width:0.5;"/><text fill="#FFFFFF" font-family="sans-serif" font-size="14" lengthAdjust="spacing" textLength="31" x="30" y="1088.8389">User</text><ellipse cx="48.5" cy="1100.6406" fill="#222222" rx="8" ry="8" style="stroke:#E7E7E7;stroke-width:0.5;"/><path d="M48.5,1108.6406 L48.5,1135.6406 M35.5,1116.6406 L61.5,1116.6406 M48.5,1135.6406 L35.5,1150.6406 M48.5,1135.6406 L61.5,1150.6406 " fill="none" style="stroke:#E7E7E7;stroke-width:0.5;"/><rect fill="#222222" height="30.2969" rx="2.5" ry="2.5" style="stroke:#E7E7E7;stroke-width:0.5;" width="27" x="545" y="87.2969"/><text fill="#FFFFFF" font-family="sans-serif" font-size="14" lengthAdjust="spacing" textLength="13" x="552" y="107.292">UI</text><rect fill="#222222" height="30.2969" rx="2.5" ry="2.5" style="stroke:#E7E7E7;stroke-width:0.5;" width="27" x="545" y="1075.8438"/><text fill="#FFFFFF" font-family="sans-serif" font-size="14" lengthAdjust="spacing" textLength="13" x="552" y="1095.8389">UI</text><text fill="#FFFFFF" font-family="sans-serif" font-size="14" lengthAdjust="spacing" textLength="35" x="823" y="115.292">back</text><path d="M825.5,66.2969 C825.5,56.2969 843.5,56.2969 843.5,56.2969 C843.5,56.2969 861.5,56.2969 861.5,66.2969 L861.5,92.2969 C861.5,102.2969 843.5,102.2969 843.5,102.2969 C843.5,102.2969 825.5,102.2969 825.5,92.2969 L825.5,66.2969 " fill="#222222" style="stroke:#E7E7E7;stroke-width:1.5;"/><path d="M825.5,66.2969 C825.5,76.2969 843.5,76.2969 843.5,76.2969 C843.5,76.2969 861.5,76.2969 861.5,66.2969 " fill="none" style="stroke:#E7E7E7;stroke-width:1.5;"/><text fill="#FFFFFF" font-family="sans-serif" font-size="14" lengthAdjust="spacing" textLength="35" x="823" y="1088.8389">back</text><path d="M825.5,1102.1406 C825.5,1092.1406 843.5,1092.1406 843.5,1092.1406 C843.5,1092.1406 861.5,1092.1406 861.5,1102.1406 L861.5,1128.1406 C861.5,1138.1406 843.5,1138.1406 843.5,1138.1406 C843.5,1138.1406 825.5,1138.1406 825.5,1128.1406 L825.5,1102.1406 " fill="#222222" style="stroke:#E7E7E7;stroke-width:1.5;"/><path d="M825.5,1102.1406 C825.5,1112.1406 843.5,1112.1406 843.5,1112.1406 C843.5,1112.1406 861.5,1112.1406 861.5,1102.1406 " fill="none" style="stroke:#E7E7E7;stroke-width:1.5;"/><polygon fill="#E7E7E7" points="546.5,145.7266,556.5,149.7266,546.5,153.7266,550.5,149.7266" style="stroke:#E7E7E7;stroke-width:1.0;"/><line style="stroke:#E7E7E7;stroke-width:1.0;" x1="48.5" x2="552.5" y1="149.7266" y2="149.7266"/><text fill="#FFFFFF" font-family="sans-serif" font-size="13" font-weight="bold" lengthAdjust="spacing" textLength="37" x="55.5" y="144.6606">6.1.1</text><text fill="#FFFFFF" font-family="sans-serif" font-size="13" lengthAdjust="spacing" textLength="188" x="96.5" y="144.6606">&#1055;&#1088;&#1086;&#1089;&#1084;&#1086;&#1090;&#1088;&#1077;&#1090;&#1100; &#1083;&#1077;&#1085;&#1090;&#1091; &#1079;&#1072;&#1087;&#1080;&#1089;&#1077;&#1081;</text><polygon fill="#E7E7E7" points="831.5,174.8594,841.5,178.8594,831.5,182.8594,835.5,178.8594" style="stroke:#E7E7E7;stroke-width:1.0;"/><line style="stroke:#E7E7E7;stroke-width:1.0;" x1="558.5" x2="837.5" y1="178.8594" y2="178.8594"/><text fill="#FFFFFF" font-family="sans-serif" font-size="13" font-weight="bold" lengthAdjust="spacing" textLength="37" x="565.5" y="173.7935">6.1.2</text><text fill="#FFFFFF" font-family="sans-serif" font-size="13" lengthAdjust="spacing" textLength="173" x="606.5" y="173.7935">GET /reports/feed?limit=10</text><polygon fill="#E7E7E7" points="569.5,203.9922,559.5,207.9922,569.5,211.9922,565.5,207.9922" style="stroke:#E7E7E7;stroke-width:1.0;"/><line style="stroke:#E7E7E7;stroke-width:1.0;stroke-dasharray:2.0,2.0;" x1="563.5" x2="842.5" y1="207.9922" y2="207.9922"/><text fill="#FFFFFF" font-family="sans-serif" font-size="13" font-weight="bold" lengthAdjust="spacing" textLength="36" x="575.5" y="202.9263">6.1.3</text><text fill="#FFFFFF" font-family="sans-serif" font-size="13" lengthAdjust="spacing" textLength="46" x="615.5" y="202.9263">200 OK</text><polygon fill="#E7E7E7" points="59.5,233.125,49.5,237.125,59.5,241.125,55.5,237.125" style="stroke:#E7E7E7;stroke-width:1.0;"/><line style="stroke:#E7E7E7;stroke-width:1.0;stroke-dasharray:2.0,2.0;" x1="53.5" x2="557.5" y1="237.125" y2="237.125"/><text fill="#FFFFFF" font-family="sans-serif" font-size="13" font-weight="bold" lengthAdjust="spacing" textLength="37" x="65.5" y="232.0591">6.1.4</text><text fill="#FFFFFF" font-family="sans-serif" font-size="13" lengthAdjust="spacing" textLength="180" x="106.5" y="232.0591">&#1054;&#1090;&#1086;&#1073;&#1088;&#1072;&#1079;&#1080;&#1090;&#1100; &#1083;&#1077;&#1085;&#1090;&#1091; &#1079;&#1072;&#1087;&#1080;&#1089;&#1077;&#1081;</text><path d="M10,252.125 L76,252.125 L76,259.2578 L66,269.2578 L10,269.2578 L10,252.125 " fill="#555555" style="stroke:#FFFFFF;stroke-width:1.5;"/><rect fill="none" height="426.9922" style="stroke:#FFFFFF;stroke-width:1.5;" width="874" x="10" y="252.125"/><text fill="#FFFFFF" font-family="sans-serif" font-size="13" font-weight="bold" lengthAdjust="spacing" textLength="21" x="25" y="265.1919">alt</text><text fill="#FFFFFF" font-family="sans-serif" font-size="11" font-weight="bold" lengthAdjust="spacing" textLength="115" x="91" y="264.3354">[Successful case]</text><polygon fill="#E7E7E7" points="546.5,286.3906,556.5,290.3906,546.5,294.3906,550.5,290.3906" style="stroke:#E7E7E7;stroke-width:1.0;"/><line style="stroke:#E7E7E7;stroke-width:1.0;" x1="48.5" x2="552.5" y1="290.3906" y2="290.3906"/><text fill="#FFFFFF" font-family="sans-serif" font-size="13" font-weight="bold" lengthAdjust="spacing" textLength="37" x="55.5" y="285.3247">6.2.1</text><text fill="#FFFFFF" font-family="sans-serif" font-size="13" lengthAdjust="spacing" textLength="241" x="96.5" y="285.3247">&#1053;&#1072;&#1078;&#1072;&#1090;&#1100; &#1085;&#1072; &#1082;&#1085;&#1086;&#1087;&#1082;&#1091; "&#1057;&#1086;&#1079;&#1076;&#1072;&#1090;&#1100; &#1079;&#1072;&#1087;&#1080;&#1089;&#1100;"</text><polygon fill="#E7E7E7" points="831.5,315.5234,841.5,319.5234,831.5,323.5234,835.5,319.5234" style="stroke:#E7E7E7;stroke-width:1.0;"/><line style="stroke:#E7E7E7;stroke-width:1.0;" x1="558.5" x2="837.5" y1="319.5234" y2="319.5234"/><text fill="#FFFFFF" font-family="sans-serif" font-size="13" font-weight="bold" lengthAdjust="spacing" textLength="37" x="565.5" y="314.4575">6.2.2</text><text fill="#FFFFFF" font-family="sans-serif" font-size="13" lengthAdjust="spacing" textLength="220" x="606.5" y="314.4575">GET /reports/get_last_report_stats</text><polygon fill="#E7E7E7" points="569.5,344.6563,559.5,348.6563,569.5,352.6563,565.5,348.6563" style="stroke:#E7E7E7;stroke-width:1.0;"/><line style="stroke:#E7E7E7;stroke-width:1.0;stroke-dasharray:2.0,2.0;" x1="563.5" x2="842.5" y1="348.6563" y2="348.6563"/><text fill="#FFFFFF" font-family="sans-serif" font-size="13" font-weight="bold" lengthAdjust="spacing" textLength="36" x="575.5" y="343.5903">6.2.3</text><text fill="#FFFFFF" font-family="sans-serif" font-size="13" lengthAdjust="spacing" textLength="46" x="615.5" y="343.5903">200 OK</text><polygon fill="#E7E7E7" points="59.5,373.7891,49.5,377.7891,59.5,381.7891,55.5,377.7891" style="stroke:#E7E7E7;stroke-width:1.0;"/><line style="stroke:#E7E7E7;stroke-width:1.0;stroke-dasharray:2.0,2.0;" x1="53.5" x2="557.5" y1="377.7891" y2="377.7891"/><text fill="#FFFFFF" font-family="sans-serif" font-size="13" font-weight="bold" lengthAdjust="spacing" textLength="37" x="65.5" y="372.7231">6.2.4</text><text fill="#FFFFFF" font-family="sans-serif" font-size="13" lengthAdjust="spacing" textLength="221" x="106.5" y="372.7231">&#1054;&#1090;&#1086;&#1073;&#1088;&#1072;&#1078;&#1077;&#1085;&#1080;&#1077; &#1086;&#1082;&#1085;&#1072; &#1085;&#1086;&#1074;&#1086;&#1081; &#1079;&#1072;&#1087;&#1080;&#1089;&#1080;</text><polygon fill="#E7E7E7" points="546.5,402.9219,556.5,406.9219,546.5,410.9219,550.5,406.9219" style="stroke:#E7E7E7;stroke-width:1.0;"/><line style="stroke:#E7E7E7;stroke-width:1.0;" x1="48.5" x2="552.5" y1="406.9219" y2="406.9219"/><text fill="#FFFFFF" font-family="sans-serif" font-size="13" font-weight="bold" lengthAdjust="spacing" textLength="37" x="55.5" y="401.856">6.2.5</text><text fill="#FFFFFF" font-family="sans-serif" font-size="13" lengthAdjust="spacing" textLength="445" x="96.5" y="401.856">&#1047;&#1072;&#1087;&#1086;&#1083;&#1085;&#1080;&#1090;&#1100; &#1082;&#1086;&#1084;&#1084;&#1077;&#1085;&#1090;&#1072;&#1088;&#1080;&#1081; (&#1084;&#1080;&#1085;&#1080;&#1084;&#1072;&#1083;&#1100;&#1085;&#1086;&#1077; &#1082;&#1086;&#1083;&#1080;&#1095;&#1077;&#1089;&#1090;&#1074;&#1086; &#1089;&#1080;&#1084;&#1074;&#1086;&#1083;&#1086;&#1074; - 80)</text><polygon fill="#E7E7E7" points="546.5,432.0547,556.5,436.0547,546.5,440.0547,550.5,436.0547" style="stroke:#E7E7E7;stroke-width:1.0;"/><line style="stroke:#E7E7E7;stroke-width:1.0;" x1="48.5" x2="552.5" y1="436.0547" y2="436.0547"/><text fill="#FFFFFF" font-family="sans-serif" font-size="13" font-weight="bold" lengthAdjust="spacing" textLength="37" x="55.5" y="430.9888">6.2.6</text><text fill="#FFFFFF" font-family="sans-serif" font-size="13" lengthAdjust="spacing" textLength="255" x="96.5" y="430.9888">&#1053;&#1072;&#1078;&#1072;&#1090;&#1100; &#1085;&#1072; &#1082;&#1085;&#1086;&#1087;&#1082;&#1091; "&#1054;&#1090;&#1087;&#1088;&#1072;&#1074;&#1080;&#1090;&#1100; &#1079;&#1072;&#1087;&#1080;&#1089;&#1100;"</text><polygon fill="#E7E7E7" points="831.5,461.1875,841.5,465.1875,831.5,469.1875,835.5,465.1875" style="stroke:#E7E7E7;stroke-width:1.0;"/><line style="stroke:#E7E7E7;stroke-width:1.0;" x1="558.5" x2="837.5" y1="465.1875" y2="465.1875"/><text fill="#FFFFFF" font-family="sans-serif" font-size="13" font-weight="bold" lengthAdjust="spacing" textLength="37" x="565.5" y="460.1216">6.2.7</text><text fill="#FFFFFF" font-family="sans-serif" font-size="13" lengthAdjust="spacing" textLength="88" x="606.5" y="460.1216">POST /reports</text><polygon fill="#E7E7E7" points="569.5,490.3203,559.5,494.3203,569.5,498.3203,565.5,494.3203" style="stroke:#E7E7E7;stroke-width:1.0;"/><line style="stroke:#E7E7E7;stroke-width:1.0;stroke-dasharray:2.0,2.0;" x1="563.5" x2="842.5" y1="494.3203" y2="494.3203"/><text fill="#FFFFFF" font-family="sans-serif" font-size="13" font-weight="bold" lengthAdjust="spacing" textLength="37" x="575.5" y="489.2544">6.2.8</text><text fill="#FFFFFF" font-family="sans-serif" font-size="13" lengthAdjust="spacing" textLength="46" x="616.5" y="489.2544">200 OK</text><polygon fill="#E7E7E7" points="59.5,519.4531,49.5,523.4531,59.5,527.4531,55.5,523.4531" style="stroke:#E7E7E7;stroke-width:1.0;"/><line style="stroke:#E7E7E7;stroke-width:1.0;stroke-dasharray:2.0,2.0;" x1="53.5" x2="557.5" y1="523.4531" y2="523.4531"/><text fill="#FFFFFF" font-family="sans-serif" font-size="13" font-weight="bold" lengthAdjust="spacing" textLength="37" x="65.5" y="518.3872">6.2.9</text><text fill="#FFFFFF" font-family="sans-serif" font-size="13" lengthAdjust="spacing" textLength="226" x="106.5" y="518.3872">&#1055;&#1086;&#1076;&#1090;&#1074;&#1077;&#1088;&#1078;&#1076;&#1077;&#1085;&#1080;&#1077; &#1086;&#1090;&#1087;&#1088;&#1072;&#1074;&#1082;&#1080; &#1092;&#1086;&#1088;&#1084;&#1099;</text><path d="M20,538.4531 L86,538.4531 L86,545.5859 L76,555.5859 L20,555.5859 L20,538.4531 " fill="#555555" style="stroke:#FFFFFF;stroke-width:1.5;"/><rect fill="none" height="133.6641" style="stroke:#FFFFFF;stroke-width:1.5;" width="854" x="20" y="538.4531"/><text fill="#FFFFFF" font-family="sans-serif" font-size="13" font-weight="bold" lengthAdjust="spacing" textLength="21" x="35" y="551.52">alt</text><text fill="#FFFFFF" font-family="sans-serif" font-size="11" font-weight="bold" lengthAdjust="spacing" textLength="195" x="101" y="550.6636">[&#1054;&#1090;&#1084;&#1077;&#1085;&#1072; &#1087;&#1091;&#1073;&#1083;&#1080;&#1082;&#1072;&#1094;&#1080;&#1080; &#1079;&#1072;&#1087;&#1080;&#1089;&#1080;]</text><polygon fill="#E7E7E7" points="546.5,572.7188,556.5,576.7188,546.5,580.7188,550.5,576.7188" style="stroke:#E7E7E7;stroke-width:1.0;"/><line style="stroke:#E7E7E7;stroke-width:1.0;" x1="48.5" x2="552.5" y1="576.7188" y2="576.7188"/><text fill="#FFFFFF" font-family="sans-serif" font-size="13" font-weight="bold" lengthAdjust="spacing" textLength="47" x="55.5" y="571.6528">6.2.10</text><text fill="#FFFFFF" font-family="sans-serif" font-size="13" lengthAdjust="spacing" textLength="264" x="106.5" y="571.6528">&#1053;&#1072;&#1078;&#1072;&#1090;&#1100; &#1085;&#1072; &#1082;&#1085;&#1086;&#1087;&#1082;&#1091; "&#1055;&#1077;&#1088;&#1077;&#1081;&#1090;&#1080; &#1074; &#1076;&#1085;&#1077;&#1074;&#1085;&#1080;&#1082;"</text><polygon fill="#E7E7E7" points="831.5,601.8516,841.5,605.8516,831.5,609.8516,835.5,605.8516" style="stroke:#E7E7E7;stroke-width:1.0;"/><line style="stroke:#E7E7E7;stroke-width:1.0;" x1="558.5" x2="837.5" y1="605.8516" y2="605.8516"/><text fill="#FFFFFF" font-family="sans-serif" font-size="13" font-weight="bold" lengthAdjust="spacing" textLength="46" x="565.5" y="600.7856">6.2.11</text><text fill="#FFFFFF" font-family="sans-serif" font-size="13" lengthAdjust="spacing" textLength="180" x="615.5" y="600.7856">GET /reports/feed?limit=10s</text><polygon fill="#E7E7E7" points="569.5,630.9844,559.5,634.9844,569.5,638.9844,565.5,634.9844" style="stroke:#E7E7E7;stroke-width:1.0;"/><line style="stroke:#E7E7E7;stroke-width:1.0;stroke-dasharray:2.0,2.0;" x1="563.5" x2="842.5" y1="634.9844" y2="634.9844"/><text fill="#FFFFFF" font-family="sans-serif" font-size="13" font-weight="bold" lengthAdjust="spacing" textLength="46" x="575.5" y="629.9185">6.2.12</text><text fill="#FFFFFF" font-family="sans-serif" font-size="13" lengthAdjust="spacing" textLength="46" x="625.5" y="629.9185">200 OK</text><polygon fill="#E7E7E7" points="59.5,660.1172,49.5,664.1172,59.5,668.1172,55.5,664.1172" style="stroke:#E7E7E7;stroke-width:1.0;"/><line style="stroke:#E7E7E7;stroke-width:1.0;stroke-dasharray:2.0,2.0;" x1="53.5" x2="557.5" y1="664.1172" y2="664.1172"/><text fill="#FFFFFF" font-family="sans-serif" font-size="13" font-weight="bold" lengthAdjust="spacing" textLength="45" x="65.5" y="659.0513">6.2.13</text><text fill="#FFFFFF" font-family="sans-serif" font-size="13" lengthAdjust="spacing" textLength="280" x="114.5" y="659.0513">&#1055;&#1086;&#1076;&#1090;&#1074;&#1077;&#1088;&#1078;&#1076;&#1077;&#1085;&#1080;&#1077; &#1086;&#1090;&#1084;&#1077;&#1085;&#1099; &#1086;&#1090;&#1087;&#1088;&#1072;&#1074;&#1082;&#1080; &#1092;&#1086;&#1088;&#1084;&#1099;</text><polygon fill="#E7E7E7" points="546.5,703.25,556.5,707.25,546.5,711.25,550.5,707.25" style="stroke:#E7E7E7;stroke-width:1.0;"/><line style="stroke:#E7E7E7;stroke-width:1.0;" x1="48.5" x2="552.5" y1="707.25" y2="707.25"/><text fill="#FFFFFF" font-family="sans-serif" font-size="13" font-weight="bold" lengthAdjust="spacing" textLength="36" x="55.5" y="702.1841">6.3.1</text><text fill="#FFFFFF" font-family="sans-serif" font-size="13" lengthAdjust="spacing" textLength="151" x="95.5" y="702.1841">&#1056;&#1077;&#1076;&#1072;&#1082;&#1090;&#1080;&#1088;&#1086;&#1074;&#1072;&#1090;&#1100; &#1079;&#1072;&#1087;&#1080;&#1089;&#1100;</text><polygon fill="#E7E7E7" points="831.5,732.3828,841.5,736.3828,831.5,740.3828,835.5,736.3828" style="stroke:#E7E7E7;stroke-width:1.0;"/><line style="stroke:#E7E7E7;stroke-width:1.0;" x1="558.5" x2="837.5" y1="736.3828" y2="736.3828"/><text fill="#FFFFFF" font-family="sans-serif" font-size="13" font-weight="bold" lengthAdjust="spacing" textLength="36" x="565.5" y="731.3169">6.3.2</text><text fill="#FFFFFF" font-family="sans-serif" font-size="13" lengthAdjust="spacing" textLength="142" x="605.5" y="731.3169">REPORTS /reports/962</text><polygon fill="#E7E7E7" points="569.5,761.5156,559.5,765.5156,569.5,769.5156,565.5,765.5156" style="stroke:#E7E7E7;stroke-width:1.0;"/><line style="stroke:#E7E7E7;stroke-width:1.0;stroke-dasharray:2.0,2.0;" x1="563.5" x2="842.5" y1="765.5156" y2="765.5156"/><text fill="#FFFFFF" font-family="sans-serif" font-size="13" font-weight="bold" lengthAdjust="spacing" textLength="35" x="575.5" y="760.4497">6.3.3</text><text fill="#FFFFFF" font-family="sans-serif" font-size="13" lengthAdjust="spacing" textLength="46" x="614.5" y="760.4497">200 OK</text><path d="M535,780.5156 L605,780.5156 L605,787.6484 L595,797.6484 L535,797.6484 L535,780.5156 " fill="#555555" style="stroke:#FFFFFF;stroke-width:1.5;"/><rect fill="none" height="133.6641" style="stroke:#FFFFFF;stroke-width:1.5;" width="339" x="535" y="780.5156"/><text fill="#FFFFFF" font-family="sans-serif" font-size="13" font-weight="bold" lengthAdjust="spacing" textLength="25" x="550" y="793.5825">par</text><polygon fill="#E7E7E7" points="831.5,814.7813,841.5,818.7813,831.5,822.7813,835.5,818.7813" style="stroke:#E7E7E7;stroke-width:1.0;"/><line style="stroke:#E7E7E7;stroke-width:1.0;" x1="558.5" x2="837.5" y1="818.7813" y2="818.7813"/><text fill="#FFFFFF" font-family="sans-serif" font-size="13" font-weight="bold" lengthAdjust="spacing" textLength="36" x="565.5" y="813.7153">6.3.4</text><text fill="#FFFFFF" font-family="sans-serif" font-size="13" lengthAdjust="spacing" textLength="168" x="605.5" y="813.7153">GET /cohorts?course_id=4</text><polygon fill="#E7E7E7" points="569.5,843.9141,559.5,847.9141,569.5,851.9141,565.5,847.9141" style="stroke:#E7E7E7;stroke-width:1.0;"/><line style="stroke:#E7E7E7;stroke-width:1.0;stroke-dasharray:2.0,2.0;" x1="563.5" x2="842.5" y1="847.9141" y2="847.9141"/><text fill="#FFFFFF" font-family="sans-serif" font-size="13" font-weight="bold" lengthAdjust="spacing" textLength="36" x="575.5" y="842.8481">6.3.5</text><text fill="#FFFFFF" font-family="sans-serif" font-size="13" lengthAdjust="spacing" textLength="46" x="615.5" y="842.8481">200 OK</text><polygon fill="#E7E7E7" points="831.5,873.0469,841.5,877.0469,831.5,881.0469,835.5,877.0469" style="stroke:#E7E7E7;stroke-width:1.0;"/><line style="stroke:#E7E7E7;stroke-width:1.0;" x1="558.5" x2="837.5" y1="877.0469" y2="877.0469"/><text fill="#FFFFFF" font-family="sans-serif" font-size="13" font-weight="bold" lengthAdjust="spacing" textLength="36" x="565.5" y="871.981">6.3.6</text><text fill="#FFFFFF" font-family="sans-serif" font-size="13" lengthAdjust="spacing" textLength="173" x="605.5" y="871.981">GET /reports/me?limit=100</text><polygon fill="#E7E7E7" points="569.5,902.1797,559.5,906.1797,569.5,910.1797,565.5,906.1797" style="stroke:#E7E7E7;stroke-width:1.0;"/><line style="stroke:#E7E7E7;stroke-width:1.0;stroke-dasharray:2.0,2.0;" x1="563.5" x2="842.5" y1="906.1797" y2="906.1797"/><text fill="#FFFFFF" font-family="sans-serif" font-size="13" font-weight="bold" lengthAdjust="spacing" textLength="36" x="575.5" y="901.1138">6.3.7</text><text fill="#FFFFFF" font-family="sans-serif" font-size="13" lengthAdjust="spacing" textLength="46" x="615.5" y="901.1138">200 OK</text><polygon fill="#E7E7E7" points="59.5,938.3125,49.5,942.3125,59.5,946.3125,55.5,942.3125" style="stroke:#E7E7E7;stroke-width:1.0;"/><line style="stroke:#E7E7E7;stroke-width:1.0;stroke-dasharray:2.0,2.0;" x1="53.5" x2="557.5" y1="942.3125" y2="942.3125"/><text fill="#FFFFFF" font-family="sans-serif" font-size="13" font-weight="bold" lengthAdjust="spacing" textLength="36" x="65.5" y="937.2466">6.3.8</text><text fill="#FFFFFF" font-family="sans-serif" font-size="13" lengthAdjust="spacing" textLength="138" x="105.5" y="937.2466">&#1054;&#1073;&#1085;&#1086;&#1074;&#1083;&#1077;&#1085;&#1085;&#1072;&#1103; &#1079;&#1072;&#1087;&#1080;&#1089;&#1100;</text><polygon fill="#E7E7E7" points="546.5,967.4453,556.5,971.4453,546.5,975.4453,550.5,971.4453" style="stroke:#E7E7E7;stroke-width:1.0;"/><line style="stroke:#E7E7E7;stroke-width:1.0;" x1="48.5" x2="552.5" y1="971.4453" y2="971.4453"/><text fill="#FFFFFF" font-family="sans-serif" font-size="13" font-weight="bold" lengthAdjust="spacing" textLength="37" x="55.5" y="966.3794">6.4.1</text><text fill="#FFFFFF" font-family="sans-serif" font-size="13" lengthAdjust="spacing" textLength="106" x="96.5" y="966.3794">&#1059;&#1076;&#1072;&#1083;&#1080;&#1090;&#1100; &#1079;&#1072;&#1087;&#1080;&#1089;&#1100;</text><polygon fill="#E7E7E7" points="831.5,996.5781,841.5,1000.5781,831.5,1004.5781,835.5,1000.5781" style="stroke:#E7E7E7;stroke-width:1.0;"/><line style="stroke:#E7E7E7;stroke-width:1.0;" x1="558.5" x2="837.5" y1="1000.5781" y2="1000.5781"/><text fill="#FFFFFF" font-family="sans-serif" font-size="13" font-weight="bold" lengthAdjust="spacing" textLength="37" x="565.5" y="995.5122">6.4.2</text><text fill="#FFFFFF" font-family="sans-serif" font-size="13" lengthAdjust="spacing" textLength="127" x="606.5" y="995.5122">DELETE reports/960</text><polygon fill="#E7E7E7" points="569.5,1025.7109,559.5,1029.7109,569.5,1033.7109,565.5,1029.7109" style="stroke:#E7E7E7;stroke-width:1.0;"/><line style="stroke:#E7E7E7;stroke-width:1.0;stroke-dasharray:2.0,2.0;" x1="563.5" x2="842.5" y1="1029.7109" y2="1029.7109"/><text fill="#FFFFFF" font-family="sans-serif" font-size="13" font-weight="bold" lengthAdjust="spacing" textLength="36" x="575.5" y="1024.645">6.4.3</text><text fill="#FFFFFF" font-family="sans-serif" font-size="13" lengthAdjust="spacing" textLength="100" x="615.5" y="1024.645">204 No Content</text><polygon fill="#E7E7E7" points="59.5,1054.8438,49.5,1058.8438,59.5,1062.8438,55.5,1058.8438" style="stroke:#E7E7E7;stroke-width:1.0;"/><line style="stroke:#E7E7E7;stroke-width:1.0;stroke-dasharray:2.0,2.0;" x1="53.5" x2="557.5" y1="1058.8438" y2="1058.8438"/><text fill="#FFFFFF" font-family="sans-serif" font-size="13" font-weight="bold" lengthAdjust="spacing" textLength="37" x="65.5" y="1053.7778">6.4.4</text><text fill="#FFFFFF" font-family="sans-serif" font-size="13" lengthAdjust="spacing" textLength="289" x="106.5" y="1053.7778">&#1057;&#1086;&#1086;&#1073;&#1097;&#1077;&#1085;&#1080;&#1077; &#1086;&#1073; &#1091;&#1089;&#1087;&#1077;&#1096;&#1085;&#1086;&#1084; &#1091;&#1076;&#1072;&#1083;&#1077;&#1085;&#1080;&#1080; &#1079;&#1072;&#1087;&#1080;&#1089;&#1080;</text><!--SRC=[hLJBRjf05DtxAwwoQXSaG57KHagpQ54LjIfHW3KoPj9Q1OpiOP-4gWy5gSikgfPM_G63OkAOro-C_wXdnX0mZpoa2XdRutllUSoToqrUPIH-24-CmdFXQffkSCkceiDihQ7Rt3JCXbxdL3pKAZhNoxh3gAmR7n3Ov5QzMIipctQtKzifJUPGuZb2zqXqmbCn3i_44F_dUFRmtoOnY8325eahuOg9y17ZYMkjU2XJPUKzUfKjq8xD6fRDdPqJnYe7LRDcylrKKfC1b9Y2f9D9ohrMgN85y03-1HbZqGMa2mZ_3bXDhtBADms3ESv9iqe6zCMLfPUL_KI1ld2ZmYFXaWXm6wDeWFfRuW-UhyJbBE86BsnlRLRvZl5ILNTuALeeELpdpWFLzgL8uGkFi1H4r2In7gxhHU5-ND1tzM4CaqOplmAy3l6RTWNA-oZn22k-WXWYPH2sLNal2XyWzpEs-Gm9G2I9WxYU-WGIbA2doSSFirAgcoXjlHcpZNOUvV9pF-_XN0Subugh1uG-DcpktW9i87mAFsBfL0p3YwXV52zbZgGy2LkYA-KZrWq_uUxVOlPTaZkA3beJ4AZJ8n0RuRsdo0LRzpme_y61QFSlRhM3rIlgYX-P9yj7vZTAuK108aJ9mO1AgySZ9kquUvGxBkJdyfxjfjTgmf1QzSImtika0yDgsWuhcPNzp4P3rffPOpTMhXywIlNIMKGRHETDZHkvk-6tkCAuJvbbd_ugbmPhUZt6z6NsJRQGfRapAnGpzDQY5rQTipfVOYd7avmONnUdHPV25dfrWaxueZGCiJ0b4uN5U_eV]--></g></svg>