<?xml version="1.0" encoding="us-ascii" standalone="no"?><svg xmlns="http://www.w3.org/2000/svg" xmlns:xlink="http://www.w3.org/1999/xlink" contentStyleType="text/css" height="774px" preserveAspectRatio="none" style="width:826px;height:774px;background:#1B1B1B;" version="1.1" viewBox="0 0 826 774" width="826px" zoomAndPan="magnify"><defs/><g><rect fill="#1B1B1B" height="774" style="stroke:none;stroke-width:1.0;" width="826" x="0" y="0"/><text fill="#FFFFFF" font-family="sans-serif" font-size="14" font-weight="bold" lengthAdjust="spacing" textLength="111" x="359.25" y="27.9951">&#1059;&#1074;&#1077;&#1076;&#1086;&#1084;&#1083;&#1077;&#1085;&#1080;&#1103;</text><rect fill="none" height="133.6641" style="stroke:#FFFFFF;stroke-width:1.5;" width="399" x="421.5" y="164.7266"/><line style="stroke:#E7E7E7;stroke-width:0.5;stroke-dasharray:5.0,5.0;" x1="24" x2="24" y1="118.5938" y2="694.1172"/><line style="stroke:#E7E7E7;stroke-width:0.5;stroke-dasharray:5.0,5.0;" x1="444.5" x2="444.5" y1="118.5938" y2="694.1172"/><line style="stroke:#E7E7E7;stroke-width:0.5;stroke-dasharray:5.0,5.0;" x1="790.5" x2="790.5" y1="118.5938" y2="694.1172"/><text fill="#FFFFFF" font-family="sans-serif" font-size="14" lengthAdjust="spacing" textLength="32" x="5" y="115.292">User</text><ellipse cx="24" cy="50.7969" fill="#222222" rx="8" ry="8" style="stroke:#E7E7E7;stroke-width:0.5;"/><path d="M24,58.7969 L24,85.7969 M11,66.7969 L37,66.7969 M24,85.7969 L11,100.7969 M24,85.7969 L37,100.7969 " fill="none" style="stroke:#E7E7E7;stroke-width:0.5;"/><text fill="#FFFFFF" font-family="sans-serif" font-size="14" lengthAdjust="spacing" textLength="32" x="5" y="706.1123">User</text><ellipse cx="24" cy="717.9141" fill="#222222" rx="8" ry="8" style="stroke:#E7E7E7;stroke-width:0.5;"/><path d="M24,725.9141 L24,752.9141 M11,733.9141 L37,733.9141 M24,752.9141 L11,767.9141 M24,752.9141 L37,767.9141 " fill="none" style="stroke:#E7E7E7;stroke-width:0.5;"/><rect fill="#222222" height="30.2969" rx="2.5" ry="2.5" style="stroke:#E7E7E7;stroke-width:0.5;" width="27" x="431.5" y="87.2969"/><text fill="#FFFFFF" font-family="sans-serif" font-size="14" lengthAdjust="spacing" textLength="13" x="438.5" y="107.292">UI</text><rect fill="#222222" height="30.2969" rx="2.5" ry="2.5" style="stroke:#E7E7E7;stroke-width:0.5;" width="27" x="431.5" y="693.1172"/><text fill="#FFFFFF" font-family="sans-serif" font-size="14" lengthAdjust="spacing" textLength="13" x="438.5" y="713.1123">UI</text><text fill="#FFFFFF" font-family="sans-serif" font-size="14" lengthAdjust="spacing" textLength="33" x="771.5" y="115.292">back</text><path d="M773,66.2969 C773,56.2969 791,56.2969 791,56.2969 C791,56.2969 809,56.2969 809,66.2969 L809,92.2969 C809,102.2969 791,102.2969 791,102.2969 C791,102.2969 773,102.2969 773,92.2969 L773,66.2969 " fill="#222222" style="stroke:#E7E7E7;stroke-width:1.5;"/><path d="M773,66.2969 C773,76.2969 791,76.2969 791,76.2969 C791,76.2969 809,76.2969 809,66.2969 " fill="none" style="stroke:#E7E7E7;stroke-width:1.5;"/><text fill="#FFFFFF" font-family="sans-serif" font-size="14" lengthAdjust="spacing" textLength="33" x="771.5" y="706.1123">back</text><path d="M773,719.4141 C773,709.4141 791,709.4141 791,709.4141 C791,709.4141 809,709.4141 809,719.4141 L809,745.4141 C809,755.4141 791,755.4141 791,755.4141 C791,755.4141 773,755.4141 773,745.4141 L773,719.4141 " fill="#222222" style="stroke:#E7E7E7;stroke-width:1.5;"/><path d="M773,719.4141 C773,729.4141 791,729.4141 791,729.4141 C791,729.4141 809,729.4141 809,719.4141 " fill="none" style="stroke:#E7E7E7;stroke-width:1.5;"/><polygon fill="#E7E7E7" points="433,145.7266,443,149.7266,433,153.7266,437,149.7266" style="stroke:#E7E7E7;stroke-width:1.0;"/><line style="stroke:#E7E7E7;stroke-width:1.0;" x1="24" x2="439" y1="149.7266" y2="149.7266"/><text fill="#FFFFFF" font-family="sans-serif" font-size="13" font-weight="bold" lengthAdjust="spacing" textLength="37" x="31" y="144.6606">8.1.1</text><text fill="#FFFFFF" font-family="sans-serif" font-size="13" lengthAdjust="spacing" textLength="220" x="72" y="144.6606">&#1053;&#1072;&#1078;&#1072;&#1090;&#1100; &#1085;&#1072; &#1080;&#1082;&#1086;&#1085;&#1082;&#1091; &#1091;&#1074;&#1077;&#1076;&#1086;&#1084;&#1083;&#1077;&#1085;&#1080;&#1081;</text><path d="M421.5,164.7266 L491.5,164.7266 L491.5,171.8594 L481.5,181.8594 L421.5,181.8594 L421.5,164.7266 " fill="#555555" style="stroke:#FFFFFF;stroke-width:1.5;"/><rect fill="none" height="133.6641" style="stroke:#FFFFFF;stroke-width:1.5;" width="399" x="421.5" y="164.7266"/><text fill="#FFFFFF" font-family="sans-serif" font-size="13" font-weight="bold" lengthAdjust="spacing" textLength="25" x="436.5" y="177.7935">par</text><polygon fill="#E7E7E7" points="779,198.9922,789,202.9922,779,206.9922,783,202.9922" style="stroke:#E7E7E7;stroke-width:1.0;"/><line style="stroke:#E7E7E7;stroke-width:1.0;" x1="445" x2="785" y1="202.9922" y2="202.9922"/><text fill="#FFFFFF" font-family="sans-serif" font-size="13" font-weight="bold" lengthAdjust="spacing" textLength="37" x="452" y="197.9263">8.1.2</text><text fill="#FFFFFF" font-family="sans-serif" font-size="13" lengthAdjust="spacing" textLength="238" x="493" y="197.9263">GET /realtime-notification/showed_list</text><polygon fill="#E7E7E7" points="456,228.125,446,232.125,456,236.125,452,232.125" style="stroke:#E7E7E7;stroke-width:1.0;"/><line style="stroke:#E7E7E7;stroke-width:1.0;stroke-dasharray:2.0,2.0;" x1="450" x2="790" y1="232.125" y2="232.125"/><text fill="#FFFFFF" font-family="sans-serif" font-size="13" font-weight="bold" lengthAdjust="spacing" textLength="37" x="462" y="227.0591">8.1.3</text><text fill="#FFFFFF" font-family="sans-serif" font-size="13" lengthAdjust="spacing" textLength="46" x="503" y="227.0591">200 OK</text><polygon fill="#E7E7E7" points="779,257.2578,789,261.2578,779,265.2578,783,261.2578" style="stroke:#E7E7E7;stroke-width:1.0;"/><line style="stroke:#E7E7E7;stroke-width:1.0;" x1="445" x2="785" y1="261.2578" y2="261.2578"/><text fill="#FFFFFF" font-family="sans-serif" font-size="13" font-weight="bold" lengthAdjust="spacing" textLength="37" x="452" y="256.1919">8.1.4</text><text fill="#FFFFFF" font-family="sans-serif" font-size="13" lengthAdjust="spacing" textLength="266" x="493" y="256.1919">GET /realtime-notification/not_showed_list</text><polygon fill="#E7E7E7" points="456,286.3906,446,290.3906,456,294.3906,452,290.3906" style="stroke:#E7E7E7;stroke-width:1.0;"/><line style="stroke:#E7E7E7;stroke-width:1.0;stroke-dasharray:2.0,2.0;" x1="450" x2="790" y1="290.3906" y2="290.3906"/><text fill="#FFFFFF" font-family="sans-serif" font-size="13" font-weight="bold" lengthAdjust="spacing" textLength="37" x="462" y="285.3247">8.1.5</text><text fill="#FFFFFF" font-family="sans-serif" font-size="13" lengthAdjust="spacing" textLength="46" x="503" y="285.3247">200 OK</text><polygon fill="#E7E7E7" points="35,322.5234,25,326.5234,35,330.5234,31,326.5234" style="stroke:#E7E7E7;stroke-width:1.0;"/><line style="stroke:#E7E7E7;stroke-width:1.0;stroke-dasharray:2.0,2.0;" x1="29" x2="444" y1="326.5234" y2="326.5234"/><text fill="#FFFFFF" font-family="sans-serif" font-size="13" font-weight="bold" lengthAdjust="spacing" textLength="37" x="41" y="321.4575">8.1.6</text><text fill="#FFFFFF" font-family="sans-serif" font-size="13" lengthAdjust="spacing" textLength="189" x="82" y="321.4575">&#1054;&#1090;&#1086;&#1073;&#1088;&#1072;&#1078;&#1077;&#1085;&#1080;&#1077; &#1091;&#1074;&#1077;&#1076;&#1086;&#1084;&#1083;&#1077;&#1085;&#1080;&#1081;</text><polygon fill="#E7E7E7" points="433,351.6563,443,355.6563,433,359.6563,437,355.6563" style="stroke:#E7E7E7;stroke-width:1.0;"/><line style="stroke:#E7E7E7;stroke-width:1.0;" x1="24" x2="439" y1="355.6563" y2="355.6563"/><text fill="#FFFFFF" font-family="sans-serif" font-size="13" font-weight="bold" lengthAdjust="spacing" textLength="37" x="31" y="350.5903">8.2.1</text><text fill="#FFFFFF" font-family="sans-serif" font-size="13" lengthAdjust="spacing" textLength="238" x="72" y="350.5903">&#1053;&#1072;&#1078;&#1072;&#1090;&#1100; "&#1055;&#1088;&#1086;&#1095;&#1080;&#1090;&#1072;&#1090;&#1100; &#1091;&#1074;&#1077;&#1076;&#1086;&#1084;&#1083;&#1077;&#1085;&#1080;&#1077;"</text><polygon fill="#E7E7E7" points="779,380.7891,789,384.7891,779,388.7891,783,384.7891" style="stroke:#E7E7E7;stroke-width:1.0;"/><line style="stroke:#E7E7E7;stroke-width:1.0;" x1="445" x2="785" y1="384.7891" y2="384.7891"/><text fill="#FFFFFF" font-family="sans-serif" font-size="13" font-weight="bold" lengthAdjust="spacing" textLength="37" x="452" y="379.7231">8.2.2</text><text fill="#FFFFFF" font-family="sans-serif" font-size="13" lengthAdjust="spacing" textLength="210" x="493" y="379.7231">PATCH /realtime-notification/{id}</text><polygon fill="#E7E7E7" points="456,409.9219,446,413.9219,456,417.9219,452,413.9219" style="stroke:#E7E7E7;stroke-width:1.0;"/><line style="stroke:#E7E7E7;stroke-width:1.0;stroke-dasharray:2.0,2.0;" x1="450" x2="790" y1="413.9219" y2="413.9219"/><text fill="#FFFFFF" font-family="sans-serif" font-size="13" font-weight="bold" lengthAdjust="spacing" textLength="37" x="462" y="408.856">8.2.3</text><text fill="#FFFFFF" font-family="sans-serif" font-size="13" lengthAdjust="spacing" textLength="46" x="503" y="408.856">200 OK</text><polygon fill="#E7E7E7" points="35,439.0547,25,443.0547,35,447.0547,31,443.0547" style="stroke:#E7E7E7;stroke-width:1.0;"/><line style="stroke:#E7E7E7;stroke-width:1.0;stroke-dasharray:2.0,2.0;" x1="29" x2="444" y1="443.0547" y2="443.0547"/><text fill="#FFFFFF" font-family="sans-serif" font-size="13" font-weight="bold" lengthAdjust="spacing" textLength="37" x="41" y="437.9888">8.2.4</text><text fill="#FFFFFF" font-family="sans-serif" font-size="13" lengthAdjust="spacing" textLength="356" x="82" y="437.9888">&#1054;&#1090;&#1086;&#1073;&#1088;&#1072;&#1078;&#1077;&#1085;&#1080;&#1077; &#1091;&#1074;&#1077;&#1076;&#1086;&#1084;&#1083;&#1077;&#1085;&#1080;&#1103; &#1074; &#1088;&#1072;&#1079;&#1077;&#1083;&#1077; "&#1055;&#1088;&#1086;&#1095;&#1080;&#1090;&#1072;&#1085;&#1085;&#1086;&#1077;"</text><polygon fill="#E7E7E7" points="433,468.1875,443,472.1875,433,476.1875,437,472.1875" style="stroke:#E7E7E7;stroke-width:1.0;"/><line style="stroke:#E7E7E7;stroke-width:1.0;" x1="24" x2="439" y1="472.1875" y2="472.1875"/><text fill="#FFFFFF" font-family="sans-serif" font-size="13" font-weight="bold" lengthAdjust="spacing" textLength="37" x="31" y="467.1216">8.3.1</text><text fill="#FFFFFF" font-family="sans-serif" font-size="13" lengthAdjust="spacing" textLength="171" x="72" y="467.1216">&#1053;&#1072;&#1078;&#1072;&#1090;&#1100; "&#1055;&#1088;&#1086;&#1095;&#1080;&#1090;&#1072;&#1090;&#1100; &#1074;&#1089;&#1077;"</text><polygon fill="#E7E7E7" points="779,497.3203,789,501.3203,779,505.3203,783,501.3203" style="stroke:#E7E7E7;stroke-width:1.0;"/><line style="stroke:#E7E7E7;stroke-width:1.0;" x1="445" x2="785" y1="501.3203" y2="501.3203"/><text fill="#FFFFFF" font-family="sans-serif" font-size="13" font-weight="bold" lengthAdjust="spacing" textLength="37" x="452" y="496.2544">8.3.2</text><text fill="#FFFFFF" font-family="sans-serif" font-size="13" lengthAdjust="spacing" textLength="234" x="493" y="496.2544">GET /realtime-notification/showed_all</text><polygon fill="#E7E7E7" points="456,526.4531,446,530.4531,456,534.4531,452,530.4531" style="stroke:#E7E7E7;stroke-width:1.0;"/><line style="stroke:#E7E7E7;stroke-width:1.0;stroke-dasharray:2.0,2.0;" x1="450" x2="790" y1="530.4531" y2="530.4531"/><text fill="#FFFFFF" font-family="sans-serif" font-size="13" font-weight="bold" lengthAdjust="spacing" textLength="37" x="462" y="525.3872">8.3.3</text><text fill="#FFFFFF" font-family="sans-serif" font-size="13" lengthAdjust="spacing" textLength="46" x="503" y="525.3872">200 OK</text><polygon fill="#E7E7E7" points="35,555.5859,25,559.5859,35,563.5859,31,559.5859" style="stroke:#E7E7E7;stroke-width:1.0;"/><line style="stroke:#E7E7E7;stroke-width:1.0;stroke-dasharray:2.0,2.0;" x1="29" x2="444" y1="559.5859" y2="559.5859"/><text fill="#FFFFFF" font-family="sans-serif" font-size="13" font-weight="bold" lengthAdjust="spacing" textLength="37" x="41" y="554.52">8.3.4</text><text fill="#FFFFFF" font-family="sans-serif" font-size="13" lengthAdjust="spacing" textLength="203" x="82" y="554.52">&#1054;&#1090;&#1086;&#1073;&#1088;&#1072;&#1078;&#1077;&#1085;&#1080;&#1077; &#1087;&#1091;&#1089;&#1090;&#1086;&#1075;&#1086; &#1089;&#1087;&#1080;&#1089;&#1082;&#1072;</text><polygon fill="#E7E7E7" points="433,584.7188,443,588.7188,433,592.7188,437,588.7188" style="stroke:#E7E7E7;stroke-width:1.0;"/><line style="stroke:#E7E7E7;stroke-width:1.0;" x1="24" x2="439" y1="588.7188" y2="588.7188"/><text fill="#FFFFFF" font-family="sans-serif" font-size="13" font-weight="bold" lengthAdjust="spacing" textLength="37" x="31" y="583.6528">8.4.1</text><text fill="#FFFFFF" font-family="sans-serif" font-size="13" lengthAdjust="spacing" textLength="290" x="72" y="583.6528">&#1053;&#1072;&#1078;&#1072;&#1090;&#1100; "&#1059;&#1076;&#1072;&#1083;&#1080;&#1090;&#1100; &#1091;&#1074;&#1077;&#1076;&#1086;&#1084;&#1083;&#1077;&#1085;&#1080;&#1077; &#1080;&#1079; &#1089;&#1087;&#1080;&#1089;&#1082;&#1072;"</text><polygon fill="#E7E7E7" points="779,613.8516,789,617.8516,779,621.8516,783,617.8516" style="stroke:#E7E7E7;stroke-width:1.0;"/><line style="stroke:#E7E7E7;stroke-width:1.0;" x1="445" x2="785" y1="617.8516" y2="617.8516"/><text fill="#FFFFFF" font-family="sans-serif" font-size="13" font-weight="bold" lengthAdjust="spacing" textLength="37" x="452" y="612.7856">8.4.2</text><text fill="#FFFFFF" font-family="sans-serif" font-size="13" lengthAdjust="spacing" textLength="281" x="493" y="612.7856">GET /realtime-notification/delete_showed_all</text><polygon fill="#E7E7E7" points="456,642.9844,446,646.9844,456,650.9844,452,646.9844" style="stroke:#E7E7E7;stroke-width:1.0;"/><line style="stroke:#E7E7E7;stroke-width:1.0;stroke-dasharray:2.0,2.0;" x1="450" x2="790" y1="646.9844" y2="646.9844"/><text fill="#FFFFFF" font-family="sans-serif" font-size="13" font-weight="bold" lengthAdjust="spacing" textLength="37" x="462" y="641.9185">8.4.3</text><text fill="#FFFFFF" font-family="sans-serif" font-size="13" lengthAdjust="spacing" textLength="46" x="503" y="641.9185">200 OK</text><polygon fill="#E7E7E7" points="35,672.1172,25,676.1172,35,680.1172,31,676.1172" style="stroke:#E7E7E7;stroke-width:1.0;"/><line style="stroke:#E7E7E7;stroke-width:1.0;stroke-dasharray:2.0,2.0;" x1="29" x2="444" y1="676.1172" y2="676.1172"/><text fill="#FFFFFF" font-family="sans-serif" font-size="13" font-weight="bold" lengthAdjust="spacing" textLength="37" x="41" y="671.0513">8.4.4</text><text fill="#FFFFFF" font-family="sans-serif" font-size="13" lengthAdjust="spacing" textLength="266" x="82" y="671.0513">&#1054;&#1090;&#1086;&#1073;&#1088;&#1072;&#1078;&#1077;&#1085;&#1080;&#1077; &#1089;&#1087;&#1080;&#1089;&#1082;&#1072; &#1073;&#1077;&#1079; &#1091;&#1074;&#1077;&#1076;&#1086;&#1084;&#1083;&#1077;&#1085;&#1080;&#1103;</text><!--SRC=[hPFFJi904CRl-nGJx_pLW-5WOenHua4FS2PBkyQDfINj4W_6HE3WnOGdK0-yG44HH85Nc7qZPoi7YnQGU6kdiz_t_MQsIYf707QnZmDymIb-u3izJN2aEunnIta-b0FXiphtbRHadRiAoaLcSyMhF11GvTObDJQKvpPgLU73RZgNpZ5p1b9xr5e0VC0GNp7KBNqF91q2Zd1CNXCSwpRezazpV3E6h5mq6iQY04U79SZuWZjAraJAzPGybnPNqdCpmOLt9UoA8mF5J3EavixvR1PEJzQLePVAAYdXsf6SgH8YmJtg5YNlwTi8yYlz80agFgZyia5juHDfJlKThQ8rh_sgEjYA0PxjbmwEan2lfNsJEA9Dc7G7i0zHuv0gL5qCJbqJEa4fu_3RVuN7lcukmgw-5DnnDWR6cMxhPlJf6QT0zZFAqwIx6ox0x2o7wTBGGXhEQCaMpKynZ7ciZMeBHoXH-GVYx_Q0FQeF4zR-2G00]--></g></svg>