<?xml version="1.0" encoding="us-ascii" standalone="no"?><svg xmlns="http://www.w3.org/2000/svg" xmlns:xlink="http://www.w3.org/1999/xlink" contentStyleType="text/css" height="539px" preserveAspectRatio="none" style="width:660px;height:539px;background:#1B1B1B;" version="1.1" viewBox="0 0 660 539" width="660px" zoomAndPan="magnify"><defs/><g><rect fill="#1B1B1B" height="539" style="stroke:none;stroke-width:1.0;" width="660" x="0" y="0"/><text fill="#FFFFFF" font-family="sans-serif" font-size="14" font-weight="bold" lengthAdjust="spacing" textLength="192" x="228.25" y="27.9951">&#1055;&#1088;&#1086;&#1092;&#1080;&#1083;&#1100; &#1087;&#1086;&#1083;&#1100;&#1079;&#1086;&#1074;&#1072;&#1090;&#1077;&#1083;&#1103;</text><line style="stroke:#E7E7E7;stroke-width:0.5;stroke-dasharray:5.0,5.0;" x1="24" x2="24" y1="118.5938" y2="459.0547"/><line style="stroke:#E7E7E7;stroke-width:0.5;stroke-dasharray:5.0,5.0;" x1="419.5" x2="419.5" y1="118.5938" y2="459.0547"/><line style="stroke:#E7E7E7;stroke-width:0.5;stroke-dasharray:5.0,5.0;" x1="624.5" x2="624.5" y1="118.5938" y2="459.0547"/><text fill="#FFFFFF" font-family="sans-serif" font-size="14" lengthAdjust="spacing" textLength="32" x="5" y="115.292">User</text><ellipse cx="24" cy="50.7969" fill="#222222" rx="8" ry="8" style="stroke:#E7E7E7;stroke-width:0.5;"/><path d="M24,58.7969 L24,85.7969 M11,66.7969 L37,66.7969 M24,85.7969 L11,100.7969 M24,85.7969 L37,100.7969 " fill="none" style="stroke:#E7E7E7;stroke-width:0.5;"/><text fill="#FFFFFF" font-family="sans-serif" font-size="14" lengthAdjust="spacing" textLength="32" x="5" y="471.0498">User</text><ellipse cx="24" cy="482.8516" fill="#222222" rx="8" ry="8" style="stroke:#E7E7E7;stroke-width:0.5;"/><path d="M24,490.8516 L24,517.8516 M11,498.8516 L37,498.8516 M24,517.8516 L11,532.8516 M24,517.8516 L37,532.8516 " fill="none" style="stroke:#E7E7E7;stroke-width:0.5;"/><rect fill="#222222" height="30.2969" rx="2.5" ry="2.5" style="stroke:#E7E7E7;stroke-width:0.5;" width="27" x="406.5" y="87.2969"/><text fill="#FFFFFF" font-family="sans-serif" font-size="14" lengthAdjust="spacing" textLength="13" x="413.5" y="107.292">UI</text><rect fill="#222222" height="30.2969" rx="2.5" ry="2.5" style="stroke:#E7E7E7;stroke-width:0.5;" width="27" x="406.5" y="458.0547"/><text fill="#FFFFFF" font-family="sans-serif" font-size="14" lengthAdjust="spacing" textLength="13" x="413.5" y="478.0498">UI</text><text fill="#FFFFFF" font-family="sans-serif" font-size="14" lengthAdjust="spacing" textLength="33" x="605.5" y="115.292">back</text><path d="M607,66.2969 C607,56.2969 625,56.2969 625,56.2969 C625,56.2969 643,56.2969 643,66.2969 L643,92.2969 C643,102.2969 625,102.2969 625,102.2969 C625,102.2969 607,102.2969 607,92.2969 L607,66.2969 " fill="#222222" style="stroke:#E7E7E7;stroke-width:1.5;"/><path d="M607,66.2969 C607,76.2969 625,76.2969 625,76.2969 C625,76.2969 643,76.2969 643,66.2969 " fill="none" style="stroke:#E7E7E7;stroke-width:1.5;"/><text fill="#FFFFFF" font-family="sans-serif" font-size="14" lengthAdjust="spacing" textLength="33" x="605.5" y="471.0498">back</text><path d="M607,484.3516 C607,474.3516 625,474.3516 625,474.3516 C625,474.3516 643,474.3516 643,484.3516 L643,510.3516 C643,520.3516 625,520.3516 625,520.3516 C625,520.3516 607,520.3516 607,510.3516 L607,484.3516 " fill="#222222" style="stroke:#E7E7E7;stroke-width:1.5;"/><path d="M607,484.3516 C607,494.3516 625,494.3516 625,494.3516 C625,494.3516 643,494.3516 643,484.3516 " fill="none" style="stroke:#E7E7E7;stroke-width:1.5;"/><polygon fill="#E7E7E7" points="35,145.7266,25,149.7266,35,153.7266,31,149.7266" style="stroke:#E7E7E7;stroke-width:1.0;"/><line style="stroke:#E7E7E7;stroke-width:1.0;stroke-dasharray:2.0,2.0;" x1="29" x2="419" y1="149.7266" y2="149.7266"/><text fill="#FFFFFF" font-family="sans-serif" font-size="13" font-weight="bold" lengthAdjust="spacing" textLength="37" x="41" y="144.6606">2.1.1</text><text fill="#FFFFFF" font-family="sans-serif" font-size="13" lengthAdjust="spacing" textLength="251" x="82" y="144.6606">&#1054;&#1090;&#1086;&#1073;&#1088;&#1072;&#1078;&#1077;&#1085;&#1080;&#1077; &#1089;&#1090;&#1088;&#1072;&#1085;&#1080;&#1094;&#1099; &#1086;&#1085;&#1073;&#1086;&#1088;&#1076;&#1080;&#1085;&#1075;&#1072;</text><polygon fill="#E7E7E7" points="408,174.8594,418,178.8594,408,182.8594,412,178.8594" style="stroke:#E7E7E7;stroke-width:1.0;"/><line style="stroke:#E7E7E7;stroke-width:1.0;" x1="24" x2="414" y1="178.8594" y2="178.8594"/><text fill="#FFFFFF" font-family="sans-serif" font-size="13" font-weight="bold" lengthAdjust="spacing" textLength="37" x="31" y="173.7935">2.1.2</text><text fill="#FFFFFF" font-family="sans-serif" font-size="13" lengthAdjust="spacing" textLength="261" x="72" y="173.7935">&#1042;&#1074;&#1077;&#1089;&#1090;&#1080; &#1076;&#1072;&#1085;&#1085;&#1099;&#1077; &#1080; &#1085;&#1072;&#1078;&#1072;&#1090;&#1100; "&#1057;&#1086;&#1093;&#1088;&#1072;&#1085;&#1080;&#1090;&#1100;"</text><polygon fill="#E7E7E7" points="613,203.9922,623,207.9922,613,211.9922,617,207.9922" style="stroke:#E7E7E7;stroke-width:1.0;"/><line style="stroke:#E7E7E7;stroke-width:1.0;" x1="420" x2="619" y1="207.9922" y2="207.9922"/><text fill="#FFFFFF" font-family="sans-serif" font-size="13" font-weight="bold" lengthAdjust="spacing" textLength="37" x="427" y="202.9263">2.1.3</text><text fill="#FFFFFF" font-family="sans-serif" font-size="13" lengthAdjust="spacing" textLength="81" x="468" y="202.9263">POST /profile</text><polygon fill="#E7E7E7" points="35,233.125,25,237.125,35,241.125,31,237.125" style="stroke:#E7E7E7;stroke-width:1.0;"/><line style="stroke:#E7E7E7;stroke-width:1.0;stroke-dasharray:2.0,2.0;" x1="29" x2="419" y1="237.125" y2="237.125"/><text fill="#FFFFFF" font-family="sans-serif" font-size="13" font-weight="bold" lengthAdjust="spacing" textLength="37" x="41" y="232.0591">2.1.4</text><text fill="#FFFFFF" font-family="sans-serif" font-size="13" lengthAdjust="spacing" textLength="225" x="82" y="232.0591">&#1054;&#1090;&#1086;&#1073;&#1088;&#1072;&#1078;&#1077;&#1085;&#1080;&#1077; &#1075;&#1083;&#1072;&#1074;&#1085;&#1086;&#1081; &#1089;&#1090;&#1088;&#1072;&#1085;&#1080;&#1094;&#1099;</text><polygon fill="#E7E7E7" points="408,262.2578,418,266.2578,408,270.2578,412,266.2578" style="stroke:#E7E7E7;stroke-width:1.0;"/><line style="stroke:#E7E7E7;stroke-width:1.0;" x1="24" x2="414" y1="266.2578" y2="266.2578"/><text fill="#FFFFFF" font-family="sans-serif" font-size="13" font-weight="bold" lengthAdjust="spacing" textLength="37" x="31" y="261.1919">2.2.1</text><text fill="#FFFFFF" font-family="sans-serif" font-size="13" lengthAdjust="spacing" textLength="171" x="72" y="261.1919">&#1056;&#1077;&#1076;&#1072;&#1082;&#1090;&#1080;&#1088;&#1086;&#1074;&#1072;&#1090;&#1100; &#1087;&#1088;&#1086;&#1092;&#1080;&#1083;&#1100;</text><polygon fill="#E7E7E7" points="35,291.3906,25,295.3906,35,299.3906,31,295.3906" style="stroke:#E7E7E7;stroke-width:1.0;"/><line style="stroke:#E7E7E7;stroke-width:1.0;stroke-dasharray:2.0,2.0;" x1="29" x2="419" y1="295.3906" y2="295.3906"/><text fill="#FFFFFF" font-family="sans-serif" font-size="13" font-weight="bold" lengthAdjust="spacing" textLength="37" x="41" y="290.3247">2.2.2</text><text fill="#FFFFFF" font-family="sans-serif" font-size="13" lengthAdjust="spacing" textLength="259" x="82" y="290.3247">&#1054;&#1090;&#1086;&#1073;&#1088;&#1072;&#1078;&#1077;&#1085;&#1080;&#1077; &#1092;&#1086;&#1088;&#1084;&#1099; "&#1048;&#1085;&#1092;&#1086; &#1087;&#1088;&#1086;&#1092;&#1080;&#1083;&#1103;"</text><polygon fill="#E7E7E7" points="408,320.5234,418,324.5234,408,328.5234,412,324.5234" style="stroke:#E7E7E7;stroke-width:1.0;"/><line style="stroke:#E7E7E7;stroke-width:1.0;" x1="24" x2="414" y1="324.5234" y2="324.5234"/><text fill="#FFFFFF" font-family="sans-serif" font-size="13" font-weight="bold" lengthAdjust="spacing" textLength="37" x="31" y="319.4575">2.2.3</text><text fill="#FFFFFF" font-family="sans-serif" font-size="13" lengthAdjust="spacing" textLength="219" x="72" y="319.4575">&#1054;&#1073;&#1085;&#1086;&#1074;&#1080;&#1090;&#1100; &#1085;&#1077;&#1086;&#1073;&#1093;&#1086;&#1076;&#1080;&#1084;&#1099;&#1077; &#1076;&#1072;&#1085;&#1085;&#1099;&#1077;</text><polygon fill="#E7E7E7" points="408,349.6563,418,353.6563,408,357.6563,412,353.6563" style="stroke:#E7E7E7;stroke-width:1.0;"/><line style="stroke:#E7E7E7;stroke-width:1.0;" x1="24" x2="414" y1="353.6563" y2="353.6563"/><text fill="#FFFFFF" font-family="sans-serif" font-size="13" font-weight="bold" lengthAdjust="spacing" textLength="37" x="31" y="348.5903">2.2.4</text><text fill="#FFFFFF" font-family="sans-serif" font-size="13" lengthAdjust="spacing" textLength="140" x="72" y="348.5903">&#1085;&#1072;&#1078;&#1072;&#1090;&#1100; "&#1057;&#1086;&#1093;&#1088;&#1072;&#1085;&#1080;&#1090;&#1100;"</text><polygon fill="#E7E7E7" points="613,378.7891,623,382.7891,613,386.7891,617,382.7891" style="stroke:#E7E7E7;stroke-width:1.0;"/><line style="stroke:#E7E7E7;stroke-width:1.0;" x1="420" x2="619" y1="382.7891" y2="382.7891"/><text fill="#FFFFFF" font-family="sans-serif" font-size="13" font-weight="bold" lengthAdjust="spacing" textLength="37" x="427" y="377.7231">2.2.5</text><text fill="#FFFFFF" font-family="sans-serif" font-size="13" lengthAdjust="spacing" textLength="140" x="468" y="377.7231">PATCH /profile/current</text><polygon fill="#E7E7E7" points="431,407.9219,421,411.9219,431,415.9219,427,411.9219" style="stroke:#E7E7E7;stroke-width:1.0;"/><line style="stroke:#E7E7E7;stroke-width:1.0;stroke-dasharray:2.0,2.0;" x1="425" x2="624" y1="411.9219" y2="411.9219"/><text fill="#FFFFFF" font-family="sans-serif" font-size="13" font-weight="bold" lengthAdjust="spacing" textLength="37" x="437" y="406.856">2.2.6</text><text fill="#FFFFFF" font-family="sans-serif" font-size="13" lengthAdjust="spacing" textLength="46" x="478" y="406.856">200 OK</text><polygon fill="#E7E7E7" points="35,437.0547,25,441.0547,35,445.0547,31,441.0547" style="stroke:#E7E7E7;stroke-width:1.0;"/><line style="stroke:#E7E7E7;stroke-width:1.0;stroke-dasharray:2.0,2.0;" x1="29" x2="419" y1="441.0547" y2="441.0547"/><text fill="#FFFFFF" font-family="sans-serif" font-size="13" font-weight="bold" lengthAdjust="spacing" textLength="37" x="41" y="435.9888">2.2.7</text><text fill="#FFFFFF" font-family="sans-serif" font-size="13" lengthAdjust="spacing" textLength="331" x="82" y="435.9888">push-&#1091;&#1074;&#1077;&#1076;&#1086;&#1084;&#1083;&#1077;&#1085;&#1080;&#1077; "&#1055;&#1088;&#1086;&#1092;&#1080;&#1083;&#1100; &#1091;&#1089;&#1087;&#1077;&#1096;&#1085;&#1086; &#1086;&#1073;&#1085;&#1086;&#1074;&#1083;&#1105;&#1085;&#8221;</text><!--SRC=[bPBBJi9058RtVOf9zroNB4YC6uaBJ8G7ABL68a9JfdkknWGJeYitehu1e5KKMb_Xp2lu9Fvd6WZ53MvApp3pdVzy7LcN3KVGa-fGf0QqeAMw5VHD4R_G1txdD5Kz2b2F3SEoPSiJrRRZ6QxboRfTTwsc5DMISMP9gsQr7L6px4jiz6MhwL_L74_aqxbqpgYMH2fLr4SBWYP0HZH3rocz0nwYSo1KL_Nq4afrhKO2UqAQ8Lc7th0Zf5UQ6emGZ2e1T8zy0P-ZXS0UFXgg4LXSXvgE-9Z9f1TmXXiyramTggWJ5yH9-RGYCgxNEgytdBtY8iqI2tEK4Nt-IRyZ8SyIjgC_0yI9lpWy-uzLQ__RdsC_TGDjQGLf9Zt00UeaPsmcsqyWDjHD5t7J43063_5aswlOuvRK9E1_TWygXqSRlHdRzpodAGt-CnuEn7msAyh7oN5TltsHKdt-oaWIqGhArpEREzTMzLKNLpTGDpmONvxrX4jrH-5Fv_4N]--></g></svg>