<?xml version="1.0" encoding="us-ascii" standalone="no"?><svg xmlns="http://www.w3.org/2000/svg" xmlns:xlink="http://www.w3.org/1999/xlink" contentStyleType="text/css" height="918px" preserveAspectRatio="none" style="width:1059px;height:918px;background:#1B1B1B;" version="1.1" viewBox="0 0 1059 918" width="1059px" zoomAndPan="magnify"><defs/><g><rect fill="#1B1B1B" height="918" style="stroke:none;stroke-width:1.0;" width="1059" x="0" y="0"/><text fill="#FFFFFF" font-family="sans-serif" font-size="14" font-weight="bold" lengthAdjust="spacing" textLength="192" x="427.75" y="27.9951">&#1055;&#1088;&#1086;&#1092;&#1080;&#1083;&#1100; &#1087;&#1086;&#1083;&#1100;&#1079;&#1086;&#1074;&#1072;&#1090;&#1077;&#1083;&#1103;</text><line style="stroke:#E7E7E7;stroke-width:0.5;stroke-dasharray:5.0,5.0;" x1="24" x2="24" y1="118.5938" y2="837.7813"/><line style="stroke:#E7E7E7;stroke-width:0.5;stroke-dasharray:5.0,5.0;" x1="428.5" x2="428.5" y1="118.5938" y2="837.7813"/><line style="stroke:#E7E7E7;stroke-width:0.5;stroke-dasharray:5.0,5.0;" x1="727" x2="727" y1="118.5938" y2="837.7813"/><line style="stroke:#E7E7E7;stroke-width:0.5;stroke-dasharray:5.0,5.0;" x1="1023.5" x2="1023.5" y1="118.5938" y2="837.7813"/><text fill="#FFFFFF" font-family="sans-serif" font-size="14" lengthAdjust="spacing" textLength="32" x="5" y="115.292">User</text><ellipse cx="24" cy="50.7969" fill="#222222" rx="8" ry="8" style="stroke:#E7E7E7;stroke-width:0.5;"/><path d="M24,58.7969 L24,85.7969 M11,66.7969 L37,66.7969 M24,85.7969 L11,100.7969 M24,85.7969 L37,100.7969 " fill="none" style="stroke:#E7E7E7;stroke-width:0.5;"/><text fill="#FFFFFF" font-family="sans-serif" font-size="14" lengthAdjust="spacing" textLength="32" x="5" y="849.7764">User</text><ellipse cx="24" cy="861.5781" fill="#222222" rx="8" ry="8" style="stroke:#E7E7E7;stroke-width:0.5;"/><path d="M24,869.5781 L24,896.5781 M11,877.5781 L37,877.5781 M24,896.5781 L11,911.5781 M24,896.5781 L37,911.5781 " fill="none" style="stroke:#E7E7E7;stroke-width:0.5;"/><rect fill="#222222" height="30.2969" rx="2.5" ry="2.5" style="stroke:#E7E7E7;stroke-width:0.5;" width="27" x="415.5" y="87.2969"/><text fill="#FFFFFF" font-family="sans-serif" font-size="14" lengthAdjust="spacing" textLength="13" x="422.5" y="107.292">UI</text><rect fill="#222222" height="30.2969" rx="2.5" ry="2.5" style="stroke:#E7E7E7;stroke-width:0.5;" width="27" x="415.5" y="836.7813"/><text fill="#FFFFFF" font-family="sans-serif" font-size="14" lengthAdjust="spacing" textLength="13" x="422.5" y="856.7764">UI</text><rect fill="#222222" height="30.2969" rx="2.5" ry="2.5" style="stroke:#E7E7E7;stroke-width:0.5;" width="64" x="695" y="87.2969"/><text fill="#FFFFFF" font-family="sans-serif" font-size="14" lengthAdjust="spacing" textLength="50" x="702" y="107.292">Service</text><rect fill="#222222" height="30.2969" rx="2.5" ry="2.5" style="stroke:#E7E7E7;stroke-width:0.5;" width="64" x="695" y="836.7813"/><text fill="#FFFFFF" font-family="sans-serif" font-size="14" lengthAdjust="spacing" textLength="50" x="702" y="856.7764">Service</text><text fill="#FFFFFF" font-family="sans-serif" font-size="14" lengthAdjust="spacing" textLength="33" x="1004.5" y="115.292">back</text><path d="M1006,66.2969 C1006,56.2969 1024,56.2969 1024,56.2969 C1024,56.2969 1042,56.2969 1042,66.2969 L1042,92.2969 C1042,102.2969 1024,102.2969 1024,102.2969 C1024,102.2969 1006,102.2969 1006,92.2969 L1006,66.2969 " fill="#222222" style="stroke:#E7E7E7;stroke-width:1.5;"/><path d="M1006,66.2969 C1006,76.2969 1024,76.2969 1024,76.2969 C1024,76.2969 1042,76.2969 1042,66.2969 " fill="none" style="stroke:#E7E7E7;stroke-width:1.5;"/><text fill="#FFFFFF" font-family="sans-serif" font-size="14" lengthAdjust="spacing" textLength="33" x="1004.5" y="849.7764">back</text><path d="M1006,863.0781 C1006,853.0781 1024,853.0781 1024,853.0781 C1024,853.0781 1042,853.0781 1042,863.0781 L1042,889.0781 C1042,899.0781 1024,899.0781 1024,899.0781 C1024,899.0781 1006,899.0781 1006,889.0781 L1006,863.0781 " fill="#222222" style="stroke:#E7E7E7;stroke-width:1.5;"/><path d="M1006,863.0781 C1006,873.0781 1024,873.0781 1024,873.0781 C1024,873.0781 1042,873.0781 1042,863.0781 " fill="none" style="stroke:#E7E7E7;stroke-width:1.5;"/><polygon fill="#E7E7E7" points="715,145.7266,725,149.7266,715,153.7266,719,149.7266" style="stroke:#E7E7E7;stroke-width:1.0;"/><line style="stroke:#E7E7E7;stroke-width:1.0;" x1="429" x2="721" y1="149.7266" y2="149.7266"/><text fill="#FFFFFF" font-family="sans-serif" font-size="13" font-weight="bold" lengthAdjust="spacing" textLength="37" x="436" y="144.6606">2.1.1</text><text fill="#FFFFFF" font-family="sans-serif" font-size="13" lengthAdjust="spacing" textLength="72" x="477" y="144.6606">GET /profile</text><polygon fill="#E7E7E7" points="1012,174.8594,1022,178.8594,1012,182.8594,1016,178.8594" style="stroke:#E7E7E7;stroke-width:1.0;"/><line style="stroke:#E7E7E7;stroke-width:1.0;" x1="727" x2="1018" y1="178.8594" y2="178.8594"/><text fill="#FFFFFF" font-family="sans-serif" font-size="13" font-weight="bold" lengthAdjust="spacing" textLength="37" x="734" y="173.7935">2.1.2</text><text fill="#FFFFFF" font-family="sans-serif" font-size="13" lengthAdjust="spacing" textLength="221" x="775" y="173.7935">&#1055;&#1086;&#1083;&#1091;&#1095;&#1080;&#1090;&#1100; &#1076;&#1072;&#1085;&#1085;&#1099;&#1077; &#1087;&#1086;&#1083;&#1100;&#1079;&#1086;&#1074;&#1072;&#1090;&#1077;&#1083;&#1103;</text><polygon fill="#E7E7E7" points="738,203.9922,728,207.9922,738,211.9922,734,207.9922" style="stroke:#E7E7E7;stroke-width:1.0;"/><line style="stroke:#E7E7E7;stroke-width:1.0;stroke-dasharray:2.0,2.0;" x1="732" x2="1023" y1="207.9922" y2="207.9922"/><text fill="#FFFFFF" font-family="sans-serif" font-size="13" font-weight="bold" lengthAdjust="spacing" textLength="37" x="744" y="202.9263">2.1.3</text><text fill="#FFFFFF" font-family="sans-serif" font-size="13" lengthAdjust="spacing" textLength="64" x="785" y="202.9263">user_data</text><polygon fill="#E7E7E7" points="440,233.125,430,237.125,440,241.125,436,237.125" style="stroke:#E7E7E7;stroke-width:1.0;"/><line style="stroke:#E7E7E7;stroke-width:1.0;stroke-dasharray:2.0,2.0;" x1="434" x2="726" y1="237.125" y2="237.125"/><text fill="#FFFFFF" font-family="sans-serif" font-size="13" font-weight="bold" lengthAdjust="spacing" textLength="37" x="446" y="232.0591">2.1.4</text><text fill="#FFFFFF" font-family="sans-serif" font-size="13" lengthAdjust="spacing" textLength="64" x="487" y="232.0591">user_data</text><polygon fill="#E7E7E7" points="35,262.2578,25,266.2578,35,270.2578,31,266.2578" style="stroke:#E7E7E7;stroke-width:1.0;"/><line style="stroke:#E7E7E7;stroke-width:1.0;stroke-dasharray:2.0,2.0;" x1="29" x2="428" y1="266.2578" y2="266.2578"/><text fill="#FFFFFF" font-family="sans-serif" font-size="13" font-weight="bold" lengthAdjust="spacing" textLength="37" x="41" y="261.1919">2.1.5</text><text fill="#FFFFFF" font-family="sans-serif" font-size="13" lengthAdjust="spacing" textLength="251" x="82" y="261.1919">&#1054;&#1090;&#1086;&#1073;&#1088;&#1072;&#1078;&#1077;&#1085;&#1080;&#1077; &#1089;&#1090;&#1088;&#1072;&#1085;&#1080;&#1094;&#1099; &#1086;&#1085;&#1073;&#1086;&#1088;&#1076;&#1080;&#1085;&#1075;&#1072;</text><polygon fill="#E7E7E7" points="417,291.3906,427,295.3906,417,299.3906,421,295.3906" style="stroke:#E7E7E7;stroke-width:1.0;"/><line style="stroke:#E7E7E7;stroke-width:1.0;" x1="24" x2="423" y1="295.3906" y2="295.3906"/><text fill="#FFFFFF" font-family="sans-serif" font-size="13" font-weight="bold" lengthAdjust="spacing" textLength="37" x="31" y="290.3247">2.1.6</text><text fill="#FFFFFF" font-family="sans-serif" font-size="13" lengthAdjust="spacing" textLength="261" x="72" y="290.3247">&#1042;&#1074;&#1077;&#1089;&#1090;&#1080; &#1076;&#1072;&#1085;&#1085;&#1099;&#1077; &#1080; &#1085;&#1072;&#1078;&#1072;&#1090;&#1100; "&#1057;&#1086;&#1093;&#1088;&#1072;&#1085;&#1080;&#1090;&#1100;"</text><polygon fill="#E7E7E7" points="715,320.5234,725,324.5234,715,328.5234,719,324.5234" style="stroke:#E7E7E7;stroke-width:1.0;"/><line style="stroke:#E7E7E7;stroke-width:1.0;" x1="429" x2="721" y1="324.5234" y2="324.5234"/><text fill="#FFFFFF" font-family="sans-serif" font-size="13" font-weight="bold" lengthAdjust="spacing" textLength="37" x="436" y="319.4575">2.1.7</text><text fill="#FFFFFF" font-family="sans-serif" font-size="13" lengthAdjust="spacing" textLength="149" x="477" y="319.4575">POST /profile user_data</text><polygon fill="#E7E7E7" points="1012,349.6563,1022,353.6563,1012,357.6563,1016,353.6563" style="stroke:#E7E7E7;stroke-width:1.0;"/><line style="stroke:#E7E7E7;stroke-width:1.0;" x1="727" x2="1018" y1="353.6563" y2="353.6563"/><text fill="#FFFFFF" font-family="sans-serif" font-size="13" font-weight="bold" lengthAdjust="spacing" textLength="37" x="734" y="348.5903">2.1.8</text><text fill="#FFFFFF" font-family="sans-serif" font-size="13" lengthAdjust="spacing" textLength="229" x="775" y="348.5903">&#1057;&#1086;&#1093;&#1088;&#1072;&#1085;&#1080;&#1090;&#1100; &#1076;&#1072;&#1085;&#1085;&#1099;&#1077; &#1087;&#1086;&#1083;&#1100;&#1079;&#1086;&#1074;&#1072;&#1090;&#1077;&#1083;&#1103;</text><polygon fill="#E7E7E7" points="738,378.7891,728,382.7891,738,386.7891,734,382.7891" style="stroke:#E7E7E7;stroke-width:1.0;"/><line style="stroke:#E7E7E7;stroke-width:1.0;stroke-dasharray:2.0,2.0;" x1="732" x2="1023" y1="382.7891" y2="382.7891"/><text fill="#FFFFFF" font-family="sans-serif" font-size="13" font-weight="bold" lengthAdjust="spacing" textLength="37" x="744" y="377.7231">2.1.9</text><text fill="#FFFFFF" font-family="sans-serif" font-size="13" lengthAdjust="spacing" textLength="79" x="785" y="377.7231">201 Created</text><polygon fill="#E7E7E7" points="440,407.9219,430,411.9219,440,415.9219,436,411.9219" style="stroke:#E7E7E7;stroke-width:1.0;"/><line style="stroke:#E7E7E7;stroke-width:1.0;stroke-dasharray:2.0,2.0;" x1="434" x2="726" y1="411.9219" y2="411.9219"/><text fill="#FFFFFF" font-family="sans-serif" font-size="13" font-weight="bold" lengthAdjust="spacing" textLength="46" x="446" y="406.856">2.1.10</text><text fill="#FFFFFF" font-family="sans-serif" font-size="13" lengthAdjust="spacing" textLength="79" x="496" y="406.856">201 Created</text><polygon fill="#E7E7E7" points="35,437.0547,25,441.0547,35,445.0547,31,441.0547" style="stroke:#E7E7E7;stroke-width:1.0;"/><line style="stroke:#E7E7E7;stroke-width:1.0;stroke-dasharray:2.0,2.0;" x1="29" x2="428" y1="441.0547" y2="441.0547"/><text fill="#FFFFFF" font-family="sans-serif" font-size="13" font-weight="bold" lengthAdjust="spacing" textLength="46" x="41" y="435.9888">2.1.11</text><text fill="#FFFFFF" font-family="sans-serif" font-size="13" lengthAdjust="spacing" textLength="225" x="91" y="435.9888">&#1054;&#1090;&#1086;&#1073;&#1088;&#1072;&#1078;&#1077;&#1085;&#1080;&#1077; &#1075;&#1083;&#1072;&#1074;&#1085;&#1086;&#1081; &#1089;&#1090;&#1088;&#1072;&#1085;&#1080;&#1094;&#1099;</text><polygon fill="#E7E7E7" points="417,466.1875,427,470.1875,417,474.1875,421,470.1875" style="stroke:#E7E7E7;stroke-width:1.0;"/><line style="stroke:#E7E7E7;stroke-width:1.0;" x1="24" x2="423" y1="470.1875" y2="470.1875"/><text fill="#FFFFFF" font-family="sans-serif" font-size="13" font-weight="bold" lengthAdjust="spacing" textLength="37" x="31" y="465.1216">2.2.1</text><text fill="#FFFFFF" font-family="sans-serif" font-size="13" lengthAdjust="spacing" textLength="171" x="72" y="465.1216">&#1056;&#1077;&#1076;&#1072;&#1082;&#1090;&#1080;&#1088;&#1086;&#1074;&#1072;&#1090;&#1100; &#1087;&#1088;&#1086;&#1092;&#1080;&#1083;&#1100;</text><polygon fill="#E7E7E7" points="715,495.3203,725,499.3203,715,503.3203,719,499.3203" style="stroke:#E7E7E7;stroke-width:1.0;"/><line style="stroke:#E7E7E7;stroke-width:1.0;" x1="429" x2="721" y1="499.3203" y2="499.3203"/><text fill="#FFFFFF" font-family="sans-serif" font-size="13" font-weight="bold" lengthAdjust="spacing" textLength="37" x="436" y="494.2544">2.2.2</text><text fill="#FFFFFF" font-family="sans-serif" font-size="13" lengthAdjust="spacing" textLength="122" x="477" y="494.2544">GET /profile/current</text><polygon fill="#E7E7E7" points="1012,524.4531,1022,528.4531,1012,532.4531,1016,528.4531" style="stroke:#E7E7E7;stroke-width:1.0;"/><line style="stroke:#E7E7E7;stroke-width:1.0;" x1="727" x2="1018" y1="528.4531" y2="528.4531"/><text fill="#FFFFFF" font-family="sans-serif" font-size="13" font-weight="bold" lengthAdjust="spacing" textLength="37" x="734" y="523.3872">2.2.3</text><text fill="#FFFFFF" font-family="sans-serif" font-size="13" lengthAdjust="spacing" textLength="221" x="775" y="523.3872">&#1055;&#1086;&#1083;&#1091;&#1095;&#1080;&#1090;&#1100; &#1076;&#1072;&#1085;&#1085;&#1099;&#1077; &#1087;&#1086;&#1083;&#1100;&#1079;&#1086;&#1074;&#1072;&#1090;&#1077;&#1083;&#1103;</text><polygon fill="#E7E7E7" points="738,553.5859,728,557.5859,738,561.5859,734,557.5859" style="stroke:#E7E7E7;stroke-width:1.0;"/><line style="stroke:#E7E7E7;stroke-width:1.0;stroke-dasharray:2.0,2.0;" x1="732" x2="1023" y1="557.5859" y2="557.5859"/><text fill="#FFFFFF" font-family="sans-serif" font-size="13" font-weight="bold" lengthAdjust="spacing" textLength="37" x="744" y="552.52">2.2.4</text><text fill="#FFFFFF" font-family="sans-serif" font-size="13" lengthAdjust="spacing" textLength="64" x="785" y="552.52">user_data</text><polygon fill="#E7E7E7" points="440,582.7188,430,586.7188,440,590.7188,436,586.7188" style="stroke:#E7E7E7;stroke-width:1.0;"/><line style="stroke:#E7E7E7;stroke-width:1.0;stroke-dasharray:2.0,2.0;" x1="434" x2="726" y1="586.7188" y2="586.7188"/><text fill="#FFFFFF" font-family="sans-serif" font-size="13" font-weight="bold" lengthAdjust="spacing" textLength="37" x="446" y="581.6528">2.2.5</text><text fill="#FFFFFF" font-family="sans-serif" font-size="13" lengthAdjust="spacing" textLength="64" x="487" y="581.6528">user_data</text><polygon fill="#E7E7E7" points="35,611.8516,25,615.8516,35,619.8516,31,615.8516" style="stroke:#E7E7E7;stroke-width:1.0;"/><line style="stroke:#E7E7E7;stroke-width:1.0;stroke-dasharray:2.0,2.0;" x1="29" x2="428" y1="615.8516" y2="615.8516"/><text fill="#FFFFFF" font-family="sans-serif" font-size="13" font-weight="bold" lengthAdjust="spacing" textLength="37" x="41" y="610.7856">2.2.6</text><text fill="#FFFFFF" font-family="sans-serif" font-size="13" lengthAdjust="spacing" textLength="259" x="82" y="610.7856">&#1054;&#1090;&#1086;&#1073;&#1088;&#1072;&#1078;&#1077;&#1085;&#1080;&#1077; &#1092;&#1086;&#1088;&#1084;&#1099; "&#1048;&#1085;&#1092;&#1086; &#1087;&#1088;&#1086;&#1092;&#1080;&#1083;&#1103;"</text><polygon fill="#E7E7E7" points="417,640.9844,427,644.9844,417,648.9844,421,644.9844" style="stroke:#E7E7E7;stroke-width:1.0;"/><line style="stroke:#E7E7E7;stroke-width:1.0;" x1="24" x2="423" y1="644.9844" y2="644.9844"/><text fill="#FFFFFF" font-family="sans-serif" font-size="13" font-weight="bold" lengthAdjust="spacing" textLength="37" x="31" y="639.9185">2.2.7</text><text fill="#FFFFFF" font-family="sans-serif" font-size="13" lengthAdjust="spacing" textLength="219" x="72" y="639.9185">&#1054;&#1073;&#1085;&#1086;&#1074;&#1080;&#1090;&#1100; &#1085;&#1077;&#1086;&#1073;&#1093;&#1086;&#1076;&#1080;&#1084;&#1099;&#1077; &#1076;&#1072;&#1085;&#1085;&#1099;&#1077;</text><polygon fill="#E7E7E7" points="417,670.1172,427,674.1172,417,678.1172,421,674.1172" style="stroke:#E7E7E7;stroke-width:1.0;"/><line style="stroke:#E7E7E7;stroke-width:1.0;" x1="24" x2="423" y1="674.1172" y2="674.1172"/><text fill="#FFFFFF" font-family="sans-serif" font-size="13" font-weight="bold" lengthAdjust="spacing" textLength="37" x="31" y="669.0513">2.2.8</text><text fill="#FFFFFF" font-family="sans-serif" font-size="13" lengthAdjust="spacing" textLength="140" x="72" y="669.0513">&#1085;&#1072;&#1078;&#1072;&#1090;&#1100; "&#1057;&#1086;&#1093;&#1088;&#1072;&#1085;&#1080;&#1090;&#1100;"</text><polygon fill="#E7E7E7" points="715,699.25,725,703.25,715,707.25,719,703.25" style="stroke:#E7E7E7;stroke-width:1.0;"/><line style="stroke:#E7E7E7;stroke-width:1.0;" x1="429" x2="721" y1="703.25" y2="703.25"/><text fill="#FFFFFF" font-family="sans-serif" font-size="13" font-weight="bold" lengthAdjust="spacing" textLength="37" x="436" y="698.1841">2.2.9</text><text fill="#FFFFFF" font-family="sans-serif" font-size="13" lengthAdjust="spacing" textLength="233" x="477" y="698.1841">PATCH /profile/current updated_data</text><polygon fill="#E7E7E7" points="1012,728.3828,1022,732.3828,1012,736.3828,1016,732.3828" style="stroke:#E7E7E7;stroke-width:1.0;"/><line style="stroke:#E7E7E7;stroke-width:1.0;" x1="727" x2="1018" y1="732.3828" y2="732.3828"/><text fill="#FFFFFF" font-family="sans-serif" font-size="13" font-weight="bold" lengthAdjust="spacing" textLength="46" x="734" y="727.3169">2.2.10</text><text fill="#FFFFFF" font-family="sans-serif" font-size="13" lengthAdjust="spacing" textLength="223" x="784" y="727.3169">&#1054;&#1073;&#1085;&#1086;&#1074;&#1080;&#1090;&#1100; &#1076;&#1072;&#1085;&#1085;&#1099;&#1077; &#1087;&#1086;&#1083;&#1100;&#1079;&#1086;&#1074;&#1072;&#1090;&#1077;&#1083;&#1103;</text><polygon fill="#E7E7E7" points="738,757.5156,728,761.5156,738,765.5156,734,761.5156" style="stroke:#E7E7E7;stroke-width:1.0;"/><line style="stroke:#E7E7E7;stroke-width:1.0;stroke-dasharray:2.0,2.0;" x1="732" x2="1023" y1="761.5156" y2="761.5156"/><text fill="#FFFFFF" font-family="sans-serif" font-size="13" font-weight="bold" lengthAdjust="spacing" textLength="46" x="744" y="756.4497">2.2.11</text><text fill="#FFFFFF" font-family="sans-serif" font-size="13" lengthAdjust="spacing" textLength="46" x="794" y="756.4497">200 OK</text><polygon fill="#E7E7E7" points="440,786.6484,430,790.6484,440,794.6484,436,790.6484" style="stroke:#E7E7E7;stroke-width:1.0;"/><line style="stroke:#E7E7E7;stroke-width:1.0;stroke-dasharray:2.0,2.0;" x1="434" x2="726" y1="790.6484" y2="790.6484"/><text fill="#FFFFFF" font-family="sans-serif" font-size="13" font-weight="bold" lengthAdjust="spacing" textLength="46" x="446" y="785.5825">2.2.12</text><text fill="#FFFFFF" font-family="sans-serif" font-size="13" lengthAdjust="spacing" textLength="46" x="496" y="785.5825">200 OK</text><polygon fill="#E7E7E7" points="35,815.7813,25,819.7813,35,823.7813,31,819.7813" style="stroke:#E7E7E7;stroke-width:1.0;"/><line style="stroke:#E7E7E7;stroke-width:1.0;stroke-dasharray:2.0,2.0;" x1="29" x2="428" y1="819.7813" y2="819.7813"/><text fill="#FFFFFF" font-family="sans-serif" font-size="13" font-weight="bold" lengthAdjust="spacing" textLength="46" x="41" y="814.7153">2.2.13</text><text fill="#FFFFFF" font-family="sans-serif" font-size="13" lengthAdjust="spacing" textLength="331" x="91" y="814.7153">push-&#1091;&#1074;&#1077;&#1076;&#1086;&#1084;&#1083;&#1077;&#1085;&#1080;&#1077; "&#1055;&#1088;&#1086;&#1092;&#1080;&#1083;&#1100; &#1091;&#1089;&#1087;&#1077;&#1096;&#1085;&#1086; &#1086;&#1073;&#1085;&#1086;&#1074;&#1083;&#1105;&#1085;&#8221;</text><!--SRC=[rPJDJjj058NtVegHzm6I9OjA2A4swe9Aa7KrSQQgLPfOat7NuQz50WdHLJT0-mO6wjPjOlSLxhn2dwJd3WdOCQ2MNJU9xvsPCzyzEhO9pPOIT6v7LDWzocXiZmJzee8Vw3l-BocnEvIYFlPaO0PQT8PAUv7K9Wp2IFQDwBGhvORIxy90UJrfP5SEbUZAu8tdoTWC-l7RhjAYjT1SQ0glqnQD9xFjo-BfsgPOZFJWLRYbl6cND_3nPJ0wg5txWJAxmvHVAQ6SSdj8wVt8V5WqojV4m7_9RBTtOBdJBgym6JVHmCrdK2le0Xubz0swENnAXTq6niWnPFQzFHJOazC5V1m1BSFp5IKUIuYfFdq4MihdA9l3HvqxzSJDvjCNwEpVoAFdpzlrOdtZrg-xfhfnhgRrQEzQIqsngfKqgbTphxpsD_x1dZ4QboWB-b6pSoumBHUOifcVeSHZ_6GxER_Nx2w_vJW_5BF58DPQzSt_4BSzbwm9WkRJ9t2Whavwx5SDEaCOSyStdI2760lluvSJEhcUfJHOLU2V4xcokVgivgs8enw7uhvqrZ0VdSqbiVxyZbYwTiNYA1w-RjXTVXjnMq4J977cip_tCKG4ja6HsWEcv9TyXZks9vJ_7ft-0G00]--></g></svg>