<?xml version="1.0" encoding="us-ascii" standalone="no"?><svg xmlns="http://www.w3.org/2000/svg" xmlns:xlink="http://www.w3.org/1999/xlink" contentStyleType="text/css" height="1116px" preserveAspectRatio="none" style="width:635px;height:1116px;background:#1B1B1B;" version="1.1" viewBox="0 0 635 1116" width="635px" zoomAndPan="magnify"><defs/><g><rect fill="#1B1B1B" height="1116" style="stroke:none;stroke-width:1.0;" width="635" x="0" y="0"/><text fill="#FFFFFF" font-family="sans-serif" font-size="14" font-weight="bold" lengthAdjust="spacing" textLength="253" x="192.25" y="27.9951">&#1047;&#1072;&#1087;&#1086;&#1083;&#1085;&#1077;&#1085;&#1080;&#1077; &#1082;&#1072;&#1088;&#1090;&#1086;&#1095;&#1082;&#1080; &#1086;&#1090;&#1082;&#1083;&#1080;&#1082;&#1072;</text><rect fill="none" height="191.9297" style="stroke:#FFFFFF;stroke-width:1.5;" width="332" x="296.5" y="281.2578"/><rect fill="none" height="206.7344" style="stroke:#FFFFFF;stroke-width:1.5;" width="332" x="296.5" y="487.1875"/><rect fill="none" height="75.3984" style="stroke:#FFFFFF;stroke-width:1.5;" width="618.5" x="10" y="707.9219"/><rect fill="none" height="133.6641" style="stroke:#FFFFFF;stroke-width:1.5;" width="618.5" x="10" y="797.3203"/><line style="stroke:#E7E7E7;stroke-width:0.5;stroke-dasharray:5.0,5.0;" x1="39" x2="39" y1="118.5938" y2="1035.3828"/><line style="stroke:#E7E7E7;stroke-width:0.5;stroke-dasharray:5.0,5.0;" x1="319.5" x2="319.5" y1="118.5938" y2="1035.3828"/><line style="stroke:#E7E7E7;stroke-width:0.5;stroke-dasharray:5.0,5.0;" x1="598.5" x2="598.5" y1="118.5938" y2="1035.3828"/><text fill="#FFFFFF" font-family="sans-serif" font-size="14" lengthAdjust="spacing" textLength="32" x="20" y="115.292">User</text><ellipse cx="39" cy="50.7969" fill="#222222" rx="8" ry="8" style="stroke:#E7E7E7;stroke-width:0.5;"/><path d="M39,58.7969 L39,85.7969 M26,66.7969 L52,66.7969 M39,85.7969 L26,100.7969 M39,85.7969 L52,100.7969 " fill="none" style="stroke:#E7E7E7;stroke-width:0.5;"/><text fill="#FFFFFF" font-family="sans-serif" font-size="14" lengthAdjust="spacing" textLength="32" x="20" y="1047.3779">User</text><ellipse cx="39" cy="1059.1797" fill="#222222" rx="8" ry="8" style="stroke:#E7E7E7;stroke-width:0.5;"/><path d="M39,1067.1797 L39,1094.1797 M26,1075.1797 L52,1075.1797 M39,1094.1797 L26,1109.1797 M39,1094.1797 L52,1109.1797 " fill="none" style="stroke:#E7E7E7;stroke-width:0.5;"/><rect fill="#222222" height="30.2969" rx="2.5" ry="2.5" style="stroke:#E7E7E7;stroke-width:0.5;" width="27" x="306.5" y="87.2969"/><text fill="#FFFFFF" font-family="sans-serif" font-size="14" lengthAdjust="spacing" textLength="13" x="313.5" y="107.292">UI</text><rect fill="#222222" height="30.2969" rx="2.5" ry="2.5" style="stroke:#E7E7E7;stroke-width:0.5;" width="27" x="306.5" y="1034.3828"/><text fill="#FFFFFF" font-family="sans-serif" font-size="14" lengthAdjust="spacing" textLength="13" x="313.5" y="1054.3779">UI</text><text fill="#FFFFFF" font-family="sans-serif" font-size="14" lengthAdjust="spacing" textLength="33" x="579.5" y="115.292">back</text><path d="M581,66.2969 C581,56.2969 599,56.2969 599,56.2969 C599,56.2969 617,56.2969 617,66.2969 L617,92.2969 C617,102.2969 599,102.2969 599,102.2969 C599,102.2969 581,102.2969 581,92.2969 L581,66.2969 " fill="#222222" style="stroke:#E7E7E7;stroke-width:1.5;"/><path d="M581,66.2969 C581,76.2969 599,76.2969 599,76.2969 C599,76.2969 617,76.2969 617,66.2969 " fill="none" style="stroke:#E7E7E7;stroke-width:1.5;"/><text fill="#FFFFFF" font-family="sans-serif" font-size="14" lengthAdjust="spacing" textLength="33" x="579.5" y="1047.3779">back</text><path d="M581,1060.6797 C581,1050.6797 599,1050.6797 599,1050.6797 C599,1050.6797 617,1050.6797 617,1060.6797 L617,1086.6797 C617,1096.6797 599,1096.6797 599,1096.6797 C599,1096.6797 581,1096.6797 581,1086.6797 L581,1060.6797 " fill="#222222" style="stroke:#E7E7E7;stroke-width:1.5;"/><path d="M581,1060.6797 C581,1070.6797 599,1070.6797 599,1070.6797 C599,1070.6797 617,1070.6797 617,1060.6797 " fill="none" style="stroke:#E7E7E7;stroke-width:1.5;"/><polygon fill="#E7E7E7" points="308,145.7266,318,149.7266,308,153.7266,312,149.7266" style="stroke:#E7E7E7;stroke-width:1.0;"/><line style="stroke:#E7E7E7;stroke-width:1.0;" x1="39" x2="314" y1="149.7266" y2="149.7266"/><text fill="#FFFFFF" font-family="sans-serif" font-size="13" font-weight="bold" lengthAdjust="spacing" textLength="37" x="75.5" y="144.6606">2.1.1</text><text fill="#FFFFFF" font-family="sans-serif" font-size="13" lengthAdjust="spacing" textLength="167" x="116.5" y="144.6606">&#1044;&#1086;&#1073;&#1072;&#1074;&#1080;&#1090;&#1100; &#1085;&#1086;&#1074;&#1099;&#1081; &#1086;&#1090;&#1082;&#1083;&#1080;&#1082;</text><polygon fill="#E7E7E7" points="587,174.8594,597,178.8594,587,182.8594,591,178.8594" style="stroke:#E7E7E7;stroke-width:1.0;"/><line style="stroke:#E7E7E7;stroke-width:1.0;" x1="320" x2="593" y1="178.8594" y2="178.8594"/><text fill="#FFFFFF" font-family="sans-serif" font-size="13" font-weight="bold" lengthAdjust="spacing" textLength="37" x="334.5" y="173.7935">2.1.2</text><text fill="#FFFFFF" font-family="sans-serif" font-size="13" lengthAdjust="spacing" textLength="209" x="375.5" y="173.7935">GET /directory/cohorts?course_id</text><polygon fill="#E7E7E7" points="331,203.9922,321,207.9922,331,211.9922,327,207.9922" style="stroke:#E7E7E7;stroke-width:1.0;"/><line style="stroke:#E7E7E7;stroke-width:1.0;stroke-dasharray:2.0,2.0;" x1="325" x2="598" y1="207.9922" y2="207.9922"/><text fill="#FFFFFF" font-family="sans-serif" font-size="13" font-weight="bold" lengthAdjust="spacing" textLength="37" x="416" y="202.9263">2.1.3</text><text fill="#FFFFFF" font-family="sans-serif" font-size="13" lengthAdjust="spacing" textLength="46" x="457" y="202.9263">200 OK</text><polygon fill="#E7E7E7" points="50,233.125,40,237.125,50,241.125,46,237.125" style="stroke:#E7E7E7;stroke-width:1.0;"/><line style="stroke:#E7E7E7;stroke-width:1.0;stroke-dasharray:2.0,2.0;" x1="44" x2="319" y1="237.125" y2="237.125"/><text fill="#FFFFFF" font-family="sans-serif" font-size="13" font-weight="bold" lengthAdjust="spacing" textLength="37" x="87.5" y="232.0591">2.1.4</text><text fill="#FFFFFF" font-family="sans-serif" font-size="13" lengthAdjust="spacing" textLength="143" x="128.5" y="232.0591">&#1060;&#1086;&#1088;&#1084;&#1072; &#1076;&#1083;&#1103; &#1086;&#1090;&#1087;&#1088;&#1072;&#1074;&#1082;&#1080;</text><polygon fill="#E7E7E7" points="308,262.2578,318,266.2578,308,270.2578,312,266.2578" style="stroke:#E7E7E7;stroke-width:1.0;"/><line style="stroke:#E7E7E7;stroke-width:1.0;" x1="39" x2="314" y1="266.2578" y2="266.2578"/><text fill="#FFFFFF" font-family="sans-serif" font-size="13" font-weight="bold" lengthAdjust="spacing" textLength="37" x="51" y="261.1919">2.2.1</text><text fill="#FFFFFF" font-family="sans-serif" font-size="13" lengthAdjust="spacing" textLength="216" x="92" y="261.1919">&#1047;&#1072;&#1087;&#1086;&#1083;&#1085;&#1103;&#1077;&#1090; &#1086;&#1073;&#1097;&#1091;&#1102; &#1080;&#1085;&#1092;&#1086;&#1088;&#1084;&#1072;&#1094;&#1080;&#1102;</text><path d="M296.5,281.2578 L366.5,281.2578 L366.5,288.3906 L356.5,298.3906 L296.5,298.3906 L296.5,281.2578 " fill="#555555" style="stroke:#FFFFFF;stroke-width:1.5;"/><rect fill="none" height="191.9297" style="stroke:#FFFFFF;stroke-width:1.5;" width="332" x="296.5" y="281.2578"/><text fill="#FFFFFF" font-family="sans-serif" font-size="13" font-weight="bold" lengthAdjust="spacing" textLength="25" x="311.5" y="294.3247">par</text><polygon fill="#E7E7E7" points="587,315.5234,597,319.5234,587,323.5234,591,319.5234" style="stroke:#E7E7E7;stroke-width:1.0;"/><line style="stroke:#E7E7E7;stroke-width:1.0;" x1="320" x2="593" y1="319.5234" y2="319.5234"/><text fill="#FFFFFF" font-family="sans-serif" font-size="13" font-weight="bold" lengthAdjust="spacing" textLength="37" x="367" y="314.4575">2.2.2</text><text fill="#FFFFFF" font-family="sans-serif" font-size="13" lengthAdjust="spacing" textLength="144" x="408" y="314.4575">GET /location-directory</text><polygon fill="#E7E7E7" points="331,344.6563,321,348.6563,331,352.6563,327,348.6563" style="stroke:#E7E7E7;stroke-width:1.0;"/><line style="stroke:#E7E7E7;stroke-width:1.0;stroke-dasharray:2.0,2.0;" x1="325" x2="598" y1="348.6563" y2="348.6563"/><text fill="#FFFFFF" font-family="sans-serif" font-size="13" font-weight="bold" lengthAdjust="spacing" textLength="37" x="416" y="343.5903">2.2.3</text><text fill="#FFFFFF" font-family="sans-serif" font-size="13" lengthAdjust="spacing" textLength="46" x="457" y="343.5903">200 OK</text><polygon fill="#E7E7E7" points="587,373.7891,597,377.7891,587,381.7891,591,377.7891" style="stroke:#E7E7E7;stroke-width:1.0;"/><line style="stroke:#E7E7E7;stroke-width:1.0;" x1="320" x2="593" y1="377.7891" y2="377.7891"/><text fill="#FFFFFF" font-family="sans-serif" font-size="13" font-weight="bold" lengthAdjust="spacing" textLength="37" x="373.5" y="372.7231">2.2.4</text><text fill="#FFFFFF" font-family="sans-serif" font-size="13" lengthAdjust="spacing" textLength="131" x="414.5" y="372.7231">GET /directory/colors</text><polygon fill="#E7E7E7" points="331,402.9219,321,406.9219,331,410.9219,327,406.9219" style="stroke:#E7E7E7;stroke-width:1.0;"/><line style="stroke:#E7E7E7;stroke-width:1.0;stroke-dasharray:2.0,2.0;" x1="325" x2="598" y1="406.9219" y2="406.9219"/><text fill="#FFFFFF" font-family="sans-serif" font-size="13" font-weight="bold" lengthAdjust="spacing" textLength="37" x="416" y="401.856">2.2.5</text><text fill="#FFFFFF" font-family="sans-serif" font-size="13" lengthAdjust="spacing" textLength="46" x="457" y="401.856">200 OK</text><polygon fill="#E7E7E7" points="587,432.0547,597,436.0547,587,440.0547,591,436.0547" style="stroke:#E7E7E7;stroke-width:1.0;"/><line style="stroke:#E7E7E7;stroke-width:1.0;" x1="320" x2="593" y1="436.0547" y2="436.0547"/><text fill="#FFFFFF" font-family="sans-serif" font-size="13" font-weight="bold" lengthAdjust="spacing" textLength="37" x="334.5" y="430.9888">2.2.6</text><text fill="#FFFFFF" font-family="sans-serif" font-size="13" lengthAdjust="spacing" textLength="209" x="375.5" y="430.9888">GET /directory/currency-directory</text><polygon fill="#E7E7E7" points="331,461.1875,321,465.1875,331,469.1875,327,465.1875" style="stroke:#E7E7E7;stroke-width:1.0;"/><line style="stroke:#E7E7E7;stroke-width:1.0;stroke-dasharray:2.0,2.0;" x1="325" x2="598" y1="465.1875" y2="465.1875"/><text fill="#FFFFFF" font-family="sans-serif" font-size="13" font-weight="bold" lengthAdjust="spacing" textLength="37" x="416" y="460.1216">2.2.7</text><text fill="#FFFFFF" font-family="sans-serif" font-size="13" lengthAdjust="spacing" textLength="46" x="457" y="460.1216">200 OK</text><path d="M296.5,487.1875 L360.5,487.1875 L360.5,494.3203 L350.5,504.3203 L296.5,504.3203 L296.5,487.1875 " fill="#555555" style="stroke:#FFFFFF;stroke-width:1.5;"/><rect fill="none" height="206.7344" style="stroke:#FFFFFF;stroke-width:1.5;" width="332" x="296.5" y="487.1875"/><text fill="#FFFFFF" font-family="sans-serif" font-size="13" font-weight="bold" lengthAdjust="spacing" textLength="19" x="311.5" y="500.2544">alt</text><text fill="#FFFFFF" font-family="sans-serif" font-size="11" font-weight="bold" lengthAdjust="spacing" textLength="107" x="375.5" y="499.3979">[&#1092;&#1088;&#1080;&#1083;&#1072;&#1085;&#1089; &#1079;&#1072;&#1082;&#1072;&#1079;]</text><polygon fill="#E7E7E7" points="587,521.4531,597,525.4531,587,529.4531,591,525.4531" style="stroke:#E7E7E7;stroke-width:1.0;"/><line style="stroke:#E7E7E7;stroke-width:1.0;" x1="320" x2="593" y1="525.4531" y2="525.4531"/><text fill="#FFFFFF" font-family="sans-serif" font-size="13" font-weight="bold" lengthAdjust="spacing" textLength="37" x="335.5" y="520.3872">2.2.8</text><text fill="#FFFFFF" font-family="sans-serif" font-size="13" lengthAdjust="spacing" textLength="207" x="376.5" y="520.3872">GET /directory/freelance-sources</text><polygon fill="#E7E7E7" points="331,550.5859,321,554.5859,331,558.5859,327,554.5859" style="stroke:#E7E7E7;stroke-width:1.0;"/><line style="stroke:#E7E7E7;stroke-width:1.0;stroke-dasharray:2.0,2.0;" x1="325" x2="598" y1="554.5859" y2="554.5859"/><text fill="#FFFFFF" font-family="sans-serif" font-size="13" font-weight="bold" lengthAdjust="spacing" textLength="37" x="416" y="549.52">2.2.9</text><text fill="#FFFFFF" font-family="sans-serif" font-size="13" lengthAdjust="spacing" textLength="46" x="457" y="549.52">200 OK</text><line style="stroke:#FFFFFF;stroke-width:1.0;stroke-dasharray:2.0,2.0;" x1="296.5" x2="628.5" y1="563.5859" y2="563.5859"/><text fill="#FFFFFF" font-family="sans-serif" font-size="11" font-weight="bold" lengthAdjust="spacing" textLength="187" x="301.5" y="573.7964">[&#1086;&#1090;&#1082;&#1083;&#1080;&#1082; &#1085;&#1072; &#1074;&#1072;&#1082;&#1072;&#1085;&#1089;&#1080;&#1102; &#1085;&#1072;&#1081;&#1084;&#1072;]</text><polygon fill="#E7E7E7" points="587,594.5234,597,598.5234,587,602.5234,591,598.5234" style="stroke:#E7E7E7;stroke-width:1.0;"/><line style="stroke:#E7E7E7;stroke-width:1.0;" x1="320" x2="593" y1="598.5234" y2="598.5234"/><text fill="#FFFFFF" font-family="sans-serif" font-size="13" font-weight="bold" lengthAdjust="spacing" textLength="46" x="338" y="593.4575">2.2.10</text><text fill="#FFFFFF" font-family="sans-serif" font-size="13" lengthAdjust="spacing" textLength="193" x="388" y="593.4575">GET /directory/vacancy-source</text><polygon fill="#E7E7E7" points="331,623.6563,321,627.6563,331,631.6563,327,627.6563" style="stroke:#E7E7E7;stroke-width:1.0;"/><line style="stroke:#E7E7E7;stroke-width:1.0;stroke-dasharray:2.0,2.0;" x1="325" x2="598" y1="627.6563" y2="627.6563"/><text fill="#FFFFFF" font-family="sans-serif" font-size="13" font-weight="bold" lengthAdjust="spacing" textLength="46" x="411.5" y="622.5903">2.2.11</text><text fill="#FFFFFF" font-family="sans-serif" font-size="13" lengthAdjust="spacing" textLength="46" x="461.5" y="622.5903">200 OK</text><polygon fill="#E7E7E7" points="587,652.7891,597,656.7891,587,660.7891,591,656.7891" style="stroke:#E7E7E7;stroke-width:1.0;"/><line style="stroke:#E7E7E7;stroke-width:1.0;" x1="320" x2="593" y1="656.7891" y2="656.7891"/><text fill="#FFFFFF" font-family="sans-serif" font-size="13" font-weight="bold" lengthAdjust="spacing" textLength="46" x="332.5" y="651.7231">2.2.12</text><text fill="#FFFFFF" font-family="sans-serif" font-size="13" lengthAdjust="spacing" textLength="204" x="382.5" y="651.7231">GET /directory/location-directory</text><polygon fill="#E7E7E7" points="331,681.9219,321,685.9219,331,689.9219,327,685.9219" style="stroke:#E7E7E7;stroke-width:1.0;"/><line style="stroke:#E7E7E7;stroke-width:1.0;stroke-dasharray:2.0,2.0;" x1="325" x2="598" y1="685.9219" y2="685.9219"/><text fill="#FFFFFF" font-family="sans-serif" font-size="13" font-weight="bold" lengthAdjust="spacing" textLength="46" x="411.5" y="680.856">2.2.13</text><text fill="#FFFFFF" font-family="sans-serif" font-size="13" lengthAdjust="spacing" textLength="46" x="461.5" y="680.856">200 OK</text><path d="M10,707.9219 L80,707.9219 L80,715.0547 L70,725.0547 L10,725.0547 L10,707.9219 " fill="#555555" style="stroke:#FFFFFF;stroke-width:1.5;"/><rect fill="none" height="75.3984" style="stroke:#FFFFFF;stroke-width:1.5;" width="618.5" x="10" y="707.9219"/><text fill="#FFFFFF" font-family="sans-serif" font-size="13" font-weight="bold" lengthAdjust="spacing" textLength="25" x="25" y="720.9888">opt</text><text fill="#FFFFFF" font-family="sans-serif" font-size="11" font-weight="bold" lengthAdjust="spacing" textLength="220" x="95" y="720.1323">[&#1072;&#1074;&#1090;&#1086;&#1079;&#1072;&#1087;&#1086;&#1083;&#1085;&#1077;&#1085;&#1080;&#1077; &#1086;&#1090;&#1082;&#1083;&#1080;&#1082;&#1072; (&#1085;&#1072;&#1081;&#1084;)]</text><polygon fill="#E7E7E7" points="308,742.1875,318,746.1875,308,750.1875,312,746.1875" style="stroke:#E7E7E7;stroke-width:1.0;"/><line style="stroke:#E7E7E7;stroke-width:1.0;" x1="39" x2="314" y1="746.1875" y2="746.1875"/><text fill="#FFFFFF" font-family="sans-serif" font-size="13" font-weight="bold" lengthAdjust="spacing" textLength="37" x="51.5" y="741.1216">2.3.1</text><text fill="#FFFFFF" font-family="sans-serif" font-size="13" lengthAdjust="spacing" textLength="215" x="92.5" y="741.1216">&#1042;&#1089;&#1090;&#1072;&#1074;&#1083;&#1103;&#1077;&#1090; &#1089;&#1089;&#1099;&#1083;&#1082;&#1091; &#1085;&#1072; &#1074;&#1072;&#1082;&#1072;&#1085;&#1089;&#1080;&#1102;</text><polygon fill="#E7E7E7" points="587,771.3203,597,775.3203,587,779.3203,591,775.3203" style="stroke:#E7E7E7;stroke-width:1.0;"/><line style="stroke:#E7E7E7;stroke-width:1.0;" x1="320" x2="593" y1="775.3203" y2="775.3203"/><text fill="#FFFFFF" font-family="sans-serif" font-size="13" font-weight="bold" lengthAdjust="spacing" textLength="37" x="363.5" y="770.2544">2.3.2</text><text fill="#FFFFFF" font-family="sans-serif" font-size="13" lengthAdjust="spacing" textLength="151" x="404.5" y="770.2544">GET /external/get-by-url</text><path d="M10,797.3203 L80,797.3203 L80,804.4531 L70,814.4531 L10,814.4531 L10,797.3203 " fill="#555555" style="stroke:#FFFFFF;stroke-width:1.5;"/><rect fill="none" height="133.6641" style="stroke:#FFFFFF;stroke-width:1.5;" width="618.5" x="10" y="797.3203"/><text fill="#FFFFFF" font-family="sans-serif" font-size="13" font-weight="bold" lengthAdjust="spacing" textLength="25" x="25" y="810.3872">opt</text><polygon fill="#E7E7E7" points="308,831.5859,318,835.5859,308,839.5859,312,835.5859" style="stroke:#E7E7E7;stroke-width:1.0;"/><line style="stroke:#E7E7E7;stroke-width:1.0;" x1="39" x2="314" y1="835.5859" y2="835.5859"/><text fill="#FFFFFF" font-family="sans-serif" font-size="13" font-weight="bold" lengthAdjust="spacing" textLength="37" x="91" y="830.52">2.4.1</text><text fill="#FFFFFF" font-family="sans-serif" font-size="13" lengthAdjust="spacing" textLength="136" x="132" y="830.52">&#1054;&#1089;&#1090;&#1072;&#1074;&#1083;&#1103;&#1077;&#1090; &#1079;&#1072;&#1084;&#1077;&#1090;&#1082;&#1080;</text><polygon fill="#E7E7E7" points="308,860.7188,318,864.7188,308,868.7188,312,864.7188" style="stroke:#E7E7E7;stroke-width:1.0;"/><line style="stroke:#E7E7E7;stroke-width:1.0;" x1="39" x2="314" y1="864.7188" y2="864.7188"/><text fill="#FFFFFF" font-family="sans-serif" font-size="13" font-weight="bold" lengthAdjust="spacing" textLength="37" x="90" y="859.6528">2.4.2</text><text fill="#FFFFFF" font-family="sans-serif" font-size="13" lengthAdjust="spacing" textLength="138" x="131" y="859.6528">&#1044;&#1086;&#1073;&#1072;&#1074;&#1083;&#1103;&#1077;&#1090; &#1082;&#1086;&#1085;&#1090;&#1072;&#1082;&#1090;</text><polygon fill="#E7E7E7" points="587,889.8516,597,893.8516,587,897.8516,591,893.8516" style="stroke:#E7E7E7;stroke-width:1.0;"/><line style="stroke:#E7E7E7;stroke-width:1.0;" x1="320" x2="593" y1="893.8516" y2="893.8516"/><text fill="#FFFFFF" font-family="sans-serif" font-size="13" font-weight="bold" lengthAdjust="spacing" textLength="37" x="332" y="888.7856">2.4.3</text><text fill="#FFFFFF" font-family="sans-serif" font-size="13" lengthAdjust="spacing" textLength="214" x="373" y="888.7856">POST /vacancies/contacts/several</text><polygon fill="#E7E7E7" points="331,918.9844,321,922.9844,331,926.9844,327,922.9844" style="stroke:#E7E7E7;stroke-width:1.0;"/><line style="stroke:#E7E7E7;stroke-width:1.0;stroke-dasharray:2.0,2.0;" x1="325" x2="598" y1="922.9844" y2="922.9844"/><text fill="#FFFFFF" font-family="sans-serif" font-size="13" font-weight="bold" lengthAdjust="spacing" textLength="37" x="399.5" y="917.9185">2.4.4</text><text fill="#FFFFFF" font-family="sans-serif" font-size="13" lengthAdjust="spacing" textLength="79" x="440.5" y="917.9185">201 Created</text><polygon fill="#E7E7E7" points="308,955.1172,318,959.1172,308,963.1172,312,959.1172" style="stroke:#E7E7E7;stroke-width:1.0;"/><line style="stroke:#E7E7E7;stroke-width:1.0;" x1="39" x2="314" y1="959.1172" y2="959.1172"/><text fill="#FFFFFF" font-family="sans-serif" font-size="13" font-weight="bold" lengthAdjust="spacing" textLength="37" x="78" y="954.0513">2.5.1</text><text fill="#FFFFFF" font-family="sans-serif" font-size="13" lengthAdjust="spacing" textLength="162" x="119" y="954.0513">&#1053;&#1072;&#1078;&#1080;&#1084;&#1072;&#1077;&#1090; "&#1054;&#1090;&#1087;&#1088;&#1072;&#1074;&#1080;&#1090;&#1100;"</text><polygon fill="#E7E7E7" points="587,984.25,597,988.25,587,992.25,591,988.25" style="stroke:#E7E7E7;stroke-width:1.0;"/><line style="stroke:#E7E7E7;stroke-width:1.0;" x1="320" x2="593" y1="988.25" y2="988.25"/><text fill="#FFFFFF" font-family="sans-serif" font-size="13" font-weight="bold" lengthAdjust="spacing" textLength="37" x="422" y="983.1841">2.5.2</text><text fill="#FFFFFF" font-family="sans-serif" font-size="13" lengthAdjust="spacing" textLength="34" x="463" y="983.1841">POST</text><polygon fill="#E7E7E7" points="331,1013.3828,321,1017.3828,331,1021.3828,327,1017.3828" style="stroke:#E7E7E7;stroke-width:1.0;"/><line style="stroke:#E7E7E7;stroke-width:1.0;stroke-dasharray:2.0,2.0;" x1="325" x2="598" y1="1017.3828" y2="1017.3828"/><text fill="#FFFFFF" font-family="sans-serif" font-size="13" font-weight="bold" lengthAdjust="spacing" textLength="37" x="399.5" y="1012.3169">2.5.3</text><text fill="#FFFFFF" font-family="sans-serif" font-size="13" lengthAdjust="spacing" textLength="79" x="440.5" y="1012.3169">201 Created</text><!--SRC=[dLJDRjD04BxxALOzmS5D4-2240WXX112HOAUqSOPWbNN3hlhYjoQj08XK2iX94vmuW52H6YQDEahpBuHtzf9IU8a_1miZTQp_dxc6vlGH2JuCtVuWiSyv17tyFIv9tZ07NjWsposRr7t1OesYY7UufNdwTqmRaWbzuIcLod50JqchMMTxaPXFHO1nOQKvyd094hiQDJeDc4GDcHinCv3hoQDh4fDeYg3NJIc9edJlIefKTaiRvOzTqVujz4gRWh-17xVmRFBVTks7mHeZhbht_FP73CFtRZZFebR3-u_4wLQgCYHQ9Q2v6MYZBuJ9AdIz3oikUvRlZzjhsnjYUr7ER0xpf6_uVi7VCuTmJzuQ4zol0kSEJQmPe5xfS1znbzxmZtR5awCVMSFxR40wv4zccBODz1tx3clPgHCb4H984sOnFwbf1K2rdeG9Kh_nxrKAGov-ITiYclm8pB27a5H7vexqDSIV8e2mU7JjJ0l554a4IPVOqW1hM1A4N8pEtUN1moeEm41elCnE-KpP-nQr7qPIASjn_ntS_vsCBavis6vXh0a3IDSbjooPJOLTd5kzSILgQgh2pdxQ5jeTAaSJdA6WnPsPCW3UxZSeYMww3KsDvPHgKx6hpRzL4LBc5_FcIzG-5gWa2awTsMsAwks-h9zWADHzes1RS-pUxBz5FJoOOMaaUNOuF-YIvhsISceO7fPt5Ca3TMMyBzHMDClmFm9Zv6MZCe6rFnUzEotir4aj1hq5m00]--></g></svg>