<?xml version="1.0" encoding="us-ascii" standalone="no"?><svg xmlns="http://www.w3.org/2000/svg" xmlns:xlink="http://www.w3.org/1999/xlink" contentStyleType="text/css" height="1116px" preserveAspectRatio="none" style="width:653px;height:1116px;background:#1B1B1B;" version="1.1" viewBox="0 0 653 1116" width="653px" zoomAndPan="magnify"><defs/><g><rect fill="#1B1B1B" height="1116" style="stroke:none;stroke-width:1.0;" width="653" x="0" y="0"/><text fill="#FFFFFF" font-family="sans-serif" font-size="14" font-weight="bold" lengthAdjust="spacing" textLength="253" x="201.25" y="27.9951">&#1047;&#1072;&#1087;&#1086;&#1083;&#1085;&#1077;&#1085;&#1080;&#1077; &#1082;&#1072;&#1088;&#1090;&#1086;&#1095;&#1082;&#1080; &#1086;&#1090;&#1082;&#1083;&#1080;&#1082;&#1072;</text><rect fill="none" height="191.9297" style="stroke:#FFFFFF;stroke-width:1.5;" width="341" x="305.5" y="281.2578"/><rect fill="none" height="206.7344" style="stroke:#FFFFFF;stroke-width:1.5;" width="341" x="305.5" y="487.1875"/><rect fill="none" height="75.3984" style="stroke:#FFFFFF;stroke-width:1.5;" width="636.5" x="10" y="707.9219"/><rect fill="none" height="133.6641" style="stroke:#FFFFFF;stroke-width:1.5;" width="636.5" x="10" y="797.3203"/><line style="stroke:#E7E7E7;stroke-width:0.5;stroke-dasharray:5.0,5.0;" x1="39" x2="39" y1="118.5938" y2="1035.3828"/><line style="stroke:#E7E7E7;stroke-width:0.5;stroke-dasharray:5.0,5.0;" x1="328.5" x2="328.5" y1="118.5938" y2="1035.3828"/><line style="stroke:#E7E7E7;stroke-width:0.5;stroke-dasharray:5.0,5.0;" x1="616.5" x2="616.5" y1="118.5938" y2="1035.3828"/><text fill="#FFFFFF" font-family="sans-serif" font-size="14" lengthAdjust="spacing" textLength="32" x="20" y="115.292">User</text><ellipse cx="39" cy="50.7969" fill="#222222" rx="8" ry="8" style="stroke:#E7E7E7;stroke-width:0.5;"/><path d="M39,58.7969 L39,85.7969 M26,66.7969 L52,66.7969 M39,85.7969 L26,100.7969 M39,85.7969 L52,100.7969 " fill="none" style="stroke:#E7E7E7;stroke-width:0.5;"/><text fill="#FFFFFF" font-family="sans-serif" font-size="14" lengthAdjust="spacing" textLength="32" x="20" y="1047.3779">User</text><ellipse cx="39" cy="1059.1797" fill="#222222" rx="8" ry="8" style="stroke:#E7E7E7;stroke-width:0.5;"/><path d="M39,1067.1797 L39,1094.1797 M26,1075.1797 L52,1075.1797 M39,1094.1797 L26,1109.1797 M39,1094.1797 L52,1109.1797 " fill="none" style="stroke:#E7E7E7;stroke-width:0.5;"/><rect fill="#222222" height="30.2969" rx="2.5" ry="2.5" style="stroke:#E7E7E7;stroke-width:0.5;" width="27" x="315.5" y="87.2969"/><text fill="#FFFFFF" font-family="sans-serif" font-size="14" lengthAdjust="spacing" textLength="13" x="322.5" y="107.292">UI</text><rect fill="#222222" height="30.2969" rx="2.5" ry="2.5" style="stroke:#E7E7E7;stroke-width:0.5;" width="27" x="315.5" y="1034.3828"/><text fill="#FFFFFF" font-family="sans-serif" font-size="14" lengthAdjust="spacing" textLength="13" x="322.5" y="1054.3779">UI</text><text fill="#FFFFFF" font-family="sans-serif" font-size="14" lengthAdjust="spacing" textLength="33" x="597.5" y="115.292">back</text><path d="M599,66.2969 C599,56.2969 617,56.2969 617,56.2969 C617,56.2969 635,56.2969 635,66.2969 L635,92.2969 C635,102.2969 617,102.2969 617,102.2969 C617,102.2969 599,102.2969 599,92.2969 L599,66.2969 " fill="#222222" style="stroke:#E7E7E7;stroke-width:1.5;"/><path d="M599,66.2969 C599,76.2969 617,76.2969 617,76.2969 C617,76.2969 635,76.2969 635,66.2969 " fill="none" style="stroke:#E7E7E7;stroke-width:1.5;"/><text fill="#FFFFFF" font-family="sans-serif" font-size="14" lengthAdjust="spacing" textLength="33" x="597.5" y="1047.3779">back</text><path d="M599,1060.6797 C599,1050.6797 617,1050.6797 617,1050.6797 C617,1050.6797 635,1050.6797 635,1060.6797 L635,1086.6797 C635,1096.6797 617,1096.6797 617,1096.6797 C617,1096.6797 599,1096.6797 599,1086.6797 L599,1060.6797 " fill="#222222" style="stroke:#E7E7E7;stroke-width:1.5;"/><path d="M599,1060.6797 C599,1070.6797 617,1070.6797 617,1070.6797 C617,1070.6797 635,1070.6797 635,1060.6797 " fill="none" style="stroke:#E7E7E7;stroke-width:1.5;"/><polygon fill="#E7E7E7" points="317,145.7266,327,149.7266,317,153.7266,321,149.7266" style="stroke:#E7E7E7;stroke-width:1.0;"/><line style="stroke:#E7E7E7;stroke-width:1.0;" x1="39" x2="323" y1="149.7266" y2="149.7266"/><text fill="#FFFFFF" font-family="sans-serif" font-size="13" font-weight="bold" lengthAdjust="spacing" textLength="46" x="75.5" y="144.6606">3.14.1</text><text fill="#FFFFFF" font-family="sans-serif" font-size="13" lengthAdjust="spacing" textLength="167" x="125.5" y="144.6606">&#1044;&#1086;&#1073;&#1072;&#1074;&#1080;&#1090;&#1100; &#1085;&#1086;&#1074;&#1099;&#1081; &#1086;&#1090;&#1082;&#1083;&#1080;&#1082;</text><polygon fill="#E7E7E7" points="605,174.8594,615,178.8594,605,182.8594,609,178.8594" style="stroke:#E7E7E7;stroke-width:1.0;"/><line style="stroke:#E7E7E7;stroke-width:1.0;" x1="329" x2="611" y1="178.8594" y2="178.8594"/><text fill="#FFFFFF" font-family="sans-serif" font-size="13" font-weight="bold" lengthAdjust="spacing" textLength="46" x="343.5" y="173.7935">3.14.2</text><text fill="#FFFFFF" font-family="sans-serif" font-size="13" lengthAdjust="spacing" textLength="209" x="393.5" y="173.7935">GET /directory/cohorts?course_id</text><polygon fill="#E7E7E7" points="340,203.9922,330,207.9922,340,211.9922,336,207.9922" style="stroke:#E7E7E7;stroke-width:1.0;"/><line style="stroke:#E7E7E7;stroke-width:1.0;stroke-dasharray:2.0,2.0;" x1="334" x2="616" y1="207.9922" y2="207.9922"/><text fill="#FFFFFF" font-family="sans-serif" font-size="13" font-weight="bold" lengthAdjust="spacing" textLength="46" x="425" y="202.9263">3.14.3</text><text fill="#FFFFFF" font-family="sans-serif" font-size="13" lengthAdjust="spacing" textLength="46" x="475" y="202.9263">200 OK</text><polygon fill="#E7E7E7" points="50,233.125,40,237.125,50,241.125,46,237.125" style="stroke:#E7E7E7;stroke-width:1.0;"/><line style="stroke:#E7E7E7;stroke-width:1.0;stroke-dasharray:2.0,2.0;" x1="44" x2="328" y1="237.125" y2="237.125"/><text fill="#FFFFFF" font-family="sans-serif" font-size="13" font-weight="bold" lengthAdjust="spacing" textLength="46" x="87.5" y="232.0591">3.14.4</text><text fill="#FFFFFF" font-family="sans-serif" font-size="13" lengthAdjust="spacing" textLength="143" x="137.5" y="232.0591">&#1060;&#1086;&#1088;&#1084;&#1072; &#1076;&#1083;&#1103; &#1086;&#1090;&#1087;&#1088;&#1072;&#1074;&#1082;&#1080;</text><polygon fill="#E7E7E7" points="317,262.2578,327,266.2578,317,270.2578,321,266.2578" style="stroke:#E7E7E7;stroke-width:1.0;"/><line style="stroke:#E7E7E7;stroke-width:1.0;" x1="39" x2="323" y1="266.2578" y2="266.2578"/><text fill="#FFFFFF" font-family="sans-serif" font-size="13" font-weight="bold" lengthAdjust="spacing" textLength="46" x="51" y="261.1919">3.15.1</text><text fill="#FFFFFF" font-family="sans-serif" font-size="13" lengthAdjust="spacing" textLength="216" x="101" y="261.1919">&#1047;&#1072;&#1087;&#1086;&#1083;&#1085;&#1103;&#1077;&#1090; &#1086;&#1073;&#1097;&#1091;&#1102; &#1080;&#1085;&#1092;&#1086;&#1088;&#1084;&#1072;&#1094;&#1080;&#1102;</text><path d="M305.5,281.2578 L375.5,281.2578 L375.5,288.3906 L365.5,298.3906 L305.5,298.3906 L305.5,281.2578 " fill="#555555" style="stroke:#FFFFFF;stroke-width:1.5;"/><rect fill="none" height="191.9297" style="stroke:#FFFFFF;stroke-width:1.5;" width="341" x="305.5" y="281.2578"/><text fill="#FFFFFF" font-family="sans-serif" font-size="13" font-weight="bold" lengthAdjust="spacing" textLength="25" x="320.5" y="294.3247">par</text><polygon fill="#E7E7E7" points="605,315.5234,615,319.5234,605,323.5234,609,319.5234" style="stroke:#E7E7E7;stroke-width:1.0;"/><line style="stroke:#E7E7E7;stroke-width:1.0;" x1="329" x2="611" y1="319.5234" y2="319.5234"/><text fill="#FFFFFF" font-family="sans-serif" font-size="13" font-weight="bold" lengthAdjust="spacing" textLength="46" x="376" y="314.4575">3.15.2</text><text fill="#FFFFFF" font-family="sans-serif" font-size="13" lengthAdjust="spacing" textLength="144" x="426" y="314.4575">GET /location-directory</text><polygon fill="#E7E7E7" points="340,344.6563,330,348.6563,340,352.6563,336,348.6563" style="stroke:#E7E7E7;stroke-width:1.0;"/><line style="stroke:#E7E7E7;stroke-width:1.0;stroke-dasharray:2.0,2.0;" x1="334" x2="616" y1="348.6563" y2="348.6563"/><text fill="#FFFFFF" font-family="sans-serif" font-size="13" font-weight="bold" lengthAdjust="spacing" textLength="46" x="425" y="343.5903">3.15.3</text><text fill="#FFFFFF" font-family="sans-serif" font-size="13" lengthAdjust="spacing" textLength="46" x="475" y="343.5903">200 OK</text><polygon fill="#E7E7E7" points="605,373.7891,615,377.7891,605,381.7891,609,377.7891" style="stroke:#E7E7E7;stroke-width:1.0;"/><line style="stroke:#E7E7E7;stroke-width:1.0;" x1="329" x2="611" y1="377.7891" y2="377.7891"/><text fill="#FFFFFF" font-family="sans-serif" font-size="13" font-weight="bold" lengthAdjust="spacing" textLength="46" x="382.5" y="372.7231">3.15.4</text><text fill="#FFFFFF" font-family="sans-serif" font-size="13" lengthAdjust="spacing" textLength="131" x="432.5" y="372.7231">GET /directory/colors</text><polygon fill="#E7E7E7" points="340,402.9219,330,406.9219,340,410.9219,336,406.9219" style="stroke:#E7E7E7;stroke-width:1.0;"/><line style="stroke:#E7E7E7;stroke-width:1.0;stroke-dasharray:2.0,2.0;" x1="334" x2="616" y1="406.9219" y2="406.9219"/><text fill="#FFFFFF" font-family="sans-serif" font-size="13" font-weight="bold" lengthAdjust="spacing" textLength="46" x="425" y="401.856">3.15.5</text><text fill="#FFFFFF" font-family="sans-serif" font-size="13" lengthAdjust="spacing" textLength="46" x="475" y="401.856">200 OK</text><polygon fill="#E7E7E7" points="605,432.0547,615,436.0547,605,440.0547,609,436.0547" style="stroke:#E7E7E7;stroke-width:1.0;"/><line style="stroke:#E7E7E7;stroke-width:1.0;" x1="329" x2="611" y1="436.0547" y2="436.0547"/><text fill="#FFFFFF" font-family="sans-serif" font-size="13" font-weight="bold" lengthAdjust="spacing" textLength="46" x="343.5" y="430.9888">3.15.6</text><text fill="#FFFFFF" font-family="sans-serif" font-size="13" lengthAdjust="spacing" textLength="209" x="393.5" y="430.9888">GET /directory/currency-directory</text><polygon fill="#E7E7E7" points="340,461.1875,330,465.1875,340,469.1875,336,465.1875" style="stroke:#E7E7E7;stroke-width:1.0;"/><line style="stroke:#E7E7E7;stroke-width:1.0;stroke-dasharray:2.0,2.0;" x1="334" x2="616" y1="465.1875" y2="465.1875"/><text fill="#FFFFFF" font-family="sans-serif" font-size="13" font-weight="bold" lengthAdjust="spacing" textLength="46" x="425" y="460.1216">3.15.7</text><text fill="#FFFFFF" font-family="sans-serif" font-size="13" lengthAdjust="spacing" textLength="46" x="475" y="460.1216">200 OK</text><path d="M305.5,487.1875 L369.5,487.1875 L369.5,494.3203 L359.5,504.3203 L305.5,504.3203 L305.5,487.1875 " fill="#555555" style="stroke:#FFFFFF;stroke-width:1.5;"/><rect fill="none" height="206.7344" style="stroke:#FFFFFF;stroke-width:1.5;" width="341" x="305.5" y="487.1875"/><text fill="#FFFFFF" font-family="sans-serif" font-size="13" font-weight="bold" lengthAdjust="spacing" textLength="19" x="320.5" y="500.2544">alt</text><text fill="#FFFFFF" font-family="sans-serif" font-size="11" font-weight="bold" lengthAdjust="spacing" textLength="107" x="384.5" y="499.3979">[&#1092;&#1088;&#1080;&#1083;&#1072;&#1085;&#1089; &#1079;&#1072;&#1082;&#1072;&#1079;]</text><polygon fill="#E7E7E7" points="605,521.4531,615,525.4531,605,529.4531,609,525.4531" style="stroke:#E7E7E7;stroke-width:1.0;"/><line style="stroke:#E7E7E7;stroke-width:1.0;" x1="329" x2="611" y1="525.4531" y2="525.4531"/><text fill="#FFFFFF" font-family="sans-serif" font-size="13" font-weight="bold" lengthAdjust="spacing" textLength="46" x="344.5" y="520.3872">3.15.8</text><text fill="#FFFFFF" font-family="sans-serif" font-size="13" lengthAdjust="spacing" textLength="207" x="394.5" y="520.3872">GET /directory/freelance-sources</text><polygon fill="#E7E7E7" points="340,550.5859,330,554.5859,340,558.5859,336,554.5859" style="stroke:#E7E7E7;stroke-width:1.0;"/><line style="stroke:#E7E7E7;stroke-width:1.0;stroke-dasharray:2.0,2.0;" x1="334" x2="616" y1="554.5859" y2="554.5859"/><text fill="#FFFFFF" font-family="sans-serif" font-size="13" font-weight="bold" lengthAdjust="spacing" textLength="46" x="425" y="549.52">3.15.9</text><text fill="#FFFFFF" font-family="sans-serif" font-size="13" lengthAdjust="spacing" textLength="46" x="475" y="549.52">200 OK</text><line style="stroke:#FFFFFF;stroke-width:1.0;stroke-dasharray:2.0,2.0;" x1="305.5" x2="646.5" y1="563.5859" y2="563.5859"/><text fill="#FFFFFF" font-family="sans-serif" font-size="11" font-weight="bold" lengthAdjust="spacing" textLength="187" x="310.5" y="573.7964">[&#1086;&#1090;&#1082;&#1083;&#1080;&#1082; &#1085;&#1072; &#1074;&#1072;&#1082;&#1072;&#1085;&#1089;&#1080;&#1102; &#1085;&#1072;&#1081;&#1084;&#1072;]</text><polygon fill="#E7E7E7" points="605,594.5234,615,598.5234,605,602.5234,609,598.5234" style="stroke:#E7E7E7;stroke-width:1.0;"/><line style="stroke:#E7E7E7;stroke-width:1.0;" x1="329" x2="611" y1="598.5234" y2="598.5234"/><text fill="#FFFFFF" font-family="sans-serif" font-size="13" font-weight="bold" lengthAdjust="spacing" textLength="55" x="347" y="593.4575">3.15.10</text><text fill="#FFFFFF" font-family="sans-serif" font-size="13" lengthAdjust="spacing" textLength="193" x="406" y="593.4575">GET /directory/vacancy-source</text><polygon fill="#E7E7E7" points="340,623.6563,330,627.6563,340,631.6563,336,627.6563" style="stroke:#E7E7E7;stroke-width:1.0;"/><line style="stroke:#E7E7E7;stroke-width:1.0;stroke-dasharray:2.0,2.0;" x1="334" x2="616" y1="627.6563" y2="627.6563"/><text fill="#FFFFFF" font-family="sans-serif" font-size="13" font-weight="bold" lengthAdjust="spacing" textLength="55" x="420.5" y="622.5903">3.15.11</text><text fill="#FFFFFF" font-family="sans-serif" font-size="13" lengthAdjust="spacing" textLength="46" x="479.5" y="622.5903">200 OK</text><polygon fill="#E7E7E7" points="605,652.7891,615,656.7891,605,660.7891,609,656.7891" style="stroke:#E7E7E7;stroke-width:1.0;"/><line style="stroke:#E7E7E7;stroke-width:1.0;" x1="329" x2="611" y1="656.7891" y2="656.7891"/><text fill="#FFFFFF" font-family="sans-serif" font-size="13" font-weight="bold" lengthAdjust="spacing" textLength="55" x="341.5" y="651.7231">3.15.12</text><text fill="#FFFFFF" font-family="sans-serif" font-size="13" lengthAdjust="spacing" textLength="204" x="400.5" y="651.7231">GET /directory/location-directory</text><polygon fill="#E7E7E7" points="340,681.9219,330,685.9219,340,689.9219,336,685.9219" style="stroke:#E7E7E7;stroke-width:1.0;"/><line style="stroke:#E7E7E7;stroke-width:1.0;stroke-dasharray:2.0,2.0;" x1="334" x2="616" y1="685.9219" y2="685.9219"/><text fill="#FFFFFF" font-family="sans-serif" font-size="13" font-weight="bold" lengthAdjust="spacing" textLength="55" x="420.5" y="680.856">3.15.13</text><text fill="#FFFFFF" font-family="sans-serif" font-size="13" lengthAdjust="spacing" textLength="46" x="479.5" y="680.856">200 OK</text><path d="M10,707.9219 L80,707.9219 L80,715.0547 L70,725.0547 L10,725.0547 L10,707.9219 " fill="#555555" style="stroke:#FFFFFF;stroke-width:1.5;"/><rect fill="none" height="75.3984" style="stroke:#FFFFFF;stroke-width:1.5;" width="636.5" x="10" y="707.9219"/><text fill="#FFFFFF" font-family="sans-serif" font-size="13" font-weight="bold" lengthAdjust="spacing" textLength="25" x="25" y="720.9888">opt</text><text fill="#FFFFFF" font-family="sans-serif" font-size="11" font-weight="bold" lengthAdjust="spacing" textLength="220" x="95" y="720.1323">[&#1072;&#1074;&#1090;&#1086;&#1079;&#1072;&#1087;&#1086;&#1083;&#1085;&#1077;&#1085;&#1080;&#1077; &#1086;&#1090;&#1082;&#1083;&#1080;&#1082;&#1072; (&#1085;&#1072;&#1081;&#1084;)]</text><polygon fill="#E7E7E7" points="317,742.1875,327,746.1875,317,750.1875,321,746.1875" style="stroke:#E7E7E7;stroke-width:1.0;"/><line style="stroke:#E7E7E7;stroke-width:1.0;" x1="39" x2="323" y1="746.1875" y2="746.1875"/><text fill="#FFFFFF" font-family="sans-serif" font-size="13" font-weight="bold" lengthAdjust="spacing" textLength="46" x="51.5" y="741.1216">3.16.1</text><text fill="#FFFFFF" font-family="sans-serif" font-size="13" lengthAdjust="spacing" textLength="215" x="101.5" y="741.1216">&#1042;&#1089;&#1090;&#1072;&#1074;&#1083;&#1103;&#1077;&#1090; &#1089;&#1089;&#1099;&#1083;&#1082;&#1091; &#1085;&#1072; &#1074;&#1072;&#1082;&#1072;&#1085;&#1089;&#1080;&#1102;</text><polygon fill="#E7E7E7" points="605,771.3203,615,775.3203,605,779.3203,609,775.3203" style="stroke:#E7E7E7;stroke-width:1.0;"/><line style="stroke:#E7E7E7;stroke-width:1.0;" x1="329" x2="611" y1="775.3203" y2="775.3203"/><text fill="#FFFFFF" font-family="sans-serif" font-size="13" font-weight="bold" lengthAdjust="spacing" textLength="46" x="372.5" y="770.2544">3.16.2</text><text fill="#FFFFFF" font-family="sans-serif" font-size="13" lengthAdjust="spacing" textLength="151" x="422.5" y="770.2544">GET /external/get-by-url</text><path d="M10,797.3203 L80,797.3203 L80,804.4531 L70,814.4531 L10,814.4531 L10,797.3203 " fill="#555555" style="stroke:#FFFFFF;stroke-width:1.5;"/><rect fill="none" height="133.6641" style="stroke:#FFFFFF;stroke-width:1.5;" width="636.5" x="10" y="797.3203"/><text fill="#FFFFFF" font-family="sans-serif" font-size="13" font-weight="bold" lengthAdjust="spacing" textLength="25" x="25" y="810.3872">opt</text><polygon fill="#E7E7E7" points="317,831.5859,327,835.5859,317,839.5859,321,835.5859" style="stroke:#E7E7E7;stroke-width:1.0;"/><line style="stroke:#E7E7E7;stroke-width:1.0;" x1="39" x2="323" y1="835.5859" y2="835.5859"/><text fill="#FFFFFF" font-family="sans-serif" font-size="13" font-weight="bold" lengthAdjust="spacing" textLength="46" x="91" y="830.52">3.17.1</text><text fill="#FFFFFF" font-family="sans-serif" font-size="13" lengthAdjust="spacing" textLength="136" x="141" y="830.52">&#1054;&#1089;&#1090;&#1072;&#1074;&#1083;&#1103;&#1077;&#1090; &#1079;&#1072;&#1084;&#1077;&#1090;&#1082;&#1080;</text><polygon fill="#E7E7E7" points="317,860.7188,327,864.7188,317,868.7188,321,864.7188" style="stroke:#E7E7E7;stroke-width:1.0;"/><line style="stroke:#E7E7E7;stroke-width:1.0;" x1="39" x2="323" y1="864.7188" y2="864.7188"/><text fill="#FFFFFF" font-family="sans-serif" font-size="13" font-weight="bold" lengthAdjust="spacing" textLength="46" x="90" y="859.6528">3.17.2</text><text fill="#FFFFFF" font-family="sans-serif" font-size="13" lengthAdjust="spacing" textLength="138" x="140" y="859.6528">&#1044;&#1086;&#1073;&#1072;&#1074;&#1083;&#1103;&#1077;&#1090; &#1082;&#1086;&#1085;&#1090;&#1072;&#1082;&#1090;</text><polygon fill="#E7E7E7" points="605,889.8516,615,893.8516,605,897.8516,609,893.8516" style="stroke:#E7E7E7;stroke-width:1.0;"/><line style="stroke:#E7E7E7;stroke-width:1.0;" x1="329" x2="611" y1="893.8516" y2="893.8516"/><text fill="#FFFFFF" font-family="sans-serif" font-size="13" font-weight="bold" lengthAdjust="spacing" textLength="46" x="341" y="888.7856">3.17.3</text><text fill="#FFFFFF" font-family="sans-serif" font-size="13" lengthAdjust="spacing" textLength="214" x="391" y="888.7856">POST /vacancies/contacts/several</text><polygon fill="#E7E7E7" points="340,918.9844,330,922.9844,340,926.9844,336,922.9844" style="stroke:#E7E7E7;stroke-width:1.0;"/><line style="stroke:#E7E7E7;stroke-width:1.0;stroke-dasharray:2.0,2.0;" x1="334" x2="616" y1="922.9844" y2="922.9844"/><text fill="#FFFFFF" font-family="sans-serif" font-size="13" font-weight="bold" lengthAdjust="spacing" textLength="46" x="408.5" y="917.9185">3.17.4</text><text fill="#FFFFFF" font-family="sans-serif" font-size="13" lengthAdjust="spacing" textLength="79" x="458.5" y="917.9185">201 Created</text><polygon fill="#E7E7E7" points="317,955.1172,327,959.1172,317,963.1172,321,959.1172" style="stroke:#E7E7E7;stroke-width:1.0;"/><line style="stroke:#E7E7E7;stroke-width:1.0;" x1="39" x2="323" y1="959.1172" y2="959.1172"/><text fill="#FFFFFF" font-family="sans-serif" font-size="13" font-weight="bold" lengthAdjust="spacing" textLength="46" x="78" y="954.0513">3.18.1</text><text fill="#FFFFFF" font-family="sans-serif" font-size="13" lengthAdjust="spacing" textLength="162" x="128" y="954.0513">&#1053;&#1072;&#1078;&#1080;&#1084;&#1072;&#1077;&#1090; "&#1054;&#1090;&#1087;&#1088;&#1072;&#1074;&#1080;&#1090;&#1100;"</text><polygon fill="#E7E7E7" points="605,984.25,615,988.25,605,992.25,609,988.25" style="stroke:#E7E7E7;stroke-width:1.0;"/><line style="stroke:#E7E7E7;stroke-width:1.0;" x1="329" x2="611" y1="988.25" y2="988.25"/><text fill="#FFFFFF" font-family="sans-serif" font-size="13" font-weight="bold" lengthAdjust="spacing" textLength="46" x="431" y="983.1841">3.18.2</text><text fill="#FFFFFF" font-family="sans-serif" font-size="13" lengthAdjust="spacing" textLength="34" x="481" y="983.1841">POST</text><polygon fill="#E7E7E7" points="340,1013.3828,330,1017.3828,340,1021.3828,336,1017.3828" style="stroke:#E7E7E7;stroke-width:1.0;"/><line style="stroke:#E7E7E7;stroke-width:1.0;stroke-dasharray:2.0,2.0;" x1="334" x2="616" y1="1017.3828" y2="1017.3828"/><text fill="#FFFFFF" font-family="sans-serif" font-size="13" font-weight="bold" lengthAdjust="spacing" textLength="46" x="408.5" y="1012.3169">3.18.3</text><text fill="#FFFFFF" font-family="sans-serif" font-size="13" lengthAdjust="spacing" textLength="79" x="458.5" y="1012.3169">201 Created</text><!--SRC=[dLJTQXD15BxVfnXwfHVRDFuZeeY8Y4W5xRLCDiUuTBiRPsQBkMlIeeZIWWXUwPKF48EnQTAaht3cZVncDwb9Dea_5mk7sJFx_Pplh0bDH88_SvlFUCG37d8NJu-xWllSjdksnIFx5dLFe6YX6E0jNdcUtWxZkbHoHsXwbL8Sq6FIMjReRXJMOX5GR4XvdWnCeiIMHerk4mPXNSP6R3tqgjB8YjGaAZBOHcDgaZZTgP0IbzVBLzRBdhia_Dle5JS5VmB1xo3QuPvjsGy2F4VSiU_vP8QQXsxSST_4hGVtdubIDLJaM3HAGV8oKKRV2P9KQNeULbttBT-Vj5_Qs12RZt9WTvmZVyFtz_YKsu9_yC0UvNXdE7DiuCqy-Qi5ybCEsoFksfPmQkmxksyF1MWFxS44nBw1m4FFkJMbPImbIW9fmYJsppKjKR3IX2XH-Z_kfKfXp8q_OLDSXI6H4VO0YdhGt8Q-fk1Z58WE7w-4UQ688eau-HfJ2cW9KugGdEd1kq1WGfqn212TZzafdpXZLwBkoa0wRJdclvlpjuF9pPb9opMa9QaRuTBazYtpgR2ECzidBanaNPmBsaVRHAFBvM0SD1mqiIK3xjlznHuj44QliRonZ4erCdwbuQSgMaJzUavzZiFN0eTCqgahitLPjjZdxNqS3RDlz6rhbjwJpQVWbuyh98qqnmR_65tIj4jAHWNRo-AU8ccekaZ0ZSAcVW7eJxYCm6HSrY3dzx9dlvwr8gFbgBy0]--></g></svg>