<?xml version="1.0" encoding="us-ascii" standalone="no"?><svg xmlns="http://www.w3.org/2000/svg" xmlns:xlink="http://www.w3.org/1999/xlink" contentStyleType="text/css" height="749px" preserveAspectRatio="none" style="width:924px;height:749px;background:#1B1B1B;" version="1.1" viewBox="0 0 924 749" width="924px" zoomAndPan="magnify"><defs/><g><rect fill="#1B1B1B" height="749" style="stroke:none;stroke-width:1.0;" width="924" x="0" y="0"/><text fill="#FFFFFF" font-family="sans-serif" font-size="14" font-weight="bold" lengthAdjust="spacing" textLength="118" x="404.5" y="27.9951">&#1059;&#1093;&#1086;&#1076; &#1074; &#1086;&#1090;&#1087;&#1091;&#1089;&#1082;</text><rect fill="none" height="516.3906" style="stroke:#FFFFFF;stroke-width:1.5;" width="908" x="10" y="135.5938"/><rect fill="none" height="75.3984" style="stroke:#FFFFFF;stroke-width:1.5;" width="888" x="20" y="392.7891"/><rect fill="none" height="133.6641" style="stroke:#FFFFFF;stroke-width:1.5;" width="888" x="20" y="511.3203"/><line style="stroke:#E7E7E7;stroke-width:0.5;stroke-dasharray:5.0,5.0;" x1="48" x2="48" y1="118.5938" y2="668.9844"/><line style="stroke:#E7E7E7;stroke-width:0.5;stroke-dasharray:5.0,5.0;" x1="640" x2="640" y1="118.5938" y2="668.9844"/><line style="stroke:#E7E7E7;stroke-width:0.5;stroke-dasharray:5.0,5.0;" x1="877" x2="877" y1="118.5938" y2="668.9844"/><text fill="#FFFFFF" font-family="sans-serif" font-size="14" lengthAdjust="spacing" textLength="31" x="30" y="115.292">User</text><ellipse cx="48.5" cy="50.7969" fill="#222222" rx="8" ry="8" style="stroke:#E7E7E7;stroke-width:0.5;"/><path d="M48.5,58.7969 L48.5,85.7969 M35.5,66.7969 L61.5,66.7969 M48.5,85.7969 L35.5,100.7969 M48.5,85.7969 L61.5,100.7969 " fill="none" style="stroke:#E7E7E7;stroke-width:0.5;"/><text fill="#FFFFFF" font-family="sans-serif" font-size="14" lengthAdjust="spacing" textLength="31" x="30" y="680.9795">User</text><ellipse cx="48.5" cy="692.7813" fill="#222222" rx="8" ry="8" style="stroke:#E7E7E7;stroke-width:0.5;"/><path d="M48.5,700.7813 L48.5,727.7813 M35.5,708.7813 L61.5,708.7813 M48.5,727.7813 L35.5,742.7813 M48.5,727.7813 L61.5,742.7813 " fill="none" style="stroke:#E7E7E7;stroke-width:0.5;"/><rect fill="#222222" height="30.2969" rx="2.5" ry="2.5" style="stroke:#E7E7E7;stroke-width:0.5;" width="27" x="627" y="87.2969"/><text fill="#FFFFFF" font-family="sans-serif" font-size="14" lengthAdjust="spacing" textLength="13" x="634" y="107.292">UI</text><rect fill="#222222" height="30.2969" rx="2.5" ry="2.5" style="stroke:#E7E7E7;stroke-width:0.5;" width="27" x="627" y="667.9844"/><text fill="#FFFFFF" font-family="sans-serif" font-size="14" lengthAdjust="spacing" textLength="13" x="634" y="687.9795">UI</text><text fill="#FFFFFF" font-family="sans-serif" font-size="14" lengthAdjust="spacing" textLength="35" x="857" y="115.292">back</text><path d="M859.5,66.2969 C859.5,56.2969 877.5,56.2969 877.5,56.2969 C877.5,56.2969 895.5,56.2969 895.5,66.2969 L895.5,92.2969 C895.5,102.2969 877.5,102.2969 877.5,102.2969 C877.5,102.2969 859.5,102.2969 859.5,92.2969 L859.5,66.2969 " fill="#222222" style="stroke:#E7E7E7;stroke-width:1.5;"/><path d="M859.5,66.2969 C859.5,76.2969 877.5,76.2969 877.5,76.2969 C877.5,76.2969 895.5,76.2969 895.5,66.2969 " fill="none" style="stroke:#E7E7E7;stroke-width:1.5;"/><text fill="#FFFFFF" font-family="sans-serif" font-size="14" lengthAdjust="spacing" textLength="35" x="857" y="680.9795">back</text><path d="M859.5,694.2813 C859.5,684.2813 877.5,684.2813 877.5,684.2813 C877.5,684.2813 895.5,684.2813 895.5,694.2813 L895.5,720.2813 C895.5,730.2813 877.5,730.2813 877.5,730.2813 C877.5,730.2813 859.5,730.2813 859.5,720.2813 L859.5,694.2813 " fill="#222222" style="stroke:#E7E7E7;stroke-width:1.5;"/><path d="M859.5,694.2813 C859.5,704.2813 877.5,704.2813 877.5,704.2813 C877.5,704.2813 895.5,704.2813 895.5,694.2813 " fill="none" style="stroke:#E7E7E7;stroke-width:1.5;"/><path d="M10,135.5938 L76,135.5938 L76,142.7266 L66,152.7266 L10,152.7266 L10,135.5938 " fill="#555555" style="stroke:#FFFFFF;stroke-width:1.5;"/><rect fill="none" height="516.3906" style="stroke:#FFFFFF;stroke-width:1.5;" width="908" x="10" y="135.5938"/><text fill="#FFFFFF" font-family="sans-serif" font-size="13" font-weight="bold" lengthAdjust="spacing" textLength="21" x="25" y="148.6606">alt</text><text fill="#FFFFFF" font-family="sans-serif" font-size="11" font-weight="bold" lengthAdjust="spacing" textLength="115" x="91" y="147.8042">[Successful case]</text><polygon fill="#E7E7E7" points="628.5,169.8594,638.5,173.8594,628.5,177.8594,632.5,173.8594" style="stroke:#E7E7E7;stroke-width:1.0;"/><line style="stroke:#E7E7E7;stroke-width:1.0;" x1="48.5" x2="634.5" y1="173.8594" y2="173.8594"/><text fill="#FFFFFF" font-family="sans-serif" font-size="13" font-weight="bold" lengthAdjust="spacing" textLength="37" x="55.5" y="168.7935">5.1.1</text><text fill="#FFFFFF" font-family="sans-serif" font-size="13" lengthAdjust="spacing" textLength="210" x="96.5" y="168.7935">&#1042;&#1099;&#1073;&#1088;&#1072;&#1090;&#1100; &#1086;&#1087;&#1094;&#1080;&#1102; "&#1059;&#1081;&#1090;&#1080; &#1074; &#1086;&#1090;&#1087;&#1091;&#1089;&#1082;"</text><polygon fill="#E7E7E7" points="59.5,198.9922,49.5,202.9922,59.5,206.9922,55.5,202.9922" style="stroke:#E7E7E7;stroke-width:1.0;"/><line style="stroke:#E7E7E7;stroke-width:1.0;stroke-dasharray:2.0,2.0;" x1="53.5" x2="639.5" y1="202.9922" y2="202.9922"/><text fill="#FFFFFF" font-family="sans-serif" font-size="13" font-weight="bold" lengthAdjust="spacing" textLength="37" x="65.5" y="197.9263">5.1.2</text><text fill="#FFFFFF" font-family="sans-serif" font-size="13" lengthAdjust="spacing" textLength="249" x="106.5" y="197.9263">&#1054;&#1090;&#1086;&#1073;&#1088;&#1072;&#1078;&#1077;&#1085;&#1080;&#1077; &#1092;&#1086;&#1088;&#1084;&#1099; &#1091;&#1093;&#1086;&#1076;&#1072; &#1074; &#1086;&#1090;&#1087;&#1091;&#1089;&#1082;</text><polygon fill="#E7E7E7" points="628.5,228.125,638.5,232.125,628.5,236.125,632.5,232.125" style="stroke:#E7E7E7;stroke-width:1.0;"/><line style="stroke:#E7E7E7;stroke-width:1.0;" x1="48.5" x2="634.5" y1="232.125" y2="232.125"/><text fill="#FFFFFF" font-family="sans-serif" font-size="13" font-weight="bold" lengthAdjust="spacing" textLength="36" x="55.5" y="227.0591">5.1.3</text><text fill="#FFFFFF" font-family="sans-serif" font-size="13" lengthAdjust="spacing" textLength="528" x="95.5" y="227.0591">&#1047;&#1072;&#1087;&#1086;&#1083;&#1085;&#1080;&#1090;&#1100; &#1092;&#1086;&#1088;&#1084;&#1091; &#1091;&#1093;&#1086;&#1076;&#1072; &#1074; &#1086;&#1090;&#1087;&#1091;&#1089;&#1082; (&#1084;&#1080;&#1085;&#1080;&#1084;&#1072;&#1083;&#1100;&#1085;&#1086;&#1077; &#1082;&#1086;&#1083;&#1080;&#1095;&#1077;&#1089;&#1090;&#1074;&#1086; &#1076;&#1085;&#1077;&#1081; &#1086;&#1090;&#1087;&#1091;&#1089;&#1082;&#1072; - 7)</text><polygon fill="#E7E7E7" points="628.5,257.2578,638.5,261.2578,628.5,265.2578,632.5,261.2578" style="stroke:#E7E7E7;stroke-width:1.0;"/><line style="stroke:#E7E7E7;stroke-width:1.0;" x1="48.5" x2="634.5" y1="261.2578" y2="261.2578"/><text fill="#FFFFFF" font-family="sans-serif" font-size="13" font-weight="bold" lengthAdjust="spacing" textLength="37" x="55.5" y="256.1919">5.2.1</text><text fill="#FFFFFF" font-family="sans-serif" font-size="13" lengthAdjust="spacing" textLength="278" x="96.5" y="256.1919">&#1053;&#1072;&#1078;&#1072;&#1090;&#1100; &#1085;&#1072; &#1082;&#1085;&#1086;&#1087;&#1082;&#1091; &#1086;&#1090;&#1087;&#1088;&#1072;&#1074;&#1080;&#1090;&#1100; "&#1054;&#1090;&#1087;&#1088;&#1072;&#1074;&#1080;&#1090;&#1100;"</text><polygon fill="#E7E7E7" points="865.5,286.3906,875.5,290.3906,865.5,294.3906,869.5,290.3906" style="stroke:#E7E7E7;stroke-width:1.0;"/><line style="stroke:#E7E7E7;stroke-width:1.0;" x1="640.5" x2="871.5" y1="290.3906" y2="290.3906"/><text fill="#FFFFFF" font-family="sans-serif" font-size="13" font-weight="bold" lengthAdjust="spacing" textLength="37" x="647.5" y="285.3247">5.2.2</text><text fill="#FFFFFF" font-family="sans-serif" font-size="13" lengthAdjust="spacing" textLength="95" x="688.5" y="285.3247">POST /holidays</text><polygon fill="#E7E7E7" points="651.5,315.5234,641.5,319.5234,651.5,323.5234,647.5,319.5234" style="stroke:#E7E7E7;stroke-width:1.0;"/><line style="stroke:#E7E7E7;stroke-width:1.0;stroke-dasharray:2.0,2.0;" x1="645.5" x2="876.5" y1="319.5234" y2="319.5234"/><text fill="#FFFFFF" font-family="sans-serif" font-size="13" font-weight="bold" lengthAdjust="spacing" textLength="36" x="657.5" y="314.4575">5.2.3</text><text fill="#FFFFFF" font-family="sans-serif" font-size="13" lengthAdjust="spacing" textLength="71" x="697.5" y="314.4575">201 Create</text><polygon fill="#E7E7E7" points="865.5,344.6563,875.5,348.6563,865.5,352.6563,869.5,348.6563" style="stroke:#E7E7E7;stroke-width:1.0;"/><line style="stroke:#E7E7E7;stroke-width:1.0;" x1="640.5" x2="871.5" y1="348.6563" y2="348.6563"/><text fill="#FFFFFF" font-family="sans-serif" font-size="13" font-weight="bold" lengthAdjust="spacing" textLength="37" x="647.5" y="343.5903">5.2.4</text><text fill="#FFFFFF" font-family="sans-serif" font-size="13" lengthAdjust="spacing" textLength="89" x="688.5" y="343.5903">POST /signout</text><polygon fill="#E7E7E7" points="651.5,373.7891,641.5,377.7891,651.5,381.7891,647.5,377.7891" style="stroke:#E7E7E7;stroke-width:1.0;"/><line style="stroke:#E7E7E7;stroke-width:1.0;stroke-dasharray:2.0,2.0;" x1="645.5" x2="876.5" y1="377.7891" y2="377.7891"/><text fill="#FFFFFF" font-family="sans-serif" font-size="13" font-weight="bold" lengthAdjust="spacing" textLength="37" x="657.5" y="372.7231">5.2.5</text><text fill="#FFFFFF" font-family="sans-serif" font-size="13" lengthAdjust="spacing" textLength="46" x="698.5" y="372.7231">200 OK</text><path d="M20,392.7891 L86,392.7891 L86,399.9219 L76,409.9219 L20,409.9219 L20,392.7891 " fill="#555555" style="stroke:#FFFFFF;stroke-width:1.5;"/><rect fill="none" height="75.3984" style="stroke:#FFFFFF;stroke-width:1.5;" width="888" x="20" y="392.7891"/><text fill="#FFFFFF" font-family="sans-serif" font-size="13" font-weight="bold" lengthAdjust="spacing" textLength="21" x="35" y="405.856">alt</text><text fill="#FFFFFF" font-family="sans-serif" font-size="11" font-weight="bold" lengthAdjust="spacing" textLength="65" x="101" y="404.9995">[&#1054;&#1096;&#1080;&#1073;&#1082;&#1072;]</text><polygon fill="#E7E7E7" points="651.5,427.0547,641.5,431.0547,651.5,435.0547,647.5,431.0547" style="stroke:#E7E7E7;stroke-width:1.0;"/><line style="stroke:#E7E7E7;stroke-width:1.0;stroke-dasharray:2.0,2.0;" x1="645.5" x2="876.5" y1="431.0547" y2="431.0547"/><text fill="#FFFFFF" font-family="sans-serif" font-size="13" font-weight="bold" lengthAdjust="spacing" textLength="37" x="657.5" y="425.9888">5.2.6</text><text fill="#FFFFFF" font-family="sans-serif" font-size="13" lengthAdjust="spacing" textLength="112" x="698.5" y="425.9888">401 unauthorised</text><polygon fill="#E7E7E7" points="59.5,456.1875,49.5,460.1875,59.5,464.1875,55.5,460.1875" style="stroke:#E7E7E7;stroke-width:1.0;"/><line style="stroke:#E7E7E7;stroke-width:1.0;stroke-dasharray:2.0,2.0;" x1="53.5" x2="639.5" y1="460.1875" y2="460.1875"/><text fill="#FFFFFF" font-family="sans-serif" font-size="13" font-weight="bold" lengthAdjust="spacing" textLength="37" x="65.5" y="455.1216">5.2.7</text><text fill="#FFFFFF" font-family="sans-serif" font-size="13" lengthAdjust="spacing" textLength="222" x="106.5" y="455.1216">&#1047;&#1072;&#1082;&#1088;&#1099;&#1090;&#1080;&#1077; &#1092;&#1086;&#1088;&#1084;&#1099; &#1091;&#1093;&#1086;&#1076;&#1072; &#1074; &#1086;&#1090;&#1087;&#1091;&#1089;&#1082;</text><polygon fill="#E7E7E7" points="59.5,492.3203,49.5,496.3203,59.5,500.3203,55.5,496.3203" style="stroke:#E7E7E7;stroke-width:1.0;"/><line style="stroke:#E7E7E7;stroke-width:1.0;stroke-dasharray:2.0,2.0;" x1="53.5" x2="639.5" y1="496.3203" y2="496.3203"/><text fill="#FFFFFF" font-family="sans-serif" font-size="13" font-weight="bold" lengthAdjust="spacing" textLength="37" x="65.5" y="491.2544">5.2.8</text><text fill="#FFFFFF" font-family="sans-serif" font-size="13" lengthAdjust="spacing" textLength="297" x="106.5" y="491.2544">&#1054;&#1090;&#1086;&#1073;&#1088;&#1072;&#1078;&#1077;&#1085;&#1080;&#1077; &#1089;&#1086;&#1086;&#1073;&#1097;&#1077;&#1085;&#1080;&#1103; &#1086;&#1073; &#1091;&#1093;&#1086;&#1076;&#1077; &#1074; &#1086;&#1090;&#1087;&#1091;&#1089;&#1082;</text><path d="M20,511.3203 L92,511.3203 L92,518.4531 L82,528.4531 L20,528.4531 L20,511.3203 " fill="#555555" style="stroke:#FFFFFF;stroke-width:1.5;"/><rect fill="none" height="133.6641" style="stroke:#FFFFFF;stroke-width:1.5;" width="888" x="20" y="511.3203"/><text fill="#FFFFFF" font-family="sans-serif" font-size="13" font-weight="bold" lengthAdjust="spacing" textLength="27" x="35" y="524.3872">opt</text><polygon fill="#E7E7E7" points="628.5,545.5859,638.5,549.5859,628.5,553.5859,632.5,549.5859" style="stroke:#E7E7E7;stroke-width:1.0;"/><line style="stroke:#E7E7E7;stroke-width:1.0;" x1="48.5" x2="634.5" y1="549.5859" y2="549.5859"/><text fill="#FFFFFF" font-family="sans-serif" font-size="13" font-weight="bold" lengthAdjust="spacing" textLength="36" x="55.5" y="544.52">5.3.1</text><text fill="#FFFFFF" font-family="sans-serif" font-size="13" lengthAdjust="spacing" textLength="186" x="95.5" y="544.52">&#1053;&#1072;&#1078;&#1072;&#1090;&#1100; &#1085;&#1072; &#1079;&#1085;&#1072;&#1095;&#1086;&#1082; &#1082;&#1088;&#1077;&#1089;&#1090;&#1080;&#1082;&#1072;</text><polygon fill="#E7E7E7" points="865.5,574.7188,875.5,578.7188,865.5,582.7188,869.5,578.7188" style="stroke:#E7E7E7;stroke-width:1.0;"/><line style="stroke:#E7E7E7;stroke-width:1.0;" x1="640.5" x2="871.5" y1="578.7188" y2="578.7188"/><text fill="#FFFFFF" font-family="sans-serif" font-size="13" font-weight="bold" lengthAdjust="spacing" textLength="36" x="647.5" y="573.6528">5.3.2</text><text fill="#FFFFFF" font-family="sans-serif" font-size="13" lengthAdjust="spacing" textLength="173" x="687.5" y="573.6528">GET /reports/feed?limit=10</text><polygon fill="#E7E7E7" points="651.5,603.8516,641.5,607.8516,651.5,611.8516,647.5,607.8516" style="stroke:#E7E7E7;stroke-width:1.0;"/><line style="stroke:#E7E7E7;stroke-width:1.0;stroke-dasharray:2.0,2.0;" x1="645.5" x2="876.5" y1="607.8516" y2="607.8516"/><text fill="#FFFFFF" font-family="sans-serif" font-size="13" font-weight="bold" lengthAdjust="spacing" textLength="35" x="657.5" y="602.7856">5.3.3</text><text fill="#FFFFFF" font-family="sans-serif" font-size="13" lengthAdjust="spacing" textLength="46" x="696.5" y="602.7856">200 OK</text><polygon fill="#E7E7E7" points="59.5,632.9844,49.5,636.9844,59.5,640.9844,55.5,636.9844" style="stroke:#E7E7E7;stroke-width:1.0;"/><line style="stroke:#E7E7E7;stroke-width:1.0;stroke-dasharray:2.0,2.0;" x1="53.5" x2="639.5" y1="636.9844" y2="636.9844"/><text fill="#FFFFFF" font-family="sans-serif" font-size="13" font-weight="bold" lengthAdjust="spacing" textLength="36" x="65.5" y="631.9185">5.3.4</text><text fill="#FFFFFF" font-family="sans-serif" font-size="13" lengthAdjust="spacing" textLength="280" x="105.5" y="631.9185">&#1055;&#1086;&#1076;&#1090;&#1074;&#1077;&#1088;&#1078;&#1076;&#1077;&#1085;&#1080;&#1077; &#1086;&#1090;&#1084;&#1077;&#1085;&#1099; &#1086;&#1090;&#1087;&#1088;&#1072;&#1074;&#1082;&#1080; &#1092;&#1086;&#1088;&#1084;&#1099;</text><!--SRC=[ZLFBRjD05DtFLrnb1OkqIG4XLQ8i448LYoALVC34db8BruxiyO9Tql9KAf2wOGKi-WDDX4lg9iultFaZpemjYjCAkl7ZUkwvvvnxh0CTAk9JyuvB_aay9IxD8I_DaHbn8OJqT9nGBrM96CX41ruma96cthRmfPPzcIhgI-yr3eQQTZFFKscwbuNauOkGcOwZxA2l4dgmrbth2ej3xIsqRnAVc35Fp93FpA4vnbWCVSypyvbQVCeN835RfTCIlMrgstxW0E4xFfKL1fzppWkUSKxcBNg6F3TZGflJnMVNb3MeV0N04WSlBOIZymVaw1yWT8Vd66d7pe5mQOxnN8825mviPZvmRaPec799G5Y0v4K30g1jUdXNDBtQMFNgcrDOExMmJ0etQia56DQ0rePfpR_bp6dKAlUstBuswSNExajQtu_3m9TlKc6BbRKOjz7fqfD4IQrkQ4c3Lr6SwTME3kqyhrA0oH_XoCIAQvww3zmiWjBzE0bIvQ-iqswXC4Cpjhk_zI9Lv8lRvMA4eYr_gahcYmtTv0exlnx_UA2Rcxdt_ytyiZTilaH0h9uw0ZFdnzz-FdiAEnCrY1EThkyfvJyEWuD0F-fsRZItgV67fUoIbMF4kQLVwtGAvlOLnZMYKU2NkZArSWwNtm00]--></g></svg>