<?xml version="1.0" encoding="us-ascii" standalone="no"?><svg xmlns="http://www.w3.org/2000/svg" xmlns:xlink="http://www.w3.org/1999/xlink" contentStyleType="text/css" height="1128px" preserveAspectRatio="none" style="width:811px;height:1128px;background:#1B1B1B;" version="1.1" viewBox="0 0 811 1128" width="811px" zoomAndPan="magnify"><defs/><g><rect fill="#1B1B1B" height="1128" style="stroke:none;stroke-width:1.0;" width="811" x="0" y="0"/><text fill="#FFFFFF" font-family="sans-serif" font-size="14" font-weight="bold" lengthAdjust="spacing" textLength="77" x="368.75" y="27.9951">&#1042;&#1072;&#1082;&#1072;&#1085;&#1089;&#1080;&#1080;</text><rect fill="none" height="133.6641" style="stroke:#FFFFFF;stroke-width:1.5;" width="439" x="366.5" y="339.5234"/><rect fill="none" height="191.9297" style="stroke:#FFFFFF;stroke-width:1.5;" width="795.5" x="10" y="661.9844"/><rect fill="none" height="162.7969" style="stroke:#FFFFFF;stroke-width:1.5;" width="795.5" x="10" y="867.9141"/><line style="stroke:#E7E7E7;stroke-width:0.5;stroke-dasharray:5.0,5.0;" x1="39" x2="39" y1="118.5938" y2="1047.7109"/><line style="stroke:#E7E7E7;stroke-width:0.5;stroke-dasharray:5.0,5.0;" x1="389.5" x2="389.5" y1="118.5938" y2="1047.7109"/><line style="stroke:#E7E7E7;stroke-width:0.5;stroke-dasharray:5.0,5.0;" x1="775.5" x2="775.5" y1="118.5938" y2="1047.7109"/><text fill="#FFFFFF" font-family="sans-serif" font-size="14" lengthAdjust="spacing" textLength="32" x="20" y="115.292">User</text><ellipse cx="39" cy="50.7969" fill="#222222" rx="8" ry="8" style="stroke:#E7E7E7;stroke-width:0.5;"/><path d="M39,58.7969 L39,85.7969 M26,66.7969 L52,66.7969 M39,85.7969 L26,100.7969 M39,85.7969 L52,100.7969 " fill="none" style="stroke:#E7E7E7;stroke-width:0.5;"/><text fill="#FFFFFF" font-family="sans-serif" font-size="14" lengthAdjust="spacing" textLength="32" x="20" y="1059.7061">User</text><ellipse cx="39" cy="1071.5078" fill="#222222" rx="8" ry="8" style="stroke:#E7E7E7;stroke-width:0.5;"/><path d="M39,1079.5078 L39,1106.5078 M26,1087.5078 L52,1087.5078 M39,1106.5078 L26,1121.5078 M39,1106.5078 L52,1121.5078 " fill="none" style="stroke:#E7E7E7;stroke-width:0.5;"/><rect fill="#222222" height="30.2969" rx="2.5" ry="2.5" style="stroke:#E7E7E7;stroke-width:0.5;" width="27" x="376.5" y="87.2969"/><text fill="#FFFFFF" font-family="sans-serif" font-size="14" lengthAdjust="spacing" textLength="13" x="383.5" y="107.292">UI</text><rect fill="#222222" height="30.2969" rx="2.5" ry="2.5" style="stroke:#E7E7E7;stroke-width:0.5;" width="27" x="376.5" y="1046.7109"/><text fill="#FFFFFF" font-family="sans-serif" font-size="14" lengthAdjust="spacing" textLength="13" x="383.5" y="1066.7061">UI</text><text fill="#FFFFFF" font-family="sans-serif" font-size="14" lengthAdjust="spacing" textLength="33" x="756.5" y="115.292">back</text><path d="M758,66.2969 C758,56.2969 776,56.2969 776,56.2969 C776,56.2969 794,56.2969 794,66.2969 L794,92.2969 C794,102.2969 776,102.2969 776,102.2969 C776,102.2969 758,102.2969 758,92.2969 L758,66.2969 " fill="#222222" style="stroke:#E7E7E7;stroke-width:1.5;"/><path d="M758,66.2969 C758,76.2969 776,76.2969 776,76.2969 C776,76.2969 794,76.2969 794,66.2969 " fill="none" style="stroke:#E7E7E7;stroke-width:1.5;"/><text fill="#FFFFFF" font-family="sans-serif" font-size="14" lengthAdjust="spacing" textLength="33" x="756.5" y="1059.7061">back</text><path d="M758,1073.0078 C758,1063.0078 776,1063.0078 776,1063.0078 C776,1063.0078 794,1063.0078 794,1073.0078 L794,1099.0078 C794,1109.0078 776,1109.0078 776,1109.0078 C776,1109.0078 758,1109.0078 758,1099.0078 L758,1073.0078 " fill="#222222" style="stroke:#E7E7E7;stroke-width:1.5;"/><path d="M758,1073.0078 C758,1083.0078 776,1083.0078 776,1083.0078 C776,1083.0078 794,1083.0078 794,1073.0078 " fill="none" style="stroke:#E7E7E7;stroke-width:1.5;"/><polygon fill="#E7E7E7" points="378,145.7266,388,149.7266,378,153.7266,382,149.7266" style="stroke:#E7E7E7;stroke-width:1.0;"/><line style="stroke:#E7E7E7;stroke-width:1.0;" x1="39" x2="384" y1="149.7266" y2="149.7266"/><text fill="#FFFFFF" font-family="sans-serif" font-size="13" font-weight="bold" lengthAdjust="spacing" textLength="37" x="103" y="144.6606">3.1.1</text><text fill="#FFFFFF" font-family="sans-serif" font-size="13" lengthAdjust="spacing" textLength="182" x="144" y="144.6606">&#1054;&#1090;&#1082;&#1088;&#1099;&#1090;&#1100; &#1088;&#1072;&#1079;&#1076;&#1077;&#1083; &#1074;&#1072;&#1082;&#1072;&#1085;&#1089;&#1080;&#1081;</text><polygon fill="#E7E7E7" points="764,174.8594,774,178.8594,764,182.8594,768,178.8594" style="stroke:#E7E7E7;stroke-width:1.0;"/><line style="stroke:#E7E7E7;stroke-width:1.0;" x1="390" x2="770" y1="178.8594" y2="178.8594"/><text fill="#FFFFFF" font-family="sans-serif" font-size="13" font-weight="bold" lengthAdjust="spacing" textLength="37" x="469.5" y="173.7935">3.1.2</text><text fill="#FFFFFF" font-family="sans-serif" font-size="13" lengthAdjust="spacing" textLength="186" x="510.5" y="173.7935">GET /terms-of-use-text/latest</text><polygon fill="#E7E7E7" points="401,203.9922,391,207.9922,401,211.9922,397,207.9922" style="stroke:#E7E7E7;stroke-width:1.0;"/><line style="stroke:#E7E7E7;stroke-width:1.0;stroke-dasharray:2.0,2.0;" x1="395" x2="775" y1="207.9922" y2="207.9922"/><text fill="#FFFFFF" font-family="sans-serif" font-size="13" font-weight="bold" lengthAdjust="spacing" textLength="37" x="539.5" y="202.9263">3.1.3</text><text fill="#FFFFFF" font-family="sans-serif" font-size="13" lengthAdjust="spacing" textLength="46" x="580.5" y="202.9263">200 OK</text><polygon fill="#E7E7E7" points="50,233.125,40,237.125,50,241.125,46,237.125" style="stroke:#E7E7E7;stroke-width:1.0;"/><line style="stroke:#E7E7E7;stroke-width:1.0;stroke-dasharray:2.0,2.0;" x1="44" x2="389" y1="237.125" y2="237.125"/><text fill="#FFFFFF" font-family="sans-serif" font-size="13" font-weight="bold" lengthAdjust="spacing" textLength="37" x="124.5" y="232.0591">3.1.4</text><text fill="#FFFFFF" font-family="sans-serif" font-size="13" lengthAdjust="spacing" textLength="139" x="165.5" y="232.0591">&#1060;&#1086;&#1088;&#1084;&#1072; &#1076;&#1083;&#1103; &#1089;&#1086;&#1075;&#1083;&#1072;&#1089;&#1080;&#1103;</text><polygon fill="#E7E7E7" points="378,262.2578,388,266.2578,378,270.2578,382,266.2578" style="stroke:#E7E7E7;stroke-width:1.0;"/><line style="stroke:#E7E7E7;stroke-width:1.0;" x1="39" x2="384" y1="266.2578" y2="266.2578"/><text fill="#FFFFFF" font-family="sans-serif" font-size="13" font-weight="bold" lengthAdjust="spacing" textLength="37" x="51" y="261.1919">3.2.1</text><text fill="#FFFFFF" font-family="sans-serif" font-size="13" lengthAdjust="spacing" textLength="286" x="92" y="261.1919">&#1057;&#1090;&#1072;&#1074;&#1080;&#1090; &#1075;&#1072;&#1083;&#1086;&#1095;&#1082;&#1091; &#1074; &#1095;&#1077;&#1082;&#1073;&#1086;&#1082;&#1089;&#1077; &#1080; &#1086;&#1090;&#1087;&#1088;&#1072;&#1074;&#1083;&#1103;&#1077;&#1090;</text><polygon fill="#E7E7E7" points="764,291.3906,774,295.3906,764,299.3906,768,295.3906" style="stroke:#E7E7E7;stroke-width:1.0;"/><line style="stroke:#E7E7E7;stroke-width:1.0;" x1="390" x2="770" y1="295.3906" y2="295.3906"/><text fill="#FFFFFF" font-family="sans-serif" font-size="13" font-weight="bold" lengthAdjust="spacing" textLength="37" x="485" y="290.3247">3.2.2</text><text fill="#FFFFFF" font-family="sans-serif" font-size="13" lengthAdjust="spacing" textLength="155" x="526" y="290.3247">POST /terms-of-use-text</text><polygon fill="#E7E7E7" points="401,320.5234,391,324.5234,401,328.5234,397,324.5234" style="stroke:#E7E7E7;stroke-width:1.0;"/><line style="stroke:#E7E7E7;stroke-width:1.0;stroke-dasharray:2.0,2.0;" x1="395" x2="775" y1="324.5234" y2="324.5234"/><text fill="#FFFFFF" font-family="sans-serif" font-size="13" font-weight="bold" lengthAdjust="spacing" textLength="37" x="523" y="319.4575">3.2.3</text><text fill="#FFFFFF" font-family="sans-serif" font-size="13" lengthAdjust="spacing" textLength="79" x="564" y="319.4575">201 Created</text><path d="M366.5,339.5234 L436.5,339.5234 L436.5,346.6563 L426.5,356.6563 L366.5,356.6563 L366.5,339.5234 " fill="#555555" style="stroke:#FFFFFF;stroke-width:1.5;"/><rect fill="none" height="133.6641" style="stroke:#FFFFFF;stroke-width:1.5;" width="439" x="366.5" y="339.5234"/><text fill="#FFFFFF" font-family="sans-serif" font-size="13" font-weight="bold" lengthAdjust="spacing" textLength="25" x="381.5" y="352.5903">par</text><polygon fill="#E7E7E7" points="764,373.7891,774,377.7891,764,381.7891,768,377.7891" style="stroke:#E7E7E7;stroke-width:1.0;"/><line style="stroke:#E7E7E7;stroke-width:1.0;" x1="390" x2="770" y1="377.7891" y2="377.7891"/><text fill="#FFFFFF" font-family="sans-serif" font-size="13" font-weight="bold" lengthAdjust="spacing" textLength="37" x="402" y="372.7231">3.2.4</text><text fill="#FFFFFF" font-family="sans-serif" font-size="13" lengthAdjust="spacing" textLength="321" x="443" y="372.7231">GET /hr_part/vacancy/show_vacancies_for_student</text><polygon fill="#E7E7E7" points="401,402.9219,391,406.9219,401,410.9219,397,406.9219" style="stroke:#E7E7E7;stroke-width:1.0;"/><line style="stroke:#E7E7E7;stroke-width:1.0;stroke-dasharray:2.0,2.0;" x1="395" x2="775" y1="406.9219" y2="406.9219"/><text fill="#FFFFFF" font-family="sans-serif" font-size="13" font-weight="bold" lengthAdjust="spacing" textLength="37" x="539.5" y="401.856">3.2.5</text><text fill="#FFFFFF" font-family="sans-serif" font-size="13" lengthAdjust="spacing" textLength="46" x="580.5" y="401.856">200 OK</text><polygon fill="#E7E7E7" points="764,432.0547,774,436.0547,764,440.0547,768,436.0547" style="stroke:#E7E7E7;stroke-width:1.0;"/><line style="stroke:#E7E7E7;stroke-width:1.0;" x1="390" x2="770" y1="436.0547" y2="436.0547"/><text fill="#FFFFFF" font-family="sans-serif" font-size="13" font-weight="bold" lengthAdjust="spacing" textLength="37" x="520" y="430.9888">3.2.6</text><text fill="#FFFFFF" font-family="sans-serif" font-size="13" lengthAdjust="spacing" textLength="85" x="561" y="430.9888">GET /external</text><polygon fill="#E7E7E7" points="401,461.1875,391,465.1875,401,469.1875,397,465.1875" style="stroke:#E7E7E7;stroke-width:1.0;"/><line style="stroke:#E7E7E7;stroke-width:1.0;stroke-dasharray:2.0,2.0;" x1="395" x2="775" y1="465.1875" y2="465.1875"/><text fill="#FFFFFF" font-family="sans-serif" font-size="13" font-weight="bold" lengthAdjust="spacing" textLength="37" x="539.5" y="460.1216">3.2.7</text><text fill="#FFFFFF" font-family="sans-serif" font-size="13" lengthAdjust="spacing" textLength="46" x="580.5" y="460.1216">200 OK</text><polygon fill="#E7E7E7" points="50,497.3203,40,501.3203,50,505.3203,46,501.3203" style="stroke:#E7E7E7;stroke-width:1.0;"/><line style="stroke:#E7E7E7;stroke-width:1.0;stroke-dasharray:2.0,2.0;" x1="44" x2="389" y1="501.3203" y2="501.3203"/><text fill="#FFFFFF" font-family="sans-serif" font-size="13" font-weight="bold" lengthAdjust="spacing" textLength="37" x="116.5" y="496.2544">3.2.8</text><text fill="#FFFFFF" font-family="sans-serif" font-size="13" lengthAdjust="spacing" textLength="155" x="157.5" y="496.2544">&#1042;&#1072;&#1082;&#1072;&#1085;&#1089;&#1080;&#1080; &#1086;&#1090;&#1086;&#1073;&#1088;&#1072;&#1078;&#1077;&#1085;&#1099;</text><polygon fill="#E7E7E7" points="378,526.4531,388,530.4531,378,534.4531,382,530.4531" style="stroke:#E7E7E7;stroke-width:1.0;"/><line style="stroke:#E7E7E7;stroke-width:1.0;" x1="39" x2="384" y1="530.4531" y2="530.4531"/><text fill="#FFFFFF" font-family="sans-serif" font-size="13" font-weight="bold" lengthAdjust="spacing" textLength="37" x="96.5" y="525.3872">3.3.1</text><text fill="#FFFFFF" font-family="sans-serif" font-size="13" lengthAdjust="spacing" textLength="195" x="137.5" y="525.3872">&#1057;&#1086;&#1079;&#1076;&#1072;&#1090;&#1100; &#1087;&#1086;&#1076;&#1073;&#1086;&#1088;&#1082;&#1091; &#1074;&#1072;&#1082;&#1072;&#1085;&#1089;&#1080;&#1081;</text><polygon fill="#E7E7E7" points="50,555.5859,40,559.5859,50,563.5859,46,559.5859" style="stroke:#E7E7E7;stroke-width:1.0;"/><line style="stroke:#E7E7E7;stroke-width:1.0;stroke-dasharray:2.0,2.0;" x1="44" x2="389" y1="559.5859" y2="559.5859"/><text fill="#FFFFFF" font-family="sans-serif" font-size="13" font-weight="bold" lengthAdjust="spacing" textLength="37" x="103" y="554.52">3.3.2</text><text fill="#FFFFFF" font-family="sans-serif" font-size="13" lengthAdjust="spacing" textLength="182" x="144" y="554.52">&#1060;&#1086;&#1088;&#1084;&#1072; &#1089;&#1086;&#1079;&#1076;&#1072;&#1085;&#1080;&#1103; &#1087;&#1086;&#1076;&#1073;&#1086;&#1088;&#1082;&#1080;</text><polygon fill="#E7E7E7" points="378,584.7188,388,588.7188,378,592.7188,382,588.7188" style="stroke:#E7E7E7;stroke-width:1.0;"/><line style="stroke:#E7E7E7;stroke-width:1.0;" x1="39" x2="384" y1="588.7188" y2="588.7188"/><text fill="#FFFFFF" font-family="sans-serif" font-size="13" font-weight="bold" lengthAdjust="spacing" textLength="37" x="83.5" y="583.6528">3.3.3</text><text fill="#FFFFFF" font-family="sans-serif" font-size="13" lengthAdjust="spacing" textLength="221" x="124.5" y="583.6528">&#1047;&#1072;&#1087;&#1086;&#1083;&#1103;&#1085;&#1077;&#1090; &#1080; &#1085;&#1072;&#1078;&#1080;&#1084;&#1072;&#1077;&#1090; &#1089;&#1086;&#1079;&#1076;&#1072;&#1090;&#1100;</text><polygon fill="#E7E7E7" points="764,613.8516,774,617.8516,764,621.8516,768,617.8516" style="stroke:#E7E7E7;stroke-width:1.0;"/><line style="stroke:#E7E7E7;stroke-width:1.0;" x1="390" x2="770" y1="617.8516" y2="617.8516"/><text fill="#FFFFFF" font-family="sans-serif" font-size="13" font-weight="bold" lengthAdjust="spacing" textLength="37" x="509.5" y="612.7856">3.3.4</text><text fill="#FFFFFF" font-family="sans-serif" font-size="13" lengthAdjust="spacing" textLength="106" x="550.5" y="612.7856">POST /selections</text><polygon fill="#E7E7E7" points="401,642.9844,391,646.9844,401,650.9844,397,646.9844" style="stroke:#E7E7E7;stroke-width:1.0;"/><line style="stroke:#E7E7E7;stroke-width:1.0;stroke-dasharray:2.0,2.0;" x1="395" x2="775" y1="646.9844" y2="646.9844"/><text fill="#FFFFFF" font-family="sans-serif" font-size="13" font-weight="bold" lengthAdjust="spacing" textLength="37" x="523" y="641.9185">3.3.5</text><text fill="#FFFFFF" font-family="sans-serif" font-size="13" lengthAdjust="spacing" textLength="79" x="564" y="641.9185">201 Created</text><path d="M10,661.9844 L80,661.9844 L80,669.1172 L70,679.1172 L10,679.1172 L10,661.9844 " fill="#555555" style="stroke:#FFFFFF;stroke-width:1.5;"/><rect fill="none" height="191.9297" style="stroke:#FFFFFF;stroke-width:1.5;" width="795.5" x="10" y="661.9844"/><text fill="#FFFFFF" font-family="sans-serif" font-size="13" font-weight="bold" lengthAdjust="spacing" textLength="25" x="25" y="675.0513">opt</text><polygon fill="#E7E7E7" points="378,696.25,388,700.25,378,704.25,382,700.25" style="stroke:#E7E7E7;stroke-width:1.0;"/><line style="stroke:#E7E7E7;stroke-width:1.0;" x1="39" x2="384" y1="700.25" y2="700.25"/><text fill="#FFFFFF" font-family="sans-serif" font-size="13" font-weight="bold" lengthAdjust="spacing" textLength="37" x="72" y="695.1841">3.4.1</text><text fill="#FFFFFF" font-family="sans-serif" font-size="13" lengthAdjust="spacing" textLength="244" x="113" y="695.1841">&#1056;&#1077;&#1076;&#1072;&#1082;&#1090;&#1080;&#1088;&#1086;&#1074;&#1072;&#1090;&#1100; &#1087;&#1086;&#1076;&#1073;&#1086;&#1088;&#1082;&#1091; &#1074;&#1072;&#1082;&#1072;&#1085;&#1089;&#1080;&#1081;</text><polygon fill="#E7E7E7" points="50,725.3828,40,729.3828,50,733.3828,46,729.3828" style="stroke:#E7E7E7;stroke-width:1.0;"/><line style="stroke:#E7E7E7;stroke-width:1.0;stroke-dasharray:2.0,2.0;" x1="44" x2="389" y1="729.3828" y2="729.3828"/><text fill="#FFFFFF" font-family="sans-serif" font-size="13" font-weight="bold" lengthAdjust="spacing" textLength="37" x="99" y="724.3169">3.4.2</text><text fill="#FFFFFF" font-family="sans-serif" font-size="13" lengthAdjust="spacing" textLength="190" x="140" y="724.3169">&#1060;&#1086;&#1088;&#1084;&#1072; &#1089; &#1076;&#1072;&#1085;&#1085;&#1099;&#1084;&#1080; &#1087;&#1086;&#1076;&#1073;&#1086;&#1088;&#1082;&#1080;</text><polygon fill="#E7E7E7" points="378,754.5156,388,758.5156,378,762.5156,382,758.5156" style="stroke:#E7E7E7;stroke-width:1.0;"/><line style="stroke:#E7E7E7;stroke-width:1.0;" x1="39" x2="384" y1="758.5156" y2="758.5156"/><text fill="#FFFFFF" font-family="sans-serif" font-size="13" font-weight="bold" lengthAdjust="spacing" textLength="37" x="68" y="753.4497">3.4.3</text><text fill="#FFFFFF" font-family="sans-serif" font-size="13" lengthAdjust="spacing" textLength="252" x="109" y="753.4497">&#1056;&#1077;&#1076;&#1072;&#1082;&#1090;&#1080;&#1088;&#1091;&#1077;&#1090; &#1080; &#1085;&#1072;&#1078;&#1080;&#1084;&#1072;&#1077;&#1090; &#1089;&#1086;&#1093;&#1088;&#1072;&#1085;&#1080;&#1090;&#1100;</text><polygon fill="#E7E7E7" points="764,783.6484,774,787.6484,764,791.6484,768,787.6484" style="stroke:#E7E7E7;stroke-width:1.0;"/><line style="stroke:#E7E7E7;stroke-width:1.0;" x1="390" x2="770" y1="787.6484" y2="787.6484"/><text fill="#FFFFFF" font-family="sans-serif" font-size="13" font-weight="bold" lengthAdjust="spacing" textLength="37" x="457.5" y="782.5825">3.4.4</text><text fill="#FFFFFF" font-family="sans-serif" font-size="13" lengthAdjust="spacing" textLength="210" x="498.5" y="782.5825">PATCH /selections/{selectionsId}</text><polygon fill="#E7E7E7" points="401,812.7813,391,816.7813,401,820.7813,397,816.7813" style="stroke:#E7E7E7;stroke-width:1.0;"/><line style="stroke:#E7E7E7;stroke-width:1.0;stroke-dasharray:2.0,2.0;" x1="395" x2="775" y1="816.7813" y2="816.7813"/><text fill="#FFFFFF" font-family="sans-serif" font-size="13" font-weight="bold" lengthAdjust="spacing" textLength="37" x="539.5" y="811.7153">3.4.5</text><text fill="#FFFFFF" font-family="sans-serif" font-size="13" lengthAdjust="spacing" textLength="46" x="580.5" y="811.7153">200 OK</text><polygon fill="#E7E7E7" points="50,841.9141,40,845.9141,50,849.9141,46,845.9141" style="stroke:#E7E7E7;stroke-width:1.0;"/><line style="stroke:#E7E7E7;stroke-width:1.0;stroke-dasharray:2.0,2.0;" x1="44" x2="389" y1="845.9141" y2="845.9141"/><text fill="#FFFFFF" font-family="sans-serif" font-size="13" font-weight="bold" lengthAdjust="spacing" textLength="37" x="131" y="840.8481">3.4.6</text><text fill="#FFFFFF" font-family="sans-serif" font-size="13" lengthAdjust="spacing" textLength="126" x="172" y="840.8481">push-&#1091;&#1074;&#1077;&#1076;&#1086;&#1084;&#1083;&#1077;&#1085;&#1080;&#1077;</text><path d="M10,867.9141 L80,867.9141 L80,875.0469 L70,885.0469 L10,885.0469 L10,867.9141 " fill="#555555" style="stroke:#FFFFFF;stroke-width:1.5;"/><rect fill="none" height="162.7969" style="stroke:#FFFFFF;stroke-width:1.5;" width="795.5" x="10" y="867.9141"/><text fill="#FFFFFF" font-family="sans-serif" font-size="13" font-weight="bold" lengthAdjust="spacing" textLength="25" x="25" y="880.981">opt</text><polygon fill="#E7E7E7" points="378,902.1797,388,906.1797,378,910.1797,382,906.1797" style="stroke:#E7E7E7;stroke-width:1.0;"/><line style="stroke:#E7E7E7;stroke-width:1.0;" x1="39" x2="384" y1="906.1797" y2="906.1797"/><text fill="#FFFFFF" font-family="sans-serif" font-size="13" font-weight="bold" lengthAdjust="spacing" textLength="37" x="97" y="901.1138">3.5.1</text><text fill="#FFFFFF" font-family="sans-serif" font-size="13" lengthAdjust="spacing" textLength="194" x="138" y="901.1138">&#1059;&#1076;&#1072;&#1083;&#1080;&#1090;&#1100; &#1087;&#1086;&#1076;&#1073;&#1086;&#1088;&#1082;&#1091; &#1074;&#1072;&#1082;&#1072;&#1085;&#1089;&#1080;&#1081;</text><polygon fill="#E7E7E7" points="50,931.3125,40,935.3125,50,939.3125,46,935.3125" style="stroke:#E7E7E7;stroke-width:1.0;"/><line style="stroke:#E7E7E7;stroke-width:1.0;stroke-dasharray:2.0,2.0;" x1="44" x2="389" y1="935.3125" y2="935.3125"/><text fill="#FFFFFF" font-family="sans-serif" font-size="13" font-weight="bold" lengthAdjust="spacing" textLength="37" x="137" y="930.2466">3.5.2</text><text fill="#FFFFFF" font-family="sans-serif" font-size="13" lengthAdjust="spacing" textLength="114" x="178" y="930.2466">&#1055;&#1086;&#1076;&#1090;&#1074;&#1077;&#1088;&#1078;&#1076;&#1077;&#1085;&#1080;&#1077;</text><polygon fill="#E7E7E7" points="378,960.4453,388,964.4453,378,968.4453,382,964.4453" style="stroke:#E7E7E7;stroke-width:1.0;"/><line style="stroke:#E7E7E7;stroke-width:1.0;" x1="39" x2="384" y1="964.4453" y2="964.4453"/><text fill="#FFFFFF" font-family="sans-serif" font-size="13" font-weight="bold" lengthAdjust="spacing" textLength="37" x="165" y="959.3794">3.5.3</text><text fill="#FFFFFF" font-family="sans-serif" font-size="13" lengthAdjust="spacing" textLength="58" x="206" y="959.3794">&#1059;&#1076;&#1072;&#1083;&#1080;&#1090;&#1100;</text><polygon fill="#E7E7E7" points="764,989.5781,774,993.5781,764,997.5781,768,993.5781" style="stroke:#E7E7E7;stroke-width:1.0;"/><line style="stroke:#E7E7E7;stroke-width:1.0;" x1="390" x2="770" y1="993.5781" y2="993.5781"/><text fill="#FFFFFF" font-family="sans-serif" font-size="13" font-weight="bold" lengthAdjust="spacing" textLength="37" x="455" y="988.5122">3.5.4</text><text fill="#FFFFFF" font-family="sans-serif" font-size="13" lengthAdjust="spacing" textLength="215" x="496" y="988.5122">DELETE /selections/{selectionsId}</text><polygon fill="#E7E7E7" points="401,1018.7109,391,1022.7109,401,1026.7109,397,1022.7109" style="stroke:#E7E7E7;stroke-width:1.0;"/><line style="stroke:#E7E7E7;stroke-width:1.0;stroke-dasharray:2.0,2.0;" x1="395" x2="775" y1="1022.7109" y2="1022.7109"/><text fill="#FFFFFF" font-family="sans-serif" font-size="13" font-weight="bold" lengthAdjust="spacing" textLength="37" x="513" y="1017.645">3.5.5</text><text fill="#FFFFFF" font-family="sans-serif" font-size="13" lengthAdjust="spacing" textLength="99" x="554" y="1017.645">204 No content</text><!--SRC=[fPJBRjD058RtVehp0cwQjcmGGgfA11MN8f6keuapRQmcTl2CkGWXbLI8HP4giM77HV00QMYAIKZw2cVUY7_6e3PE6gXOMBB7v_AVxp-s3dLB4h_Z7WznZSqhpZZpFBKNHXsHY3Of-JYLKI3lIwN4hbnlXRiH1JBICl4y4UWueMqb4_8GhiCWx8X8q_Qcrn1Qr8MIL1V17Y9J7KTfkux8rQNoKjbpIVvDXD9ruW-coqEpRmvDrxmbimyjt_c41pmYxa-9- -4X0tcsB39lLwfKWfQsykCTFrNIr_APBhM4bahRq1k-_oTsPNcPjkxcdUrntlehJz3l9_S83KVcYD1cmjzun3tRq1mLnA_CYFyCyJt8p4oNaDX3wiIymJm744-u6q3_COeEKN10d17UT_dCZTctFNbWkjDpFTnwD6-mcOdAj9583Dkm_EUWQIOrQqpfYGX453mlgMRyj9O_X5BLTkAafdJQW9-Nm9gf21KoYKHhVhoC6aN0XUNAXv_miHl_5736vh30U7MMCJBiHlJSWl0P7ayiKnJ9EHUNv3AJdRkk4e-jkuLQMFwBZVazuco0DMbiRNBsZPtop1PqP-T5hRnvJYhPae4EuqWji70QmXeWn1rT0F49mApu8I1cK3one_y_5FfD15xW9FiBbO88Sx2GZ7djhBQuP-ciLpVkNCHJUd5-lzbu-I-VS2TLJHyQ-axL1Br7TgkWOk3sSHhhjRbOlxXvHhd4gwFyQEC10nAGSUf-NRc01MscITogtAjKArT1iKOFOWfY_8hnzMBGNm00]--></g></svg>