<?xml version="1.0" encoding="us-ascii" standalone="no"?><svg xmlns="http://www.w3.org/2000/svg" xmlns:xlink="http://www.w3.org/1999/xlink" contentStyleType="text/css" height="922px" preserveAspectRatio="none" style="width:1267px;height:922px;background:#1B1B1B;" version="1.1" viewBox="0 0 1267 922" width="1267px" zoomAndPan="magnify"><defs/><g><rect fill="#1B1B1B" height="922" style="stroke:none;stroke-width:1.0;" width="1267" x="0" y="0"/><text fill="#FFFFFF" font-family="sans-serif" font-size="14" font-weight="bold" lengthAdjust="spacing" textLength="116" x="577.25" y="27.9951">&#1059;&#1093;&#1086;&#1076; &#1074; &#1086;&#1090;&#1087;&#1091;&#1089;&#1082;</text><rect fill="none" height="191.9297" style="stroke:#FFFFFF;stroke-width:1.5;" width="1251.5" x="10" y="514.3203"/><rect fill="none" height="104.5313" style="stroke:#FFFFFF;stroke-width:1.5;" width="1251.5" x="10" y="720.25"/><line style="stroke:#E7E7E7;stroke-width:0.5;stroke-dasharray:5.0,5.0;" x1="39" x2="39" y1="118.5938" y2="841.7813"/><line style="stroke:#E7E7E7;stroke-width:0.5;stroke-dasharray:5.0,5.0;" x1="637.5" x2="637.5" y1="118.5938" y2="841.7813"/><line style="stroke:#E7E7E7;stroke-width:0.5;stroke-dasharray:5.0,5.0;" x1="891" x2="891" y1="118.5938" y2="841.7813"/><line style="stroke:#E7E7E7;stroke-width:0.5;stroke-dasharray:5.0,5.0;" x1="1231.5" x2="1231.5" y1="118.5938" y2="841.7813"/><text fill="#FFFFFF" font-family="sans-serif" font-size="14" lengthAdjust="spacing" textLength="32" x="20" y="115.292">User</text><ellipse cx="39" cy="50.7969" fill="#222222" rx="8" ry="8" style="stroke:#E7E7E7;stroke-width:0.5;"/><path d="M39,58.7969 L39,85.7969 M26,66.7969 L52,66.7969 M39,85.7969 L26,100.7969 M39,85.7969 L52,100.7969 " fill="none" style="stroke:#E7E7E7;stroke-width:0.5;"/><text fill="#FFFFFF" font-family="sans-serif" font-size="14" lengthAdjust="spacing" textLength="32" x="20" y="853.7764">User</text><ellipse cx="39" cy="865.5781" fill="#222222" rx="8" ry="8" style="stroke:#E7E7E7;stroke-width:0.5;"/><path d="M39,873.5781 L39,900.5781 M26,881.5781 L52,881.5781 M39,900.5781 L26,915.5781 M39,900.5781 L52,915.5781 " fill="none" style="stroke:#E7E7E7;stroke-width:0.5;"/><rect fill="#222222" height="30.2969" rx="2.5" ry="2.5" style="stroke:#E7E7E7;stroke-width:0.5;" width="27" x="624.5" y="87.2969"/><text fill="#FFFFFF" font-family="sans-serif" font-size="14" lengthAdjust="spacing" textLength="13" x="631.5" y="107.292">UI</text><rect fill="#222222" height="30.2969" rx="2.5" ry="2.5" style="stroke:#E7E7E7;stroke-width:0.5;" width="27" x="624.5" y="840.7813"/><text fill="#FFFFFF" font-family="sans-serif" font-size="14" lengthAdjust="spacing" textLength="13" x="631.5" y="860.7764">UI</text><rect fill="#222222" height="30.2969" rx="2.5" ry="2.5" style="stroke:#E7E7E7;stroke-width:0.5;" width="64" x="859" y="87.2969"/><text fill="#FFFFFF" font-family="sans-serif" font-size="14" lengthAdjust="spacing" textLength="50" x="866" y="107.292">Service</text><rect fill="#222222" height="30.2969" rx="2.5" ry="2.5" style="stroke:#E7E7E7;stroke-width:0.5;" width="64" x="859" y="840.7813"/><text fill="#FFFFFF" font-family="sans-serif" font-size="14" lengthAdjust="spacing" textLength="50" x="866" y="860.7764">Service</text><text fill="#FFFFFF" font-family="sans-serif" font-size="14" lengthAdjust="spacing" textLength="33" x="1212.5" y="115.292">back</text><path d="M1214,66.2969 C1214,56.2969 1232,56.2969 1232,56.2969 C1232,56.2969 1250,56.2969 1250,66.2969 L1250,92.2969 C1250,102.2969 1232,102.2969 1232,102.2969 C1232,102.2969 1214,102.2969 1214,92.2969 L1214,66.2969 " fill="#222222" style="stroke:#E7E7E7;stroke-width:1.5;"/><path d="M1214,66.2969 C1214,76.2969 1232,76.2969 1232,76.2969 C1232,76.2969 1250,76.2969 1250,66.2969 " fill="none" style="stroke:#E7E7E7;stroke-width:1.5;"/><text fill="#FFFFFF" font-family="sans-serif" font-size="14" lengthAdjust="spacing" textLength="33" x="1212.5" y="853.7764">back</text><path d="M1214,867.0781 C1214,857.0781 1232,857.0781 1232,857.0781 C1232,857.0781 1250,857.0781 1250,867.0781 L1250,893.0781 C1250,903.0781 1232,903.0781 1232,903.0781 C1232,903.0781 1214,903.0781 1214,893.0781 L1214,867.0781 " fill="#222222" style="stroke:#E7E7E7;stroke-width:1.5;"/><path d="M1214,867.0781 C1214,877.0781 1232,877.0781 1232,877.0781 C1232,877.0781 1250,877.0781 1250,867.0781 " fill="none" style="stroke:#E7E7E7;stroke-width:1.5;"/><polygon fill="#E7E7E7" points="626,145.7266,636,149.7266,626,153.7266,630,149.7266" style="stroke:#E7E7E7;stroke-width:1.0;"/><line style="stroke:#E7E7E7;stroke-width:1.0;" x1="39" x2="632" y1="149.7266" y2="149.7266"/><text fill="#FFFFFF" font-family="sans-serif" font-size="13" font-weight="bold" lengthAdjust="spacing" textLength="37" x="46" y="144.6606">1.4.1</text><text fill="#FFFFFF" font-family="sans-serif" font-size="13" lengthAdjust="spacing" textLength="217" x="87" y="144.6606">&#1042;&#1099;&#1073;&#1088;&#1072;&#1090;&#1100; &#1086;&#1087;&#1094;&#1080;&#1102; "&#1059;&#1081;&#1090;&#1080; &#1074; &#1086;&#1090;&#1087;&#1091;&#1089;&#1082;"</text><polygon fill="#E7E7E7" points="50,174.8594,40,178.8594,50,182.8594,46,178.8594" style="stroke:#E7E7E7;stroke-width:1.0;"/><line style="stroke:#E7E7E7;stroke-width:1.0;stroke-dasharray:2.0,2.0;" x1="44" x2="637" y1="178.8594" y2="178.8594"/><text fill="#FFFFFF" font-family="sans-serif" font-size="13" font-weight="bold" lengthAdjust="spacing" textLength="37" x="56" y="173.7935">1.4.2</text><text fill="#FFFFFF" font-family="sans-serif" font-size="13" lengthAdjust="spacing" textLength="252" x="97" y="173.7935">&#1054;&#1090;&#1086;&#1073;&#1088;&#1072;&#1078;&#1077;&#1085;&#1080;&#1077; &#1092;&#1086;&#1088;&#1084;&#1099; &#1091;&#1093;&#1086;&#1076;&#1072; &#1074; &#1086;&#1090;&#1087;&#1091;&#1089;&#1082;</text><polygon fill="#E7E7E7" points="626,203.9922,636,207.9922,626,211.9922,630,207.9922" style="stroke:#E7E7E7;stroke-width:1.0;"/><line style="stroke:#E7E7E7;stroke-width:1.0;" x1="39" x2="632" y1="207.9922" y2="207.9922"/><text fill="#FFFFFF" font-family="sans-serif" font-size="13" font-weight="bold" lengthAdjust="spacing" textLength="37" x="46" y="202.9263">1.4.3</text><text fill="#FFFFFF" font-family="sans-serif" font-size="13" lengthAdjust="spacing" textLength="534" x="87" y="202.9263">&#1047;&#1072;&#1087;&#1086;&#1083;&#1085;&#1080;&#1090;&#1100; &#1092;&#1086;&#1088;&#1084;&#1091; &#1091;&#1093;&#1086;&#1076;&#1072; &#1074; &#1086;&#1090;&#1087;&#1091;&#1089;&#1082; (&#1084;&#1080;&#1085;&#1080;&#1084;&#1072;&#1083;&#1100;&#1085;&#1086;&#1077; &#1082;&#1086;&#1083;&#1080;&#1095;&#1077;&#1089;&#1090;&#1074;&#1086; &#1076;&#1085;&#1077;&#1081; &#1086;&#1090;&#1087;&#1091;&#1089;&#1082;&#1072; - 7)</text><polygon fill="#E7E7E7" points="626,233.125,636,237.125,626,241.125,630,237.125" style="stroke:#E7E7E7;stroke-width:1.0;"/><line style="stroke:#E7E7E7;stroke-width:1.0;" x1="39" x2="632" y1="237.125" y2="237.125"/><text fill="#FFFFFF" font-family="sans-serif" font-size="13" font-weight="bold" lengthAdjust="spacing" textLength="37" x="46" y="232.0591">1.5.1</text><text fill="#FFFFFF" font-family="sans-serif" font-size="13" lengthAdjust="spacing" textLength="216" x="87" y="232.0591">&#1053;&#1072;&#1078;&#1072;&#1090;&#1100; &#1085;&#1072; &#1082;&#1085;&#1086;&#1087;&#1082;&#1091; "&#1054;&#1090;&#1087;&#1088;&#1072;&#1074;&#1080;&#1090;&#1100;"</text><polygon fill="#E7E7E7" points="879,262.2578,889,266.2578,879,270.2578,883,266.2578" style="stroke:#E7E7E7;stroke-width:1.0;"/><line style="stroke:#E7E7E7;stroke-width:1.0;" x1="638" x2="885" y1="266.2578" y2="266.2578"/><text fill="#FFFFFF" font-family="sans-serif" font-size="13" font-weight="bold" lengthAdjust="spacing" textLength="37" x="645" y="261.1919">1.5.2</text><text fill="#FFFFFF" font-family="sans-serif" font-size="13" lengthAdjust="spacing" textLength="188" x="686" y="261.1919">POST /holidays vacation_data</text><polygon fill="#E7E7E7" points="1220,291.3906,1230,295.3906,1220,299.3906,1224,295.3906" style="stroke:#E7E7E7;stroke-width:1.0;"/><line style="stroke:#E7E7E7;stroke-width:1.0;" x1="891" x2="1226" y1="295.3906" y2="295.3906"/><text fill="#FFFFFF" font-family="sans-serif" font-size="13" font-weight="bold" lengthAdjust="spacing" textLength="37" x="898" y="290.3247">1.5.3</text><text fill="#FFFFFF" font-family="sans-serif" font-size="13" lengthAdjust="spacing" textLength="194" x="939" y="290.3247">&#1057;&#1086;&#1093;&#1088;&#1072;&#1085;&#1080;&#1090;&#1100; &#1079;&#1072;&#1087;&#1088;&#1086;&#1089; &#1085;&#1072; &#1086;&#1090;&#1087;&#1091;&#1089;&#1082;</text><polygon fill="#E7E7E7" points="902,320.5234,892,324.5234,902,328.5234,898,324.5234" style="stroke:#E7E7E7;stroke-width:1.0;"/><line style="stroke:#E7E7E7;stroke-width:1.0;stroke-dasharray:2.0,2.0;" x1="896" x2="1231" y1="324.5234" y2="324.5234"/><text fill="#FFFFFF" font-family="sans-serif" font-size="13" font-weight="bold" lengthAdjust="spacing" textLength="37" x="908" y="319.4575">1.5.4</text><text fill="#FFFFFF" font-family="sans-serif" font-size="13" lengthAdjust="spacing" textLength="79" x="949" y="319.4575">201 Created</text><polygon fill="#E7E7E7" points="649,349.6563,639,353.6563,649,357.6563,645,353.6563" style="stroke:#E7E7E7;stroke-width:1.0;"/><line style="stroke:#E7E7E7;stroke-width:1.0;stroke-dasharray:2.0,2.0;" x1="643" x2="890" y1="353.6563" y2="353.6563"/><text fill="#FFFFFF" font-family="sans-serif" font-size="13" font-weight="bold" lengthAdjust="spacing" textLength="37" x="655" y="348.5903">1.5.5</text><text fill="#FFFFFF" font-family="sans-serif" font-size="13" lengthAdjust="spacing" textLength="79" x="696" y="348.5903">201 Created</text><polygon fill="#E7E7E7" points="879,378.7891,889,382.7891,879,386.7891,883,382.7891" style="stroke:#E7E7E7;stroke-width:1.0;"/><line style="stroke:#E7E7E7;stroke-width:1.0;" x1="638" x2="885" y1="382.7891" y2="382.7891"/><text fill="#FFFFFF" font-family="sans-serif" font-size="13" font-weight="bold" lengthAdjust="spacing" textLength="37" x="645" y="377.7231">1.5.6</text><text fill="#FFFFFF" font-family="sans-serif" font-size="13" lengthAdjust="spacing" textLength="89" x="686" y="377.7231">POST /signout</text><polygon fill="#E7E7E7" points="1220,407.9219,1230,411.9219,1220,415.9219,1224,411.9219" style="stroke:#E7E7E7;stroke-width:1.0;"/><line style="stroke:#E7E7E7;stroke-width:1.0;" x1="891" x2="1226" y1="411.9219" y2="411.9219"/><text fill="#FFFFFF" font-family="sans-serif" font-size="13" font-weight="bold" lengthAdjust="spacing" textLength="37" x="898" y="406.856">1.5.7</text><text fill="#FFFFFF" font-family="sans-serif" font-size="13" lengthAdjust="spacing" textLength="187" x="939" y="406.856">&#1056;&#1072;&#1079;&#1083;&#1086;&#1075;&#1080;&#1085;&#1080;&#1090;&#1100; &#1087;&#1086;&#1083;&#1100;&#1079;&#1086;&#1074;&#1072;&#1090;&#1077;&#1083;&#1103;</text><polygon fill="#E7E7E7" points="902,437.0547,892,441.0547,902,445.0547,898,441.0547" style="stroke:#E7E7E7;stroke-width:1.0;"/><line style="stroke:#E7E7E7;stroke-width:1.0;stroke-dasharray:2.0,2.0;" x1="896" x2="1231" y1="441.0547" y2="441.0547"/><text fill="#FFFFFF" font-family="sans-serif" font-size="13" font-weight="bold" lengthAdjust="spacing" textLength="37" x="908" y="435.9888">1.5.8</text><text fill="#FFFFFF" font-family="sans-serif" font-size="13" lengthAdjust="spacing" textLength="46" x="949" y="435.9888">200 OK</text><polygon fill="#E7E7E7" points="649,466.1875,639,470.1875,649,474.1875,645,470.1875" style="stroke:#E7E7E7;stroke-width:1.0;"/><line style="stroke:#E7E7E7;stroke-width:1.0;stroke-dasharray:2.0,2.0;" x1="643" x2="890" y1="470.1875" y2="470.1875"/><text fill="#FFFFFF" font-family="sans-serif" font-size="13" font-weight="bold" lengthAdjust="spacing" textLength="37" x="655" y="465.1216">1.5.9</text><text fill="#FFFFFF" font-family="sans-serif" font-size="13" lengthAdjust="spacing" textLength="46" x="696" y="465.1216">200 OK</text><polygon fill="#E7E7E7" points="50,495.3203,40,499.3203,50,503.3203,46,499.3203" style="stroke:#E7E7E7;stroke-width:1.0;"/><line style="stroke:#E7E7E7;stroke-width:1.0;stroke-dasharray:2.0,2.0;" x1="44" x2="637" y1="499.3203" y2="499.3203"/><text fill="#FFFFFF" font-family="sans-serif" font-size="13" font-weight="bold" lengthAdjust="spacing" textLength="46" x="56" y="494.2544">1.5.10</text><text fill="#FFFFFF" font-family="sans-serif" font-size="13" lengthAdjust="spacing" textLength="301" x="106" y="494.2544">&#1054;&#1090;&#1086;&#1073;&#1088;&#1072;&#1078;&#1077;&#1085;&#1080;&#1077; &#1089;&#1086;&#1086;&#1073;&#1097;&#1077;&#1085;&#1080;&#1103; &#1086;&#1073; &#1091;&#1093;&#1086;&#1076;&#1077; &#1074; &#1086;&#1090;&#1087;&#1091;&#1089;&#1082;</text><path d="M10,514.3203 L80,514.3203 L80,521.4531 L70,531.4531 L10,531.4531 L10,514.3203 " fill="#555555" style="stroke:#FFFFFF;stroke-width:1.5;"/><rect fill="none" height="191.9297" style="stroke:#FFFFFF;stroke-width:1.5;" width="1251.5" x="10" y="514.3203"/><text fill="#FFFFFF" font-family="sans-serif" font-size="13" font-weight="bold" lengthAdjust="spacing" textLength="25" x="25" y="527.3872">opt</text><polygon fill="#E7E7E7" points="626,548.5859,636,552.5859,626,556.5859,630,552.5859" style="stroke:#E7E7E7;stroke-width:1.0;"/><line style="stroke:#E7E7E7;stroke-width:1.0;" x1="39" x2="632" y1="552.5859" y2="552.5859"/><text fill="#FFFFFF" font-family="sans-serif" font-size="13" font-weight="bold" lengthAdjust="spacing" textLength="37" x="46" y="547.52">1.6.1</text><text fill="#FFFFFF" font-family="sans-serif" font-size="13" lengthAdjust="spacing" textLength="194" x="87" y="547.52">&#1053;&#1072;&#1078;&#1072;&#1090;&#1100; &#1085;&#1072; &#1079;&#1085;&#1072;&#1095;&#1086;&#1082; &#1082;&#1088;&#1077;&#1089;&#1090;&#1080;&#1082;&#1072;</text><polygon fill="#E7E7E7" points="879,577.7188,889,581.7188,879,585.7188,883,581.7188" style="stroke:#E7E7E7;stroke-width:1.0;"/><line style="stroke:#E7E7E7;stroke-width:1.0;" x1="638" x2="885" y1="581.7188" y2="581.7188"/><text fill="#FFFFFF" font-family="sans-serif" font-size="13" font-weight="bold" lengthAdjust="spacing" textLength="37" x="645" y="576.6528">1.6.2</text><text fill="#FFFFFF" font-family="sans-serif" font-size="13" lengthAdjust="spacing" textLength="172" x="686" y="576.6528">GET /reports/feed?limit=10</text><polygon fill="#E7E7E7" points="1220,606.8516,1230,610.8516,1220,614.8516,1224,610.8516" style="stroke:#E7E7E7;stroke-width:1.0;"/><line style="stroke:#E7E7E7;stroke-width:1.0;" x1="891" x2="1226" y1="610.8516" y2="610.8516"/><text fill="#FFFFFF" font-family="sans-serif" font-size="13" font-weight="bold" lengthAdjust="spacing" textLength="37" x="898" y="605.7856">1.6.3</text><text fill="#FFFFFF" font-family="sans-serif" font-size="13" lengthAdjust="spacing" textLength="276" x="939" y="605.7856">&#1054;&#1073;&#1085;&#1086;&#1074;&#1080;&#1090;&#1100; &#1086;&#1090;&#1086;&#1073;&#1088;&#1072;&#1078;&#1077;&#1085;&#1080;&#1077; &#1076;&#1086;&#1089;&#1082;&#1080; &#1074;&#1072;&#1082;&#1072;&#1085;&#1089;&#1080;&#1081;</text><polygon fill="#E7E7E7" points="902,635.9844,892,639.9844,902,643.9844,898,639.9844" style="stroke:#E7E7E7;stroke-width:1.0;"/><line style="stroke:#E7E7E7;stroke-width:1.0;stroke-dasharray:2.0,2.0;" x1="896" x2="1231" y1="639.9844" y2="639.9844"/><text fill="#FFFFFF" font-family="sans-serif" font-size="13" font-weight="bold" lengthAdjust="spacing" textLength="37" x="908" y="634.9185">1.6.4</text><text fill="#FFFFFF" font-family="sans-serif" font-size="13" lengthAdjust="spacing" textLength="64" x="949" y="634.9185">feed_data</text><polygon fill="#E7E7E7" points="649,665.1172,639,669.1172,649,673.1172,645,669.1172" style="stroke:#E7E7E7;stroke-width:1.0;"/><line style="stroke:#E7E7E7;stroke-width:1.0;stroke-dasharray:2.0,2.0;" x1="643" x2="890" y1="669.1172" y2="669.1172"/><text fill="#FFFFFF" font-family="sans-serif" font-size="13" font-weight="bold" lengthAdjust="spacing" textLength="37" x="655" y="664.0513">1.6.5</text><text fill="#FFFFFF" font-family="sans-serif" font-size="13" lengthAdjust="spacing" textLength="118" x="696" y="664.0513">200 OK, feed_data</text><polygon fill="#E7E7E7" points="50,694.25,40,698.25,50,702.25,46,698.25" style="stroke:#E7E7E7;stroke-width:1.0;"/><line style="stroke:#E7E7E7;stroke-width:1.0;stroke-dasharray:2.0,2.0;" x1="44" x2="637" y1="698.25" y2="698.25"/><text fill="#FFFFFF" font-family="sans-serif" font-size="13" font-weight="bold" lengthAdjust="spacing" textLength="37" x="56" y="693.1841">1.6.6</text><text fill="#FFFFFF" font-family="sans-serif" font-size="13" lengthAdjust="spacing" textLength="289" x="97" y="693.1841">&#1055;&#1086;&#1076;&#1090;&#1074;&#1077;&#1088;&#1078;&#1076;&#1077;&#1085;&#1080;&#1077; &#1086;&#1090;&#1084;&#1077;&#1085;&#1099; &#1086;&#1090;&#1087;&#1088;&#1072;&#1074;&#1082;&#1080; &#1092;&#1086;&#1088;&#1084;&#1099;</text><path d="M10,720.25 L74,720.25 L74,727.3828 L64,737.3828 L10,737.3828 L10,720.25 " fill="#555555" style="stroke:#FFFFFF;stroke-width:1.5;"/><rect fill="none" height="104.5313" style="stroke:#FFFFFF;stroke-width:1.5;" width="1251.5" x="10" y="720.25"/><text fill="#FFFFFF" font-family="sans-serif" font-size="13" font-weight="bold" lengthAdjust="spacing" textLength="19" x="25" y="733.3169">alt</text><text fill="#FFFFFF" font-family="sans-serif" font-size="11" font-weight="bold" lengthAdjust="spacing" textLength="150" x="89" y="732.4604">[&#1054;&#1096;&#1080;&#1073;&#1082;&#1072; &#1072;&#1074;&#1090;&#1086;&#1088;&#1080;&#1079;&#1072;&#1094;&#1080;&#1080;]</text><polygon fill="#E7E7E7" points="902,754.5156,892,758.5156,902,762.5156,898,758.5156" style="stroke:#E7E7E7;stroke-width:1.0;"/><line style="stroke:#E7E7E7;stroke-width:1.0;stroke-dasharray:2.0,2.0;" x1="896" x2="1231" y1="758.5156" y2="758.5156"/><text fill="#FFFFFF" font-family="sans-serif" font-size="13" font-weight="bold" lengthAdjust="spacing" textLength="37" x="908" y="753.4497">1.6.7</text><text fill="#FFFFFF" font-family="sans-serif" font-size="13" lengthAdjust="spacing" textLength="114" x="949" y="753.4497">401 Unauthorized</text><polygon fill="#E7E7E7" points="649,783.6484,639,787.6484,649,791.6484,645,787.6484" style="stroke:#E7E7E7;stroke-width:1.0;"/><line style="stroke:#E7E7E7;stroke-width:1.0;stroke-dasharray:2.0,2.0;" x1="643" x2="890" y1="787.6484" y2="787.6484"/><text fill="#FFFFFF" font-family="sans-serif" font-size="13" font-weight="bold" lengthAdjust="spacing" textLength="37" x="655" y="782.5825">1.6.8</text><text fill="#FFFFFF" font-family="sans-serif" font-size="13" lengthAdjust="spacing" textLength="114" x="696" y="782.5825">401 Unauthorized</text><polygon fill="#E7E7E7" points="50,812.7813,40,816.7813,50,820.7813,46,816.7813" style="stroke:#E7E7E7;stroke-width:1.0;"/><line style="stroke:#E7E7E7;stroke-width:1.0;stroke-dasharray:2.0,2.0;" x1="44" x2="637" y1="816.7813" y2="816.7813"/><text fill="#FFFFFF" font-family="sans-serif" font-size="13" font-weight="bold" lengthAdjust="spacing" textLength="37" x="56" y="811.7153">1.6.9</text><text fill="#FFFFFF" font-family="sans-serif" font-size="13" lengthAdjust="spacing" textLength="342" x="97" y="811.7153">&#1054;&#1090;&#1086;&#1073;&#1088;&#1072;&#1078;&#1077;&#1085;&#1080;&#1077; &#1089;&#1086;&#1086;&#1073;&#1097;&#1077;&#1085;&#1080;&#1103; &#1086;&#1073; &#1086;&#1096;&#1080;&#1073;&#1082;&#1077; &#1072;&#1074;&#1090;&#1086;&#1088;&#1080;&#1079;&#1072;&#1094;&#1080;&#1080;</text><!--SRC=[fLJ1RX9H5DtFLxomKHEXOAecJQmBOqpZeYQLjHbWj1Ff31aUJNG5hTKQ6fkuSMNLz0S0dJ8CCFp2VN_akGy669YQ9gvWtjnxxZdddZVIbbLBqAKweOZ-2Ee9YjGHJTInQb5e66PPkfuerYtFg9cUjCjspNIaAEua7lSixz0kMqR5b6R9h5kYP9RVehaXNQTnKB8yKSXjvWe6uuZiDjgt17rLRUgg9dNKaJh3M0pzI87w8Z9qIGEG25RfP8pYZiXoFt20S85NqHI3hiYdCGNa2_K1FKqQgRP0czP5dJLb2IhV0311uP0XD9qvoF4_GCHj6c4aZnq1OQZEy3y21GerMA0-aQzQQEXH980m1ib10WAWMV7mpefNztC5aMJuNKkSMJLcAg6UDQ4G53FQYeaseZTLCFLgErxDbdYnk_TIREoxLRjYlgkBGxDiIjjrNl7EZ5aLD_3gCF0NM9vemDWIwhDBE8fKQyPXsL3kqykPJxoNBuWddcLAgx8OC1Eq_CwuXIEsXptJUuoHb_IaZU-fTfpRWFe2D0Bjjg-Npnl5qP0ZmHGdsCMfDkqtje63XK0T7NMUcC43raIcUbgttpXkGwQO-1DmVJ3WaS72I1qrXAMFtnul5GI6wZpLmhpOVPxYdZw-qMs0JdtyUQ4IZujK- -kNtgt9P1uVt22FVVv1u2FS2uIoEKj-m1bVzUtPKzZcMJNNa_MDrvPLULor3spvg91FCV62kdfhyo14gK8vF_f6yMS3RqBUB4U21Yd6yj2Lw2UylRjKaRJv1xkchxGF1bViOCo0YOtuaTEtd60cjVWi6PQZGy_AT45N5uVJi9q2gpkLWLQMYfg0aycVHmeCiofvsN5TvxgwTT6Rk7H51vlTTptxVSgjN2luduGjQV6lumWd_W80]--></g></svg>