<?xml version="1.0" encoding="us-ascii" standalone="no"?><svg xmlns="http://www.w3.org/2000/svg" xmlns:xlink="http://www.w3.org/1999/xlink" contentStyleType="text/css" height="749px" preserveAspectRatio="none" style="width:930px;height:749px;background:#1B1B1B;" version="1.1" viewBox="0 0 930 749" width="930px" zoomAndPan="magnify"><defs/><g><rect fill="#1B1B1B" height="749" style="stroke:none;stroke-width:1.0;" width="930" x="0" y="0"/><text fill="#FFFFFF" font-family="sans-serif" font-size="14" font-weight="bold" lengthAdjust="spacing" textLength="116" x="408.75" y="27.9951">&#1059;&#1093;&#1086;&#1076; &#1074; &#1086;&#1090;&#1087;&#1091;&#1089;&#1082;</text><rect fill="none" height="516.3906" style="stroke:#FFFFFF;stroke-width:1.5;" width="914.5" x="10" y="135.5938"/><rect fill="none" height="75.3984" style="stroke:#FFFFFF;stroke-width:1.5;" width="894.5" x="20" y="392.7891"/><rect fill="none" height="133.6641" style="stroke:#FFFFFF;stroke-width:1.5;" width="894.5" x="20" y="511.3203"/><line style="stroke:#E7E7E7;stroke-width:0.5;stroke-dasharray:5.0,5.0;" x1="49" x2="49" y1="118.5938" y2="668.9844"/><line style="stroke:#E7E7E7;stroke-width:0.5;stroke-dasharray:5.0,5.0;" x1="647.5" x2="647.5" y1="118.5938" y2="668.9844"/><line style="stroke:#E7E7E7;stroke-width:0.5;stroke-dasharray:5.0,5.0;" x1="884.5" x2="884.5" y1="118.5938" y2="668.9844"/><text fill="#FFFFFF" font-family="sans-serif" font-size="14" lengthAdjust="spacing" textLength="32" x="30" y="115.292">User</text><ellipse cx="49" cy="50.7969" fill="#222222" rx="8" ry="8" style="stroke:#E7E7E7;stroke-width:0.5;"/><path d="M49,58.7969 L49,85.7969 M36,66.7969 L62,66.7969 M49,85.7969 L36,100.7969 M49,85.7969 L62,100.7969 " fill="none" style="stroke:#E7E7E7;stroke-width:0.5;"/><text fill="#FFFFFF" font-family="sans-serif" font-size="14" lengthAdjust="spacing" textLength="32" x="30" y="680.9795">User</text><ellipse cx="49" cy="692.7813" fill="#222222" rx="8" ry="8" style="stroke:#E7E7E7;stroke-width:0.5;"/><path d="M49,700.7813 L49,727.7813 M36,708.7813 L62,708.7813 M49,727.7813 L36,742.7813 M49,727.7813 L62,742.7813 " fill="none" style="stroke:#E7E7E7;stroke-width:0.5;"/><rect fill="#222222" height="30.2969" rx="2.5" ry="2.5" style="stroke:#E7E7E7;stroke-width:0.5;" width="27" x="634.5" y="87.2969"/><text fill="#FFFFFF" font-family="sans-serif" font-size="14" lengthAdjust="spacing" textLength="13" x="641.5" y="107.292">UI</text><rect fill="#222222" height="30.2969" rx="2.5" ry="2.5" style="stroke:#E7E7E7;stroke-width:0.5;" width="27" x="634.5" y="667.9844"/><text fill="#FFFFFF" font-family="sans-serif" font-size="14" lengthAdjust="spacing" textLength="13" x="641.5" y="687.9795">UI</text><text fill="#FFFFFF" font-family="sans-serif" font-size="14" lengthAdjust="spacing" textLength="33" x="865.5" y="115.292">back</text><path d="M867,66.2969 C867,56.2969 885,56.2969 885,56.2969 C885,56.2969 903,56.2969 903,66.2969 L903,92.2969 C903,102.2969 885,102.2969 885,102.2969 C885,102.2969 867,102.2969 867,92.2969 L867,66.2969 " fill="#222222" style="stroke:#E7E7E7;stroke-width:1.5;"/><path d="M867,66.2969 C867,76.2969 885,76.2969 885,76.2969 C885,76.2969 903,76.2969 903,66.2969 " fill="none" style="stroke:#E7E7E7;stroke-width:1.5;"/><text fill="#FFFFFF" font-family="sans-serif" font-size="14" lengthAdjust="spacing" textLength="33" x="865.5" y="680.9795">back</text><path d="M867,694.2813 C867,684.2813 885,684.2813 885,684.2813 C885,684.2813 903,684.2813 903,694.2813 L903,720.2813 C903,730.2813 885,730.2813 885,730.2813 C885,730.2813 867,730.2813 867,720.2813 L867,694.2813 " fill="#222222" style="stroke:#E7E7E7;stroke-width:1.5;"/><path d="M867,694.2813 C867,704.2813 885,704.2813 885,704.2813 C885,704.2813 903,704.2813 903,694.2813 " fill="none" style="stroke:#E7E7E7;stroke-width:1.5;"/><path d="M10,135.5938 L74,135.5938 L74,142.7266 L64,152.7266 L10,152.7266 L10,135.5938 " fill="#555555" style="stroke:#FFFFFF;stroke-width:1.5;"/><rect fill="none" height="516.3906" style="stroke:#FFFFFF;stroke-width:1.5;" width="914.5" x="10" y="135.5938"/><text fill="#FFFFFF" font-family="sans-serif" font-size="13" font-weight="bold" lengthAdjust="spacing" textLength="19" x="25" y="148.6606">alt</text><text fill="#FFFFFF" font-family="sans-serif" font-size="11" font-weight="bold" lengthAdjust="spacing" textLength="113" x="89" y="147.8042">[Successful case]</text><polygon fill="#E7E7E7" points="636,169.8594,646,173.8594,636,177.8594,640,173.8594" style="stroke:#E7E7E7;stroke-width:1.0;"/><line style="stroke:#E7E7E7;stroke-width:1.0;" x1="49" x2="642" y1="173.8594" y2="173.8594"/><text fill="#FFFFFF" font-family="sans-serif" font-size="13" font-weight="bold" lengthAdjust="spacing" textLength="37" x="56" y="168.7935">1.4.1</text><text fill="#FFFFFF" font-family="sans-serif" font-size="13" lengthAdjust="spacing" textLength="217" x="97" y="168.7935">&#1042;&#1099;&#1073;&#1088;&#1072;&#1090;&#1100; &#1086;&#1087;&#1094;&#1080;&#1102; "&#1059;&#1081;&#1090;&#1080; &#1074; &#1086;&#1090;&#1087;&#1091;&#1089;&#1082;"</text><polygon fill="#E7E7E7" points="60,198.9922,50,202.9922,60,206.9922,56,202.9922" style="stroke:#E7E7E7;stroke-width:1.0;"/><line style="stroke:#E7E7E7;stroke-width:1.0;stroke-dasharray:2.0,2.0;" x1="54" x2="647" y1="202.9922" y2="202.9922"/><text fill="#FFFFFF" font-family="sans-serif" font-size="13" font-weight="bold" lengthAdjust="spacing" textLength="37" x="66" y="197.9263">1.4.2</text><text fill="#FFFFFF" font-family="sans-serif" font-size="13" lengthAdjust="spacing" textLength="252" x="107" y="197.9263">&#1054;&#1090;&#1086;&#1073;&#1088;&#1072;&#1078;&#1077;&#1085;&#1080;&#1077; &#1092;&#1086;&#1088;&#1084;&#1099; &#1091;&#1093;&#1086;&#1076;&#1072; &#1074; &#1086;&#1090;&#1087;&#1091;&#1089;&#1082;</text><polygon fill="#E7E7E7" points="636,228.125,646,232.125,636,236.125,640,232.125" style="stroke:#E7E7E7;stroke-width:1.0;"/><line style="stroke:#E7E7E7;stroke-width:1.0;" x1="49" x2="642" y1="232.125" y2="232.125"/><text fill="#FFFFFF" font-family="sans-serif" font-size="13" font-weight="bold" lengthAdjust="spacing" textLength="37" x="56" y="227.0591">1.4.3</text><text fill="#FFFFFF" font-family="sans-serif" font-size="13" lengthAdjust="spacing" textLength="534" x="97" y="227.0591">&#1047;&#1072;&#1087;&#1086;&#1083;&#1085;&#1080;&#1090;&#1100; &#1092;&#1086;&#1088;&#1084;&#1091; &#1091;&#1093;&#1086;&#1076;&#1072; &#1074; &#1086;&#1090;&#1087;&#1091;&#1089;&#1082; (&#1084;&#1080;&#1085;&#1080;&#1084;&#1072;&#1083;&#1100;&#1085;&#1086;&#1077; &#1082;&#1086;&#1083;&#1080;&#1095;&#1077;&#1089;&#1090;&#1074;&#1086; &#1076;&#1085;&#1077;&#1081; &#1086;&#1090;&#1087;&#1091;&#1089;&#1082;&#1072; - 7)</text><polygon fill="#E7E7E7" points="636,257.2578,646,261.2578,636,265.2578,640,261.2578" style="stroke:#E7E7E7;stroke-width:1.0;"/><line style="stroke:#E7E7E7;stroke-width:1.0;" x1="49" x2="642" y1="261.2578" y2="261.2578"/><text fill="#FFFFFF" font-family="sans-serif" font-size="13" font-weight="bold" lengthAdjust="spacing" textLength="37" x="56" y="256.1919">1.5.1</text><text fill="#FFFFFF" font-family="sans-serif" font-size="13" lengthAdjust="spacing" textLength="294" x="97" y="256.1919">&#1053;&#1072;&#1078;&#1072;&#1090;&#1100; &#1085;&#1072; &#1082;&#1085;&#1086;&#1087;&#1082;&#1091; &#1086;&#1090;&#1087;&#1088;&#1072;&#1074;&#1080;&#1090;&#1100; "&#1054;&#1090;&#1087;&#1088;&#1072;&#1074;&#1080;&#1090;&#1100;"</text><polygon fill="#E7E7E7" points="873,286.3906,883,290.3906,873,294.3906,877,290.3906" style="stroke:#E7E7E7;stroke-width:1.0;"/><line style="stroke:#E7E7E7;stroke-width:1.0;" x1="648" x2="879" y1="290.3906" y2="290.3906"/><text fill="#FFFFFF" font-family="sans-serif" font-size="13" font-weight="bold" lengthAdjust="spacing" textLength="37" x="655" y="285.3247">1.5.2</text><text fill="#FFFFFF" font-family="sans-serif" font-size="13" lengthAdjust="spacing" textLength="94" x="696" y="285.3247">POST /holidays</text><polygon fill="#E7E7E7" points="659,315.5234,649,319.5234,659,323.5234,655,319.5234" style="stroke:#E7E7E7;stroke-width:1.0;"/><line style="stroke:#E7E7E7;stroke-width:1.0;stroke-dasharray:2.0,2.0;" x1="653" x2="884" y1="319.5234" y2="319.5234"/><text fill="#FFFFFF" font-family="sans-serif" font-size="13" font-weight="bold" lengthAdjust="spacing" textLength="37" x="665" y="314.4575">1.5.3</text><text fill="#FFFFFF" font-family="sans-serif" font-size="13" lengthAdjust="spacing" textLength="71" x="706" y="314.4575">201 Create</text><polygon fill="#E7E7E7" points="873,344.6563,883,348.6563,873,352.6563,877,348.6563" style="stroke:#E7E7E7;stroke-width:1.0;"/><line style="stroke:#E7E7E7;stroke-width:1.0;" x1="648" x2="879" y1="348.6563" y2="348.6563"/><text fill="#FFFFFF" font-family="sans-serif" font-size="13" font-weight="bold" lengthAdjust="spacing" textLength="37" x="655" y="343.5903">1.5.4</text><text fill="#FFFFFF" font-family="sans-serif" font-size="13" lengthAdjust="spacing" textLength="89" x="696" y="343.5903">POST /signout</text><polygon fill="#E7E7E7" points="659,373.7891,649,377.7891,659,381.7891,655,377.7891" style="stroke:#E7E7E7;stroke-width:1.0;"/><line style="stroke:#E7E7E7;stroke-width:1.0;stroke-dasharray:2.0,2.0;" x1="653" x2="884" y1="377.7891" y2="377.7891"/><text fill="#FFFFFF" font-family="sans-serif" font-size="13" font-weight="bold" lengthAdjust="spacing" textLength="37" x="665" y="372.7231">1.5.5</text><text fill="#FFFFFF" font-family="sans-serif" font-size="13" lengthAdjust="spacing" textLength="46" x="706" y="372.7231">200 OK</text><path d="M20,392.7891 L84,392.7891 L84,399.9219 L74,409.9219 L20,409.9219 L20,392.7891 " fill="#555555" style="stroke:#FFFFFF;stroke-width:1.5;"/><rect fill="none" height="75.3984" style="stroke:#FFFFFF;stroke-width:1.5;" width="894.5" x="20" y="392.7891"/><text fill="#FFFFFF" font-family="sans-serif" font-size="13" font-weight="bold" lengthAdjust="spacing" textLength="19" x="35" y="405.856">alt</text><text fill="#FFFFFF" font-family="sans-serif" font-size="11" font-weight="bold" lengthAdjust="spacing" textLength="63" x="99" y="404.9995">[&#1054;&#1096;&#1080;&#1073;&#1082;&#1072;]</text><polygon fill="#E7E7E7" points="659,427.0547,649,431.0547,659,435.0547,655,431.0547" style="stroke:#E7E7E7;stroke-width:1.0;"/><line style="stroke:#E7E7E7;stroke-width:1.0;stroke-dasharray:2.0,2.0;" x1="653" x2="884" y1="431.0547" y2="431.0547"/><text fill="#FFFFFF" font-family="sans-serif" font-size="13" font-weight="bold" lengthAdjust="spacing" textLength="37" x="665" y="425.9888">1.5.6</text><text fill="#FFFFFF" font-family="sans-serif" font-size="13" lengthAdjust="spacing" textLength="112" x="706" y="425.9888">401 unauthorised</text><polygon fill="#E7E7E7" points="60,456.1875,50,460.1875,60,464.1875,56,460.1875" style="stroke:#E7E7E7;stroke-width:1.0;"/><line style="stroke:#E7E7E7;stroke-width:1.0;stroke-dasharray:2.0,2.0;" x1="54" x2="647" y1="460.1875" y2="460.1875"/><text fill="#FFFFFF" font-family="sans-serif" font-size="13" font-weight="bold" lengthAdjust="spacing" textLength="37" x="66" y="455.1216">1.5.7</text><text fill="#FFFFFF" font-family="sans-serif" font-size="13" lengthAdjust="spacing" textLength="225" x="107" y="455.1216">&#1047;&#1072;&#1082;&#1088;&#1099;&#1090;&#1080;&#1077; &#1092;&#1086;&#1088;&#1084;&#1099; &#1091;&#1093;&#1086;&#1076;&#1072; &#1074; &#1086;&#1090;&#1087;&#1091;&#1089;&#1082;</text><polygon fill="#E7E7E7" points="60,492.3203,50,496.3203,60,500.3203,56,496.3203" style="stroke:#E7E7E7;stroke-width:1.0;"/><line style="stroke:#E7E7E7;stroke-width:1.0;stroke-dasharray:2.0,2.0;" x1="54" x2="647" y1="496.3203" y2="496.3203"/><text fill="#FFFFFF" font-family="sans-serif" font-size="13" font-weight="bold" lengthAdjust="spacing" textLength="37" x="66" y="491.2544">1.5.8</text><text fill="#FFFFFF" font-family="sans-serif" font-size="13" lengthAdjust="spacing" textLength="301" x="107" y="491.2544">&#1054;&#1090;&#1086;&#1073;&#1088;&#1072;&#1078;&#1077;&#1085;&#1080;&#1077; &#1089;&#1086;&#1086;&#1073;&#1097;&#1077;&#1085;&#1080;&#1103; &#1086;&#1073; &#1091;&#1093;&#1086;&#1076;&#1077; &#1074; &#1086;&#1090;&#1087;&#1091;&#1089;&#1082;</text><path d="M20,511.3203 L90,511.3203 L90,518.4531 L80,528.4531 L20,528.4531 L20,511.3203 " fill="#555555" style="stroke:#FFFFFF;stroke-width:1.5;"/><rect fill="none" height="133.6641" style="stroke:#FFFFFF;stroke-width:1.5;" width="894.5" x="20" y="511.3203"/><text fill="#FFFFFF" font-family="sans-serif" font-size="13" font-weight="bold" lengthAdjust="spacing" textLength="25" x="35" y="524.3872">opt</text><polygon fill="#E7E7E7" points="636,545.5859,646,549.5859,636,553.5859,640,549.5859" style="stroke:#E7E7E7;stroke-width:1.0;"/><line style="stroke:#E7E7E7;stroke-width:1.0;" x1="49" x2="642" y1="549.5859" y2="549.5859"/><text fill="#FFFFFF" font-family="sans-serif" font-size="13" font-weight="bold" lengthAdjust="spacing" textLength="37" x="56" y="544.52">1.6.1</text><text fill="#FFFFFF" font-family="sans-serif" font-size="13" lengthAdjust="spacing" textLength="194" x="97" y="544.52">&#1053;&#1072;&#1078;&#1072;&#1090;&#1100; &#1085;&#1072; &#1079;&#1085;&#1072;&#1095;&#1086;&#1082; &#1082;&#1088;&#1077;&#1089;&#1090;&#1080;&#1082;&#1072;</text><polygon fill="#E7E7E7" points="873,574.7188,883,578.7188,873,582.7188,877,578.7188" style="stroke:#E7E7E7;stroke-width:1.0;"/><line style="stroke:#E7E7E7;stroke-width:1.0;" x1="648" x2="879" y1="578.7188" y2="578.7188"/><text fill="#FFFFFF" font-family="sans-serif" font-size="13" font-weight="bold" lengthAdjust="spacing" textLength="37" x="655" y="573.6528">1.6.2</text><text fill="#FFFFFF" font-family="sans-serif" font-size="13" lengthAdjust="spacing" textLength="172" x="696" y="573.6528">GET /reports/feed?limit=10</text><polygon fill="#E7E7E7" points="659,603.8516,649,607.8516,659,611.8516,655,607.8516" style="stroke:#E7E7E7;stroke-width:1.0;"/><line style="stroke:#E7E7E7;stroke-width:1.0;stroke-dasharray:2.0,2.0;" x1="653" x2="884" y1="607.8516" y2="607.8516"/><text fill="#FFFFFF" font-family="sans-serif" font-size="13" font-weight="bold" lengthAdjust="spacing" textLength="37" x="665" y="602.7856">1.6.3</text><text fill="#FFFFFF" font-family="sans-serif" font-size="13" lengthAdjust="spacing" textLength="46" x="706" y="602.7856">200 OK</text><polygon fill="#E7E7E7" points="60,632.9844,50,636.9844,60,640.9844,56,636.9844" style="stroke:#E7E7E7;stroke-width:1.0;"/><line style="stroke:#E7E7E7;stroke-width:1.0;stroke-dasharray:2.0,2.0;" x1="54" x2="647" y1="636.9844" y2="636.9844"/><text fill="#FFFFFF" font-family="sans-serif" font-size="13" font-weight="bold" lengthAdjust="spacing" textLength="37" x="66" y="631.9185">1.6.4</text><text fill="#FFFFFF" font-family="sans-serif" font-size="13" lengthAdjust="spacing" textLength="289" x="107" y="631.9185">&#1055;&#1086;&#1076;&#1090;&#1074;&#1077;&#1088;&#1078;&#1076;&#1077;&#1085;&#1080;&#1077; &#1086;&#1090;&#1084;&#1077;&#1085;&#1099; &#1086;&#1090;&#1087;&#1088;&#1072;&#1074;&#1082;&#1080; &#1092;&#1086;&#1088;&#1084;&#1099;</text><!--SRC=[bLFBJjj05DttAwwoQXU1fAAjX5IwG5M5kg0IvGCczb2i6Zkonulk4kXJGQtKJLVG1Jz0efeQapY_SEUFE3EsIDm4HBD8CdTyppttd6FbALyId-bFNF0VuX5neGzvgezqd_C7X8_z4euA8zgDPMIFNH4fp_6w8b2qksLBhb2Y8s997U6ydslq5UqaZYFZU2_noS4JPJrHOP0ST6H4xPMrbROj6dngRW1odVYd7l1Gz_XS7-fZq0AfpvpfxzJWCxu4oUnVkeqIP8kQ1WDOG3d5TL7Yy0MdFE6CKz8VqTVZiHuGMktkVBvq-ngbNm2Puk4h0sDftG0TtG543tcCiMRq60XN-XZ_2z3Wt89b-Wkdke-64HS4X0c8NjOW0DgaPu_cT9tNxyao_KxinfLw4yCgjsEdd8Dj1Mva6LMxDAnOjTfCqGthwpgzsTvvIwlxeU-vuaDihyr5AJd6FcwrQJEIGibRMcFlNH0cQbbdYxPVrvC3Hb-Xsj08iDYnXbb902NsmyYBfRl4VkDOhdjwOFBoNyRBm9rnkLUc-YYQyhUof7-Oq0vdSzBRNw-mgnPTVNe_L_-Q7oIeGD3ChbMKiXlDvZruzH8MHB8RHYfUtPFIVU5x1vvwtcxTQKXz_zzc7PlM5ECkp6gL1dQxiJb2u5h4ShokC_4N5SRX6W00]--></g></svg>