<?xml version="1.0" encoding="us-ascii" standalone="no"?><svg xmlns="http://www.w3.org/2000/svg" xmlns:xlink="http://www.w3.org/1999/xlink" contentStyleType="text/css" height="719px" preserveAspectRatio="none" style="width:815px;height:719px;background:#1B1B1B;" version="1.1" viewBox="0 0 815 719" width="815px" zoomAndPan="magnify"><defs/><g><rect fill="#1B1B1B" height="719" style="stroke:none;stroke-width:1.0;" width="815" x="0" y="0"/><text fill="#FFFFFF" font-family="sans-serif" font-size="14" font-weight="bold" lengthAdjust="spacing" textLength="96" x="360.75" y="27.9951">&#1052;&#1072;&#1089;&#1090;&#1077;&#1088;&#1089;&#1082;&#1072;&#1103;</text><rect fill="none" height="119.3359" style="stroke:#FFFFFF;stroke-width:1.5;" width="798.5" x="10" y="310.3906"/><rect fill="none" height="119.3359" style="stroke:#FFFFFF;stroke-width:1.5;" width="798.5" x="10" y="501.9922"/><line style="stroke:#E7E7E7;stroke-width:0.5;stroke-dasharray:5.0,5.0;" x1="39" x2="39" y1="118.5938" y2="638.3281"/><line style="stroke:#E7E7E7;stroke-width:0.5;stroke-dasharray:5.0,5.0;" x1="383.5" x2="383.5" y1="118.5938" y2="638.3281"/><line style="stroke:#E7E7E7;stroke-width:0.5;stroke-dasharray:5.0,5.0;" x1="778.5" x2="778.5" y1="118.5938" y2="638.3281"/><text fill="#FFFFFF" font-family="sans-serif" font-size="14" lengthAdjust="spacing" textLength="32" x="20" y="115.292">User</text><ellipse cx="39" cy="50.7969" fill="#222222" rx="8" ry="8" style="stroke:#E7E7E7;stroke-width:0.5;"/><path d="M39,58.7969 L39,85.7969 M26,66.7969 L52,66.7969 M39,85.7969 L26,100.7969 M39,85.7969 L52,100.7969 " fill="none" style="stroke:#E7E7E7;stroke-width:0.5;"/><text fill="#FFFFFF" font-family="sans-serif" font-size="14" lengthAdjust="spacing" textLength="32" x="20" y="650.3232">User</text><ellipse cx="39" cy="662.125" fill="#222222" rx="8" ry="8" style="stroke:#E7E7E7;stroke-width:0.5;"/><path d="M39,670.125 L39,697.125 M26,678.125 L52,678.125 M39,697.125 L26,712.125 M39,697.125 L52,712.125 " fill="none" style="stroke:#E7E7E7;stroke-width:0.5;"/><rect fill="#222222" height="30.2969" rx="2.5" ry="2.5" style="stroke:#E7E7E7;stroke-width:0.5;" width="27" x="370.5" y="87.2969"/><text fill="#FFFFFF" font-family="sans-serif" font-size="14" lengthAdjust="spacing" textLength="13" x="377.5" y="107.292">UI</text><rect fill="#222222" height="30.2969" rx="2.5" ry="2.5" style="stroke:#E7E7E7;stroke-width:0.5;" width="27" x="370.5" y="637.3281"/><text fill="#FFFFFF" font-family="sans-serif" font-size="14" lengthAdjust="spacing" textLength="13" x="377.5" y="657.3232">UI</text><text fill="#FFFFFF" font-family="sans-serif" font-size="14" lengthAdjust="spacing" textLength="33" x="759.5" y="115.292">back</text><path d="M761,66.2969 C761,56.2969 779,56.2969 779,56.2969 C779,56.2969 797,56.2969 797,66.2969 L797,92.2969 C797,102.2969 779,102.2969 779,102.2969 C779,102.2969 761,102.2969 761,92.2969 L761,66.2969 " fill="#222222" style="stroke:#E7E7E7;stroke-width:1.5;"/><path d="M761,66.2969 C761,76.2969 779,76.2969 779,76.2969 C779,76.2969 797,76.2969 797,66.2969 " fill="none" style="stroke:#E7E7E7;stroke-width:1.5;"/><text fill="#FFFFFF" font-family="sans-serif" font-size="14" lengthAdjust="spacing" textLength="33" x="759.5" y="650.3232">back</text><path d="M761,663.625 C761,653.625 779,653.625 779,653.625 C779,653.625 797,653.625 797,663.625 L797,689.625 C797,699.625 779,699.625 779,699.625 C779,699.625 761,699.625 761,689.625 L761,663.625 " fill="#222222" style="stroke:#E7E7E7;stroke-width:1.5;"/><path d="M761,663.625 C761,673.625 779,673.625 779,673.625 C779,673.625 797,673.625 797,663.625 " fill="none" style="stroke:#E7E7E7;stroke-width:1.5;"/><polygon fill="#E7E7E7" points="372,145.7266,382,149.7266,372,153.7266,376,149.7266" style="stroke:#E7E7E7;stroke-width:1.0;"/><line style="stroke:#E7E7E7;stroke-width:1.0;" x1="39" x2="378" y1="149.7266" y2="149.7266"/><text fill="#FFFFFF" font-family="sans-serif" font-size="13" font-weight="bold" lengthAdjust="spacing" textLength="37" x="46" y="144.6606">9.1.1</text><text fill="#FFFFFF" font-family="sans-serif" font-size="13" lengthAdjust="spacing" textLength="224" x="87" y="144.6606">&#1055;&#1086;&#1083;&#1091;&#1095;&#1080;&#1090;&#1100; &#1087;&#1088;&#1086;&#1077;&#1082;&#1090;&#1099; "&#1052;&#1072;&#1089;&#1090;&#1077;&#1088;&#1089;&#1082;&#1086;&#1081;"</text><polygon fill="#E7E7E7" points="767,174.8594,777,178.8594,767,182.8594,771,178.8594" style="stroke:#E7E7E7;stroke-width:1.0;"/><line style="stroke:#E7E7E7;stroke-width:1.0;" x1="384" x2="773" y1="178.8594" y2="178.8594"/><text fill="#FFFFFF" font-family="sans-serif" font-size="13" font-weight="bold" lengthAdjust="spacing" textLength="37" x="391" y="173.7935">9.1.2</text><text fill="#FFFFFF" font-family="sans-serif" font-size="13" lengthAdjust="spacing" textLength="315" x="432" y="173.7935">GET /workshop/project/show_projects_for_student</text><polygon fill="#E7E7E7" points="395,203.9922,385,207.9922,395,211.9922,391,207.9922" style="stroke:#E7E7E7;stroke-width:1.0;"/><line style="stroke:#E7E7E7;stroke-width:1.0;stroke-dasharray:2.0,2.0;" x1="389" x2="778" y1="207.9922" y2="207.9922"/><text fill="#FFFFFF" font-family="sans-serif" font-size="13" font-weight="bold" lengthAdjust="spacing" textLength="37" x="401" y="202.9263">9.1.3</text><text fill="#FFFFFF" font-family="sans-serif" font-size="13" lengthAdjust="spacing" textLength="46" x="442" y="202.9263">200 OK</text><polygon fill="#E7E7E7" points="50,233.125,40,237.125,50,241.125,46,237.125" style="stroke:#E7E7E7;stroke-width:1.0;"/><line style="stroke:#E7E7E7;stroke-width:1.0;" x1="44" x2="383" y1="237.125" y2="237.125"/><text fill="#FFFFFF" font-family="sans-serif" font-size="13" font-weight="bold" lengthAdjust="spacing" textLength="37" x="56" y="232.0591">9.1.4</text><text fill="#FFFFFF" font-family="sans-serif" font-size="13" lengthAdjust="spacing" textLength="231" x="97" y="232.0591">&#1054;&#1090;&#1086;&#1073;&#1088;&#1072;&#1078;&#1077;&#1085;&#1099; &#1076;&#1086;&#1089;&#1090;&#1091;&#1087;&#1085;&#1099;&#1077; &#1087;&#1088;&#1086;&#1077;&#1082;&#1090;&#1099;</text><polygon fill="#E7E7E7" points="372,262.2578,382,266.2578,372,270.2578,376,266.2578" style="stroke:#E7E7E7;stroke-width:1.0;"/><line style="stroke:#E7E7E7;stroke-width:1.0;" x1="39" x2="378" y1="266.2578" y2="266.2578"/><text fill="#FFFFFF" font-family="sans-serif" font-size="13" font-weight="bold" lengthAdjust="spacing" textLength="37" x="46" y="261.1919">9.2.1</text><text fill="#FFFFFF" font-family="sans-serif" font-size="13" lengthAdjust="spacing" textLength="230" x="87" y="261.1919">&#1055;&#1086;&#1083;&#1091;&#1095;&#1080;&#1090;&#1100; &#1080;&#1085;&#1092;&#1086;&#1088;&#1084;&#1072;&#1094;&#1080;&#1102; &#1086; &#1087;&#1088;&#1086;&#1077;&#1082;&#1090;&#1077;</text><polygon fill="#E7E7E7" points="767,291.3906,777,295.3906,767,299.3906,771,295.3906" style="stroke:#E7E7E7;stroke-width:1.0;"/><line style="stroke:#E7E7E7;stroke-width:1.0;" x1="384" x2="773" y1="295.3906" y2="295.3906"/><text fill="#FFFFFF" font-family="sans-serif" font-size="13" font-weight="bold" lengthAdjust="spacing" textLength="37" x="391" y="290.3247">9.2.2</text><text fill="#FFFFFF" font-family="sans-serif" font-size="13" lengthAdjust="spacing" textLength="330" x="432" y="290.3247">GET /workshop/project/{id}/show_detail_for_student</text><path d="M10,310.3906 L74,310.3906 L74,317.5234 L64,327.5234 L10,327.5234 L10,310.3906 " fill="#555555" style="stroke:#FFFFFF;stroke-width:1.5;"/><rect fill="none" height="119.3359" style="stroke:#FFFFFF;stroke-width:1.5;" width="798.5" x="10" y="310.3906"/><text fill="#FFFFFF" font-family="sans-serif" font-size="13" font-weight="bold" lengthAdjust="spacing" textLength="19" x="25" y="323.4575">alt</text><text fill="#FFFFFF" font-family="sans-serif" font-size="11" font-weight="bold" lengthAdjust="spacing" textLength="112" x="89" y="322.6011">[successful case]</text><polygon fill="#E7E7E7" points="395,344.6563,385,348.6563,395,352.6563,391,348.6563" style="stroke:#E7E7E7;stroke-width:1.0;"/><line style="stroke:#E7E7E7;stroke-width:1.0;stroke-dasharray:2.0,2.0;" x1="389" x2="778" y1="348.6563" y2="348.6563"/><text fill="#FFFFFF" font-family="sans-serif" font-size="13" font-weight="bold" lengthAdjust="spacing" textLength="37" x="401" y="343.5903">9.2.3</text><text fill="#FFFFFF" font-family="sans-serif" font-size="13" lengthAdjust="spacing" textLength="46" x="442" y="343.5903">200 OK</text><polygon fill="#E7E7E7" points="50,373.7891,40,377.7891,50,381.7891,46,377.7891" style="stroke:#E7E7E7;stroke-width:1.0;"/><line style="stroke:#E7E7E7;stroke-width:1.0;" x1="44" x2="383" y1="377.7891" y2="377.7891"/><text fill="#FFFFFF" font-family="sans-serif" font-size="13" font-weight="bold" lengthAdjust="spacing" textLength="37" x="56" y="372.7231">9.2.4</text><text fill="#FFFFFF" font-family="sans-serif" font-size="13" lengthAdjust="spacing" textLength="254" x="97" y="372.7231">&#1054;&#1090;&#1086;&#1073;&#1088;&#1072;&#1078;&#1077;&#1085;&#1072; &#1087;&#1086;&#1076;&#1088;&#1086;&#1073;&#1085;&#1072;&#1103; &#1080;&#1085;&#1092;&#1086;&#1088;&#1084;&#1072;&#1094;&#1080;&#1103;</text><line style="stroke:#FFFFFF;stroke-width:1.0;stroke-dasharray:2.0,2.0;" x1="10" x2="808.5" y1="386.7891" y2="386.7891"/><text fill="#FFFFFF" font-family="sans-serif" font-size="11" font-weight="bold" lengthAdjust="spacing" textLength="41" x="15" y="396.9995">[error]</text><polygon fill="#E7E7E7" points="395,417.7266,385,421.7266,395,425.7266,391,421.7266" style="stroke:#E7E7E7;stroke-width:1.0;"/><line style="stroke:#E7E7E7;stroke-width:1.0;stroke-dasharray:2.0,2.0;" x1="389" x2="778" y1="421.7266" y2="421.7266"/><text fill="#FFFFFF" font-family="sans-serif" font-size="13" font-weight="bold" lengthAdjust="spacing" textLength="37" x="401" y="416.6606">9.2.5</text><text fill="#FFFFFF" font-family="sans-serif" font-size="13" lengthAdjust="spacing" textLength="114" x="442" y="416.6606">401 Unauthorized</text><polygon fill="#E7E7E7" points="372,453.8594,382,457.8594,372,461.8594,376,457.8594" style="stroke:#E7E7E7;stroke-width:1.0;"/><line style="stroke:#E7E7E7;stroke-width:1.0;" x1="39" x2="378" y1="457.8594" y2="457.8594"/><text fill="#FFFFFF" font-family="sans-serif" font-size="13" font-weight="bold" lengthAdjust="spacing" textLength="37" x="46" y="452.7935">9.3.1</text><text fill="#FFFFFF" font-family="sans-serif" font-size="13" lengthAdjust="spacing" textLength="202" x="87" y="452.7935">&#1054;&#1090;&#1087;&#1088;&#1072;&#1074;&#1080;&#1090;&#1100; &#1086;&#1090;&#1082;&#1083;&#1080;&#1082; &#1085;&#1072; &#1087;&#1088;&#1086;&#1077;&#1082;&#1090;</text><polygon fill="#E7E7E7" points="767,482.9922,777,486.9922,767,490.9922,771,486.9922" style="stroke:#E7E7E7;stroke-width:1.0;"/><line style="stroke:#E7E7E7;stroke-width:1.0;" x1="384" x2="773" y1="486.9922" y2="486.9922"/><text fill="#FFFFFF" font-family="sans-serif" font-size="13" font-weight="bold" lengthAdjust="spacing" textLength="37" x="391" y="481.9263">9.3.2</text><text fill="#FFFFFF" font-family="sans-serif" font-size="13" lengthAdjust="spacing" textLength="172" x="432" y="481.9263">POST /workshop/responses</text><path d="M10,501.9922 L74,501.9922 L74,509.125 L64,519.125 L10,519.125 L10,501.9922 " fill="#555555" style="stroke:#FFFFFF;stroke-width:1.5;"/><rect fill="none" height="119.3359" style="stroke:#FFFFFF;stroke-width:1.5;" width="798.5" x="10" y="501.9922"/><text fill="#FFFFFF" font-family="sans-serif" font-size="13" font-weight="bold" lengthAdjust="spacing" textLength="19" x="25" y="515.0591">alt</text><text fill="#FFFFFF" font-family="sans-serif" font-size="11" font-weight="bold" lengthAdjust="spacing" textLength="112" x="89" y="514.2026">[successful case]</text><polygon fill="#E7E7E7" points="395,536.2578,385,540.2578,395,544.2578,391,540.2578" style="stroke:#E7E7E7;stroke-width:1.0;"/><line style="stroke:#E7E7E7;stroke-width:1.0;stroke-dasharray:2.0,2.0;" x1="389" x2="778" y1="540.2578" y2="540.2578"/><text fill="#FFFFFF" font-family="sans-serif" font-size="13" font-weight="bold" lengthAdjust="spacing" textLength="37" x="401" y="535.1919">9.3.3</text><text fill="#FFFFFF" font-family="sans-serif" font-size="13" lengthAdjust="spacing" textLength="79" x="442" y="535.1919">201 Created</text><polygon fill="#E7E7E7" points="50,565.3906,40,569.3906,50,573.3906,46,569.3906" style="stroke:#E7E7E7;stroke-width:1.0;"/><line style="stroke:#E7E7E7;stroke-width:1.0;" x1="44" x2="383" y1="569.3906" y2="569.3906"/><text fill="#FFFFFF" font-family="sans-serif" font-size="13" font-weight="bold" lengthAdjust="spacing" textLength="37" x="56" y="564.3247">9.3.4</text><text fill="#FFFFFF" font-family="sans-serif" font-size="13" lengthAdjust="spacing" textLength="280" x="97" y="564.3247">push-&#1091;&#1074;&#1077;&#1076;&#1086;&#1084;&#1083;&#1077;&#1085;&#1080;&#1077; &#1086;&#1073; &#1086;&#1090;&#1082;&#1083;&#1080;&#1082;&#1077; &#1085;&#1072; &#1087;&#1088;&#1086;&#1077;&#1082;&#1090;</text><line style="stroke:#FFFFFF;stroke-width:1.0;stroke-dasharray:2.0,2.0;" x1="10" x2="808.5" y1="578.3906" y2="578.3906"/><text fill="#FFFFFF" font-family="sans-serif" font-size="11" font-weight="bold" lengthAdjust="spacing" textLength="41" x="15" y="588.6011">[error]</text><polygon fill="#E7E7E7" points="395,609.3281,385,613.3281,395,617.3281,391,613.3281" style="stroke:#E7E7E7;stroke-width:1.0;"/><line style="stroke:#E7E7E7;stroke-width:1.0;stroke-dasharray:2.0,2.0;" x1="389" x2="778" y1="613.3281" y2="613.3281"/><text fill="#FFFFFF" font-family="sans-serif" font-size="13" font-weight="bold" lengthAdjust="spacing" textLength="37" x="401" y="608.2622">9.3.5</text><text fill="#FFFFFF" font-family="sans-serif" font-size="13" lengthAdjust="spacing" textLength="106" x="442" y="608.2622">400 Bad request</text><!--SRC=[dPBDJXin58NtVeehzY49i05LB5gX2h48KiawScOkoi0m7coFa8gGme_eeXLv0KHV8I1IXGGcht3zHhrEWfe9HI2MzyY-vpl7jf6D4UYQkkxKdL7FjTqf3NZg2243gpJK3MgHIcsZ84fbOg6-AK9fPLCQXAOCzlbWPbMI7JHHm-fYTR4g_1qehVFHDQ3VbDFGdRiVr7TdxXVGoBLPwj60nv-myC8yfuS5KT_q2_p-DVYwiGFb8wNtJKkbvLIhFGnicOUZndGmZLsb6yPc8IPM-5jGclelLIfGsveWVIfDa6xOBQTRvkZI7oPvOWwwfznZk7CQUO5wSwHpEPVUpDddDHUyj4sFdF2IvIkWlB2LUky8UXo59vEq8LePnOMiChPWiY10OtQp609-bG_afovZiNG_HhlrWklyBq57OCplZbehNVHPgLIXdd15BQMZxnWAJCAvofRdA_CSep75tNDfEKi36hBr0APS_-egbBLT-pRRbaQJgiIWUKybLVYYKLgcdEqbpKohnEz_nsxy6pZqS5nEt_y5hgL0vxKNVA-NKu7FCWIDXnaQwxlv2m00]--></g></svg>